<svg width="664" height="69" viewBox="0 0 664 69" fill="none" xmlns="http://www.w3.org/2000/svg">
<path d="M6.8 66.925C4.8 66.925 3.3 66.375 2.3 65.275C1.3 64.175 0.8 63.05 0.8 61.9C0.8 60.55 1.05 59.525 1.55 58.825C2.05 58.125 3.025 57.6 4.475 57.25C6.375 56.85 8.35 56.35 10.4 55.75C12.5 55.15 14.5 54.525 16.4 53.875C18.35 53.175 20.05 52.475 21.5 51.775C22.95 51.025 24 50.325 24.65 49.675C23.85 49.225 22.575 48.7 20.825 48.1C19.075 47.45 17.125 46.7 14.975 45.85C12.875 44.95 10.85 43.9 8.9 42.7C6.95 41.5 5.35 40.1 4.1 38.5C2.85 36.9 2.225 35.075 2.225 33.025C2.225 30.175 2.95 27.5 4.4 25C5.85 22.5 7.775 20.175 10.175 18.025C12.575 15.875 15.175 13.9 17.975 12.1C20.825 10.3 23.65 8.675 26.45 7.225C29.3 5.725 31.85 4.4 34.1 3.25C34.95 2.75 35.75 2.425 36.5 2.275C37.3 2.075 38.025 1.975 38.675 1.975C40.925 1.975 42.475 2.525 43.325 3.62499C44.175 4.725 44.6 5.85 44.6 7C44.6 7.8 44.225 8.75 43.475 9.85C42.725 10.9 41.525 11.875 39.875 12.775C38.275 13.675 36.15 14.325 33.5 14.725C33.05 14.775 32.65 14.825 32.3 14.875C30.3 15.875 28.15 17.075 25.85 18.475C23.55 19.875 21.375 21.35 19.325 22.9C17.325 24.4 15.675 25.9 14.375 27.4C13.075 28.9 12.425 30.25 12.425 31.45C12.425 32.8 12.975 34.025 14.075 35.125C15.175 36.175 16.575 37.15 18.275 38.05C20.025 38.9 21.85 39.725 23.75 40.525C25.7 41.325 27.525 42.15 29.225 43C30.975 43.8 32.4 44.7 33.5 45.7C34.6 46.7 35.15 47.825 35.15 49.075C35.15 50.775 34.575 52.4 33.425 53.95C32.275 55.5 30.775 56.95 28.925 58.3C27.075 59.6 25.05 60.775 22.85 61.825C20.65 62.875 18.475 63.775 16.325 64.525C14.225 65.325 12.325 65.925 10.625 66.325C8.925 66.725 7.65 66.925 6.8 66.925ZM53.7805 65.125C52.3805 65.125 51.1305 64.65 50.0305 63.7C48.9805 62.75 48.4555 61.2 48.4555 59.05C48.4555 57.9 48.6055 56.275 48.9055 54.175C49.2555 52.075 49.7055 49.8 50.2555 47.35C50.8055 44.85 51.4055 42.375 52.0555 39.925C52.7555 37.475 53.4305 35.3 54.0805 33.4C54.7305 31.45 55.3055 30 55.8055 29.05C56.4555 27.9 57.0555 27.2 57.6055 26.95C58.2055 26.65 58.7805 26.5 59.3305 26.5C60.3305 26.5 61.2555 26.8 62.1055 27.4C63.0055 28 63.4555 29.325 63.4555 31.375C63.4555 32.175 63.3055 33.475 63.0055 35.275C62.7055 37.025 62.3305 39.075 61.8805 41.425C61.4305 43.775 60.9305 46.2 60.3805 48.7C59.8805 51.2 59.3805 53.575 58.8805 55.825C58.4305 58.025 58.0555 59.875 57.7555 61.375C57.5055 62.625 56.9805 63.55 56.1805 64.15C55.4305 64.8 54.6305 65.125 53.7805 65.125ZM62.4055 19.075C60.7555 19.075 59.2305 18.6 57.8305 17.65C56.4305 16.65 55.7305 15.125 55.7305 13.075C55.7305 11.375 56.1555 10 57.0055 8.95C57.8555 7.9 58.8555 7.15 60.0055 6.7C61.2055 6.2 62.2555 5.95 63.1555 5.95C64.0555 5.95 65.0555 6.15 66.1555 6.55C67.2555 6.9 68.2055 7.575 69.0055 8.575C69.8555 9.525 70.2805 10.9 70.2805 12.7C70.2805 13.9 69.8555 15 69.0055 16C68.1555 16.95 67.1055 17.7 65.8555 18.25C64.6555 18.8 63.5055 19.075 62.4055 19.075ZM140.769 62.275C140.469 64.975 138.869 66.325 135.969 66.325C134.469 66.325 133.269 65.875 132.369 64.975C131.519 64.075 131.094 62.775 131.094 61.075C131.094 58.175 131.219 55.075 131.469 51.775C131.769 48.425 132.119 45.05 132.519 41.65C132.969 38.25 133.394 35 133.794 31.9C131.994 34.5 130.094 37.175 128.094 39.925C126.094 42.675 124.094 45.35 122.094 47.95C120.094 50.55 118.169 52.9 116.319 55C114.519 57.05 112.869 58.7 111.369 59.95C109.869 61.15 108.619 61.75 107.619 61.75C105.219 61.75 103.144 60.875 101.394 59.125C99.6443 57.325 98.7693 55.05 98.7693 52.3C98.7693 51.35 98.8693 50.075 99.0693 48.475C99.2693 46.825 99.5193 45.075 99.8193 43.225C100.119 41.375 100.369 39.625 100.569 37.975C100.769 36.325 100.869 35.025 100.869 34.075C100.869 34.075 100.869 34.025 100.869 33.925C100.919 33.675 100.869 33.55 100.719 33.55C100.519 33.55 99.9693 34.225 99.0693 35.575C98.1693 36.875 97.0693 38.575 95.7693 40.675C94.4693 42.775 93.0943 44.975 91.6443 47.275C90.2443 49.575 88.9193 51.725 87.6693 53.725C86.4693 55.725 85.4693 57.275 84.6693 58.375C83.5693 60.075 82.5443 61.15 81.5943 61.6C80.6443 62.05 79.5443 62.275 78.2943 62.275C76.5443 62.275 75.1693 61.7 74.1693 60.55C73.2193 59.35 72.7443 57.675 72.7443 55.525C72.7443 54.625 72.8943 53.225 73.1943 51.325C73.5443 49.425 73.9693 47.325 74.4693 45.025C74.9693 42.675 75.4693 40.4 75.9693 38.2C76.5193 35.95 76.9943 34.05 77.3943 32.5C77.8443 30.45 78.4693 29.025 79.2693 28.225C80.1193 27.375 81.1943 26.95 82.4943 26.95C85.5443 26.95 87.0693 28.45 87.0693 31.45C87.0693 32 86.8943 32.9 86.5443 34.15C86.1943 35.4 85.7693 36.85 85.2693 38.5C84.7693 40.15 84.2443 41.85 83.6943 43.6C83.1443 45.3 82.6943 46.9 82.3443 48.4C83.5443 46.3 84.8443 44.05 86.2443 41.65C87.6443 39.25 89.0693 36.9 90.5193 34.6C92.0193 32.3 93.4943 30.2 94.9443 28.3C96.4443 26.4 97.9193 24.9 99.3693 23.8C100.819 22.65 102.194 22.075 103.494 22.075C104.794 22.075 106.069 22.55 107.319 23.5C108.569 24.4 109.594 25.575 110.394 27.025C111.244 28.425 111.669 29.925 111.669 31.525C111.669 33.025 111.469 34.825 111.069 36.925C110.669 39.025 110.219 41.225 109.719 43.525C109.219 45.825 108.869 48.075 108.669 50.275C110.369 48.375 112.169 46.225 114.069 43.825C115.969 41.375 117.919 38.85 119.919 36.25C121.919 33.65 123.869 31.125 125.769 28.675C127.719 26.225 129.519 24 131.169 22C132.869 20 134.369 18.425 135.669 17.275C136.969 16.075 137.969 15.475 138.669 15.475C140.719 15.475 142.319 16.025 143.469 17.125C144.669 18.175 145.269 20.025 145.269 22.675C145.269 24.325 145.144 26.475 144.894 29.125C144.694 31.775 144.394 34.65 143.994 37.75C143.644 40.8 143.244 43.9 142.794 47.05C142.394 50.15 142.019 53.025 141.669 55.675C141.319 58.325 141.019 60.525 140.769 62.275ZM206.243 67.825C204.293 67.825 202.868 67.3 201.968 66.25C201.068 65.25 200.618 63.225 200.618 60.175C200.618 57.575 201.043 54.2 201.893 50.05C202.743 45.9 203.693 41.425 204.743 36.625C199.193 42.825 192.793 46.775 185.543 48.475C184.093 51.475 182.393 54.225 180.443 56.725C178.493 59.225 176.368 61.25 174.068 62.8C171.818 64.3 169.468 65.05 167.018 65.05C163.968 65.05 161.343 64.05 159.143 62.05C156.993 60.05 155.918 56.975 155.918 52.825C155.918 50.025 156.343 47.65 157.193 45.7C158.043 43.7 159.018 42.2 160.118 41.2C159.218 39.3 158.768 37.125 158.768 34.675C158.768 31.375 159.668 28.45 161.468 25.9C163.268 23.35 165.643 21.35 168.593 19.9C171.593 18.45 174.843 17.725 178.343 17.725C180.293 17.725 182.143 18.225 183.893 19.225C185.693 20.175 187.143 21.65 188.243 23.65C189.393 25.6 189.968 28.075 189.968 31.075C189.968 33.575 189.593 36.325 188.843 39.325C192.393 37.225 195.893 34.35 199.343 30.7C202.843 27.05 205.968 22.95 208.718 18.4C209.568 17.05 210.768 16.375 212.318 16.375C213.618 16.375 214.643 16.775 215.393 17.575C216.193 18.325 216.593 19.325 216.593 20.575C216.593 20.825 216.443 21.65 216.143 23.05C215.843 24.45 215.443 26.275 214.943 28.525C214.443 30.725 213.893 33.15 213.293 35.8C212.743 38.45 212.193 41.15 211.643 43.9C211.093 46.65 210.593 49.25 210.143 51.7C211.443 49.35 212.843 46.85 214.343 44.2C215.893 41.5 217.493 38.85 219.143 36.25C220.793 33.6 222.418 31.2 224.018 29.05C225.618 26.9 227.093 25.2 228.443 23.95C229.793 22.65 230.943 22 231.893 22C233.793 22 235.393 22.55 236.693 23.65C237.993 24.75 238.643 25.875 238.643 27.025C238.643 28.175 238.518 29.95 238.268 32.35C238.018 34.75 237.693 37.45 237.293 40.45C236.943 43.4 236.568 46.375 236.168 49.375C235.768 52.375 235.443 55.1 235.193 57.55C234.943 59.95 234.818 61.75 234.818 62.95C234.818 63.95 234.343 64.9 233.393 65.8C232.443 66.7 231.368 67.15 230.168 67.15C230.068 67.15 229.893 67.15 229.643 67.15C229.043 67.2 228.493 67.1 227.993 66.85C227.493 66.65 227.068 65.9 226.718 64.6C226.418 63.3 226.268 61.1 226.268 58C226.268 55.9 226.368 53.6 226.568 51.1C226.768 48.6 227.018 46.1 227.318 43.6C227.668 41.05 228.043 38.675 228.443 36.475C227.143 38.625 225.693 41.075 224.093 43.825C222.543 46.525 220.918 49.3 219.218 52.15C217.518 54.95 215.843 57.55 214.193 59.95C212.593 62.3 211.093 64.2 209.693 65.65C208.343 67.1 207.193 67.825 206.243 67.825ZM178.043 42.775C178.693 40.825 179.218 38.8 179.618 36.7C180.018 34.55 180.218 32.45 180.218 30.4C180.218 29.55 180.043 28.725 179.693 27.925C179.343 27.125 178.743 26.725 177.893 26.725C176.193 26.725 174.518 27.075 172.868 27.775C171.268 28.475 169.943 29.475 168.893 30.775C167.843 32.075 167.318 33.625 167.318 35.425C167.318 37.025 167.843 38.375 168.893 39.475C169.993 40.575 171.343 41.4 172.943 41.95C174.593 42.5 176.218 42.775 177.818 42.775C177.868 42.775 177.943 42.775 178.043 42.775ZM174.968 49.375C173.218 49.325 171.518 49.1 169.868 48.7C168.218 48.25 166.718 47.625 165.368 46.825C165.218 47.625 165.068 48.4 164.918 49.15C164.768 49.85 164.693 50.525 164.693 51.175C164.693 52.275 164.868 53.275 165.218 54.175C165.618 55.025 166.418 55.45 167.618 55.45C168.868 55.45 170.118 54.9 171.368 53.8C172.668 52.7 173.868 51.225 174.968 49.375ZM263.093 66.55C259.993 66.55 257.493 65.475 255.593 63.325C253.693 61.125 252.743 57.6 252.743 52.75C252.743 49.65 253.093 46.55 253.793 43.45C254.543 40.3 255.568 37.325 256.868 34.525C258.218 31.675 259.768 29.15 261.518 26.95C263.318 24.75 265.293 23.025 267.443 21.775C269.593 20.475 271.818 19.825 274.118 19.825C278.018 19.825 281.068 20.875 283.268 22.975C285.468 25.075 286.568 27.75 286.568 31C286.568 33.5 285.868 35.775 284.468 37.825C283.118 39.825 281.268 41.625 278.918 43.225C276.568 44.825 273.943 46.275 271.043 47.575C268.143 48.875 265.168 50.05 262.118 51.1C261.868 52.9 261.743 54.5 261.743 55.9C261.743 56.75 262.218 57.175 263.168 57.175C265.418 57.175 267.818 56.825 270.368 56.125C272.968 55.375 275.593 54.425 278.243 53.275C280.893 52.075 283.443 50.85 285.893 49.6C288.343 48.3 290.568 47.075 292.568 45.925C294.618 44.725 296.293 43.775 297.593 43.075C298.943 42.325 299.818 41.95 300.218 41.95C301.318 41.95 302.118 42.275 302.618 42.925C303.118 43.575 303.368 44.275 303.368 45.025C303.368 45.375 302.693 46.15 301.343 47.35C300.043 48.55 298.243 49.975 295.943 51.625C293.693 53.225 291.143 54.9 288.293 56.65C285.493 58.35 282.568 59.975 279.518 61.525C276.518 63.025 273.593 64.225 270.743 65.125C267.943 66.075 265.393 66.55 263.093 66.55ZM263.393 44.425C265.443 43.225 267.468 41.975 269.468 40.675C271.518 39.325 273.218 37.825 274.568 36.175C275.918 34.475 276.593 32.5 276.593 30.25C276.593 29.6 276.418 29.175 276.068 28.975C275.718 28.725 275.218 28.6 274.568 28.6C272.818 28.6 271.218 29.375 269.768 30.925C268.368 32.475 267.118 34.475 266.018 36.925C264.968 39.325 264.093 41.825 263.393 44.425ZM340.197 68.575C338.747 68.575 337.597 68.175 336.747 67.375C335.947 66.625 335.547 65.55 335.547 64.15C335.547 62.85 335.897 61.75 336.597 60.85C337.297 59.9 338.647 59 340.647 58.15C340.797 58.1 340.947 58.05 341.097 58C339.847 57.75 338.972 57.05 338.472 55.9C338.022 54.75 337.797 53.425 337.797 51.925C337.797 51.075 337.947 49.7 338.247 47.8C338.547 45.9 338.922 43.725 339.372 41.275C339.822 38.825 340.297 36.4 340.797 34C341.297 31.55 341.722 29.4 342.072 27.55C343.022 23.3 344.247 19.55 345.747 16.3C347.247 13.05 349.272 10.525 351.822 8.725C354.372 6.875 357.647 5.95 361.647 5.95C364.697 5.95 367.697 6.6 370.647 7.9C373.647 9.15 376.372 10.925 378.822 13.225C381.272 15.525 383.222 18.225 384.672 21.325C386.172 24.425 386.922 27.825 386.922 31.525C386.922 35.725 385.272 39.95 381.972 44.2C378.672 48.45 374.047 52.525 368.097 56.425C362.197 60.275 355.297 63.75 347.397 66.85C346.097 67.35 344.922 67.75 343.872 68.05C342.872 68.4 341.647 68.575 340.197 68.575ZM346.647 55.825C353.897 52.925 359.747 50.15 364.197 47.5C368.647 44.85 371.872 42.05 373.872 39.1C375.922 36.15 376.947 32.8 376.947 29.05C376.947 26.95 376.247 24.95 374.847 23.05C373.447 21.15 371.647 19.625 369.447 18.475C367.247 17.275 364.922 16.675 362.472 16.675C359.822 16.675 357.697 17.75 356.097 19.9C354.497 22 353.222 25.6 352.272 30.7C351.822 32.75 351.347 34.975 350.847 37.375C350.397 39.725 349.947 42 349.497 44.2C349.097 46.35 348.747 48.15 348.447 49.6C348.197 51.05 348.047 51.9 347.997 52.15C347.747 53.65 347.297 54.875 346.647 55.825ZM425.441 67.375C424.291 67.375 423.241 66.9 422.291 65.95C421.391 65.05 420.941 63.525 420.941 61.375C420.941 59.775 421.066 57.55 421.316 54.7C421.616 51.8 422.166 48.075 422.966 43.525C421.216 47.125 419.391 50.325 417.491 53.125C415.591 55.925 413.716 58.125 411.866 59.725C410.066 61.275 408.341 62.05 406.691 62.05C404.041 62.05 401.941 61.25 400.391 59.65C398.841 58 398.066 54.925 398.066 50.425C398.066 48.275 398.241 45.85 398.591 43.15C398.991 40.45 399.491 37.75 400.091 35.05C400.691 32.35 401.291 29.95 401.891 27.85C402.541 25.7 403.116 24.1 403.616 23.05C404.016 22.15 404.516 21.45 405.116 20.95C405.766 20.45 406.591 20.2 407.591 20.2C409.191 20.2 410.416 20.725 411.266 21.775C412.116 22.825 412.541 23.9 412.541 25C412.541 25.85 412.341 27.075 411.941 28.675C411.591 30.275 411.141 32.05 410.591 34C410.091 35.95 409.566 37.95 409.016 40C408.466 42.05 407.991 43.975 407.591 45.775C407.241 47.575 407.066 49.1 407.066 50.35C407.066 51.9 407.666 52.675 408.866 52.675C409.566 52.675 410.466 52 411.566 50.65C412.716 49.3 413.916 47.5 415.166 45.25C416.466 42.95 417.766 40.45 419.066 37.75C420.416 35 421.641 32.225 422.741 29.425C423.891 26.575 424.866 23.95 425.666 21.55C426.166 20.05 426.841 19 427.691 18.4C428.541 17.8 429.516 17.5 430.616 17.5C432.316 17.5 433.616 17.975 434.516 18.925C435.466 19.875 435.941 21.225 435.941 22.975C435.941 23.775 435.816 25.125 435.566 27.025C435.316 28.925 434.991 31.15 434.591 33.7C434.241 36.25 433.816 38.95 433.316 41.8C432.816 44.65 432.316 47.45 431.816 50.2C431.366 52.95 430.916 55.475 430.466 57.775C430.016 60.025 429.641 61.825 429.341 63.175C428.841 65.175 428.241 66.375 427.541 66.775C426.841 67.175 426.141 67.375 425.441 67.375ZM452.81 64C451.61 64 450.41 63.6 449.21 62.8C448.06 61.95 447.11 60.75 446.36 59.2C445.61 57.6 445.235 55.675 445.235 53.425C445.235 50.425 445.635 47.225 446.435 43.825C447.285 40.425 448.31 37.025 449.51 33.625C450.71 30.225 451.885 27.025 453.035 24.025C453.585 22.575 454.26 21.6 455.06 21.1C455.86 20.55 456.91 20.275 458.21 20.275C461.16 20.275 462.635 21.75 462.635 24.7C462.635 25.2 462.41 26.175 461.96 27.625C461.51 29.025 460.91 30.75 460.16 32.8C459.46 34.85 458.71 37.075 457.91 39.475C457.16 41.825 456.46 44.225 455.81 46.675C455.21 49.075 454.735 51.35 454.385 53.5C455.535 51.75 456.81 49.575 458.21 46.975C459.66 44.325 461.185 41.55 462.785 38.65C464.435 35.75 466.085 33.05 467.735 30.55C469.385 28 471.01 25.925 472.61 24.325C474.21 22.725 475.735 21.925 477.185 21.925C478.435 21.925 479.61 22.175 480.71 22.675C481.86 23.125 482.86 24.025 483.71 25.375C484.56 26.675 485.21 28.55 485.66 31C486.16 33.45 486.41 36.675 486.41 40.675C486.41 42.675 486.585 44.625 486.935 46.525C487.335 48.375 487.985 49.925 488.885 51.175C489.785 52.375 491.06 52.975 492.71 52.975C495.56 52.975 498.11 52.45 500.36 51.4C502.61 50.35 504.585 49.125 506.285 47.725C507.985 46.325 509.41 45.1 510.56 44.05C511.26 43.35 511.86 42.8 512.36 42.4C512.91 42 513.36 41.8 513.71 41.8C514.76 41.8 515.51 42.075 515.96 42.625C516.46 43.175 516.71 43.925 516.71 44.875C516.71 45.375 516.285 46.3 515.435 47.65C514.585 49 513.385 50.55 511.835 52.3C510.335 54 508.61 55.65 506.66 57.25C504.71 58.85 502.61 60.175 500.36 61.225C498.11 62.275 495.81 62.8 493.46 62.8C489.51 62.8 486.235 62.1 483.635 60.7C481.085 59.25 479.185 56.85 477.935 53.5C476.685 50.1 476.06 45.475 476.06 39.625C476.06 39.475 476.06 39.225 476.06 38.875C476.06 37.325 476.035 35.95 475.985 34.75C475.985 33.55 475.91 32.575 475.76 31.825C474.91 33.375 473.885 35.225 472.685 37.375C471.535 39.525 470.285 41.825 468.935 44.275C467.585 46.675 466.185 49.05 464.735 51.4C463.285 53.7 461.835 55.8 460.385 57.7C458.985 59.6 457.635 61.125 456.335 62.275C455.035 63.425 453.86 64 452.81 64ZM518.887 66.325C515.887 66.325 513.812 65.725 512.662 64.525C511.562 63.375 511.012 61.775 511.012 59.725C511.012 51.025 512.637 41.95 515.887 32.5C519.187 23 523.812 13.475 529.762 3.925C530.762 2.275 531.587 1.3 532.237 0.999997C532.887 0.699998 533.612 0.549999 534.412 0.549999C535.562 0.549999 536.562 0.949998 537.412 1.75C538.312 2.55 538.762 3.6 538.762 4.9C538.762 5.3 538.337 6.4 537.487 8.2C536.637 10 535.512 12.3 534.112 15.1C532.762 17.9 531.287 21.075 529.687 24.625C528.087 28.125 526.512 31.825 524.962 35.725C523.462 39.625 522.162 43.55 521.062 47.5C522.762 45.35 524.687 43.15 526.837 40.9C529.037 38.6 531.312 36.5 533.662 34.6C536.012 32.65 538.287 31.1 540.487 29.95C542.687 28.75 544.662 28.15 546.412 28.15C548.062 28.15 549.587 28.55 550.987 29.35C552.437 30.15 553.612 31.4 554.512 33.1C555.412 34.8 555.862 37 555.862 39.7C555.862 42.65 555.012 45.675 553.312 48.775C551.662 51.875 549.237 54.75 546.037 57.4C542.887 60.05 539.012 62.2 534.412 63.85C529.862 65.5 524.687 66.325 518.887 66.325ZM522.037 57.775C525.887 57.475 529.362 56.65 532.462 55.3C535.612 53.95 538.312 52.275 540.562 50.275C542.812 48.275 544.537 46.175 545.737 43.975C546.937 41.725 547.537 39.6 547.537 37.6C547.537 37.15 547.412 36.925 547.162 36.925C546.112 36.925 544.787 37.4 543.187 38.35C541.587 39.25 539.837 40.475 537.937 42.025C536.037 43.575 534.112 45.275 532.162 47.125C530.212 48.975 528.362 50.825 526.612 52.675C524.862 54.525 523.337 56.225 522.037 57.775ZM567.575 66.85C565.975 66.85 564.525 66.4 563.225 65.5C561.925 64.65 560.9 63.525 560.15 62.125C559.4 60.675 559.025 59.125 559.025 57.475C559.025 54.375 559.7 51.35 561.05 48.4C562.45 45.45 564.275 42.65 566.525 40C568.775 37.35 571.225 34.925 573.875 32.725C576.575 30.475 579.25 28.55 581.9 26.95C584.6 25.35 587.05 24.1 589.25 23.2C591.5 22.3 593.25 21.85 594.5 21.85C595.95 21.85 597.125 22.175 598.025 22.825C598.975 23.425 599.45 24.375 599.45 25.675C599.45 26.075 599.35 26.4 599.15 26.65C599.8 26.8 600.325 27.175 600.725 27.775C601.125 28.375 601.325 29.275 601.325 30.475C601.325 30.975 601.2 32.275 600.95 34.375C600.7 36.475 600.425 39.025 600.125 42.025C599.875 45.025 599.75 48.15 599.75 51.4C599.75 51.9 599.825 52.35 599.975 52.75C600.125 53.1 600.45 53.275 600.95 53.275C602.95 53.275 604.975 52.875 607.025 52.075C609.125 51.225 611.15 50.2 613.1 49C615.1 47.75 616.9 46.525 618.5 45.325C620.15 44.075 621.525 43.05 622.625 42.25C623.775 41.4 624.525 40.975 624.875 40.975C626.575 40.975 627.425 41.825 627.425 43.525C627.425 43.975 626.875 44.925 625.775 46.375C624.725 47.775 623.275 49.4 621.425 51.25C619.575 53.05 617.5 54.85 615.2 56.65C612.95 58.4 610.6 59.85 608.15 61C605.75 62.15 603.425 62.725 601.175 62.725C598.425 62.725 596.325 62.075 594.875 60.775C593.475 59.475 592.475 57.725 591.875 55.525C591.325 53.275 591.025 50.75 590.975 47.95C588.425 51.6 585.775 54.85 583.025 57.7C580.325 60.5 577.65 62.725 575 64.375C572.35 66.025 569.875 66.85 567.575 66.85ZM594.125 29.275C589.225 31.625 584.825 34.325 580.925 37.375C577.025 40.375 573.925 43.525 571.625 46.825C569.375 50.125 568.25 53.3 568.25 56.35C568.25 57.2 568.65 57.625 569.45 57.625C570.4 57.625 571.65 57.075 573.2 55.975C574.8 54.875 576.525 53.425 578.375 51.625C580.225 49.775 582.075 47.725 583.925 45.475C585.775 43.175 587.5 40.825 589.1 38.425C590.7 36.025 591.975 33.725 592.925 31.525C593.275 30.725 593.675 29.975 594.125 29.275ZM624.822 67.3C623.572 67.3 622.497 66.85 621.597 65.95C620.747 65.05 620.322 63.75 620.322 62.05C620.322 61.3 620.422 60.075 620.622 58.375C620.872 56.625 621.172 54.625 621.522 52.375C621.922 50.125 622.297 47.775 622.647 45.325C623.047 42.875 623.372 40.55 623.622 38.35C623.922 36.15 624.122 34.275 624.222 32.725C624.322 30.825 624.822 29.475 625.722 28.675C626.622 27.825 627.697 27.4 628.947 27.4C629.947 27.4 630.847 27.65 631.647 28.15C632.497 28.6 633.022 29.575 633.222 31.075C633.472 32.525 633.497 34.625 633.297 37.375C635.497 33.375 637.722 29.8 639.972 26.65C642.272 23.5 644.672 21 647.172 19.15C651.322 16 655.072 14.425 658.422 14.425C660.322 14.425 661.572 14.85 662.172 15.7C662.772 16.55 663.072 17.425 663.072 18.325C663.072 18.925 662.922 19.475 662.622 19.975C662.372 20.475 661.822 21 660.972 21.55C660.122 22.1 658.822 22.825 657.072 23.725C654.722 24.925 652.397 26.5 650.097 28.45C647.847 30.4 645.597 32.9 643.347 35.95C641.097 39 638.822 42.75 636.522 47.2C634.222 51.65 631.847 56.95 629.397 63.1C628.947 64.8 628.297 65.925 627.447 66.475C626.647 67.025 625.772 67.3 624.822 67.3Z" fill="white"/>
</svg>
