<svg width="519" height="198" viewBox="0 0 519 198" fill="none" xmlns="http://www.w3.org/2000/svg">
<path d="M4.9 72.025C3.7 72.025 2.65 71.675 1.75 70.975C0.85 70.275 0.4 68.775 0.4 66.475C0.4 65.425 0.775 63.75 1.525 61.45C2.275 59.15 3.275 56.45 4.525 53.35C5.825 50.2 7.275 46.875 8.875 43.375C10.475 39.875 12.15 36.4 13.9 32.95C15.65 29.5 17.35 26.3 19 23.35C20.65 20.4 22.175 17.9 23.575 15.85C25.025 13.75 26.2 12.35 27.1 11.65C28.4 10.7 29.7 10.225 31 10.225C31.7 10.225 32.375 10.3 33.025 10.45C33.725 10.6 34.3 10.85 34.75 11.2C35.8 11.85 36.725 13.1 37.525 14.95C38.375 16.75 39.125 18.925 39.775 21.475C40.475 24.025 41.05 26.775 41.5 29.725C42 32.625 42.425 35.5 42.775 38.35C44.675 38.1 45.975 37.975 46.675 37.975C48.175 37.975 49.5 38.2 50.65 38.65C51.8 39.05 52.4 39.9 52.45 41.2C52.55 42.45 52.15 43.5 51.25 44.35C50.4 45.2 49.3 45.825 47.95 46.225C47.35 46.425 45.9 46.75 43.6 47.2C43.75 49.75 43.825 51.9 43.825 53.65C43.825 58.1 43.575 61.55 43.075 64C42.625 66.45 42.025 68.2 41.275 69.25C40.575 70.3 39.825 70.925 39.025 71.125C38.275 71.375 37.6 71.5 37 71.5C36.95 71.5 36.9 71.5 36.85 71.5C35.4 71.5 34.325 71.125 33.625 70.375C32.975 69.625 32.65 68.375 32.65 66.625V61.3C32.65 59.65 32.625 57.8 32.575 55.75C32.525 53.7 32.425 51.525 32.275 49.225C29.325 49.725 26.375 50.225 23.425 50.725C20.525 51.175 18.025 51.575 15.925 51.925C14.975 54.175 14.15 56.2 13.45 58C12.75 59.75 12.275 61.125 12.025 62.125C11.275 64.575 10.575 66.5 9.925 67.9C9.275 69.25 8.65 70.2 8.05 70.75C7.5 71.35 6.975 71.7 6.475 71.8C5.975 71.95 5.45 72.025 4.9 72.025ZM20.05 42.7C22.15 42.2 24.175 41.75 26.125 41.35C28.075 40.9 29.925 40.5 31.675 40.15C31.425 37.05 31.125 34.025 30.775 31.075C30.425 28.125 30.025 25.5 29.575 23.2C28.275 25.7 26.75 28.7 25 32.2C23.3 35.65 21.65 39.15 20.05 42.7ZM74.8012 72.1C72.0012 72.1 69.5762 71.45 67.5262 70.15C65.4762 68.9 63.9012 67.275 62.8012 65.275C61.7012 63.225 61.1512 61.125 61.1512 58.975C61.1512 55.375 61.7012 52.05 62.8012 49C63.9012 45.9 65.3512 43.1 67.1512 40.6C68.9512 38.05 70.9012 35.8 73.0012 33.85C75.1512 31.9 77.2262 30.275 79.2262 28.975C81.2762 27.625 83.1012 26.625 84.7012 25.975C86.3012 25.275 87.4762 24.925 88.2262 24.925C89.5762 24.925 90.5262 25.225 91.0762 25.825C91.6762 26.375 91.9762 27.3 91.9762 28.6C91.9762 29.35 91.4262 30.25 90.3262 31.3C89.2762 32.35 87.8762 33.55 86.1262 34.9C84.4262 36.25 82.6262 37.775 80.7262 39.475C78.8262 41.175 77.0012 43.075 75.2512 45.175C73.5512 47.275 72.1512 49.575 71.0512 52.075C70.0012 54.575 69.4762 57.3 69.4762 60.25C69.4762 61.35 69.6762 62.2 70.0762 62.8C70.5262 63.4 71.2512 63.7 72.2512 63.7C75.1012 63.7 78.1512 63.2 81.4012 62.2C84.7012 61.15 87.9762 59.85 91.2262 58.3C94.5262 56.7 97.6262 55.05 100.526 53.35C103.476 51.65 106.001 50.125 108.101 48.775C108.951 48.175 109.676 47.7 110.276 47.35C110.876 47 111.301 46.825 111.551 46.825C113.051 46.825 113.801 47.6 113.801 49.15C113.801 49.95 113.201 51.025 112.001 52.375C110.601 54.125 108.701 55.925 106.301 57.775C103.951 59.625 101.326 61.4 98.4262 63.1C95.5762 64.8 92.6512 66.325 89.6512 67.675C86.7012 69.025 83.9262 70.1 81.3262 70.9C78.7262 71.7 76.5512 72.1 74.8012 72.1ZM120.651 72.1C117.851 72.1 115.426 71.45 113.376 70.15C111.326 68.9 109.751 67.275 108.651 65.275C107.551 63.225 107.001 61.125 107.001 58.975C107.001 55.375 107.551 52.05 108.651 49C109.751 45.9 111.201 43.1 113.001 40.6C114.801 38.05 116.751 35.8 118.851 33.85C121.001 31.9 123.076 30.275 125.076 28.975C127.126 27.625 128.951 26.625 130.551 25.975C132.151 25.275 133.326 24.925 134.076 24.925C135.426 24.925 136.376 25.225 136.926 25.825C137.526 26.375 137.826 27.3 137.826 28.6C137.826 29.35 137.276 30.25 136.176 31.3C135.126 32.35 133.726 33.55 131.976 34.9C130.276 36.25 128.476 37.775 126.576 39.475C124.676 41.175 122.851 43.075 121.101 45.175C119.401 47.275 118.001 49.575 116.901 52.075C115.851 54.575 115.326 57.3 115.326 60.25C115.326 61.35 115.526 62.2 115.926 62.8C116.376 63.4 117.101 63.7 118.101 63.7C120.951 63.7 124.001 63.2 127.251 62.2C130.551 61.15 133.826 59.85 137.076 58.3C140.376 56.7 143.476 55.05 146.376 53.35C149.326 51.65 151.851 50.125 153.951 48.775C154.801 48.175 155.526 47.7 156.126 47.35C156.726 47 157.151 46.825 157.401 46.825C158.901 46.825 159.651 47.6 159.651 49.15C159.651 49.95 159.051 51.025 157.851 52.375C156.451 54.125 154.551 55.925 152.151 57.775C149.801 59.625 147.176 61.4 144.276 63.1C141.426 64.8 138.501 66.325 135.501 67.675C132.551 69.025 129.776 70.1 127.176 70.9C124.576 71.7 122.401 72.1 120.651 72.1ZM163.725 72.55C160.625 72.55 158.125 71.475 156.225 69.325C154.325 67.125 153.375 63.6 153.375 58.75C153.375 55.65 153.725 52.55 154.425 49.45C155.175 46.3 156.2 43.325 157.5 40.525C158.85 37.675 160.4 35.15 162.15 32.95C163.95 30.75 165.925 29.025 168.075 27.775C170.225 26.475 172.45 25.825 174.75 25.825C178.65 25.825 181.7 26.875 183.9 28.975C186.1 31.075 187.2 33.75 187.2 37C187.2 39.5 186.5 41.775 185.1 43.825C183.75 45.825 181.9 47.625 179.55 49.225C177.2 50.825 174.575 52.275 171.675 53.575C168.775 54.875 165.8 56.05 162.75 57.1C162.5 58.9 162.375 60.5 162.375 61.9C162.375 62.75 162.85 63.175 163.8 63.175C166.05 63.175 168.45 62.825 171 62.125C173.6 61.375 176.225 60.425 178.875 59.275C181.525 58.075 184.075 56.85 186.525 55.6C188.975 54.3 191.2 53.075 193.2 51.925C195.25 50.725 196.925 49.775 198.225 49.075C199.575 48.325 200.45 47.95 200.85 47.95C201.95 47.95 202.75 48.275 203.25 48.925C203.75 49.575 204 50.275 204 51.025C204 51.375 203.325 52.15 201.975 53.35C200.675 54.55 198.875 55.975 196.575 57.625C194.325 59.225 191.775 60.9 188.925 62.65C186.125 64.35 183.2 65.975 180.15 67.525C177.15 69.025 174.225 70.225 171.375 71.125C168.575 72.075 166.025 72.55 163.725 72.55ZM164.025 50.425C166.075 49.225 168.1 47.975 170.1 46.675C172.15 45.325 173.85 43.825 175.2 42.175C176.55 40.475 177.225 38.5 177.225 36.25C177.225 35.6 177.05 35.175 176.7 34.975C176.35 34.725 175.85 34.6 175.2 34.6C173.45 34.6 171.85 35.375 170.4 36.925C169 38.475 167.75 40.475 166.65 42.925C165.6 45.325 164.725 47.825 164.025 50.425ZM258.494 76.825C256.444 76.825 254.994 76.625 254.144 76.225C253.294 75.875 252.769 75.45 252.569 74.95C252.419 74.45 252.344 73.975 252.344 73.525C252.344 73.475 252.344 73.425 252.344 73.375C252.344 72.675 252.644 71.925 253.244 71.125C253.844 70.375 254.544 69.775 255.344 69.325C256.394 68.725 257.444 68.075 258.494 67.375C259.594 66.675 260.494 65.95 261.194 65.2C261.944 64.4 262.319 63.6 262.319 62.8C262.319 62.25 261.744 61.65 260.594 61C259.444 60.3 258.019 59.5 256.319 58.6C254.669 57.7 252.994 56.675 251.294 55.525C249.594 54.375 248.169 53.05 247.019 51.55C245.869 50.05 245.294 48.375 245.294 46.525C245.294 45.825 245.369 45.1 245.519 44.35C243.869 45.25 242.244 46.15 240.644 47.05C239.094 47.95 237.569 48.85 236.069 49.75C236.069 49.95 236.069 50.15 236.069 50.35C236.069 53.2 235.494 56.025 234.344 58.825C233.244 61.575 231.769 64.075 229.919 66.325C228.119 68.575 226.094 70.375 223.844 71.725C221.594 73.075 219.344 73.75 217.094 73.75C213.194 73.75 210.294 72.875 208.394 71.125C206.544 69.375 205.619 67.325 205.619 64.975C205.619 62.675 206.394 60.725 207.944 59.125C209.494 57.525 211.794 55.875 214.844 54.175C215.944 53.475 217.469 52.6 219.419 51.55C221.419 50.45 223.644 49.225 226.094 47.875C225.744 47.775 225.319 47.725 224.819 47.725C224.169 47.725 223.119 47.95 221.669 48.4C220.219 48.8 218.544 49.325 216.644 49.975C214.794 50.575 212.894 51.175 210.944 51.775C209.044 52.375 207.294 52.9 205.694 53.35C204.094 53.75 202.844 53.95 201.944 53.95C199.494 53.95 197.644 53.325 196.394 52.075C195.194 50.825 194.594 49.275 194.594 47.425C194.594 46.275 195.069 44.9 196.019 43.3C196.969 41.7 198.219 40 199.769 38.2C201.369 36.4 203.119 34.625 205.019 32.875C206.919 31.125 208.844 29.55 210.794 28.15C212.744 26.75 214.594 25.625 216.344 24.775C218.094 23.925 219.544 23.5 220.694 23.5C222.144 23.5 223.294 24 224.144 25C224.994 25.95 225.419 27.25 225.419 28.9C225.419 29.75 225.219 30.55 224.819 31.3C224.469 32.05 223.769 32.675 222.719 33.175C221.669 33.625 220.119 33.9 218.069 34C217.119 34.6 215.969 35.4 214.619 36.4C213.269 37.4 211.919 38.45 210.569 39.55C209.269 40.65 208.094 41.7 207.044 42.7C206.044 43.7 205.369 44.55 205.019 45.25C205.819 45.1 206.969 44.75 208.469 44.2C209.969 43.65 211.669 43.075 213.569 42.475C215.519 41.825 217.494 41.275 219.494 40.825C221.494 40.325 223.344 40.075 225.044 40.075C229.194 40.075 232.194 41.225 234.044 43.525C236.694 42.075 239.394 40.625 242.144 39.175C244.894 37.675 247.569 36.225 250.169 34.825C251.719 32.825 253.494 30.975 255.494 29.275C257.494 27.525 259.569 25.975 261.719 24.625C263.919 23.275 266.019 22.225 268.019 21.475C270.069 20.725 271.919 20.35 273.569 20.35C274.919 20.35 275.944 20.75 276.644 21.55C277.344 22.3 277.694 23.1 277.694 23.95C277.694 24.3 277.619 24.65 277.469 25C277.369 25.35 277.044 25.8 276.494 26.35C275.944 26.85 274.994 27.525 273.644 28.375C272.344 29.175 270.494 30.25 268.094 31.6C266.844 32.3 265.519 33.05 264.119 33.85C262.719 34.6 261.269 35.4 259.769 36.25C258.269 37.8 256.994 39.45 255.944 41.2C254.894 42.9 254.369 44.575 254.369 46.225C254.369 47.175 254.919 48.075 256.019 48.925C257.169 49.775 258.569 50.65 260.219 51.55C261.919 52.4 263.594 53.375 265.244 54.475C266.894 55.575 268.269 56.85 269.369 58.3C270.519 59.75 271.094 61.475 271.094 63.475C271.094 64.975 270.694 66.525 269.894 68.125C269.144 69.675 268.144 71.1 266.894 72.4C265.694 73.75 264.344 74.825 262.844 75.625C261.394 76.425 259.944 76.825 258.494 76.825ZM226.844 55C223.144 57.15 220.394 58.75 218.594 59.8C217.644 60.35 216.819 60.875 216.119 61.375C215.419 61.825 215.069 62.525 215.069 63.475C215.069 64.825 215.969 65.5 217.769 65.5C218.969 65.5 220.144 64.95 221.294 63.85C222.494 62.75 223.569 61.4 224.519 59.8C225.519 58.2 226.294 56.6 226.844 55ZM204.869 45.775C204.869 45.825 204.869 45.875 204.869 45.925C204.869 45.875 204.869 45.825 204.869 45.775ZM288.251 71.125C286.851 71.125 285.601 70.65 284.501 69.7C283.451 68.75 282.926 67.2 282.926 65.05C282.926 63.9 283.076 62.275 283.376 60.175C283.726 58.075 284.176 55.8 284.726 53.35C285.276 50.85 285.876 48.375 286.526 45.925C287.226 43.475 287.901 41.3 288.551 39.4C289.201 37.45 289.776 36 290.276 35.05C290.926 33.9 291.526 33.2 292.076 32.95C292.676 32.65 293.251 32.5 293.801 32.5C294.801 32.5 295.726 32.8 296.576 33.4C297.476 34 297.926 35.325 297.926 37.375C297.926 38.175 297.776 39.475 297.476 41.275C297.176 43.025 296.801 45.075 296.351 47.425C295.901 49.775 295.401 52.2 294.851 54.7C294.351 57.2 293.851 59.575 293.351 61.825C292.901 64.025 292.526 65.875 292.226 67.375C291.976 68.625 291.451 69.55 290.651 70.15C289.901 70.8 289.101 71.125 288.251 71.125ZM296.876 25.075C295.226 25.075 293.701 24.6 292.301 23.65C290.901 22.65 290.201 21.125 290.201 19.075C290.201 17.375 290.626 16 291.476 14.95C292.326 13.9 293.326 13.15 294.476 12.7C295.676 12.2 296.726 11.95 297.626 11.95C298.526 11.95 299.526 12.15 300.626 12.55C301.726 12.9 302.676 13.575 303.476 14.575C304.326 15.525 304.751 16.9 304.751 18.7C304.751 19.9 304.326 21 303.476 22C302.626 22.95 301.576 23.7 300.326 24.25C299.126 24.8 297.976 25.075 296.876 25.075ZM316.908 72.325C313.908 72.325 311.833 71.725 310.683 70.525C309.583 69.375 309.033 67.775 309.033 65.725C309.033 57.025 310.658 47.95 313.908 38.5C317.208 29 321.833 19.475 327.783 9.925C328.783 8.275 329.608 7.3 330.258 7C330.908 6.7 331.633 6.55 332.433 6.55C333.583 6.55 334.583 6.95 335.433 7.75C336.333 8.55 336.783 9.6 336.783 10.9C336.783 11.3 336.358 12.4 335.508 14.2C334.658 16 333.533 18.3 332.133 21.1C330.783 23.9 329.308 27.075 327.708 30.625C326.108 34.125 324.533 37.825 322.983 41.725C321.483 45.625 320.183 49.55 319.083 53.5C320.783 51.35 322.708 49.15 324.858 46.9C327.058 44.6 329.333 42.5 331.683 40.6C334.033 38.65 336.308 37.1 338.508 35.95C340.708 34.75 342.683 34.15 344.433 34.15C346.083 34.15 347.608 34.55 349.008 35.35C350.458 36.15 351.633 37.4 352.533 39.1C353.433 40.8 353.883 43 353.883 45.7C353.883 48.65 353.033 51.675 351.333 54.775C349.683 57.875 347.258 60.75 344.058 63.4C340.908 66.05 337.033 68.2 332.433 69.85C327.883 71.5 322.708 72.325 316.908 72.325ZM320.058 63.775C323.908 63.475 327.383 62.65 330.483 61.3C333.633 59.95 336.333 58.275 338.583 56.275C340.833 54.275 342.558 52.175 343.758 49.975C344.958 47.725 345.558 45.6 345.558 43.6C345.558 43.15 345.433 42.925 345.183 42.925C344.133 42.925 342.808 43.4 341.208 44.35C339.608 45.25 337.858 46.475 335.958 48.025C334.058 49.575 332.133 51.275 330.183 53.125C328.233 54.975 326.383 56.825 324.633 58.675C322.883 60.525 321.358 62.225 320.058 63.775ZM375.937 73.75C371.437 73.75 367.887 72.375 365.287 69.625C362.737 66.825 361.462 62.85 361.462 57.7C361.462 54.9 361.837 51.625 362.587 47.875C363.337 44.075 364.312 40.075 365.512 35.875C366.762 31.625 368.087 27.425 369.487 23.275C370.937 19.125 372.362 15.275 373.762 11.725C375.162 8.175 376.387 5.2 377.437 2.8C378.337 0.949998 379.612 0.0249979 381.262 0.0249979C382.312 0.0249979 383.162 0.349998 383.812 0.999999C384.512 1.65 384.862 2.7 384.862 4.15C384.862 4.85 384.512 6.375 383.812 8.725C383.112 11.075 382.187 13.975 381.037 17.425C379.937 20.825 378.737 24.5 377.437 28.45C376.187 32.4 374.987 36.375 373.837 40.375C372.737 44.375 371.837 48.15 371.137 51.7C370.437 55.2 370.087 58.175 370.087 60.625C370.087 61.625 370.362 62.425 370.912 63.025C371.512 63.625 372.287 63.925 373.237 63.925C375.287 63.925 377.387 63.55 379.537 62.8C381.737 62.05 383.887 61.1 385.987 59.95C388.137 58.8 390.162 57.575 392.062 56.275C393.962 54.975 395.662 53.75 397.162 52.6C398.712 51.4 399.962 50.45 400.912 49.75C402.162 48.8 403.012 48.325 403.462 48.325C405.162 48.325 406.012 49.15 406.012 50.8C406.012 51.2 405.512 52.025 404.512 53.275C403.662 54.375 402.462 55.775 400.912 57.475C399.362 59.175 397.562 60.975 395.512 62.875C393.512 64.725 391.362 66.475 389.062 68.125C386.812 69.775 384.562 71.125 382.312 72.175C380.062 73.225 377.937 73.75 375.937 73.75ZM411.504 72.55C408.404 72.55 405.904 71.475 404.004 69.325C402.104 67.125 401.154 63.6 401.154 58.75C401.154 55.65 401.504 52.55 402.204 49.45C402.954 46.3 403.979 43.325 405.279 40.525C406.629 37.675 408.179 35.15 409.929 32.95C411.729 30.75 413.704 29.025 415.854 27.775C418.004 26.475 420.229 25.825 422.529 25.825C426.429 25.825 429.479 26.875 431.679 28.975C433.879 31.075 434.979 33.75 434.979 37C434.979 39.5 434.279 41.775 432.879 43.825C431.529 45.825 429.679 47.625 427.329 49.225C424.979 50.825 422.354 52.275 419.454 53.575C416.554 54.875 413.579 56.05 410.529 57.1C410.279 58.9 410.154 60.5 410.154 61.9C410.154 62.75 410.629 63.175 411.579 63.175C413.829 63.175 416.229 62.825 418.779 62.125C421.379 61.375 424.004 60.425 426.654 59.275C429.304 58.075 431.854 56.85 434.304 55.6C436.754 54.3 438.979 53.075 440.979 51.925C443.029 50.725 444.704 49.775 446.004 49.075C447.354 48.325 448.229 47.95 448.629 47.95C449.729 47.95 450.529 48.275 451.029 48.925C451.529 49.575 451.779 50.275 451.779 51.025C451.779 51.375 451.104 52.15 449.754 53.35C448.454 54.55 446.654 55.975 444.354 57.625C442.104 59.225 439.554 60.9 436.704 62.65C433.904 64.35 430.979 65.975 427.929 67.525C424.929 69.025 422.004 70.225 419.154 71.125C416.354 72.075 413.804 72.55 411.504 72.55ZM411.804 50.425C413.854 49.225 415.879 47.975 417.879 46.675C419.929 45.325 421.629 43.825 422.979 42.175C424.329 40.475 425.004 38.5 425.004 36.25C425.004 35.6 424.829 35.175 424.479 34.975C424.129 34.725 423.629 34.6 422.979 34.6C421.229 34.6 419.629 35.375 418.179 36.925C416.779 38.475 415.529 40.475 414.429 42.925C413.379 45.325 412.504 47.825 411.804 50.425Z" fill="#7D5EF2"/>
<path d="M36.625 159.575C38.175 159.575 39.275 160 39.925 160.85C40.575 161.65 40.9 162.5 40.9 163.4C40.9 164.65 40.275 165.975 39.025 167.375C37.775 168.775 36.15 170.075 34.15 171.275C32.2 172.425 30.1 173.375 27.85 174.125C25.6 174.875 23.45 175.25 21.4 175.25C18.35 175.25 15.425 174.425 12.625 172.775C9.875 171.075 7.625 168.7 5.875 165.65C4.175 162.6 3.325 158.975 3.325 154.775C3.325 151.325 3.975 147.9 5.275 144.5C6.625 141.1 8.4 137.825 10.6 134.675C12.85 131.525 15.3 128.6 17.95 125.9C20.65 123.2 23.35 120.85 26.05 118.85C28.8 116.85 31.325 115.3 33.625 114.2C35.925 113.05 37.775 112.475 39.175 112.475C40.925 112.475 42.225 112.925 43.075 113.825C43.975 114.675 44.425 115.875 44.425 117.425C44.425 118.675 44.175 119.65 43.675 120.35C43.225 121 42.5 121.575 41.5 122.075C38.3 123.725 35.05 125.725 31.75 128.075C28.5 130.425 25.525 133.025 22.825 135.875C20.125 138.675 17.95 141.625 16.3 144.725C14.65 147.825 13.825 150.975 13.825 154.175C13.825 157.675 14.525 160.325 15.925 162.125C17.325 163.925 19.225 164.825 21.625 164.825C22.825 164.825 24.125 164.575 25.525 164.075C26.925 163.525 28.3 162.9 29.65 162.2C31.05 161.5 32.35 160.9 33.55 160.4C34.8 159.85 35.825 159.575 36.625 159.575ZM63.7949 175.475C60.2449 175.475 57.3949 174.225 55.2449 171.725C53.0949 169.175 52.0199 165.775 52.0199 161.525C52.0199 160.175 52.1949 158.8 52.5449 157.4C52.9449 156 53.4199 154.7 53.9699 153.5C53.6699 153.05 53.4199 152.475 53.2199 151.775C53.0699 151.025 52.9949 150.15 52.9949 149.15C52.9949 145.9 53.5699 142.925 54.7199 140.225C55.8699 137.475 57.4199 135.1 59.3699 133.1C61.3199 131.1 63.4699 129.55 65.8199 128.45C68.1699 127.35 70.5449 126.8 72.9449 126.8C77.0449 126.8 80.3949 128.175 82.9949 130.925C85.6449 133.675 86.9699 137.95 86.9699 143.75C86.9699 146.65 86.5199 149.6 85.6199 152.6C84.7199 155.6 83.4949 158.475 81.9449 161.225C80.4449 163.925 78.6949 166.35 76.6949 168.5C74.7449 170.65 72.6449 172.35 70.3949 173.6C68.1949 174.85 65.9949 175.475 63.7949 175.475ZM62.5949 150.125C62.8449 150.675 62.9699 151.325 62.9699 152.075C62.9699 152.825 62.8199 153.6 62.5199 154.4C62.2199 155.2 61.9199 156.275 61.6199 157.625C61.3199 158.925 61.1699 160.8 61.1699 163.25C61.1699 163.9 61.2449 164.45 61.3949 164.9C61.5949 165.3 62.0199 165.5 62.6699 165.5C64.3699 165.5 65.9699 164.95 67.4699 163.85C69.0199 162.75 70.3949 161.3 71.5949 159.5C72.8449 157.7 73.8949 155.7 74.7449 153.5C75.6449 151.25 76.3199 148.975 76.7699 146.675C77.2699 144.325 77.5199 142.15 77.5199 140.15C77.5199 138.85 77.2699 137.95 76.7699 137.45C76.2699 136.95 75.3949 136.7 74.1449 136.7C72.4449 136.7 70.6949 137.25 68.8949 138.35C67.1449 139.4 65.6699 140.85 64.4699 142.7C63.2699 144.5 62.6699 146.55 62.6699 148.85C62.6699 149.3 62.6449 149.725 62.5949 150.125ZM163.35 171.275C163.05 173.975 161.45 175.325 158.55 175.325C157.05 175.325 155.85 174.875 154.95 173.975C154.1 173.075 153.675 171.775 153.675 170.075C153.675 167.175 153.8 164.075 154.05 160.775C154.35 157.425 154.7 154.05 155.1 150.65C155.55 147.25 155.975 144 156.375 140.9C154.575 143.5 152.675 146.175 150.675 148.925C148.675 151.675 146.675 154.35 144.675 156.95C142.675 159.55 140.75 161.9 138.9 164C137.1 166.05 135.45 167.7 133.95 168.95C132.45 170.15 131.2 170.75 130.2 170.75C127.8 170.75 125.725 169.875 123.975 168.125C122.225 166.325 121.35 164.05 121.35 161.3C121.35 160.35 121.45 159.075 121.65 157.475C121.85 155.825 122.1 154.075 122.4 152.225C122.7 150.375 122.95 148.625 123.15 146.975C123.35 145.325 123.45 144.025 123.45 143.075C123.45 143.075 123.45 143.025 123.45 142.925C123.5 142.675 123.45 142.55 123.3 142.55C123.1 142.55 122.55 143.225 121.65 144.575C120.75 145.875 119.65 147.575 118.35 149.675C117.05 151.775 115.675 153.975 114.225 156.275C112.825 158.575 111.5 160.725 110.25 162.725C109.05 164.725 108.05 166.275 107.25 167.375C106.15 169.075 105.125 170.15 104.175 170.6C103.225 171.05 102.125 171.275 100.875 171.275C99.1254 171.275 97.7504 170.7 96.7504 169.55C95.8004 168.35 95.3254 166.675 95.3254 164.525C95.3254 163.625 95.4754 162.225 95.7754 160.325C96.1254 158.425 96.5504 156.325 97.0504 154.025C97.5504 151.675 98.0504 149.4 98.5504 147.2C99.1004 144.95 99.5754 143.05 99.9754 141.5C100.425 139.45 101.05 138.025 101.85 137.225C102.7 136.375 103.775 135.95 105.075 135.95C108.125 135.95 109.65 137.45 109.65 140.45C109.65 141 109.475 141.9 109.125 143.15C108.775 144.4 108.35 145.85 107.85 147.5C107.35 149.15 106.825 150.85 106.275 152.6C105.725 154.3 105.275 155.9 104.925 157.4C106.125 155.3 107.425 153.05 108.825 150.65C110.225 148.25 111.65 145.9 113.1 143.6C114.6 141.3 116.075 139.2 117.525 137.3C119.025 135.4 120.5 133.9 121.95 132.8C123.4 131.65 124.775 131.075 126.075 131.075C127.375 131.075 128.65 131.55 129.9 132.5C131.15 133.4 132.175 134.575 132.975 136.025C133.825 137.425 134.25 138.925 134.25 140.525C134.25 142.025 134.05 143.825 133.65 145.925C133.25 148.025 132.8 150.225 132.3 152.525C131.8 154.825 131.45 157.075 131.25 159.275C132.95 157.375 134.75 155.225 136.65 152.825C138.55 150.375 140.5 147.85 142.5 145.25C144.5 142.65 146.45 140.125 148.35 137.675C150.3 135.225 152.1 133 153.75 131C155.45 129 156.95 127.425 158.25 126.275C159.55 125.075 160.55 124.475 161.25 124.475C163.3 124.475 164.9 125.025 166.05 126.125C167.25 127.175 167.85 129.025 167.85 131.675C167.85 133.325 167.725 135.475 167.475 138.125C167.275 140.775 166.975 143.65 166.575 146.75C166.225 149.8 165.825 152.9 165.375 156.05C164.975 159.15 164.6 162.025 164.25 164.675C163.9 167.325 163.6 169.525 163.35 171.275ZM179.153 197.075C177.753 197.075 176.653 196.575 175.853 195.575C175.103 194.625 174.728 193.15 174.728 191.15C174.728 188.4 174.978 185.125 175.478 181.325C175.978 177.525 176.653 173.5 177.503 169.25C178.353 165 179.278 160.825 180.278 156.725C181.478 152.025 182.653 147.75 183.803 143.9C185.003 140.05 186.203 136.975 187.403 134.675C188.653 132.325 189.903 131.15 191.153 131.15C192.303 131.15 193.303 131.575 194.153 132.425C195.053 133.225 195.503 134.425 195.503 136.025C195.503 137.175 195.203 138.825 194.603 140.975C194.003 143.075 193.253 145.7 192.353 148.85C194.053 146.05 195.803 143.3 197.603 140.6C199.453 137.9 201.328 135.45 203.228 133.25C205.128 131.05 206.978 129.3 208.778 128C210.578 126.7 212.278 126.05 213.878 126.05C215.778 126.05 217.453 126.6 218.903 127.7C220.403 128.8 221.578 130.3 222.428 132.2C223.278 134.1 223.703 136.25 223.703 138.65C223.703 143.1 222.903 147.425 221.303 151.625C219.703 155.775 217.478 159.5 214.628 162.8C211.828 166.1 208.553 168.725 204.803 170.675C201.053 172.575 197.003 173.525 192.653 173.525C191.403 173.525 190.253 173.4 189.203 173.15C188.203 172.95 187.278 172.7 186.428 172.4C185.828 175.6 185.253 178.875 184.703 182.225C184.203 185.625 183.678 189.2 183.128 192.95C182.528 195.7 181.203 197.075 179.153 197.075ZM214.628 134.9C213.528 134.9 212.128 135.65 210.428 137.15C208.778 138.65 206.978 140.625 205.028 143.075C203.078 145.475 201.103 148.1 199.103 150.95C197.153 153.75 195.278 156.5 193.478 159.2C191.728 161.9 190.228 164.25 188.978 166.25C192.778 165.85 196.128 164.85 199.028 163.25C201.928 161.6 204.403 159.6 206.453 157.25C208.503 154.9 210.153 152.425 211.403 149.825C212.703 147.175 213.653 144.6 214.253 142.1C214.853 139.6 215.153 137.425 215.153 135.575C215.153 135.125 214.978 134.9 214.628 134.9ZM281.924 176.825C279.974 176.825 278.549 176.3 277.649 175.25C276.749 174.25 276.299 172.225 276.299 169.175C276.299 166.575 276.724 163.2 277.574 159.05C278.424 154.9 279.374 150.425 280.424 145.625C274.874 151.825 268.474 155.775 261.224 157.475C259.774 160.475 258.074 163.225 256.124 165.725C254.174 168.225 252.049 170.25 249.749 171.8C247.499 173.3 245.149 174.05 242.699 174.05C239.649 174.05 237.024 173.05 234.824 171.05C232.674 169.05 231.599 165.975 231.599 161.825C231.599 159.025 232.024 156.65 232.874 154.7C233.724 152.7 234.699 151.2 235.799 150.2C234.899 148.3 234.449 146.125 234.449 143.675C234.449 140.375 235.349 137.45 237.149 134.9C238.949 132.35 241.324 130.35 244.274 128.9C247.274 127.45 250.524 126.725 254.024 126.725C255.974 126.725 257.824 127.225 259.574 128.225C261.374 129.175 262.824 130.65 263.924 132.65C265.074 134.6 265.649 137.075 265.649 140.075C265.649 142.575 265.274 145.325 264.524 148.325C268.074 146.225 271.574 143.35 275.024 139.7C278.524 136.05 281.649 131.95 284.399 127.4C285.249 126.05 286.449 125.375 287.999 125.375C289.299 125.375 290.324 125.775 291.074 126.575C291.874 127.325 292.274 128.325 292.274 129.575C292.274 129.825 292.124 130.65 291.824 132.05C291.524 133.45 291.124 135.275 290.624 137.525C290.124 139.725 289.574 142.15 288.974 144.8C288.424 147.45 287.874 150.15 287.324 152.9C286.774 155.65 286.274 158.25 285.824 160.7C287.124 158.35 288.524 155.85 290.024 153.2C291.574 150.5 293.174 147.85 294.824 145.25C296.474 142.6 298.099 140.2 299.699 138.05C301.299 135.9 302.774 134.2 304.124 132.95C305.474 131.65 306.624 131 307.574 131C309.474 131 311.074 131.55 312.374 132.65C313.674 133.75 314.324 134.875 314.324 136.025C314.324 137.175 314.199 138.95 313.949 141.35C313.699 143.75 313.374 146.45 312.974 149.45C312.624 152.4 312.249 155.375 311.849 158.375C311.449 161.375 311.124 164.1 310.874 166.55C310.624 168.95 310.499 170.75 310.499 171.95C310.499 172.95 310.024 173.9 309.074 174.8C308.124 175.7 307.049 176.15 305.849 176.15C305.749 176.15 305.574 176.15 305.324 176.15C304.724 176.2 304.174 176.1 303.674 175.85C303.174 175.65 302.749 174.9 302.399 173.6C302.099 172.3 301.949 170.1 301.949 167C301.949 164.9 302.049 162.6 302.249 160.1C302.449 157.6 302.699 155.1 302.999 152.6C303.349 150.05 303.724 147.675 304.124 145.475C302.824 147.625 301.374 150.075 299.774 152.825C298.224 155.525 296.599 158.3 294.899 161.15C293.199 163.95 291.524 166.55 289.874 168.95C288.274 171.3 286.774 173.2 285.374 174.65C284.024 176.1 282.874 176.825 281.924 176.825ZM253.724 151.775C254.374 149.825 254.899 147.8 255.299 145.7C255.699 143.55 255.899 141.45 255.899 139.4C255.899 138.55 255.724 137.725 255.374 136.925C255.024 136.125 254.424 135.725 253.574 135.725C251.874 135.725 250.199 136.075 248.549 136.775C246.949 137.475 245.624 138.475 244.574 139.775C243.524 141.075 242.999 142.625 242.999 144.425C242.999 146.025 243.524 147.375 244.574 148.475C245.674 149.575 247.024 150.4 248.624 150.95C250.274 151.5 251.899 151.775 253.499 151.775C253.549 151.775 253.624 151.775 253.724 151.775ZM250.649 158.375C248.899 158.325 247.199 158.1 245.549 157.7C243.899 157.25 242.399 156.625 241.049 155.825C240.899 156.625 240.749 157.4 240.599 158.15C240.449 158.85 240.374 159.525 240.374 160.175C240.374 161.275 240.549 162.275 240.899 163.175C241.299 164.025 242.099 164.45 243.299 164.45C244.549 164.45 245.799 163.9 247.049 162.8C248.349 161.7 249.549 160.225 250.649 158.375ZM338.774 175.55C335.674 175.55 333.174 174.475 331.274 172.325C329.374 170.125 328.424 166.6 328.424 161.75C328.424 158.65 328.774 155.55 329.474 152.45C330.224 149.3 331.249 146.325 332.549 143.525C333.899 140.675 335.449 138.15 337.199 135.95C338.999 133.75 340.974 132.025 343.124 130.775C345.274 129.475 347.499 128.825 349.799 128.825C353.699 128.825 356.749 129.875 358.949 131.975C361.149 134.075 362.249 136.75 362.249 140C362.249 142.5 361.549 144.775 360.149 146.825C358.799 148.825 356.949 150.625 354.599 152.225C352.249 153.825 349.624 155.275 346.724 156.575C343.824 157.875 340.849 159.05 337.799 160.1C337.549 161.9 337.424 163.5 337.424 164.9C337.424 165.75 337.899 166.175 338.849 166.175C341.099 166.175 343.499 165.825 346.049 165.125C348.649 164.375 351.274 163.425 353.924 162.275C356.574 161.075 359.124 159.85 361.574 158.6C364.024 157.3 366.249 156.075 368.249 154.925C370.299 153.725 371.974 152.775 373.274 152.075C374.624 151.325 375.499 150.95 375.899 150.95C376.999 150.95 377.799 151.275 378.299 151.925C378.799 152.575 379.049 153.275 379.049 154.025C379.049 154.375 378.374 155.15 377.024 156.35C375.724 157.55 373.924 158.975 371.624 160.625C369.374 162.225 366.824 163.9 363.974 165.65C361.174 167.35 358.249 168.975 355.199 170.525C352.199 172.025 349.274 173.225 346.424 174.125C343.624 175.075 341.074 175.55 338.774 175.55ZM339.074 153.425C341.124 152.225 343.149 150.975 345.149 149.675C347.199 148.325 348.899 146.825 350.249 145.175C351.599 143.475 352.274 141.5 352.274 139.25C352.274 138.6 352.099 138.175 351.749 137.975C351.399 137.725 350.899 137.6 350.249 137.6C348.499 137.6 346.899 138.375 345.449 139.925C344.049 141.475 342.799 143.475 341.699 145.925C340.649 148.325 339.774 150.825 339.074 153.425ZM381.055 173C379.855 173 378.655 172.6 377.455 171.8C376.305 170.95 375.355 169.75 374.605 168.2C373.855 166.6 373.48 164.675 373.48 162.425C373.48 159.425 373.88 156.225 374.68 152.825C375.53 149.425 376.555 146.025 377.755 142.625C378.955 139.225 380.13 136.025 381.28 133.025C381.83 131.575 382.505 130.6 383.305 130.1C384.105 129.55 385.155 129.275 386.455 129.275C389.405 129.275 390.88 130.75 390.88 133.7C390.88 134.2 390.655 135.175 390.205 136.625C389.755 138.025 389.155 139.75 388.405 141.8C387.705 143.85 386.955 146.075 386.155 148.475C385.405 150.825 384.705 153.225 384.055 155.675C383.455 158.075 382.98 160.35 382.63 162.5C383.78 160.75 385.055 158.575 386.455 155.975C387.905 153.325 389.43 150.55 391.03 147.65C392.68 144.75 394.33 142.05 395.98 139.55C397.63 137 399.255 134.925 400.855 133.325C402.455 131.725 403.98 130.925 405.43 130.925C406.68 130.925 407.855 131.175 408.955 131.675C410.105 132.125 411.105 133.025 411.955 134.375C412.805 135.675 413.455 137.55 413.905 140C414.405 142.45 414.655 145.675 414.655 149.675C414.655 151.675 414.83 153.625 415.18 155.525C415.58 157.375 416.23 158.925 417.13 160.175C418.03 161.375 419.305 161.975 420.955 161.975C423.805 161.975 426.355 161.45 428.605 160.4C430.855 159.35 432.83 158.125 434.53 156.725C436.23 155.325 437.655 154.1 438.805 153.05C439.505 152.35 440.105 151.8 440.605 151.4C441.155 151 441.605 150.8 441.955 150.8C443.005 150.8 443.755 151.075 444.205 151.625C444.705 152.175 444.955 152.925 444.955 153.875C444.955 154.375 444.53 155.3 443.68 156.65C442.83 158 441.63 159.55 440.08 161.3C438.58 163 436.855 164.65 434.905 166.25C432.955 167.85 430.855 169.175 428.605 170.225C426.355 171.275 424.055 171.8 421.705 171.8C417.755 171.8 414.48 171.1 411.88 169.7C409.33 168.25 407.43 165.85 406.18 162.5C404.93 159.1 404.305 154.475 404.305 148.625C404.305 148.475 404.305 148.225 404.305 147.875C404.305 146.325 404.28 144.95 404.23 143.75C404.23 142.55 404.155 141.575 404.005 140.825C403.155 142.375 402.13 144.225 400.93 146.375C399.78 148.525 398.53 150.825 397.18 153.275C395.83 155.675 394.43 158.05 392.98 160.4C391.53 162.7 390.08 164.8 388.63 166.7C387.23 168.6 385.88 170.125 384.58 171.275C383.28 172.425 382.105 173 381.055 173ZM493.356 135.2C493.356 135.8 493.156 136.325 492.756 136.775C492.356 137.225 491.856 137.575 491.256 137.825C490.406 138.175 488.931 138.625 486.831 139.175C484.731 139.725 482.181 140.35 479.181 141.05C476.231 141.75 473.056 142.475 469.656 143.225C466.256 143.925 462.856 144.6 459.456 145.25C458.156 150.05 456.831 155 455.481 160.1C454.131 165.15 452.781 170.125 451.431 175.025C450.931 176.775 450.331 178.1 449.631 179C448.931 179.95 447.731 180.425 446.031 180.425C444.181 180.425 442.931 179.825 442.281 178.625C441.681 177.475 441.606 175.9 442.056 173.9C443.356 168.45 444.556 163.375 445.656 158.675C446.806 153.975 447.731 150.175 448.431 147.275C445.431 147.775 442.806 148.175 440.556 148.475C438.306 148.725 436.706 148.825 435.756 148.775C434.706 148.675 433.831 148.25 433.131 147.5C432.431 146.75 432.106 145.825 432.156 144.725C432.256 143.725 432.706 142.875 433.506 142.175C434.306 141.425 435.256 140.975 436.356 140.825C437.906 140.675 439.906 140.45 442.356 140.15C444.806 139.85 447.506 139.5 450.456 139.1C451.106 136.55 451.856 133.925 452.706 131.225C453.556 128.475 454.431 125.85 455.331 123.35C456.281 120.8 457.181 118.575 458.031 116.675C458.881 114.775 459.656 113.4 460.356 112.55C460.906 111.9 461.581 111.4 462.381 111.05C463.231 110.7 464.056 110.525 464.856 110.525C465.906 110.525 466.756 110.9 467.406 111.65C468.056 112.4 468.381 113.275 468.381 114.275C468.381 114.675 468.356 115.1 468.306 115.55C468.256 115.95 468.156 116.35 468.006 116.75C467.056 119.25 466.031 122.275 464.931 125.825C463.881 129.375 462.781 133.275 461.631 137.525C465.381 136.975 469.056 136.425 472.656 135.875C476.306 135.275 479.606 134.725 482.556 134.225C485.556 133.675 487.956 133.2 489.756 132.8C490.756 132.45 491.606 132.525 492.306 133.025C493.006 133.475 493.356 134.2 493.356 135.2ZM492.657 176.825C490.507 176.825 488.982 176.525 488.082 175.925C487.232 175.325 486.807 174.45 486.807 173.3C486.807 172.3 487.157 171.45 487.857 170.75C488.557 170 490.107 169.25 492.507 168.5C495.307 167.65 497.957 166.675 500.457 165.575C503.007 164.425 505.082 163.175 506.682 161.825C508.332 160.475 509.157 159.05 509.157 157.55C509.157 156.55 508.807 155.825 508.107 155.375C507.457 154.925 506.682 154.7 505.782 154.7C505.032 154.7 503.932 154.825 502.482 155.075C501.082 155.275 499.532 155.55 497.832 155.9C496.132 156.2 494.482 156.475 492.882 156.725C491.332 156.925 490.007 157.025 488.907 157.025C486.307 157.025 484.382 156.45 483.132 155.3C481.882 154.1 481.257 152.575 481.257 150.725C481.257 149.725 481.782 148.35 482.832 146.6C483.882 144.85 485.282 142.925 487.032 140.825C488.782 138.725 490.732 136.625 492.882 134.525C495.032 132.425 497.207 130.5 499.407 128.75C501.657 126.95 503.782 125.525 505.782 124.475C507.782 123.375 509.482 122.825 510.882 122.825C512.482 122.825 513.757 123.325 514.707 124.325C515.707 125.325 516.207 126.675 516.207 128.375C516.207 129.175 516.132 130.05 515.982 131C515.832 131.9 515.457 132.725 514.857 133.475C514.257 134.175 513.332 134.675 512.082 134.975C510.832 135.275 509.132 135.225 506.982 134.825C505.282 136.075 503.507 137.45 501.657 138.95C499.857 140.4 498.157 141.925 496.557 143.525C494.957 145.075 493.632 146.6 492.582 148.1C494.432 147.5 496.532 147.025 498.882 146.675C501.232 146.275 503.607 146.075 506.007 146.075C508.907 146.075 511.257 146.6 513.057 147.65C514.907 148.65 516.257 150 517.107 151.7C518.007 153.4 518.457 155.275 518.457 157.325C518.457 159.625 517.707 161.925 516.207 164.225C514.707 166.525 512.707 168.625 510.207 170.525C507.707 172.425 504.932 173.95 501.882 175.1C498.832 176.25 495.757 176.825 492.657 176.825Z" fill="#6B54C0"/>
</svg>
