<svg width="261" height="261" viewBox="0 0 261 261" fill="none" xmlns="http://www.w3.org/2000/svg">
<path d="M130.5 21.75C116.219 21.75 102.077 24.5629 88.8832 30.0281C75.689 35.4933 63.7005 43.5038 53.6021 53.6021C33.2076 73.9967 21.75 101.658 21.75 130.5C21.75 178.568 52.9613 219.349 96.135 233.812C101.573 234.682 103.312 231.311 103.312 228.375V209.996C73.1888 216.521 66.7725 195.424 66.7725 195.424C61.77 182.809 54.7013 179.438 54.7013 179.438C44.805 172.695 55.4625 172.912 55.4625 172.912C66.3375 173.674 72.1013 184.114 72.1013 184.114C81.5625 200.644 97.5487 195.75 103.747 193.14C104.726 186.071 107.554 181.286 110.599 178.568C86.4563 175.849 61.1175 166.496 61.1175 125.062C61.1175 112.991 65.25 103.312 72.3188 95.5912C71.2313 92.8725 67.425 81.5625 73.4062 66.8813C73.4062 66.8813 82.5413 63.945 103.312 77.9738C111.904 75.5813 121.256 74.385 130.5 74.385C139.744 74.385 149.096 75.5813 157.688 77.9738C178.459 63.945 187.594 66.8813 187.594 66.8813C193.575 81.5625 189.769 92.8725 188.681 95.5912C195.75 103.312 199.882 112.991 199.882 125.062C199.882 166.605 174.435 175.74 150.184 178.459C154.099 181.83 157.688 188.464 157.688 198.578V228.375C157.688 231.311 159.428 234.791 164.974 233.812C208.148 219.24 239.25 178.568 239.25 130.5C239.25 116.219 236.437 102.077 230.972 88.8832C225.507 75.689 217.496 63.7005 207.398 53.6021C197.299 43.5038 185.311 35.4933 172.117 30.0281C158.923 24.5629 144.781 21.75 130.5 21.75Z" fill="black"/>
</svg>
