<svg width="81" height="81" viewBox="0 0 81 81" fill="none" xmlns="http://www.w3.org/2000/svg">
<path d="M64.125 10.125C65.9152 10.125 67.6321 10.8362 68.898 12.102C70.1638 13.3679 70.875 15.0848 70.875 16.875V64.125C70.875 65.9152 70.1638 67.6321 68.898 68.898C67.6321 70.1638 65.9152 70.875 64.125 70.875H16.875C15.0848 70.875 13.3679 70.1638 12.102 68.898C10.8362 67.6321 10.125 65.9152 10.125 64.125V16.875C10.125 15.0848 10.8362 13.3679 12.102 12.102C13.3679 10.8362 15.0848 10.125 16.875 10.125H64.125ZM62.4375 62.4375V44.55C62.4375 41.632 61.2783 38.8334 59.2149 36.7701C57.1516 34.7067 54.353 33.5475 51.435 33.5475C48.5662 33.5475 45.225 35.3025 43.605 37.935V34.1888H34.1888V62.4375H43.605V45.7987C43.605 43.2 45.6975 41.0738 48.2963 41.0738C49.5494 41.0738 50.7512 41.5716 51.6373 42.4577C52.5234 43.3438 53.0213 44.5456 53.0213 45.7987V62.4375H62.4375ZM23.22 28.89C24.7238 28.89 26.166 28.2926 27.2293 27.2293C28.2926 26.166 28.89 24.7238 28.89 23.22C28.89 20.0813 26.3588 17.5163 23.22 17.5163C21.7073 17.5163 20.2565 18.1172 19.1868 19.1868C18.1172 20.2565 17.5163 21.7073 17.5163 23.22C17.5163 26.3588 20.0813 28.89 23.22 28.89ZM27.9113 62.4375V34.1888H18.5625V62.4375H27.9113Z" fill="black"/>
</svg>
