<svg width="163" height="162" viewBox="0 0 163 162" fill="none" xmlns="http://www.w3.org/2000/svg">
<path d="M27.4273 134.601C23.7261 134.601 20.5588 133.284 17.9254 130.651C15.292 128.017 13.973 124.848 13.9685 121.142V40.3895C13.9685 36.6883 15.2875 33.521 17.9254 30.8876C20.5633 28.2541 23.7306 26.9352 27.4273 26.9307H135.098C138.799 26.9307 141.968 28.2496 144.606 30.8876C147.244 33.5255 148.561 36.6928 148.557 40.3895V121.142C148.557 124.843 147.24 128.013 144.606 130.651C141.973 133.289 138.803 134.606 135.098 134.601H27.4273ZM81.2625 87.4953L135.098 53.8483V40.3895L81.2625 74.0365L27.4273 40.3895V53.8483L81.2625 87.4953Z" fill="black"/>
</svg>
