<svg width="351" height="78" viewBox="0 0 351 78" fill="none" xmlns="http://www.w3.org/2000/svg">
<path d="M48.816 60.896C47.5787 60.896 46.64 60.512 46 59.744C45.4027 58.976 45.104 57.9307 45.104 56.608C45.104 55.5413 45.1467 54.624 45.232 53.856C45.3173 53.088 45.488 52.2773 45.744 51.424C46 50.528 46.32 49.44 46.704 48.16C47.1307 46.8373 47.664 45.152 48.304 43.104C48.688 41.9093 49.1573 40.352 49.712 38.432C50.3093 36.4693 50.9067 34.336 51.504 32.032C52.1013 29.6853 52.592 27.3387 52.976 24.992C53.4027 22.6027 53.616 20.4053 53.616 18.4C53.616 17.0347 53.3173 15.776 52.72 14.624C48.752 18.5493 44.9973 23.6693 41.456 29.984C37.9573 36.2987 34.8427 43.6373 32.112 52C31.3013 54.0907 30.3627 55.4987 29.296 56.224C28.2293 56.9067 27.2053 57.248 26.224 57.248C25.9253 57.248 25.4773 57.0773 24.88 56.736C24.2827 56.352 23.728 55.6693 23.216 54.688C22.704 53.7067 22.448 52.32 22.448 50.528C22.448 50.1013 22.5547 49.568 22.768 48.928C22.9813 48.2453 23.3013 47.52 23.728 46.752C24.112 44.5333 24.3893 42.1653 24.56 39.648C24.7733 37.088 24.9013 34.5493 24.944 32.032C25.0293 29.472 25.072 27.0827 25.072 24.864C25.072 23.1573 24.944 21.664 24.688 20.384C22.5973 23.0293 20.6133 26.2293 18.736 29.984C16.8587 33.7387 15.152 37.728 13.616 41.952C12.1227 46.176 10.8853 50.3147 9.904 54.368C9.648 55.3493 9.34933 56.2667 9.008 57.12C8.66667 57.9307 8.15467 58.592 7.472 59.104C6.832 59.5733 5.89333 59.808 4.656 59.808C3.29067 59.808 2.26667 59.2533 1.584 58.144C0.901333 57.0347 0.56 55.5627 0.56 53.728C0.56 52.32 0.858667 50.5067 1.456 48.288C2.05333 46.0267 2.864 43.5733 3.888 40.928C4.912 38.24 6.08533 35.5093 7.408 32.736C8.77333 29.92 10.2027 27.2107 11.696 24.608C13.1893 22.0053 14.704 19.68 16.24 17.632C17.8187 15.5413 19.312 13.8987 20.72 12.704C22.1707 11.4667 23.4933 10.848 24.688 10.848C24.7307 10.848 24.7947 10.848 24.88 10.848C25.8187 10.848 26.672 10.9333 27.44 11.104C28.2507 11.232 28.9547 11.68 29.552 12.448C30.192 13.1733 30.7467 14.3893 31.216 16.096C31.6853 17.8027 32.0907 20.2133 32.432 23.328C32.5173 24.096 32.5813 25.0133 32.624 26.08C32.6667 27.104 32.688 28.1707 32.688 29.28C34.096 26.1227 35.632 23.1573 37.296 20.384C39.0027 17.6107 40.752 15.1573 42.544 13.024C44.3787 10.8907 46.192 9.22666 47.984 8.032C49.776 6.83733 51.44 6.24 52.976 6.24C54.768 6.24 56.432 6.688 57.968 7.584C59.504 8.43733 60.7413 9.888 61.68 11.936C62.6187 13.984 63.088 16.7787 63.088 20.32C63.088 24.0747 62.7467 27.7227 62.064 31.264C61.3813 34.7627 60.528 38.0693 59.504 41.184C58.48 44.2987 57.456 47.1573 56.432 49.76C55.408 52.32 54.5547 54.5387 53.872 56.416C53.3173 57.7387 52.6773 58.8267 51.952 59.68C51.2267 60.4907 50.1813 60.896 48.816 60.896ZM80.854 77.6C78.4647 77.6 76.2887 77.4507 74.326 77.152C72.3633 76.896 70.4433 76.4693 68.566 75.872C66.6887 75.2747 64.662 74.4853 62.486 73.504C61.59 73.0773 60.8433 72.6293 60.246 72.16C59.6487 71.6907 59.35 70.9867 59.35 70.048C59.35 68.6827 59.7767 67.6373 60.63 66.912C61.4407 66.2293 62.5713 65.888 64.022 65.888C64.79 65.888 65.7713 66.144 66.966 66.656C68.1607 67.2107 69.526 67.8293 71.062 68.512C72.6407 69.2373 74.39 69.856 76.31 70.368C78.23 70.9227 80.2993 71.2 82.518 71.2C84.7793 71.2 86.8913 70.2613 88.854 68.384C90.8167 66.5067 92.3953 63.8613 93.59 60.448C94.8273 57.0773 95.446 53.088 95.446 48.48C95.446 47.4133 95.4247 46.2613 95.382 45.024C95.3393 43.744 95.2967 42.4 95.254 40.992C93.718 43.8933 92.054 46.6027 90.262 49.12C88.47 51.6373 86.614 53.6853 84.694 55.264C82.8167 56.8 80.918 57.568 78.998 57.568C76.6513 57.568 74.9447 57.0133 73.878 55.904C72.854 54.752 72.342 52.9387 72.342 50.464C72.342 48.3733 72.4913 46.0907 72.79 43.616C73.1313 41.0987 73.5793 38.56 74.134 36C74.6887 33.44 75.3287 31.008 76.054 28.704C76.822 26.3573 77.6327 24.3307 78.486 22.624C79.126 21.3867 80.1073 20.768 81.43 20.768C82.2833 20.768 83.1367 21.1733 83.99 21.984C84.886 22.7947 85.334 23.8827 85.334 25.248C85.334 26.016 85.142 27.1253 84.758 28.576C84.374 30.0267 83.9047 31.6693 83.35 33.504C82.838 35.296 82.3047 37.1947 81.75 39.2C81.1953 41.1627 80.726 43.104 80.342 45.024C79.958 46.9013 79.766 48.608 79.766 50.144C79.766 50.3147 79.894 50.4 80.15 50.4C80.662 50.4 81.3447 49.9733 82.198 49.12C83.094 48.224 84.0753 47.072 85.142 45.664C86.2513 44.2133 87.3607 42.6347 88.47 40.928C89.622 39.1787 90.7313 37.4507 91.798 35.744C92.8647 34.0373 93.8247 32.48 94.678 31.072C94.55 30.3893 94.4647 29.792 94.422 29.28C94.422 28.7253 94.422 28.256 94.422 27.872C94.422 26.1227 94.7207 24.672 95.318 23.52C95.958 22.368 97.1953 21.792 99.03 21.792C100.225 21.792 101.142 22.24 101.782 23.136C102.422 23.9893 102.742 25.2053 102.742 26.784C102.742 27.4667 102.635 28.256 102.422 29.152C102.209 30.0053 101.782 31.3707 101.142 33.248L101.846 31.264C102.23 35.104 102.55 38.5173 102.806 41.504C103.105 44.4907 103.254 47.456 103.254 50.4C103.254 55.9467 102.315 60.7467 100.438 64.8C98.6033 68.896 96.0007 72.0533 92.63 74.272C89.302 76.4907 85.3767 77.6 80.854 77.6ZM188.414 62.176C187.006 62.176 185.64 62.0053 184.318 61.664C182.995 61.3653 181.8 60.64 180.734 59.488C179.667 58.336 178.792 56.544 178.11 54.112C177.427 51.6373 177.022 48.288 176.894 44.064C175.102 47.1787 173.118 49.9733 170.942 52.448C168.808 54.9227 166.654 56.8853 164.478 58.336C162.344 59.744 160.339 60.448 158.462 60.448C156.584 60.448 154.878 59.9787 153.342 59.04C151.848 58.1013 150.654 56.5227 149.758 54.304C148.904 52.0853 148.478 49.0773 148.478 45.28C148.478 42.336 148.734 39.3493 149.246 36.32C149.758 33.248 150.419 30.3253 151.23 27.552C152.04 24.736 152.915 22.2187 153.854 20C154.792 17.7813 155.71 16.032 156.606 14.752C157.544 13.472 158.355 12.832 159.038 12.832C160.659 12.832 161.854 13.2587 162.622 14.112C163.39 14.9227 163.774 15.968 163.774 17.248C163.774 17.8027 163.539 18.8907 163.07 20.512C162.6 22.0907 162.024 24.0107 161.342 26.272C160.659 28.4907 159.955 30.88 159.23 33.44C158.547 35.9573 157.971 38.4533 157.502 40.928C157.032 43.4027 156.798 45.664 156.798 47.712C156.798 48.5653 156.862 49.2907 156.99 49.888C157.16 50.4427 157.459 50.72 157.885 50.72C160.147 50.72 162.238 49.8667 164.158 48.16C166.12 46.4107 167.912 44.1067 169.534 41.248C171.198 38.3467 172.67 35.168 173.95 31.712C175.272 28.2133 176.446 24.7147 177.47 21.216C177.384 20.448 177.32 19.7013 177.278 18.976C177.278 18.2507 177.278 17.4613 177.278 16.608C177.278 15.6693 177.64 14.6667 178.366 13.6C179.091 12.5333 179.966 11.6373 180.99 10.912C182.056 10.144 183.059 9.76 183.998 9.76C185.064 9.76 185.939 10.1013 186.622 10.784C187.347 11.4667 187.71 12.6613 187.71 14.368C187.71 15.776 187.646 16.9493 187.518 17.888C187.432 18.784 187.283 19.6373 187.07 20.448C186.899 21.2587 186.707 22.176 186.494 23.2C186.323 24.1813 186.131 25.4613 185.918 27.04C185.747 28.6187 185.598 30.6453 185.47 33.12C185.384 35.5947 185.342 38.7093 185.342 42.464C185.342 42.72 185.342 42.976 185.342 43.232C185.342 43.4453 185.342 43.68 185.342 43.936C185.299 45.1307 185.32 46.3467 185.406 47.584C185.491 48.8213 185.811 49.8453 186.366 50.656C186.92 51.4667 187.902 51.872 189.31 51.872C190.846 51.872 192.296 50.8907 193.662 48.928C195.027 46.9653 196.243 44.2347 197.31 40.736C198.376 37.1947 199.294 33.056 200.062 28.32C200.83 23.5413 201.406 18.3787 201.79 12.832C201.918 10.9547 202.238 9.54667 202.75 8.608C203.304 7.66933 203.923 7.05066 204.606 6.752C205.288 6.41066 205.886 6.24 206.398 6.24C206.91 6.24 207.528 6.32533 208.254 6.496C208.979 6.66667 209.619 7.15733 210.174 7.968C210.728 8.77866 211.006 10.144 211.006 12.064C211.006 19.4027 210.472 25.8453 209.406 31.392C208.339 36.9387 206.952 41.6747 205.246 45.6C203.539 49.5253 201.662 52.704 199.614 55.136C197.608 57.568 195.624 59.3387 193.662 60.448C191.699 61.6 189.95 62.176 188.414 62.176ZM229.205 62.112C226.176 62.112 223.744 61.0453 221.909 58.912C220.074 56.736 219.157 53.8347 219.157 50.208C219.157 49.056 219.306 47.8827 219.605 46.688C219.946 45.4933 220.352 44.384 220.821 43.36C220.565 42.976 220.352 42.4853 220.181 41.888C220.053 41.248 219.989 40.5013 219.989 39.648C219.989 36.8747 220.48 34.336 221.461 32.032C222.442 29.6853 223.765 27.6587 225.429 25.952C227.093 24.2453 228.928 22.9227 230.933 21.984C232.938 21.0453 234.965 20.576 237.013 20.576C240.512 20.576 243.37 21.7493 245.589 24.096C247.85 26.4427 248.981 30.0907 248.981 35.04C248.981 37.5147 248.597 40.032 247.829 42.592C247.061 45.152 246.016 47.6053 244.693 49.952C243.413 52.256 241.92 54.3253 240.213 56.16C238.549 57.9947 236.757 59.4453 234.837 60.512C232.96 61.5787 231.082 62.112 229.205 62.112ZM228.181 40.48C228.394 40.9493 228.501 41.504 228.501 42.144C228.501 42.784 228.373 43.4453 228.117 44.128C227.861 44.8107 227.605 45.728 227.349 46.88C227.093 47.9893 226.965 49.5893 226.965 51.68C226.965 52.2347 227.029 52.704 227.157 53.088C227.328 53.4293 227.69 53.6 228.245 53.6C229.696 53.6 231.061 53.1307 232.341 52.192C233.664 51.2533 234.837 50.016 235.861 48.48C236.928 46.944 237.824 45.2373 238.549 43.36C239.317 41.44 239.893 39.4987 240.277 37.536C240.704 35.5307 240.917 33.6747 240.917 31.968C240.917 30.8587 240.704 30.0907 240.277 29.664C239.85 29.2373 239.104 29.024 238.037 29.024C236.586 29.024 235.093 29.4933 233.557 30.432C232.064 31.328 230.805 32.5653 229.781 34.144C228.757 35.68 228.245 37.4293 228.245 39.392C228.245 39.776 228.224 40.1387 228.181 40.48ZM258.905 62.816C257.838 62.816 256.921 62.432 256.153 61.664C255.427 60.896 255.065 59.7867 255.065 58.336C255.065 57.696 255.15 56.6507 255.321 55.2C255.534 53.7067 255.79 52 256.089 50.08C256.43 48.16 256.75 46.1547 257.049 44.064C257.39 41.9733 257.667 39.9893 257.881 38.112C258.137 36.2347 258.307 34.6347 258.393 33.312C258.478 31.6907 258.905 30.5387 259.673 29.856C260.441 29.1307 261.358 28.768 262.425 28.768C263.278 28.768 264.046 28.9813 264.729 29.408C265.454 29.792 265.902 30.624 266.073 31.904C266.286 33.1413 266.307 34.9333 266.137 37.28C268.014 33.8667 269.913 30.816 271.833 28.128C273.795 25.44 275.843 23.3067 277.977 21.728C281.518 19.04 284.718 17.696 287.576 17.696C289.198 17.696 290.265 18.0587 290.777 18.784C291.289 19.5093 291.545 20.256 291.545 21.024C291.545 21.536 291.417 22.0053 291.161 22.432C290.947 22.8587 290.478 23.3067 289.753 23.776C289.027 24.2453 287.918 24.864 286.425 25.632C284.419 26.656 282.435 28 280.473 29.664C278.553 31.328 276.633 33.4613 274.713 36.064C272.793 38.6667 270.851 41.8667 268.889 45.664C266.926 49.4613 264.899 53.984 262.809 59.232C262.425 60.6827 261.87 61.6427 261.145 62.112C260.462 62.5813 259.715 62.816 258.905 62.816ZM324.386 64.672C321.484 64.672 318.796 64.0533 316.322 62.816C313.847 61.6213 311.586 60.0427 309.538 58.08C307.49 56.0747 305.655 53.8987 304.034 51.552C302.455 49.1627 301.111 46.816 300.002 44.512C299.49 46.8587 299.02 48.864 298.594 50.528C298.21 52.192 297.89 53.5787 297.634 54.688C297.42 55.5413 297.186 56.3733 296.93 57.184C296.716 57.9947 296.375 58.656 295.906 59.168C295.436 59.68 294.775 59.936 293.922 59.936C292.087 59.936 290.914 59.3173 290.402 58.08C289.89 56.8 289.634 55.1787 289.634 53.216C289.634 51.4667 289.911 49.1627 290.466 46.304C291.063 43.4453 291.852 40.2453 292.834 36.704C293.815 33.1627 294.946 29.5147 296.226 25.76C297.548 21.9627 298.956 18.272 300.45 14.688C301.943 11.0613 303.436 7.776 304.93 4.832C305.868 3.04 306.7 1.90933 307.426 1.44C308.151 0.927998 309.004 0.671997 309.986 0.671997C310.967 0.671997 311.714 0.927998 312.226 1.44C312.738 1.952 312.994 2.63466 312.994 3.488C312.994 4.04266 312.866 4.59733 312.61 5.152C312.354 5.70666 312.076 6.38933 311.778 7.2C310.796 9.376 309.772 11.9147 308.706 14.816C307.639 17.6747 306.615 20.64 305.634 23.712C304.652 26.7413 303.778 29.6213 303.01 32.352C305.1 31.1147 307.426 29.92 309.986 28.768C312.546 27.5733 315.127 26.5067 317.729 25.568C320.375 24.5867 322.85 23.8187 325.154 23.264C327.458 22.7093 329.399 22.432 330.978 22.432C332.215 22.432 333.154 22.7947 333.794 23.52C334.434 24.2453 334.754 25.0347 334.754 25.888C334.754 26.528 334.562 27.168 334.178 27.808C333.794 28.448 332.983 29.0027 331.746 29.472C327.65 30.8373 323.575 32.224 319.522 33.632C315.511 35.04 311.052 36.704 306.146 38.624C307.17 40.6293 308.364 42.6987 309.73 44.832C311.095 46.9227 312.567 48.8853 314.146 50.72C315.724 52.512 317.346 53.984 319.01 55.136C320.674 56.2453 322.316 56.8 323.938 56.8C326.327 56.8 328.631 56.3307 330.85 55.392C333.068 54.4107 335.116 53.2373 336.994 51.872C338.871 50.464 340.514 49.0987 341.922 47.776C343.372 46.4533 344.503 45.4293 345.314 44.704C345.783 44.2347 346.231 43.8933 346.658 43.68C347.127 43.4667 347.703 43.36 348.386 43.36C349.196 43.36 349.815 43.616 350.242 44.128C350.711 44.5973 350.924 45.216 350.882 45.984C350.839 46.7093 350.476 47.4347 349.794 48.16C349.239 48.7573 348.364 49.7173 347.17 51.04C346.018 52.32 344.61 53.7493 342.946 55.328C341.324 56.864 339.511 58.3573 337.506 59.808C335.543 61.216 333.452 62.368 331.234 63.264C329.015 64.2027 326.732 64.672 324.386 64.672Z" fill="black"/>
</svg>
