<svg width="354" height="37" viewBox="0 0 354 37" fill="none" xmlns="http://www.w3.org/2000/svg">
<path d="M3.36 35.56C2.29333 35.56 1.49333 35.2667 0.96 34.68C0.426667 34.0933 0.16 33.4933 0.16 32.88C0.16 32.16 0.293333 31.6133 0.56 31.24C0.826667 30.8667 1.34667 30.5867 2.12 30.4C3.13333 30.1867 4.18667 29.92 5.28 29.6C6.4 29.28 7.46667 28.9467 8.48 28.6C9.52 28.2267 10.4267 27.8533 11.2 27.48C11.9733 27.08 12.5333 26.7067 12.88 26.36C12.4533 26.12 11.7733 25.84 10.84 25.52C9.90667 25.1733 8.86667 24.7733 7.72 24.32C6.6 23.84 5.52 23.28 4.48 22.64C3.44 22 2.58667 21.2533 1.92 20.4C1.25333 19.5467 0.92 18.5733 0.92 17.48C0.92 15.96 1.30667 14.5333 2.08 13.2C2.85333 11.8667 3.88 10.6267 5.16 9.48C6.44 8.33333 7.82667 7.28 9.32 6.32C10.84 5.36 12.3467 4.49333 13.84 3.72C15.36 2.92 16.72 2.21333 17.92 1.6C18.3733 1.33333 18.8 1.16 19.2 1.08C19.6267 0.973333 20.0133 0.919999 20.36 0.919999C21.56 0.919999 22.3867 1.21333 22.84 1.8C23.2933 2.38666 23.52 2.98666 23.52 3.6C23.52 4.02667 23.32 4.53333 22.92 5.12C22.52 5.68 21.88 6.2 21 6.68C20.1467 7.16 19.0133 7.50667 17.6 7.72C17.36 7.74667 17.1467 7.77333 16.96 7.8C15.8933 8.33333 14.7467 8.97333 13.52 9.72C12.2933 10.4667 11.1333 11.2533 10.04 12.08C8.97333 12.88 8.09333 13.68 7.4 14.48C6.70667 15.28 6.36 16 6.36 16.64C6.36 17.36 6.65333 18.0133 7.24 18.6C7.82667 19.16 8.57333 19.68 9.48 20.16C10.4133 20.6133 11.3867 21.0533 12.4 21.48C13.44 21.9067 14.4133 22.3467 15.32 22.8C16.2533 23.2267 17.0133 23.7067 17.6 24.24C18.1867 24.7733 18.48 25.3733 18.48 26.04C18.48 26.9467 18.1733 27.8133 17.56 28.64C16.9467 29.4667 16.1467 30.24 15.16 30.96C14.1733 31.6533 13.0933 32.28 11.92 32.84C10.7467 33.4 9.58667 33.88 8.44 34.28C7.32 34.7067 6.30667 35.0267 5.4 35.24C4.49333 35.4533 3.81333 35.56 3.36 35.56ZM28.4163 34.6C27.6696 34.6 27.0029 34.3467 26.4163 33.84C25.8563 33.3333 25.5763 32.5067 25.5763 31.36C25.5763 30.7467 25.6563 29.88 25.8163 28.76C26.0029 27.64 26.2429 26.4267 26.5363 25.12C26.8296 23.7867 27.1496 22.4667 27.4963 21.16C27.8696 19.8533 28.2296 18.6933 28.5763 17.68C28.9229 16.64 29.2296 15.8667 29.4963 15.36C29.8429 14.7467 30.1629 14.3733 30.4563 14.24C30.7763 14.08 31.0829 14 31.3763 14C31.9096 14 32.4029 14.16 32.8563 14.48C33.3363 14.8 33.5763 15.5067 33.5763 16.6C33.5763 17.0267 33.4963 17.72 33.3363 18.68C33.1763 19.6133 32.9763 20.7067 32.7363 21.96C32.4963 23.2133 32.2296 24.5067 31.9363 25.84C31.6696 27.1733 31.4029 28.44 31.1363 29.64C30.8963 30.8133 30.6963 31.8 30.5363 32.6C30.4029 33.2667 30.1229 33.76 29.6963 34.08C29.2963 34.4267 28.8696 34.6 28.4163 34.6ZM33.0163 10.04C32.1363 10.04 31.3229 9.78667 30.5763 9.28C29.8296 8.74667 29.4563 7.93333 29.4563 6.84C29.4563 5.93333 29.6829 5.2 30.1363 4.64C30.5896 4.08 31.1229 3.68 31.7363 3.44C32.3763 3.17333 32.9363 3.04 33.4163 3.04C33.8963 3.04 34.4296 3.14666 35.0163 3.36C35.6029 3.54666 36.1096 3.90666 36.5363 4.44C36.9896 4.94667 37.2163 5.68 37.2163 6.64C37.2163 7.28 36.9896 7.86667 36.5363 8.4C36.0829 8.90666 35.5229 9.30667 34.8563 9.6C34.2163 9.89333 33.6029 10.04 33.0163 10.04ZM74.8103 33.08C74.6503 34.52 73.797 35.24 72.2503 35.24C71.4503 35.24 70.8103 35 70.3303 34.52C69.877 34.04 69.6503 33.3467 69.6503 32.44C69.6503 30.8933 69.717 29.24 69.8503 27.48C70.0103 25.6933 70.197 23.8933 70.4103 22.08C70.6503 20.2667 70.877 18.5333 71.0903 16.88C70.1303 18.2667 69.117 19.6933 68.0503 21.16C66.9836 22.6267 65.917 24.0533 64.8503 25.44C63.7836 26.8267 62.757 28.08 61.7703 29.2C60.8103 30.2933 59.9303 31.1733 59.1303 31.84C58.3303 32.48 57.6636 32.8 57.1303 32.8C55.8503 32.8 54.7436 32.3333 53.8103 31.4C52.877 30.44 52.4103 29.2267 52.4103 27.76C52.4103 27.2533 52.4636 26.5733 52.5703 25.72C52.677 24.84 52.8103 23.9067 52.9703 22.92C53.1303 21.9333 53.2636 21 53.3703 20.12C53.477 19.24 53.5303 18.5467 53.5303 18.04C53.5303 18.04 53.5303 18.0133 53.5303 17.96C53.557 17.8267 53.5303 17.76 53.4503 17.76C53.3436 17.76 53.0503 18.12 52.5703 18.84C52.0903 19.5333 51.5036 20.44 50.8103 21.56C50.117 22.68 49.3836 23.8533 48.6103 25.08C47.8636 26.3067 47.157 27.4533 46.4903 28.52C45.8503 29.5867 45.317 30.4133 44.8903 31C44.3036 31.9067 43.757 32.48 43.2503 32.72C42.7436 32.96 42.157 33.08 41.4903 33.08C40.557 33.08 39.8236 32.7733 39.2903 32.16C38.7836 31.52 38.5303 30.6267 38.5303 29.48C38.5303 29 38.6103 28.2533 38.7703 27.24C38.957 26.2267 39.1836 25.1067 39.4503 23.88C39.717 22.6267 39.9836 21.4133 40.2503 20.24C40.5436 19.04 40.797 18.0267 41.0103 17.2C41.2503 16.1067 41.5836 15.3467 42.0103 14.92C42.4636 14.4667 43.037 14.24 43.7303 14.24C45.357 14.24 46.1703 15.04 46.1703 16.64C46.1703 16.9333 46.077 17.4133 45.8903 18.08C45.7036 18.7467 45.477 19.52 45.2103 20.4C44.9436 21.28 44.6636 22.1867 44.3703 23.12C44.077 24.0267 43.837 24.88 43.6503 25.68C44.2903 24.56 44.9836 23.36 45.7303 22.08C46.477 20.8 47.237 19.5467 48.0103 18.32C48.8103 17.0933 49.597 15.9733 50.3703 14.96C51.1703 13.9467 51.957 13.1467 52.7303 12.56C53.5036 11.9467 54.237 11.64 54.9303 11.64C55.6236 11.64 56.3036 11.8933 56.9703 12.4C57.637 12.88 58.1836 13.5067 58.6103 14.28C59.0636 15.0267 59.2903 15.8267 59.2903 16.68C59.2903 17.48 59.1836 18.44 58.9703 19.56C58.757 20.68 58.517 21.8533 58.2503 23.08C57.9836 24.3067 57.797 25.5067 57.6903 26.68C58.597 25.6667 59.557 24.52 60.5703 23.24C61.5836 21.9333 62.6236 20.5867 63.6903 19.2C64.757 17.8133 65.797 16.4667 66.8103 15.16C67.8503 13.8533 68.8103 12.6667 69.6903 11.6C70.597 10.5333 71.397 9.69333 72.0903 9.08C72.7836 8.44 73.317 8.12 73.6903 8.12C74.7836 8.12 75.637 8.41333 76.2503 9C76.8903 9.56 77.2103 10.5467 77.2103 11.96C77.2103 12.84 77.1436 13.9867 77.0103 15.4C76.9036 16.8133 76.7436 18.3467 76.5303 20C76.3436 21.6267 76.1303 23.28 75.8903 24.96C75.677 26.6133 75.477 28.1467 75.2903 29.56C75.1036 30.9733 74.9436 32.1467 74.8103 33.08ZM109.729 36.04C108.689 36.04 107.929 35.76 107.449 35.2C106.969 34.6667 106.729 33.5867 106.729 31.96C106.729 30.5733 106.956 28.7733 107.409 26.56C107.863 24.3467 108.369 21.96 108.929 19.4C105.969 22.7067 102.556 24.8133 98.6894 25.72C97.916 27.32 97.0094 28.7867 95.9694 30.12C94.9294 31.4533 93.796 32.5333 92.5694 33.36C91.3694 34.16 90.116 34.56 88.8094 34.56C87.1827 34.56 85.7827 34.0267 84.6094 32.96C83.4627 31.8933 82.8894 30.2533 82.8894 28.04C82.8894 26.5467 83.116 25.28 83.5694 24.24C84.0227 23.1733 84.5427 22.3733 85.1294 21.84C84.6494 20.8267 84.4094 19.6667 84.4094 18.36C84.4094 16.6 84.8894 15.04 85.8494 13.68C86.8094 12.32 88.076 11.2533 89.6494 10.48C91.2494 9.70667 92.9827 9.32 94.8494 9.32C95.8894 9.32 96.876 9.58667 97.8094 10.12C98.7694 10.6267 99.5427 11.4133 100.129 12.48C100.743 13.52 101.049 14.84 101.049 16.44C101.049 17.7733 100.849 19.24 100.449 20.84C102.343 19.72 104.209 18.1867 106.049 16.24C107.916 14.2933 109.583 12.1067 111.049 9.68C111.503 8.96 112.143 8.6 112.969 8.6C113.663 8.6 114.209 8.81333 114.609 9.24C115.036 9.64 115.249 10.1733 115.249 10.84C115.249 10.9733 115.169 11.4133 115.009 12.16C114.849 12.9067 114.636 13.88 114.369 15.08C114.103 16.2533 113.809 17.5467 113.489 18.96C113.196 20.3733 112.903 21.8133 112.609 23.28C112.316 24.7467 112.049 26.1333 111.809 27.44C112.503 26.1867 113.249 24.8533 114.049 23.44C114.876 22 115.729 20.5867 116.609 19.2C117.489 17.7867 118.356 16.5067 119.209 15.36C120.063 14.2133 120.849 13.3067 121.569 12.64C122.289 11.9467 122.903 11.6 123.409 11.6C124.423 11.6 125.276 11.8933 125.969 12.48C126.663 13.0667 127.009 13.6667 127.009 14.28C127.009 14.8933 126.943 15.84 126.809 17.12C126.676 18.4 126.503 19.84 126.289 21.44C126.103 23.0133 125.903 24.6 125.689 26.2C125.476 27.8 125.303 29.2533 125.169 30.56C125.036 31.84 124.969 32.8 124.969 33.44C124.969 33.9733 124.716 34.48 124.209 34.96C123.703 35.44 123.129 35.68 122.489 35.68C122.436 35.68 122.343 35.68 122.209 35.68C121.889 35.7067 121.596 35.6533 121.329 35.52C121.063 35.4133 120.836 35.0133 120.649 34.32C120.489 33.6267 120.409 32.4533 120.409 30.8C120.409 29.68 120.463 28.4533 120.569 27.12C120.676 25.7867 120.809 24.4533 120.969 23.12C121.156 21.76 121.356 20.4933 121.569 19.32C120.876 20.4667 120.103 21.7733 119.249 23.24C118.423 24.68 117.556 26.16 116.649 27.68C115.743 29.1733 114.849 30.56 113.969 31.84C113.116 33.0933 112.316 34.1067 111.569 34.88C110.849 35.6533 110.236 36.04 109.729 36.04ZM94.6894 22.68C95.036 21.64 95.316 20.56 95.5294 19.44C95.7427 18.2933 95.8494 17.1733 95.8494 16.08C95.8494 15.6267 95.756 15.1867 95.5694 14.76C95.3827 14.3333 95.0627 14.12 94.6094 14.12C93.7027 14.12 92.8094 14.3067 91.9294 14.68C91.076 15.0533 90.3694 15.5867 89.8094 16.28C89.2494 16.9733 88.9694 17.8 88.9694 18.76C88.9694 19.6133 89.2494 20.3333 89.8094 20.92C90.396 21.5067 91.116 21.9467 91.9694 22.24C92.8494 22.5333 93.716 22.68 94.5694 22.68C94.596 22.68 94.636 22.68 94.6894 22.68ZM93.0494 26.2C92.116 26.1733 91.2094 26.0533 90.3294 25.84C89.4494 25.6 88.6494 25.2667 87.9294 24.84C87.8494 25.2667 87.7694 25.68 87.6894 26.08C87.6094 26.4533 87.5694 26.8133 87.5694 27.16C87.5694 27.7467 87.6627 28.28 87.8494 28.76C88.0627 29.2133 88.4894 29.44 89.1294 29.44C89.796 29.44 90.4627 29.1467 91.1294 28.56C91.8227 27.9733 92.4627 27.1867 93.0494 26.2ZM140.049 35.36C138.396 35.36 137.063 34.7867 136.049 33.64C135.036 32.4667 134.529 30.5867 134.529 28C134.529 26.3467 134.716 24.6933 135.089 23.04C135.489 21.36 136.036 19.7733 136.729 18.28C137.449 16.76 138.276 15.4133 139.209 14.24C140.169 13.0667 141.223 12.1467 142.369 11.48C143.516 10.7867 144.703 10.44 145.929 10.44C148.009 10.44 149.636 11 150.809 12.12C151.983 13.24 152.569 14.6667 152.569 16.4C152.569 17.7333 152.196 18.9467 151.449 20.04C150.729 21.1067 149.743 22.0667 148.489 22.92C147.236 23.7733 145.836 24.5467 144.289 25.24C142.743 25.9333 141.156 26.56 139.529 27.12C139.396 28.08 139.329 28.9333 139.329 29.68C139.329 30.1333 139.583 30.36 140.089 30.36C141.289 30.36 142.569 30.1733 143.929 29.8C145.316 29.4 146.716 28.8933 148.129 28.28C149.543 27.64 150.903 26.9867 152.209 26.32C153.516 25.6267 154.703 24.9733 155.769 24.36C156.863 23.72 157.756 23.2133 158.449 22.84C159.169 22.44 159.636 22.24 159.849 22.24C160.436 22.24 160.863 22.4133 161.129 22.76C161.396 23.1067 161.529 23.48 161.529 23.88C161.529 24.0667 161.169 24.48 160.449 25.12C159.756 25.76 158.796 26.52 157.569 27.4C156.369 28.2533 155.009 29.1467 153.489 30.08C151.996 30.9867 150.436 31.8533 148.809 32.68C147.209 33.48 145.649 34.12 144.129 34.6C142.636 35.1067 141.276 35.36 140.049 35.36ZM140.209 23.56C141.303 22.92 142.383 22.2533 143.449 21.56C144.543 20.84 145.449 20.04 146.169 19.16C146.889 18.2533 147.249 17.2 147.249 16C147.249 15.6533 147.156 15.4267 146.969 15.32C146.783 15.1867 146.516 15.12 146.169 15.12C145.236 15.12 144.383 15.5333 143.609 16.36C142.863 17.1867 142.196 18.2533 141.609 19.56C141.049 20.84 140.583 22.1733 140.209 23.56ZM181.172 36.44C180.398 36.44 179.785 36.2267 179.332 35.8C178.905 35.4 178.692 34.8267 178.692 34.08C178.692 33.3867 178.878 32.8 179.252 32.32C179.625 31.8133 180.345 31.3333 181.412 30.88C181.492 30.8533 181.572 30.8267 181.652 30.8C180.985 30.6667 180.518 30.2933 180.252 29.68C180.012 29.0667 179.892 28.36 179.892 27.56C179.892 27.1067 179.972 26.3733 180.132 25.36C180.292 24.3467 180.492 23.1867 180.732 21.88C180.972 20.5733 181.225 19.28 181.492 18C181.758 16.6933 181.985 15.5467 182.172 14.56C182.678 12.2933 183.332 10.2933 184.132 8.56C184.932 6.82667 186.012 5.48 187.372 4.52C188.732 3.53333 190.478 3.04 192.612 3.04C194.238 3.04 195.838 3.38667 197.412 4.08C199.012 4.74667 200.465 5.69333 201.772 6.92C203.078 8.14666 204.118 9.58667 204.892 11.24C205.692 12.8933 206.092 14.7067 206.092 16.68C206.092 18.92 205.212 21.1733 203.452 23.44C201.692 25.7067 199.225 27.88 196.052 29.96C192.905 32.0133 189.225 33.8667 185.012 35.52C184.318 35.7867 183.692 36 183.132 36.16C182.598 36.3467 181.945 36.44 181.172 36.44ZM184.612 29.64C188.478 28.0933 191.598 26.6133 193.972 25.2C196.345 23.7867 198.065 22.2933 199.132 20.72C200.225 19.1467 200.772 17.36 200.772 15.36C200.772 14.24 200.398 13.1733 199.652 12.16C198.905 11.1467 197.945 10.3333 196.772 9.72C195.598 9.08 194.358 8.76 193.052 8.76C191.638 8.76 190.505 9.33333 189.652 10.48C188.798 11.6 188.118 13.52 187.612 16.24C187.372 17.3333 187.118 18.52 186.852 19.8C186.612 21.0533 186.372 22.2667 186.132 23.44C185.918 24.5867 185.732 25.5467 185.572 26.32C185.438 27.0933 185.358 27.5467 185.332 27.68C185.198 28.48 184.958 29.1333 184.612 29.64ZM226.635 35.8C226.022 35.8 225.462 35.5467 224.955 35.04C224.475 34.56 224.235 33.7467 224.235 32.6C224.235 31.7467 224.302 30.56 224.435 29.04C224.595 27.4933 224.888 25.5067 225.315 23.08C224.382 25 223.408 26.7067 222.395 28.2C221.382 29.6933 220.382 30.8667 219.395 31.72C218.435 32.5467 217.515 32.96 216.635 32.96C215.222 32.96 214.102 32.5333 213.275 31.68C212.448 30.8 212.035 29.16 212.035 26.76C212.035 25.6133 212.128 24.32 212.315 22.88C212.528 21.44 212.795 20 213.115 18.56C213.435 17.12 213.755 15.84 214.075 14.72C214.422 13.5733 214.728 12.72 214.995 12.16C215.208 11.68 215.475 11.3067 215.795 11.04C216.142 10.7733 216.582 10.64 217.115 10.64C217.968 10.64 218.622 10.92 219.075 11.48C219.528 12.04 219.755 12.6133 219.755 13.2C219.755 13.6533 219.648 14.3067 219.435 15.16C219.248 16.0133 219.008 16.96 218.715 18C218.448 19.04 218.168 20.1067 217.875 21.2C217.582 22.2933 217.328 23.32 217.115 24.28C216.928 25.24 216.835 26.0533 216.835 26.72C216.835 27.5467 217.155 27.96 217.795 27.96C218.168 27.96 218.648 27.6 219.235 26.88C219.848 26.16 220.488 25.2 221.155 24C221.848 22.7733 222.542 21.44 223.235 20C223.955 18.5333 224.608 17.0533 225.195 15.56C225.808 14.04 226.328 12.64 226.755 11.36C227.022 10.56 227.382 10 227.835 9.68C228.288 9.36 228.808 9.2 229.395 9.2C230.302 9.2 230.995 9.45333 231.475 9.96C231.982 10.4667 232.235 11.1867 232.235 12.12C232.235 12.5467 232.168 13.2667 232.035 14.28C231.902 15.2933 231.728 16.48 231.515 17.84C231.328 19.2 231.102 20.64 230.835 22.16C230.568 23.68 230.302 25.1733 230.035 26.64C229.795 28.1067 229.555 29.4533 229.315 30.68C229.075 31.88 228.875 32.84 228.715 33.56C228.448 34.6267 228.128 35.2667 227.755 35.48C227.382 35.6933 227.008 35.8 226.635 35.8ZM241.232 34C240.592 34 239.952 33.7867 239.312 33.36C238.699 32.9067 238.192 32.2667 237.792 31.44C237.392 30.5867 237.192 29.56 237.192 28.36C237.192 26.76 237.405 25.0533 237.832 23.24C238.285 21.4267 238.832 19.6133 239.472 17.8C240.112 15.9867 240.739 14.28 241.352 12.68C241.645 11.9067 242.005 11.3867 242.432 11.12C242.859 10.8267 243.419 10.68 244.112 10.68C245.685 10.68 246.472 11.4667 246.472 13.04C246.472 13.3067 246.352 13.8267 246.112 14.6C245.872 15.3467 245.552 16.2667 245.152 17.36C244.779 18.4533 244.379 19.64 243.952 20.92C243.552 22.1733 243.179 23.4533 242.832 24.76C242.512 26.04 242.259 27.2533 242.072 28.4C242.685 27.4667 243.365 26.3067 244.112 24.92C244.885 23.5067 245.699 22.0267 246.552 20.48C247.432 18.9333 248.312 17.4933 249.192 16.16C250.072 14.8 250.939 13.6933 251.792 12.84C252.645 11.9867 253.459 11.56 254.232 11.56C254.899 11.56 255.525 11.6933 256.112 11.96C256.725 12.2 257.259 12.68 257.712 13.4C258.165 14.0933 258.512 15.0933 258.752 16.4C259.019 17.7067 259.152 19.4267 259.152 21.56C259.152 22.6267 259.245 23.6667 259.432 24.68C259.645 25.6667 259.992 26.4933 260.472 27.16C260.952 27.8 261.632 28.12 262.512 28.12C264.032 28.12 265.392 27.84 266.592 27.28C267.792 26.72 268.845 26.0667 269.752 25.32C270.659 24.5733 271.419 23.92 272.032 23.36C272.405 22.9867 272.725 22.6933 272.992 22.48C273.285 22.2667 273.525 22.16 273.712 22.16C274.272 22.16 274.672 22.3067 274.912 22.6C275.179 22.8933 275.312 23.2933 275.312 23.8C275.312 24.0667 275.085 24.56 274.632 25.28C274.179 26 273.539 26.8267 272.712 27.76C271.912 28.6667 270.992 29.5467 269.952 30.4C268.912 31.2533 267.792 31.96 266.592 32.52C265.392 33.08 264.165 33.36 262.912 33.36C260.805 33.36 259.059 32.9867 257.672 32.24C256.312 31.4667 255.299 30.1867 254.632 28.4C253.965 26.5867 253.632 24.12 253.632 21C253.632 20.92 253.632 20.7867 253.632 20.6C253.632 19.7733 253.619 19.04 253.592 18.4C253.592 17.76 253.552 17.24 253.472 16.84C253.019 17.6667 252.472 18.6533 251.832 19.8C251.219 20.9467 250.552 22.1733 249.832 23.48C249.112 24.76 248.365 26.0267 247.592 27.28C246.819 28.5067 246.045 29.6267 245.272 30.64C244.525 31.6533 243.805 32.4667 243.112 33.08C242.419 33.6933 241.792 34 241.232 34ZM276.473 35.24C274.873 35.24 273.766 34.92 273.153 34.28C272.566 33.6667 272.273 32.8133 272.273 31.72C272.273 27.08 273.14 22.24 274.873 17.2C276.633 12.1333 279.1 7.05333 282.273 1.96C282.806 1.08 283.246 0.559998 283.593 0.399999C283.94 0.239999 284.326 0.159999 284.753 0.159999C285.366 0.159999 285.9 0.373332 286.353 0.799998C286.833 1.22667 287.073 1.78667 287.073 2.48C287.073 2.69333 286.846 3.28 286.393 4.24C285.94 5.2 285.34 6.42667 284.593 7.92C283.873 9.41333 283.086 11.1067 282.233 13C281.38 14.8667 280.54 16.84 279.713 18.92C278.913 21 278.22 23.0933 277.633 25.2C278.54 24.0533 279.566 22.88 280.713 21.68C281.886 20.4533 283.1 19.3333 284.353 18.32C285.606 17.28 286.82 16.4533 287.993 15.84C289.166 15.2 290.22 14.88 291.153 14.88C292.033 14.88 292.846 15.0933 293.593 15.52C294.366 15.9467 294.993 16.6133 295.473 17.52C295.953 18.4267 296.193 19.6 296.193 21.04C296.193 22.6133 295.74 24.2267 294.833 25.88C293.953 27.5333 292.66 29.0667 290.953 30.48C289.273 31.8933 287.206 33.04 284.753 33.92C282.326 34.8 279.566 35.24 276.473 35.24ZM278.153 30.68C280.206 30.52 282.06 30.08 283.713 29.36C285.393 28.64 286.833 27.7467 288.033 26.68C289.233 25.6133 290.153 24.4933 290.793 23.32C291.433 22.12 291.753 20.9867 291.753 19.92C291.753 19.68 291.686 19.56 291.553 19.56C290.993 19.56 290.286 19.8133 289.433 20.32C288.58 20.8 287.646 21.4533 286.633 22.28C285.62 23.1067 284.593 24.0133 283.553 25C282.513 25.9867 281.526 26.9733 280.593 27.96C279.66 28.9467 278.846 29.8533 278.153 30.68ZM302.44 35.52C301.587 35.52 300.813 35.28 300.12 34.8C299.427 34.3467 298.88 33.7467 298.48 33C298.08 32.2267 297.88 31.4 297.88 30.52C297.88 28.8667 298.24 27.2533 298.96 25.68C299.707 24.1067 300.68 22.6133 301.88 21.2C303.08 19.7867 304.387 18.4933 305.8 17.32C307.24 16.12 308.667 15.0933 310.08 14.24C311.52 13.3867 312.827 12.72 314 12.24C315.2 11.76 316.133 11.52 316.8 11.52C317.573 11.52 318.2 11.6933 318.68 12.04C319.187 12.36 319.44 12.8667 319.44 13.56C319.44 13.7733 319.387 13.9467 319.28 14.08C319.627 14.16 319.907 14.36 320.12 14.68C320.333 15 320.44 15.48 320.44 16.12C320.44 16.3867 320.373 17.08 320.24 18.2C320.107 19.32 319.96 20.68 319.8 22.28C319.667 23.88 319.6 25.5467 319.6 27.28C319.6 27.5467 319.64 27.7867 319.72 28C319.8 28.1867 319.973 28.28 320.24 28.28C321.307 28.28 322.387 28.0667 323.48 27.64C324.6 27.1867 325.68 26.64 326.72 26C327.787 25.3333 328.747 24.68 329.6 24.04C330.48 23.3733 331.213 22.8267 331.8 22.4C332.413 21.9467 332.813 21.72 333 21.72C333.907 21.72 334.36 22.1733 334.36 23.08C334.36 23.32 334.067 23.8267 333.48 24.6C332.92 25.3467 332.147 26.2133 331.16 27.2C330.173 28.16 329.067 29.12 327.84 30.08C326.64 31.0133 325.387 31.7867 324.08 32.4C322.8 33.0133 321.56 33.32 320.36 33.32C318.893 33.32 317.773 32.9733 317 32.28C316.253 31.5867 315.72 30.6533 315.4 29.48C315.107 28.28 314.947 26.9333 314.92 25.44C313.56 27.3867 312.147 29.12 310.68 30.64C309.24 32.1333 307.813 33.32 306.4 34.2C304.987 35.08 303.667 35.52 302.44 35.52ZM316.6 15.48C313.987 16.7333 311.64 18.1733 309.56 19.8C307.48 21.4 305.827 23.08 304.6 24.84C303.4 26.6 302.8 28.2933 302.8 29.92C302.8 30.3733 303.013 30.6 303.44 30.6C303.947 30.6 304.613 30.3067 305.44 29.72C306.293 29.1333 307.213 28.36 308.2 27.4C309.187 26.4133 310.173 25.32 311.16 24.12C312.147 22.8933 313.067 21.64 313.92 20.36C314.773 19.08 315.453 17.8533 315.96 16.68C316.147 16.2533 316.36 15.8533 316.6 15.48ZM332.972 35.76C332.305 35.76 331.732 35.52 331.252 35.04C330.798 34.56 330.572 33.8667 330.572 32.96C330.572 32.56 330.625 31.9067 330.732 31C330.865 30.0667 331.025 29 331.212 27.8C331.425 26.6 331.625 25.3467 331.812 24.04C332.025 22.7333 332.198 21.4933 332.332 20.32C332.492 19.1467 332.598 18.1467 332.652 17.32C332.705 16.3067 332.972 15.5867 333.452 15.16C333.932 14.7067 334.505 14.48 335.172 14.48C335.705 14.48 336.185 14.6133 336.612 14.88C337.065 15.12 337.345 15.64 337.452 16.44C337.585 17.2133 337.598 18.3333 337.492 19.8C338.665 17.6667 339.852 15.76 341.052 14.08C342.278 12.4 343.558 11.0667 344.892 10.08C347.105 8.4 349.105 7.56 350.892 7.56C351.905 7.56 352.572 7.78667 352.892 8.24C353.212 8.69333 353.372 9.16 353.372 9.64C353.372 9.96 353.292 10.2533 353.132 10.52C352.998 10.7867 352.705 11.0667 352.252 11.36C351.798 11.6533 351.105 12.04 350.172 12.52C348.918 13.16 347.678 14 346.452 15.04C345.252 16.08 344.052 17.4133 342.852 19.04C341.652 20.6667 340.438 22.6667 339.212 25.04C337.985 27.4133 336.718 30.24 335.412 33.52C335.172 34.4267 334.825 35.0267 334.372 35.32C333.945 35.6133 333.478 35.76 332.972 35.76Z" fill="black"/>
</svg>
