<svg width="1010" height="281" viewBox="0 0 1010 281" fill="none" xmlns="http://www.w3.org/2000/svg">
<path d="M14.825 12.95C12.425 12.95 10.725 12.7 9.725 12.2C8.725 11.7 8.125 11.1 7.925 10.4C7.725 9.7 7.625 9.1 7.625 8.6C7.625 8.55 7.625 8.525 7.625 8.525C7.625 7.425 8.125 6.375 9.125 5.375C10.125 4.325 11.525 3.6 13.325 3.2C14.825 2.9 16.6 2.6 18.65 2.3C20.75 1.95 22.95 1.65 25.25 1.4C27.6 1.1 29.85 0.874999 32 0.724998C34.15 0.574997 36.05 0.499996 37.7 0.499996C39.9 0.499996 41.6 0.824997 42.8 1.475C44 2.075 44.825 2.775 45.275 3.575C45.775 4.375 46.025 5.05 46.025 5.6C46.025 6.1 45.9 6.6 45.65 7.1C45.4 7.6 44.775 8.1 43.775 8.6C42.825 9.1 41.3 9.575 39.2 10.025C37.1 10.475 34.2 10.9 30.5 11.3C30.15 11.35 29.775 11.4 29.375 11.45C29.025 13.6 28.6 16.175 28.1 19.175C27.6 22.125 27.05 25.225 26.45 28.475C25.9 31.675 25.35 34.75 24.8 37.7C24.3 40.6 23.85 43.075 23.45 45.125C25.5 44.925 27.3 44.775 28.85 44.675C30.45 44.575 31.525 44.525 32.075 44.525C33.825 44.525 35.025 44.9 35.675 45.65C36.325 46.35 36.65 47.275 36.65 48.425C36.65 48.875 35.85 49.575 34.25 50.525C32.65 51.475 30.425 52.5 27.575 53.6C24.775 54.7 21.55 55.675 17.9 56.525C15.5 57.075 13.125 57.5 10.775 57.8C8.425 58.1 6.725 58.25 5.675 58.25C3.625 58.25 2.3 57.875 1.7 57.125C1.15 56.375 0.875 55.425 0.875 54.275C0.875 53.275 1.175 52.25 1.775 51.2C2.425 50.15 3.325 49.4 4.475 48.95C5.675 48.5 7 48.075 8.45 47.675C9.9 47.275 11.4 46.925 12.95 46.625C13.05 45.325 13.25 43.6 13.55 41.45C13.85 39.3 14.175 36.95 14.525 34.4C14.925 31.8 15.325 29.175 15.725 26.525C16.175 23.825 16.6 21.3 17 18.95C17.45 16.55 17.825 14.475 18.125 12.725C16.675 12.875 15.575 12.95 14.825 12.95ZM96.0389 55.85C94.4389 55.85 92.9889 55.4 91.6889 54.5C90.3889 53.65 89.3639 52.525 88.6139 51.125C87.8639 49.675 87.4889 48.125 87.4889 46.475C87.4889 43.375 88.1639 40.35 89.5139 37.4C90.9139 34.45 92.7389 31.65 94.9889 29C97.2389 26.35 99.6889 23.925 102.339 21.725C105.039 19.475 107.714 17.55 110.364 15.95C113.064 14.35 115.514 13.1 117.714 12.2C119.964 11.3 121.714 10.85 122.964 10.85C124.414 10.85 125.589 11.175 126.489 11.825C127.439 12.425 127.914 13.375 127.914 14.675C127.914 15.075 127.814 15.4 127.614 15.65C128.264 15.8 128.789 16.175 129.189 16.775C129.589 17.375 129.789 18.275 129.789 19.475C129.789 19.975 129.664 21.275 129.414 23.375C129.164 25.475 128.889 28.025 128.589 31.025C128.339 34.025 128.214 37.15 128.214 40.4C128.214 40.9 128.289 41.35 128.439 41.75C128.589 42.1 128.914 42.275 129.414 42.275C131.414 42.275 133.439 41.875 135.489 41.075C137.589 40.225 139.614 39.2 141.564 38C143.564 36.75 145.364 35.525 146.964 34.325C148.614 33.075 149.989 32.05 151.089 31.25C152.239 30.4 152.989 29.975 153.339 29.975C155.039 29.975 155.889 30.825 155.889 32.525C155.889 32.975 155.339 33.925 154.239 35.375C153.189 36.775 151.739 38.4 149.889 40.25C148.039 42.05 145.964 43.85 143.664 45.65C141.414 47.4 139.064 48.85 136.614 50C134.214 51.15 131.889 51.725 129.639 51.725C126.889 51.725 124.789 51.075 123.339 49.775C121.939 48.475 120.939 46.725 120.339 44.525C119.789 42.275 119.489 39.75 119.439 36.95C116.889 40.6 114.239 43.85 111.489 46.7C108.789 49.5 106.114 51.725 103.464 53.375C100.814 55.025 98.3389 55.85 96.0389 55.85ZM122.589 18.275C117.689 20.625 113.289 23.325 109.389 26.375C105.489 29.375 102.389 32.525 100.089 35.825C97.8389 39.125 96.7139 42.3 96.7139 45.35C96.7139 46.2 97.1139 46.625 97.9139 46.625C98.8639 46.625 100.114 46.075 101.664 44.975C103.264 43.875 104.989 42.425 106.839 40.625C108.689 38.775 110.539 36.725 112.389 34.475C114.239 32.175 115.964 29.825 117.564 27.425C119.164 25.025 120.439 22.725 121.389 20.525C121.739 19.725 122.139 18.975 122.589 18.275ZM215.766 51.275C215.466 53.975 213.866 55.325 210.966 55.325C209.466 55.325 208.266 54.875 207.366 53.975C206.516 53.075 206.091 51.775 206.091 50.075C206.091 47.175 206.216 44.075 206.466 40.775C206.766 37.425 207.116 34.05 207.516 30.65C207.966 27.25 208.391 24 208.791 20.9C206.991 23.5 205.091 26.175 203.091 28.925C201.091 31.675 199.091 34.35 197.091 36.95C195.091 39.55 193.166 41.9 191.316 44C189.516 46.05 187.866 47.7 186.366 48.95C184.866 50.15 183.616 50.75 182.616 50.75C180.216 50.75 178.141 49.875 176.391 48.125C174.641 46.325 173.766 44.05 173.766 41.3C173.766 40.35 173.866 39.075 174.066 37.475C174.266 35.825 174.516 34.075 174.816 32.225C175.116 30.375 175.366 28.625 175.566 26.975C175.766 25.325 175.866 24.025 175.866 23.075C175.866 23.075 175.866 23.025 175.866 22.925C175.916 22.675 175.866 22.55 175.716 22.55C175.516 22.55 174.966 23.225 174.066 24.575C173.166 25.875 172.066 27.575 170.766 29.675C169.466 31.775 168.091 33.975 166.641 36.275C165.241 38.575 163.916 40.725 162.666 42.725C161.466 44.725 160.466 46.275 159.666 47.375C158.566 49.075 157.541 50.15 156.591 50.6C155.641 51.05 154.541 51.275 153.291 51.275C151.541 51.275 150.166 50.7 149.166 49.55C148.216 48.35 147.741 46.675 147.741 44.525C147.741 43.625 147.891 42.225 148.191 40.325C148.541 38.425 148.966 36.325 149.466 34.025C149.966 31.675 150.466 29.4 150.966 27.2C151.516 24.95 151.991 23.05 152.391 21.5C152.841 19.45 153.466 18.025 154.266 17.225C155.116 16.375 156.191 15.95 157.491 15.95C160.541 15.95 162.066 17.45 162.066 20.45C162.066 21 161.891 21.9 161.541 23.15C161.191 24.4 160.766 25.85 160.266 27.5C159.766 29.15 159.241 30.85 158.691 32.6C158.141 34.3 157.691 35.9 157.341 37.4C158.541 35.3 159.841 33.05 161.241 30.65C162.641 28.25 164.066 25.9 165.516 23.6C167.016 21.3 168.491 19.2 169.941 17.3C171.441 15.4 172.916 13.9 174.366 12.8C175.816 11.65 177.191 11.075 178.491 11.075C179.791 11.075 181.066 11.55 182.316 12.5C183.566 13.4 184.591 14.575 185.391 16.025C186.241 17.425 186.666 18.925 186.666 20.525C186.666 22.025 186.466 23.825 186.066 25.925C185.666 28.025 185.216 30.225 184.716 32.525C184.216 34.825 183.866 37.075 183.666 39.275C185.366 37.375 187.166 35.225 189.066 32.825C190.966 30.375 192.916 27.85 194.916 25.25C196.916 22.65 198.866 20.125 200.766 17.675C202.716 15.225 204.516 13 206.166 11C207.866 9 209.366 7.425 210.666 6.275C211.966 5.075 212.966 4.475 213.666 4.475C215.716 4.475 217.316 5.025 218.466 6.125C219.666 7.175 220.266 9.025 220.266 11.675C220.266 13.325 220.141 15.475 219.891 18.125C219.691 20.775 219.391 23.65 218.991 26.75C218.641 29.8 218.241 32.9 217.791 36.05C217.391 39.15 217.016 42.025 216.666 44.675C216.316 47.325 216.016 49.525 215.766 51.275ZM274.75 55.85C273.15 55.85 271.7 55.4 270.4 54.5C269.1 53.65 268.075 52.525 267.325 51.125C266.575 49.675 266.2 48.125 266.2 46.475C266.2 43.375 266.875 40.35 268.225 37.4C269.625 34.45 271.45 31.65 273.7 29C275.95 26.35 278.4 23.925 281.05 21.725C283.75 19.475 286.425 17.55 289.075 15.95C291.775 14.35 294.225 13.1 296.425 12.2C298.675 11.3 300.425 10.85 301.675 10.85C303.125 10.85 304.3 11.175 305.2 11.825C306.15 12.425 306.625 13.375 306.625 14.675C306.625 15.075 306.525 15.4 306.325 15.65C306.975 15.8 307.5 16.175 307.9 16.775C308.3 17.375 308.5 18.275 308.5 19.475C308.5 19.975 308.375 21.275 308.125 23.375C307.875 25.475 307.6 28.025 307.3 31.025C307.05 34.025 306.925 37.15 306.925 40.4C306.925 40.9 307 41.35 307.15 41.75C307.3 42.1 307.625 42.275 308.125 42.275C310.125 42.275 312.15 41.875 314.2 41.075C316.3 40.225 318.325 39.2 320.275 38C322.275 36.75 324.075 35.525 325.675 34.325C327.325 33.075 328.7 32.05 329.8 31.25C330.95 30.4 331.7 29.975 332.05 29.975C333.75 29.975 334.6 30.825 334.6 32.525C334.6 32.975 334.05 33.925 332.95 35.375C331.9 36.775 330.45 38.4 328.6 40.25C326.75 42.05 324.675 43.85 322.375 45.65C320.125 47.4 317.775 48.85 315.325 50C312.925 51.15 310.6 51.725 308.35 51.725C305.6 51.725 303.5 51.075 302.05 49.775C300.65 48.475 299.65 46.725 299.05 44.525C298.5 42.275 298.2 39.75 298.15 36.95C295.6 40.6 292.95 43.85 290.2 46.7C287.5 49.5 284.825 51.725 282.175 53.375C279.525 55.025 277.05 55.85 274.75 55.85ZM301.3 18.275C296.4 20.625 292 23.325 288.1 26.375C284.2 29.375 281.1 32.525 278.8 35.825C276.55 39.125 275.425 42.3 275.425 45.35C275.425 46.2 275.825 46.625 276.625 46.625C277.575 46.625 278.825 46.075 280.375 44.975C281.975 43.875 283.7 42.425 285.55 40.625C287.4 38.775 289.25 36.725 291.1 34.475C292.95 32.175 294.675 29.825 296.275 27.425C297.875 25.025 299.15 22.725 300.1 20.525C300.45 19.725 300.85 18.975 301.3 18.275ZM396.731 164.925C395.781 164.925 394.956 164.4 394.256 163.35C393.556 162.35 393.231 160.875 393.281 158.925C393.281 158.525 393.331 158 393.431 157.35C390.331 157.25 387.431 156.525 384.731 155.175C382.031 153.775 379.856 151.95 378.206 149.7C376.556 147.45 375.731 145.025 375.731 142.425C375.731 140.625 376.406 138.95 377.756 137.4C379.106 135.8 380.906 134.35 383.156 133.05C385.406 131.7 387.881 130.5 390.581 129.45C388.931 128.35 387.556 127.125 386.456 125.775C385.406 124.375 384.881 122.85 384.881 121.2C384.881 119.5 385.481 117.75 386.681 115.95C387.881 114.15 389.481 112.4 391.481 110.7C393.481 108.95 395.731 107.325 398.231 105.825C400.781 104.325 403.356 103 405.956 101.85C406.556 99.6 407.131 97.475 407.681 95.475C408.281 93.425 408.856 91.5 409.406 89.7C409.756 88.5 410.331 87.475 411.131 86.625C411.931 85.725 412.881 85.275 413.981 85.275C414.931 85.275 415.656 85.7 416.156 86.55C416.656 87.4 416.881 88.4 416.831 89.55C416.781 90.05 416.606 91.125 416.306 92.775C416.006 94.375 415.581 96.375 415.031 98.775C416.931 98.375 418.631 98.175 420.131 98.175C423.031 98.175 425.131 98.675 426.431 99.675C427.731 100.625 428.381 102 428.381 103.8C428.381 104.75 428.056 105.6 427.406 106.35C426.806 107.05 425.481 107.6 423.431 108C421.631 108.3 419.781 108.65 417.881 109.05C416.031 109.4 414.206 109.8 412.406 110.25C411.906 112.5 411.356 114.85 410.756 117.3C410.206 119.7 409.631 122.175 409.031 124.725C411.181 124.425 413.006 124.275 414.506 124.275C416.306 124.275 417.981 124.575 419.531 125.175C421.081 125.775 421.856 126.85 421.856 128.4C421.856 129.25 421.456 130.15 420.656 131.1C419.856 132 418.356 132.775 416.156 133.425C414.006 134.075 410.881 134.425 406.781 134.475C406.331 136.475 405.856 138.475 405.356 140.475C404.906 142.425 404.481 144.375 404.081 146.325C407.481 145.725 410.581 144.975 413.381 144.075C416.231 143.125 418.706 142.175 420.806 141.225C422.956 140.275 424.706 139.5 426.056 138.9C427.406 138.25 428.306 137.925 428.756 137.925C429.606 137.925 430.306 138.225 430.856 138.825C431.406 139.375 431.681 140.075 431.681 140.925C431.681 141.675 431.056 142.825 429.806 144.375C428.556 145.875 426.681 147.5 424.181 149.25C421.731 150.95 418.606 152.525 414.806 153.975C411.056 155.375 406.681 156.35 401.681 156.9C401.481 157.85 401.281 158.775 401.081 159.675C400.581 161.675 399.956 163.05 399.206 163.8C398.456 164.55 397.631 164.925 396.731 164.925ZM395.306 147.225C396.056 143.425 396.956 139.175 398.006 134.475C395.856 135.225 393.756 136.05 391.706 136.95C389.706 137.85 388.056 138.9 386.756 140.1C385.456 141.3 384.806 142.75 384.806 144.45C384.806 145.15 385.206 145.725 386.006 146.175C386.806 146.575 387.831 146.875 389.081 147.075C390.331 147.225 391.631 147.3 392.981 147.3C393.731 147.3 394.506 147.275 395.306 147.225ZM399.881 126.525C400.381 124.325 400.881 122.1 401.381 119.85C401.931 117.6 402.481 115.375 403.031 113.175C400.381 114.225 398.206 115.4 396.506 116.7C394.806 117.95 393.956 119.325 393.956 120.825C393.956 121.925 394.481 122.975 395.531 123.975C396.581 124.975 397.906 125.85 399.506 126.6C399.606 126.6 399.731 126.575 399.881 126.525Z" fill="black"/>
<path d="M16.475 158.1C13.675 158.1 11.25 157.45 9.2 156.15C7.15 154.9 5.575 153.275 4.475 151.275C3.375 149.225 2.825 147.125 2.825 144.975C2.825 141.375 3.375 138.05 4.475 135C5.575 131.9 7.025 129.1 8.825 126.6C10.625 124.05 12.575 121.8 14.675 119.85C16.825 117.9 18.9 116.275 20.9 114.975C22.95 113.625 24.775 112.625 26.375 111.975C27.975 111.275 29.15 110.925 29.9 110.925C31.25 110.925 32.2 111.225 32.75 111.825C33.35 112.375 33.65 113.3 33.65 114.6C33.65 115.35 33.1 116.25 32 117.3C30.95 118.35 29.55 119.55 27.8 120.9C26.1 122.25 24.3 123.775 22.4 125.475C20.5 127.175 18.675 129.075 16.925 131.175C15.225 133.275 13.825 135.575 12.725 138.075C11.675 140.575 11.15 143.3 11.15 146.25C11.15 147.35 11.35 148.2 11.75 148.8C12.2 149.4 12.925 149.7 13.925 149.7C16.775 149.7 19.825 149.2 23.075 148.2C26.375 147.15 29.65 145.85 32.9 144.3C36.2 142.7 39.3 141.05 42.2 139.35C45.15 137.65 47.675 136.125 49.775 134.775C50.625 134.175 51.35 133.7 51.95 133.35C52.55 133 52.975 132.825 53.225 132.825C54.725 132.825 55.475 133.6 55.475 135.15C55.475 135.95 54.875 137.025 53.675 138.375C52.275 140.125 50.375 141.925 47.975 143.775C45.625 145.625 43 147.4 40.1 149.1C37.25 150.8 34.325 152.325 31.325 153.675C28.375 155.025 25.6 156.1 23 156.9C20.4 157.7 18.225 158.1 16.475 158.1ZM52.5775 159.3C51.3275 159.3 50.2525 158.85 49.3525 157.95C48.5025 157.05 48.0775 155.75 48.0775 154.05C48.0775 153.3 48.1775 152.075 48.3775 150.375C48.6275 148.625 48.9275 146.625 49.2775 144.375C49.6775 142.125 50.0525 139.775 50.4025 137.325C50.8025 134.875 51.1275 132.55 51.3775 130.35C51.6775 128.15 51.8775 126.275 51.9775 124.725C52.0775 122.825 52.5775 121.475 53.4775 120.675C54.3775 119.825 55.4525 119.4 56.7025 119.4C57.7025 119.4 58.6025 119.65 59.4025 120.15C60.2525 120.6 60.7775 121.575 60.9775 123.075C61.2275 124.525 61.2525 126.625 61.0525 129.375C63.2525 125.375 65.4775 121.8 67.7275 118.65C70.0275 115.5 72.4275 113 74.9275 111.15C79.0775 108 82.8275 106.425 86.1775 106.425C88.0775 106.425 89.3275 106.85 89.9275 107.7C90.5275 108.55 90.8275 109.425 90.8275 110.325C90.8275 110.925 90.6775 111.475 90.3775 111.975C90.1275 112.475 89.5775 113 88.7275 113.55C87.8775 114.1 86.5775 114.825 84.8275 115.725C82.4775 116.925 80.1525 118.5 77.8525 120.45C75.6025 122.4 73.3525 124.9 71.1025 127.95C68.8525 131 66.5775 134.75 64.2775 139.2C61.9775 143.65 59.6025 148.95 57.1525 155.1C56.7025 156.8 56.0525 157.925 55.2025 158.475C54.4025 159.025 53.5275 159.3 52.5775 159.3ZM96.6102 158.55C93.5102 158.55 91.0102 157.475 89.1102 155.325C87.2102 153.125 86.2602 149.6 86.2602 144.75C86.2602 141.65 86.6102 138.55 87.3102 135.45C88.0602 132.3 89.0852 129.325 90.3852 126.525C91.7352 123.675 93.2852 121.15 95.0352 118.95C96.8352 116.75 98.8102 115.025 100.96 113.775C103.11 112.475 105.335 111.825 107.635 111.825C111.535 111.825 114.585 112.875 116.785 114.975C118.985 117.075 120.085 119.75 120.085 123C120.085 125.5 119.385 127.775 117.985 129.825C116.635 131.825 114.785 133.625 112.435 135.225C110.085 136.825 107.46 138.275 104.56 139.575C101.66 140.875 98.6852 142.05 95.6352 143.1C95.3852 144.9 95.2602 146.5 95.2602 147.9C95.2602 148.75 95.7352 149.175 96.6852 149.175C98.9352 149.175 101.335 148.825 103.885 148.125C106.485 147.375 109.11 146.425 111.76 145.275C114.41 144.075 116.96 142.85 119.41 141.6C121.86 140.3 124.085 139.075 126.085 137.925C128.135 136.725 129.81 135.775 131.11 135.075C132.46 134.325 133.335 133.95 133.735 133.95C134.835 133.95 135.635 134.275 136.135 134.925C136.635 135.575 136.885 136.275 136.885 137.025C136.885 137.375 136.21 138.15 134.86 139.35C133.56 140.55 131.76 141.975 129.46 143.625C127.21 145.225 124.66 146.9 121.81 148.65C119.01 150.35 116.085 151.975 113.035 153.525C110.035 155.025 107.11 156.225 104.26 157.125C101.46 158.075 98.9102 158.55 96.6102 158.55ZM96.9102 136.425C98.9602 135.225 100.985 133.975 102.985 132.675C105.035 131.325 106.735 129.825 108.085 128.175C109.435 126.475 110.11 124.5 110.11 122.25C110.11 121.6 109.935 121.175 109.585 120.975C109.235 120.725 108.735 120.6 108.085 120.6C106.335 120.6 104.735 121.375 103.285 122.925C101.885 124.475 100.635 126.475 99.5352 128.925C98.4852 131.325 97.6102 133.825 96.9102 136.425ZM136.029 158.85C134.429 158.85 132.979 158.4 131.679 157.5C130.379 156.65 129.354 155.525 128.604 154.125C127.854 152.675 127.479 151.125 127.479 149.475C127.479 146.375 128.154 143.35 129.504 140.4C130.904 137.45 132.729 134.65 134.979 132C137.229 129.35 139.679 126.925 142.329 124.725C145.029 122.475 147.704 120.55 150.354 118.95C153.054 117.35 155.504 116.1 157.704 115.2C159.954 114.3 161.704 113.85 162.954 113.85C164.404 113.85 165.579 114.175 166.479 114.825C167.429 115.425 167.904 116.375 167.904 117.675C167.904 118.075 167.804 118.4 167.604 118.65C168.254 118.8 168.779 119.175 169.179 119.775C169.579 120.375 169.779 121.275 169.779 122.475C169.779 122.975 169.654 124.275 169.404 126.375C169.154 128.475 168.879 131.025 168.579 134.025C168.329 137.025 168.204 140.15 168.204 143.4C168.204 143.9 168.279 144.35 168.429 144.75C168.579 145.1 168.904 145.275 169.404 145.275C171.404 145.275 173.429 144.875 175.479 144.075C177.579 143.225 179.604 142.2 181.554 141C183.554 139.75 185.354 138.525 186.954 137.325C188.604 136.075 189.979 135.05 191.079 134.25C192.229 133.4 192.979 132.975 193.329 132.975C195.029 132.975 195.879 133.825 195.879 135.525C195.879 135.975 195.329 136.925 194.229 138.375C193.179 139.775 191.729 141.4 189.879 143.25C188.029 145.05 185.954 146.85 183.654 148.65C181.404 150.4 179.054 151.85 176.604 153C174.204 154.15 171.879 154.725 169.629 154.725C166.879 154.725 164.779 154.075 163.329 152.775C161.929 151.475 160.929 149.725 160.329 147.525C159.779 145.275 159.479 142.75 159.429 139.95C156.879 143.6 154.229 146.85 151.479 149.7C148.779 152.5 146.104 154.725 143.454 156.375C140.804 158.025 138.329 158.85 136.029 158.85ZM162.579 121.275C157.679 123.625 153.279 126.325 149.379 129.375C145.479 132.375 142.379 135.525 140.079 138.825C137.829 142.125 136.704 145.3 136.704 148.35C136.704 149.2 137.104 149.625 137.904 149.625C138.854 149.625 140.104 149.075 141.654 147.975C143.254 146.875 144.979 145.425 146.829 143.625C148.679 141.775 150.529 139.725 152.379 137.475C154.229 135.175 155.954 132.825 157.554 130.425C159.154 128.025 160.429 125.725 161.379 123.525C161.729 122.725 162.129 121.975 162.579 121.275ZM243.574 118.2C243.574 118.8 243.374 119.325 242.974 119.775C242.574 120.225 242.074 120.575 241.474 120.825C240.624 121.175 239.149 121.625 237.049 122.175C234.949 122.725 232.399 123.35 229.399 124.05C226.449 124.75 223.274 125.475 219.874 126.225C216.474 126.925 213.074 127.6 209.674 128.25C208.374 133.05 207.049 138 205.699 143.1C204.349 148.15 202.999 153.125 201.649 158.025C201.149 159.775 200.549 161.1 199.849 162C199.149 162.95 197.949 163.425 196.249 163.425C194.399 163.425 193.149 162.825 192.499 161.625C191.899 160.475 191.824 158.9 192.274 156.9C193.574 151.45 194.774 146.375 195.874 141.675C197.024 136.975 197.949 133.175 198.649 130.275C195.649 130.775 193.024 131.175 190.774 131.475C188.524 131.725 186.924 131.825 185.974 131.775C184.924 131.675 184.049 131.25 183.349 130.5C182.649 129.75 182.324 128.825 182.374 127.725C182.474 126.725 182.924 125.875 183.724 125.175C184.524 124.425 185.474 123.975 186.574 123.825C188.124 123.675 190.124 123.45 192.574 123.15C195.024 122.85 197.724 122.5 200.674 122.1C201.324 119.55 202.074 116.925 202.924 114.225C203.774 111.475 204.649 108.85 205.549 106.35C206.499 103.8 207.399 101.575 208.249 99.675C209.099 97.775 209.874 96.4 210.574 95.55C211.124 94.9 211.799 94.4 212.599 94.05C213.449 93.7 214.274 93.525 215.074 93.525C216.124 93.525 216.974 93.9 217.624 94.65C218.274 95.4 218.599 96.275 218.599 97.275C218.599 97.675 218.574 98.1 218.524 98.55C218.474 98.95 218.374 99.35 218.224 99.75C217.274 102.25 216.249 105.275 215.149 108.825C214.099 112.375 212.999 116.275 211.849 120.525C215.599 119.975 219.274 119.425 222.874 118.875C226.524 118.275 229.824 117.725 232.774 117.225C235.774 116.675 238.174 116.2 239.974 115.8C240.974 115.45 241.824 115.525 242.524 116.025C243.224 116.475 243.574 117.2 243.574 118.2ZM234.539 155.125C233.139 155.125 231.889 154.65 230.789 153.7C229.739 152.75 229.214 151.2 229.214 149.05C229.214 147.9 229.364 146.275 229.664 144.175C230.014 142.075 230.464 139.8 231.014 137.35C231.564 134.85 232.164 132.375 232.814 129.925C233.514 127.475 234.189 125.3 234.839 123.4C235.489 121.45 236.064 120 236.564 119.05C237.214 117.9 237.814 117.2 238.364 116.95C238.964 116.65 239.539 116.5 240.089 116.5C241.089 116.5 242.014 116.8 242.864 117.4C243.764 118 244.214 119.325 244.214 121.375C244.214 122.175 244.064 123.475 243.764 125.275C243.464 127.025 243.089 129.075 242.639 131.425C242.189 133.775 241.689 136.2 241.139 138.7C240.639 141.2 240.139 143.575 239.639 145.825C239.189 148.025 238.814 149.875 238.514 151.375C238.264 152.625 237.739 153.55 236.939 154.15C236.189 154.8 235.389 155.125 234.539 155.125ZM243.164 109.075C241.514 109.075 239.989 108.6 238.589 107.65C237.189 106.65 236.489 105.125 236.489 103.075C236.489 101.375 236.914 100 237.764 98.95C238.614 97.9 239.614 97.15 240.764 96.7C241.964 96.2 243.014 95.95 243.914 95.95C244.814 95.95 245.814 96.15 246.914 96.55C248.014 96.9 248.964 97.575 249.764 98.575C250.614 99.525 251.039 100.9 251.039 102.7C251.039 103.9 250.614 105 249.764 106C248.914 106.95 247.864 107.7 246.614 108.25C245.414 108.8 244.264 109.075 243.164 109.075ZM265.634 155.925C264.334 155.925 263.184 155.3 262.184 154.05C261.234 152.8 260.509 150.875 260.009 148.275C259.609 146.075 259.259 143.575 258.959 140.775C258.659 137.975 258.384 135.225 258.134 132.525C257.934 129.775 257.784 127.375 257.684 125.325C257.584 123.275 257.534 121.875 257.534 121.125C257.534 118.425 258.009 116.2 258.959 114.45C259.909 112.65 261.734 111.75 264.434 111.75C265.584 111.75 266.459 112.25 267.059 113.25C267.659 114.2 267.959 115.525 267.959 117.225C267.959 118.275 267.959 119.6 267.959 121.2C268.009 122.75 268.059 124.5 268.109 126.45C268.159 128.6 268.209 130.925 268.259 133.425C268.359 135.875 268.409 138.325 268.409 140.775C270.159 138.025 272.034 135.1 274.034 132C276.034 128.85 277.984 125.8 279.884 122.85C281.834 119.9 283.584 117.3 285.134 115.05C286.684 112.75 287.859 111.125 288.659 110.175C289.359 109.325 290.209 108.6 291.209 108C292.209 107.35 293.259 107.025 294.359 107.025C295.559 107.025 296.559 107.5 297.359 108.45C298.159 109.4 298.559 110.5 298.559 111.75C298.559 112.7 298.359 113.6 297.959 114.45C297.609 115.3 297.159 116.1 296.609 116.85C295.109 118.95 293.334 121.4 291.284 124.2C289.284 127 287.184 129.95 284.984 133.05C282.784 136.1 280.634 139.05 278.534 141.9C276.484 144.75 274.659 147.275 273.059 149.475C271.759 151.325 270.709 152.725 269.909 153.675C269.109 154.575 268.384 155.175 267.734 155.475C267.134 155.775 266.434 155.925 265.634 155.925ZM310.477 158.55C307.377 158.55 304.877 157.475 302.977 155.325C301.077 153.125 300.127 149.6 300.127 144.75C300.127 141.65 300.477 138.55 301.177 135.45C301.927 132.3 302.952 129.325 304.252 126.525C305.602 123.675 307.152 121.15 308.902 118.95C310.702 116.75 312.677 115.025 314.827 113.775C316.977 112.475 319.202 111.825 321.502 111.825C325.402 111.825 328.452 112.875 330.652 114.975C332.852 117.075 333.952 119.75 333.952 123C333.952 125.5 333.252 127.775 331.852 129.825C330.502 131.825 328.652 133.625 326.302 135.225C323.952 136.825 321.327 138.275 318.427 139.575C315.527 140.875 312.552 142.05 309.502 143.1C309.252 144.9 309.127 146.5 309.127 147.9C309.127 148.75 309.602 149.175 310.552 149.175C312.802 149.175 315.202 148.825 317.752 148.125C320.352 147.375 322.977 146.425 325.627 145.275C328.277 144.075 330.827 142.85 333.277 141.6C335.727 140.3 337.952 139.075 339.952 137.925C342.002 136.725 343.677 135.775 344.977 135.075C346.327 134.325 347.202 133.95 347.602 133.95C348.702 133.95 349.502 134.275 350.002 134.925C350.502 135.575 350.752 136.275 350.752 137.025C350.752 137.375 350.077 138.15 348.727 139.35C347.427 140.55 345.627 141.975 343.327 143.625C341.077 145.225 338.527 146.9 335.677 148.65C332.877 150.35 329.952 151.975 326.902 153.525C323.902 155.025 320.977 156.225 318.127 157.125C315.327 158.075 312.777 158.55 310.477 158.55ZM310.777 136.425C312.827 135.225 314.852 133.975 316.852 132.675C318.902 131.325 320.602 129.825 321.952 128.175C323.302 126.475 323.977 124.5 323.977 122.25C323.977 121.6 323.802 121.175 323.452 120.975C323.102 120.725 322.602 120.6 321.952 120.6C320.202 120.6 318.602 121.375 317.152 122.925C315.752 124.475 314.502 126.475 313.402 128.925C312.352 131.325 311.477 133.825 310.777 136.425Z" fill="#17C3B2"/>
<path d="M505.125 159.375C503.975 159.375 502.925 158.9 501.975 157.95C501.075 157.05 500.625 155.525 500.625 153.375C500.625 151.775 500.75 149.55 501 146.7C501.3 143.8 501.85 140.075 502.65 135.525C500.9 139.125 499.075 142.325 497.175 145.125C495.275 147.925 493.4 150.125 491.55 151.725C489.75 153.275 488.025 154.05 486.375 154.05C483.725 154.05 481.625 153.25 480.075 151.65C478.525 150 477.75 146.925 477.75 142.425C477.75 140.275 477.925 137.85 478.275 135.15C478.675 132.45 479.175 129.75 479.775 127.05C480.375 124.35 480.975 121.95 481.575 119.85C482.225 117.7 482.8 116.1 483.3 115.05C483.7 114.15 484.2 113.45 484.8 112.95C485.45 112.45 486.275 112.2 487.275 112.2C488.875 112.2 490.1 112.725 490.95 113.775C491.8 114.825 492.225 115.9 492.225 117C492.225 117.85 492.025 119.075 491.625 120.675C491.275 122.275 490.825 124.05 490.275 126C489.775 127.95 489.25 129.95 488.7 132C488.15 134.05 487.675 135.975 487.275 137.775C486.925 139.575 486.75 141.1 486.75 142.35C486.75 143.9 487.35 144.675 488.55 144.675C489.25 144.675 490.15 144 491.25 142.65C492.4 141.3 493.6 139.5 494.85 137.25C496.15 134.95 497.45 132.45 498.75 129.75C500.1 127 501.325 124.225 502.425 121.425C503.575 118.575 504.55 115.95 505.35 113.55C505.85 112.05 506.525 111 507.375 110.4C508.225 109.8 509.2 109.5 510.3 109.5C512 109.5 513.3 109.975 514.2 110.925C515.15 111.875 515.625 113.225 515.625 114.975C515.625 115.775 515.5 117.125 515.25 119.025C515 120.925 514.675 123.15 514.275 125.7C513.925 128.25 513.5 130.95 513 133.8C512.5 136.65 512 139.45 511.5 142.2C511.05 144.95 510.6 147.475 510.15 149.775C509.7 152.025 509.325 153.825 509.025 155.175C508.525 157.175 507.925 158.375 507.225 158.775C506.525 159.175 505.825 159.375 505.125 159.375ZM534.087 159.825C531.937 159.825 530.412 159.525 529.512 158.925C528.662 158.325 528.237 157.45 528.237 156.3C528.237 155.3 528.587 154.45 529.287 153.75C529.987 153 531.537 152.25 533.937 151.5C536.737 150.65 539.387 149.675 541.887 148.575C544.437 147.425 546.512 146.175 548.112 144.825C549.762 143.475 550.587 142.05 550.587 140.55C550.587 139.55 550.237 138.825 549.537 138.375C548.887 137.925 548.112 137.7 547.212 137.7C546.462 137.7 545.362 137.825 543.912 138.075C542.512 138.275 540.962 138.55 539.262 138.9C537.562 139.2 535.912 139.475 534.312 139.725C532.762 139.925 531.437 140.025 530.337 140.025C527.737 140.025 525.812 139.45 524.562 138.3C523.312 137.1 522.687 135.575 522.687 133.725C522.687 132.725 523.212 131.35 524.262 129.6C525.312 127.85 526.712 125.925 528.462 123.825C530.212 121.725 532.162 119.625 534.312 117.525C536.462 115.425 538.637 113.5 540.837 111.75C543.087 109.95 545.212 108.525 547.212 107.475C549.212 106.375 550.912 105.825 552.312 105.825C553.912 105.825 555.187 106.325 556.137 107.325C557.137 108.325 557.637 109.675 557.637 111.375C557.637 112.175 557.562 113.05 557.412 114C557.262 114.9 556.887 115.725 556.287 116.475C555.687 117.175 554.762 117.675 553.512 117.975C552.262 118.275 550.562 118.225 548.412 117.825C546.712 119.075 544.937 120.45 543.087 121.95C541.287 123.4 539.587 124.925 537.987 126.525C536.387 128.075 535.062 129.6 534.012 131.1C535.862 130.5 537.962 130.025 540.312 129.675C542.662 129.275 545.037 129.075 547.437 129.075C550.337 129.075 552.687 129.6 554.487 130.65C556.337 131.65 557.687 133 558.537 134.7C559.437 136.4 559.887 138.275 559.887 140.325C559.887 142.625 559.137 144.925 557.637 147.225C556.137 149.525 554.137 151.625 551.637 153.525C549.137 155.425 546.362 156.95 543.312 158.1C540.262 159.25 537.187 159.825 534.087 159.825ZM603.675 123.525C603.675 126.775 601.825 130 598.125 133.2C594.475 136.35 588.8 139.15 581.1 141.6C581.1 141.65 581.1 141.725 581.1 141.825C581.1 143.475 581.3 144.8 581.7 145.8C582.1 146.75 582.975 147.225 584.325 147.225C586.325 147.225 588.55 146.625 591 145.425C593.5 144.175 596.075 142.6 598.725 140.7C601.425 138.75 604.05 136.7 606.6 134.55C609.15 132.4 611.5 130.375 613.65 128.475C615.85 126.525 617.7 124.95 619.2 123.75C620.75 122.5 621.775 121.875 622.275 121.875C623.325 121.875 624.2 122.275 624.9 123.075C625.65 123.875 626.025 125.075 626.025 126.675C626.025 127.575 625.975 128.65 625.875 129.9C628.075 126.1 630.625 122.975 633.525 120.525C636.425 118.025 639.275 116.175 642.075 114.975C644.925 113.725 647.35 113.1 649.35 113.1C651.6 113.1 653.125 113.55 653.925 114.45C654.725 115.3 655.125 116.2 655.125 117.15C655.125 117.7 655 118.25 654.75 118.8C654.55 119.3 654 119.85 653.1 120.45C652.25 121.05 650.825 121.75 648.825 122.55C646.175 123.55 643.65 124.725 641.25 126.075C638.9 127.425 636.725 129.275 634.725 131.625C632.775 133.925 631 137.025 629.4 140.925C627.85 144.775 626.55 149.725 625.5 155.775C625.15 157.475 624.6 158.625 623.85 159.225C623.1 159.875 622.225 160.2 621.225 160.2C621.125 160.2 620.95 160.2 620.7 160.2C620.25 160.25 619.775 160.2 619.275 160.05C618.825 159.95 618.375 159.525 617.925 158.775C617.525 158.075 617.2 156.85 616.95 155.1C616.7 153.35 616.575 150.85 616.575 147.6C616.575 145.65 616.65 143.6 616.8 141.45C617 139.25 617.25 136.975 617.55 134.625C615 137.125 612.275 139.65 609.375 142.2C606.475 144.75 603.475 147.1 600.375 149.25C597.325 151.35 594.325 153.05 591.375 154.35C588.475 155.65 585.775 156.3 583.275 156.3C579.925 156.3 577.175 155.225 575.025 153.075C572.925 150.875 571.875 147.5 571.875 142.95C571.875 138.45 572.475 134.375 573.675 130.725C574.925 127.025 576.525 123.85 578.475 121.2C580.425 118.55 582.5 116.525 584.7 115.125C586.95 113.675 589.05 112.95 591 112.95C595.15 112.95 598.3 113.95 600.45 115.95C602.6 117.9 603.675 120.425 603.675 123.525ZM582.075 134.925C583.375 134.275 584.75 133.525 586.2 132.675C587.7 131.775 589.1 130.85 590.4 129.9C591.7 128.9 592.75 127.925 593.55 126.975C594.4 126.025 594.825 125.125 594.825 124.275C594.825 122.875 594.425 122.025 593.625 121.725C592.875 121.375 591.85 121.2 590.55 121.2C589.2 121.2 587.975 121.925 586.875 123.375C585.775 124.775 584.825 126.525 584.025 128.625C583.225 130.725 582.575 132.825 582.075 134.925ZM657.091 130.875C655.141 130.875 653.541 130.5 652.291 129.75C651.091 129 650.491 127.75 650.491 126C650.491 125.5 651.216 124.875 652.666 124.125C654.116 123.325 656.091 122.55 658.591 121.8C661.141 121 664.066 120.35 667.366 119.85C670.666 119.3 674.141 119.025 677.791 119.025C680.841 119.025 682.941 119.4 684.091 120.15C685.291 120.9 685.891 122.15 685.891 123.9C685.891 124.6 685.091 125.35 683.491 126.15C681.891 126.95 679.716 127.725 676.966 128.475C674.216 129.175 671.116 129.75 667.666 130.2C664.266 130.65 660.741 130.875 657.091 130.875ZM704.653 164.4C703.403 164.4 702.328 164.025 701.428 163.275C700.528 162.575 700.128 161.125 700.228 158.925C700.328 156.475 700.503 153.925 700.753 151.275C701.003 148.625 701.278 146.15 701.578 143.85C702.228 138.8 702.378 134.9 702.028 132.15C701.728 129.35 700.953 127.35 699.703 126.15C698.503 124.95 696.878 124.15 694.828 123.75C693.828 123.55 693.028 123.175 692.428 122.625C691.828 122.025 691.528 121.25 691.528 120.3C691.528 119.05 692.028 118.225 693.028 117.825C693.978 117.425 695.203 117.225 696.703 117.225C697.853 117.225 699.328 117.3 701.128 117.45C702.978 117.55 704.953 117.625 707.053 117.675C708.803 111.925 710.778 107.175 712.978 103.425C715.178 99.675 717.578 96.725 720.178 94.575C722.778 92.375 725.528 90.85 728.428 90C731.328 89.1 734.328 88.65 737.428 88.65C741.278 88.65 743.203 90.025 743.203 92.775C743.203 94.125 742.553 95.15 741.253 95.85C739.953 96.55 737.978 97.125 735.328 97.575C732.178 98.125 729.403 99.15 727.003 100.65C724.653 102.15 722.578 104.275 720.778 107.025C719.028 109.775 717.478 113.325 716.128 117.675C723.078 117.525 728.778 117.15 733.228 116.55C737.678 115.95 741.103 115.375 743.503 114.825C745.953 114.225 747.653 113.925 748.603 113.925C749.953 113.925 750.778 114.25 751.078 114.9C751.428 115.55 751.603 116.25 751.603 117C751.603 117.85 750.803 118.725 749.203 119.625C748.153 120.225 746.478 120.9 744.178 121.65C741.878 122.35 739.178 123.05 736.078 123.75C732.978 124.4 729.703 124.95 726.253 125.4C722.853 125.8 719.528 126 716.278 126C715.478 126 714.753 126 714.103 126C713.553 128.9 713.003 131.975 712.453 135.225C711.953 138.425 711.503 141.55 711.103 144.6C710.703 147.65 710.353 150.425 710.053 152.925C709.803 155.425 709.653 157.425 709.603 158.925C709.553 160.775 709.078 162.15 708.178 163.05C707.278 163.95 706.103 164.4 704.653 164.4ZM746.753 158.475C743.203 158.475 740.353 157.225 738.203 154.725C736.053 152.175 734.978 148.775 734.978 144.525C734.978 143.175 735.153 141.8 735.503 140.4C735.903 139 736.378 137.7 736.928 136.5C736.628 136.05 736.378 135.475 736.178 134.775C736.028 134.025 735.953 133.15 735.953 132.15C735.953 128.9 736.528 125.925 737.678 123.225C738.828 120.475 740.378 118.1 742.328 116.1C744.278 114.1 746.428 112.55 748.778 111.45C751.128 110.35 753.503 109.8 755.903 109.8C760.003 109.8 763.353 111.175 765.953 113.925C768.603 116.675 769.928 120.95 769.928 126.75C769.928 129.65 769.478 132.6 768.578 135.6C767.678 138.6 766.453 141.475 764.903 144.225C763.403 146.925 761.653 149.35 759.653 151.5C757.703 153.65 755.603 155.35 753.353 156.6C751.153 157.85 748.953 158.475 746.753 158.475ZM745.553 133.125C745.803 133.675 745.928 134.325 745.928 135.075C745.928 135.825 745.778 136.6 745.478 137.4C745.178 138.2 744.878 139.275 744.578 140.625C744.278 141.925 744.128 143.8 744.128 146.25C744.128 146.9 744.203 147.45 744.353 147.9C744.553 148.3 744.978 148.5 745.628 148.5C747.328 148.5 748.928 147.95 750.428 146.85C751.978 145.75 753.353 144.3 754.553 142.5C755.803 140.7 756.853 138.7 757.703 136.5C758.603 134.25 759.278 131.975 759.728 129.675C760.228 127.325 760.478 125.15 760.478 123.15C760.478 121.85 760.228 120.95 759.728 120.45C759.228 119.95 758.353 119.7 757.103 119.7C755.403 119.7 753.653 120.25 751.853 121.35C750.103 122.4 748.628 123.85 747.428 125.7C746.228 127.5 745.628 129.55 745.628 131.85C745.628 132.3 745.603 132.725 745.553 133.125ZM792.037 158.1C789.237 158.1 786.812 157.45 784.762 156.15C782.712 154.9 781.137 153.275 780.037 151.275C778.937 149.225 778.387 147.125 778.387 144.975C778.387 141.375 778.937 138.05 780.037 135C781.137 131.9 782.587 129.1 784.387 126.6C786.187 124.05 788.137 121.8 790.237 119.85C792.387 117.9 794.462 116.275 796.462 114.975C798.512 113.625 800.337 112.625 801.937 111.975C803.537 111.275 804.712 110.925 805.462 110.925C806.812 110.925 807.762 111.225 808.312 111.825C808.912 112.375 809.212 113.3 809.212 114.6C809.212 115.35 808.662 116.25 807.562 117.3C806.512 118.35 805.112 119.55 803.362 120.9C801.662 122.25 799.862 123.775 797.962 125.475C796.062 127.175 794.237 129.075 792.487 131.175C790.787 133.275 789.387 135.575 788.287 138.075C787.237 140.575 786.712 143.3 786.712 146.25C786.712 147.35 786.912 148.2 787.312 148.8C787.762 149.4 788.487 149.7 789.487 149.7C792.337 149.7 795.387 149.2 798.637 148.2C801.937 147.15 805.212 145.85 808.462 144.3C811.762 142.7 814.862 141.05 817.762 139.35C820.712 137.65 823.237 136.125 825.337 134.775C826.187 134.175 826.912 133.7 827.512 133.35C828.112 133 828.537 132.825 828.787 132.825C830.287 132.825 831.037 133.6 831.037 135.15C831.037 135.95 830.437 137.025 829.237 138.375C827.837 140.125 825.937 141.925 823.537 143.775C821.187 145.625 818.562 147.4 815.662 149.1C812.812 150.8 809.887 152.325 806.887 153.675C803.937 155.025 801.162 156.1 798.562 156.9C795.962 157.7 793.787 158.1 792.037 158.1ZM852.586 159.375C851.436 159.375 850.386 158.9 849.436 157.95C848.536 157.05 848.086 155.525 848.086 153.375C848.086 151.775 848.211 149.55 848.461 146.7C848.761 143.8 849.311 140.075 850.111 135.525C848.361 139.125 846.536 142.325 844.636 145.125C842.736 147.925 840.861 150.125 839.011 151.725C837.211 153.275 835.486 154.05 833.836 154.05C831.186 154.05 829.086 153.25 827.536 151.65C825.986 150 825.211 146.925 825.211 142.425C825.211 140.275 825.386 137.85 825.736 135.15C826.136 132.45 826.636 129.75 827.236 127.05C827.836 124.35 828.436 121.95 829.036 119.85C829.686 117.7 830.261 116.1 830.761 115.05C831.161 114.15 831.661 113.45 832.261 112.95C832.911 112.45 833.736 112.2 834.736 112.2C836.336 112.2 837.561 112.725 838.411 113.775C839.261 114.825 839.686 115.9 839.686 117C839.686 117.85 839.486 119.075 839.086 120.675C838.736 122.275 838.286 124.05 837.736 126C837.236 127.95 836.711 129.95 836.161 132C835.611 134.05 835.136 135.975 834.736 137.775C834.386 139.575 834.211 141.1 834.211 142.35C834.211 143.9 834.811 144.675 836.011 144.675C836.711 144.675 837.611 144 838.711 142.65C839.861 141.3 841.061 139.5 842.311 137.25C843.611 134.95 844.911 132.45 846.211 129.75C847.561 127 848.786 124.225 849.886 121.425C851.036 118.575 852.011 115.95 852.811 113.55C853.311 112.05 853.986 111 854.836 110.4C855.686 109.8 856.661 109.5 857.761 109.5C859.461 109.5 860.761 109.975 861.661 110.925C862.611 111.875 863.086 113.225 863.086 114.975C863.086 115.775 862.961 117.125 862.711 119.025C862.461 120.925 862.136 123.15 861.736 125.7C861.386 128.25 860.961 130.95 860.461 133.8C859.961 136.65 859.461 139.45 858.961 142.2C858.511 144.95 858.061 147.475 857.611 149.775C857.161 152.025 856.786 153.825 856.486 155.175C855.986 157.175 855.386 158.375 854.686 158.775C853.986 159.175 853.286 159.375 852.586 159.375ZM881.548 159.825C879.398 159.825 877.873 159.525 876.973 158.925C876.123 158.325 875.698 157.45 875.698 156.3C875.698 155.3 876.048 154.45 876.748 153.75C877.448 153 878.998 152.25 881.398 151.5C884.198 150.65 886.848 149.675 889.348 148.575C891.898 147.425 893.973 146.175 895.573 144.825C897.223 143.475 898.048 142.05 898.048 140.55C898.048 139.55 897.698 138.825 896.998 138.375C896.348 137.925 895.573 137.7 894.673 137.7C893.923 137.7 892.823 137.825 891.373 138.075C889.973 138.275 888.423 138.55 886.723 138.9C885.023 139.2 883.373 139.475 881.773 139.725C880.223 139.925 878.898 140.025 877.798 140.025C875.198 140.025 873.273 139.45 872.023 138.3C870.773 137.1 870.148 135.575 870.148 133.725C870.148 132.725 870.673 131.35 871.723 129.6C872.773 127.85 874.173 125.925 875.923 123.825C877.673 121.725 879.623 119.625 881.773 117.525C883.923 115.425 886.098 113.5 888.298 111.75C890.548 109.95 892.673 108.525 894.673 107.475C896.673 106.375 898.373 105.825 899.773 105.825C901.373 105.825 902.648 106.325 903.598 107.325C904.598 108.325 905.098 109.675 905.098 111.375C905.098 112.175 905.023 113.05 904.873 114C904.723 114.9 904.348 115.725 903.748 116.475C903.148 117.175 902.223 117.675 900.973 117.975C899.723 118.275 898.023 118.225 895.873 117.825C894.173 119.075 892.398 120.45 890.548 121.95C888.748 123.4 887.048 124.925 885.448 126.525C883.848 128.075 882.523 129.6 881.473 131.1C883.323 130.5 885.423 130.025 887.773 129.675C890.123 129.275 892.498 129.075 894.898 129.075C897.798 129.075 900.148 129.6 901.948 130.65C903.798 131.65 905.148 133 905.998 134.7C906.898 136.4 907.348 138.275 907.348 140.325C907.348 142.625 906.598 144.925 905.098 147.225C903.598 149.525 901.598 151.625 899.098 153.525C896.598 155.425 893.823 156.95 890.773 158.1C887.723 159.25 884.648 159.825 881.548 159.825ZM926.957 158.55C923.857 158.55 921.357 157.475 919.457 155.325C917.557 153.125 916.607 149.6 916.607 144.75C916.607 141.65 916.957 138.55 917.657 135.45C918.407 132.3 919.432 129.325 920.732 126.525C922.082 123.675 923.632 121.15 925.382 118.95C927.182 116.75 929.157 115.025 931.307 113.775C933.457 112.475 935.682 111.825 937.982 111.825C941.882 111.825 944.932 112.875 947.132 114.975C949.332 117.075 950.432 119.75 950.432 123C950.432 125.5 949.732 127.775 948.332 129.825C946.982 131.825 945.132 133.625 942.782 135.225C940.432 136.825 937.807 138.275 934.907 139.575C932.007 140.875 929.032 142.05 925.982 143.1C925.732 144.9 925.607 146.5 925.607 147.9C925.607 148.75 926.082 149.175 927.032 149.175C929.282 149.175 931.682 148.825 934.232 148.125C936.832 147.375 939.457 146.425 942.107 145.275C944.757 144.075 947.307 142.85 949.757 141.6C952.207 140.3 954.432 139.075 956.432 137.925C958.482 136.725 960.157 135.775 961.457 135.075C962.807 134.325 963.682 133.95 964.082 133.95C965.182 133.95 965.982 134.275 966.482 134.925C966.982 135.575 967.232 136.275 967.232 137.025C967.232 137.375 966.557 138.15 965.207 139.35C963.907 140.55 962.107 141.975 959.807 143.625C957.557 145.225 955.007 146.9 952.157 148.65C949.357 150.35 946.432 151.975 943.382 153.525C940.382 155.025 937.457 156.225 934.607 157.125C931.807 158.075 929.257 158.55 926.957 158.55ZM927.257 136.425C929.307 135.225 931.332 133.975 933.332 132.675C935.382 131.325 937.082 129.825 938.432 128.175C939.782 126.475 940.457 124.5 940.457 122.25C940.457 121.6 940.282 121.175 939.932 120.975C939.582 120.725 939.082 120.6 938.432 120.6C936.682 120.6 935.082 121.375 933.632 122.925C932.232 124.475 930.982 126.475 929.882 128.925C928.832 131.325 927.957 133.825 927.257 136.425ZM994.155 115.875C996.905 109.325 999.33 102.575 1001.43 95.625C1001.83 94.225 1002.41 93.15 1003.16 92.4C1003.96 91.65 1005.06 91.275 1006.46 91.275C1007.61 91.275 1008.48 91.625 1009.08 92.325C1009.68 92.975 1009.98 93.875 1009.98 95.025C1009.98 95.975 1009.58 97.675 1008.78 100.125C1007.98 102.525 1007.01 105.575 1005.86 109.275C1004.71 112.975 1003.56 117.25 1002.41 122.1C1001.26 126.95 1000.28 132.275 999.48 138.075C998.68 143.875 998.28 150.075 998.28 156.675C998.28 158.475 997.93 159.95 997.23 161.1C996.58 162.3 995.43 162.9 993.78 162.9C991.98 162.9 990.655 162.275 989.805 161.025C989.005 159.775 988.605 158.175 988.605 156.225C988.605 152.375 988.73 149.175 988.98 146.625C989.28 144.025 989.58 141.8 989.88 139.95C987.43 144.15 984.83 147.775 982.08 150.825C979.38 153.825 976.78 156.125 974.28 157.725C971.78 159.375 969.63 160.2 967.83 160.2C964.88 160.2 962.48 159.375 960.63 157.725C958.78 156.075 957.855 153.575 957.855 150.225C957.855 147.625 958.48 144.95 959.73 142.2C960.98 139.4 962.63 136.65 964.68 133.95C966.73 131.25 968.98 128.725 971.43 126.375C973.93 123.975 976.43 121.875 978.93 120.075C981.43 118.225 983.755 116.775 985.905 115.725C988.055 114.675 989.805 114.15 991.155 114.15C992.655 114.15 993.655 114.725 994.155 115.875ZM992.43 119.925C992.13 120.125 991.805 120.325 991.455 120.525C991.155 120.675 990.855 120.85 990.555 121.05C988.655 122.25 986.63 123.7 984.48 125.4C982.33 127.05 980.205 128.9 978.105 130.95C976.005 132.95 974.08 135.05 972.33 137.25C970.63 139.4 969.255 141.55 968.205 143.7C967.205 145.8 966.705 147.825 966.705 149.775C966.705 150.125 966.855 150.375 967.155 150.525C967.455 150.675 967.73 150.75 967.98 150.75C969.73 150.75 971.605 149.975 973.605 148.425C975.655 146.875 977.73 144.725 979.83 141.975C981.98 139.175 984.105 135.9 986.205 132.15C988.355 128.4 990.43 124.325 992.43 119.925Z" fill="#227C9D"/>
<path d="M52.85 212.125C52.85 216.025 52.5 220.15 51.8 224.5C51.15 228.8 50.075 233.025 48.575 237.175C47.125 241.275 45.2 245 42.8 248.35C40.4 251.7 37.5 254.375 34.1 256.375C30.75 258.375 26.825 259.375 22.325 259.375C17.175 259.375 13.025 257.725 9.875 254.425C6.725 251.125 5.15 246.075 5.15 239.275C5.15 235.925 5.525 232.65 6.275 229.45C7.075 226.2 7.925 223.275 8.825 220.675C8.725 220.225 8.675 219.7 8.675 219.1C8.675 216.95 9 214.925 9.65 213.025C10.35 211.075 11.225 209.375 12.275 207.925C13.375 206.425 14.525 205.25 15.725 204.4C16.975 203.55 18.15 203.125 19.25 203.125C20.4 203.125 21.4 203.525 22.25 204.325C23.15 205.075 23.6 206.4 23.6 208.3C23.6 209.45 23.175 211.05 22.325 213.1C21.525 215.1 20.6 217.5 19.55 220.3C18.5 223.05 17.55 226.15 16.7 229.6C15.9 233 15.5 236.65 15.5 240.55C15.5 245.95 18.2 248.65 23.6 248.65C26.4 248.65 28.8 247.85 30.8 246.25C32.85 244.6 34.525 242.4 35.825 239.65C37.175 236.9 38.275 233.8 39.125 230.35C39.975 226.9 40.625 223.35 41.075 219.7C41.525 216 41.85 212.45 42.05 209.05C42.2 207.15 42.775 205.775 43.775 204.925C44.825 204.075 46.075 203.65 47.525 203.65C48.475 203.65 49.35 203.825 50.15 204.175C50.95 204.475 51.6 205.225 52.1 206.425C52.6 207.625 52.85 209.525 52.85 212.125ZM81.3289 218.95C78.9289 218.95 77.2289 218.7 76.2289 218.2C75.2289 217.7 74.6289 217.1 74.4289 216.4C74.2289 215.7 74.1289 215.1 74.1289 214.6C74.1289 214.55 74.1289 214.525 74.1289 214.525C74.1289 213.425 74.6289 212.375 75.6289 211.375C76.6289 210.325 78.0289 209.6 79.8289 209.2C81.3289 208.9 83.1039 208.6 85.1539 208.3C87.2539 207.95 89.4539 207.65 91.7539 207.4C94.1039 207.1 96.3539 206.875 98.5039 206.725C100.654 206.575 102.554 206.5 104.204 206.5C106.404 206.5 108.104 206.825 109.304 207.475C110.504 208.075 111.329 208.775 111.779 209.575C112.279 210.375 112.529 211.05 112.529 211.6C112.529 212.1 112.404 212.6 112.154 213.1C111.904 213.6 111.279 214.1 110.279 214.6C109.329 215.1 107.804 215.575 105.704 216.025C103.604 216.475 100.704 216.9 97.0039 217.3C96.6539 217.35 96.2789 217.4 95.8789 217.45C95.5289 219.6 95.1039 222.175 94.6039 225.175C94.1039 228.125 93.5539 231.225 92.9539 234.475C92.4039 237.675 91.8539 240.75 91.3039 243.7C90.8039 246.6 90.3539 249.075 89.9539 251.125C92.0039 250.925 93.8039 250.775 95.3539 250.675C96.9539 250.575 98.0289 250.525 98.5789 250.525C100.329 250.525 101.529 250.9 102.179 251.65C102.829 252.35 103.154 253.275 103.154 254.425C103.154 254.875 102.354 255.575 100.754 256.525C99.1539 257.475 96.9289 258.5 94.0789 259.6C91.2789 260.7 88.0539 261.675 84.4039 262.525C82.0039 263.075 79.6289 263.5 77.2789 263.8C74.9289 264.1 73.2289 264.25 72.1789 264.25C70.1289 264.25 68.8039 263.875 68.2039 263.125C67.6539 262.375 67.3789 261.425 67.3789 260.275C67.3789 259.275 67.6789 258.25 68.2789 257.2C68.9289 256.15 69.8289 255.4 70.9789 254.95C72.1789 254.5 73.5039 254.075 74.9539 253.675C76.4039 253.275 77.9039 252.925 79.4539 252.625C79.5539 251.325 79.7539 249.6 80.0539 247.45C80.3539 245.3 80.6789 242.95 81.0289 240.4C81.4289 237.8 81.8289 235.175 82.2289 232.525C82.6789 229.825 83.1039 227.3 83.5039 224.95C83.9539 222.55 84.3289 220.475 84.6289 218.725C83.1789 218.875 82.0789 218.95 81.3289 218.95ZM121.067 272.2C119.967 272.2 119.117 271.7 118.517 270.7C117.917 269.75 117.617 268.675 117.617 267.475C117.617 266.725 118.017 265.3 118.817 263.2C119.617 261.15 120.692 258.625 122.042 255.625C123.442 252.575 125.042 249.25 126.842 245.65C128.642 242 130.567 238.225 132.617 234.325C134.667 230.375 136.717 226.45 138.767 222.55C140.867 218.65 142.892 214.95 144.842 211.45C146.792 207.95 148.592 204.825 150.242 202.075C150.892 201.075 151.667 200.2 152.567 199.45C153.517 198.7 154.567 198.325 155.717 198.325C156.867 198.325 157.792 198.8 158.492 199.75C159.242 200.65 159.617 201.725 159.617 202.975C159.617 203.425 159.142 204.675 158.192 206.725C157.242 208.725 155.942 211.35 154.292 214.6C152.642 217.8 150.717 221.475 148.517 225.625C146.367 229.775 144.042 234.225 141.542 238.975C139.092 243.675 136.567 248.5 133.967 253.45C131.417 258.4 128.917 263.325 126.467 268.225C125.967 269.325 125.242 270.25 124.292 271C123.342 271.8 122.267 272.2 121.067 272.2ZM222.113 212.125C222.113 216.025 221.763 220.15 221.063 224.5C220.413 228.8 219.338 233.025 217.838 237.175C216.388 241.275 214.463 245 212.063 248.35C209.663 251.7 206.763 254.375 203.363 256.375C200.013 258.375 196.088 259.375 191.588 259.375C186.438 259.375 182.288 257.725 179.138 254.425C175.988 251.125 174.413 246.075 174.413 239.275C174.413 235.925 174.788 232.65 175.538 229.45C176.338 226.2 177.188 223.275 178.088 220.675C177.988 220.225 177.938 219.7 177.938 219.1C177.938 216.95 178.263 214.925 178.913 213.025C179.613 211.075 180.488 209.375 181.538 207.925C182.638 206.425 183.788 205.25 184.988 204.4C186.238 203.55 187.413 203.125 188.513 203.125C189.663 203.125 190.663 203.525 191.513 204.325C192.413 205.075 192.863 206.4 192.863 208.3C192.863 209.45 192.438 211.05 191.588 213.1C190.788 215.1 189.863 217.5 188.813 220.3C187.763 223.05 186.813 226.15 185.963 229.6C185.163 233 184.763 236.65 184.763 240.55C184.763 245.95 187.463 248.65 192.863 248.65C195.663 248.65 198.063 247.85 200.063 246.25C202.113 244.6 203.788 242.4 205.088 239.65C206.438 236.9 207.538 233.8 208.388 230.35C209.238 226.9 209.888 223.35 210.338 219.7C210.788 216 211.113 212.45 211.313 209.05C211.463 207.15 212.038 205.775 213.038 204.925C214.088 204.075 215.338 203.65 216.788 203.65C217.738 203.65 218.613 203.825 219.413 204.175C220.213 204.475 220.863 205.225 221.363 206.425C221.863 207.625 222.113 209.525 222.113 212.125ZM276.317 260.5C274.067 260.5 272.367 259.75 271.217 258.25C270.067 256.75 268.917 254.925 267.767 252.775C266.667 250.625 265.617 248.5 264.617 246.4C263.617 244.25 262.617 242.075 261.617 239.875C258.967 243.025 256.467 246.025 254.117 248.875C251.817 251.675 249.792 254.15 248.042 256.3C246.342 258.4 245.067 260.025 244.217 261.175C243.467 262.125 242.717 262.925 241.967 263.575C241.267 264.275 240.242 264.625 238.892 264.625C237.592 264.625 236.567 264.225 235.817 263.425C235.117 262.675 234.767 261.625 234.767 260.275C234.767 259.225 235.392 257.7 236.642 255.7C237.892 253.65 239.567 251.25 241.667 248.5C243.817 245.7 246.217 242.725 248.867 239.575C251.567 236.375 254.367 233.1 257.267 229.75C254.367 222.6 252.092 216.575 250.442 211.675C248.842 206.725 248.042 203.2 248.042 201.1C248.042 198.35 249.392 196.975 252.092 196.975C253.542 196.975 254.667 197.375 255.467 198.175C256.317 198.925 257.017 199.975 257.567 201.325C258.067 202.475 258.842 204.575 259.892 207.625C260.942 210.625 262.592 215.125 264.842 221.125C268.342 217.125 271.217 213.725 273.467 210.925C275.767 208.125 277.667 205.875 279.167 204.175C280.667 202.475 281.967 201.225 283.067 200.425C284.167 199.625 285.242 199.225 286.292 199.225C287.692 199.225 288.767 199.6 289.517 200.35C290.317 201.05 290.717 202.075 290.717 203.425C290.717 204.675 290.492 205.75 290.042 206.65C289.592 207.55 288.992 208.5 288.242 209.5C287.092 211.2 285.467 213.2 283.367 215.5C281.317 217.75 279.017 220.225 276.467 222.925C273.967 225.625 271.442 228.45 268.892 231.4C270.792 236 272.617 239.975 274.367 243.325C276.117 246.675 277.542 249.425 278.642 251.575C279.742 253.725 280.292 255.325 280.292 256.375C280.292 257.625 279.942 258.625 279.242 259.375C278.542 260.125 277.567 260.5 276.317 260.5ZM342.391 263.575C340.941 263.575 339.791 263.175 338.941 262.375C338.141 261.625 337.741 260.55 337.741 259.15C337.741 257.85 338.091 256.75 338.791 255.85C339.491 254.9 340.841 254 342.841 253.15C342.991 253.1 343.141 253.05 343.291 253C342.041 252.75 341.166 252.05 340.666 250.9C340.216 249.75 339.991 248.425 339.991 246.925C339.991 246.075 340.141 244.7 340.441 242.8C340.741 240.9 341.116 238.725 341.566 236.275C342.016 233.825 342.491 231.4 342.991 229C343.491 226.55 343.916 224.4 344.266 222.55C345.216 218.3 346.441 214.55 347.941 211.3C349.441 208.05 351.466 205.525 354.016 203.725C356.566 201.875 359.841 200.95 363.841 200.95C366.891 200.95 369.891 201.6 372.841 202.9C375.841 204.15 378.566 205.925 381.016 208.225C383.466 210.525 385.416 213.225 386.866 216.325C388.366 219.425 389.116 222.825 389.116 226.525C389.116 230.725 387.466 234.95 384.166 239.2C380.866 243.45 376.241 247.525 370.291 251.425C364.391 255.275 357.491 258.75 349.591 261.85C348.291 262.35 347.116 262.75 346.066 263.05C345.066 263.4 343.841 263.575 342.391 263.575ZM348.841 250.825C356.091 247.925 361.941 245.15 366.391 242.5C370.841 239.85 374.066 237.05 376.066 234.1C378.116 231.15 379.141 227.8 379.141 224.05C379.141 221.95 378.441 219.95 377.041 218.05C375.641 216.15 373.841 214.625 371.641 213.475C369.441 212.275 367.116 211.675 364.666 211.675C362.016 211.675 359.891 212.75 358.291 214.9C356.691 217 355.416 220.6 354.466 225.7C354.016 227.75 353.541 229.975 353.041 232.375C352.591 234.725 352.141 237 351.691 239.2C351.291 241.35 350.941 243.15 350.641 244.6C350.391 246.05 350.241 246.9 350.191 247.15C349.941 248.65 349.491 249.875 348.841 250.825ZM409.428 261.55C406.328 261.55 403.828 260.475 401.928 258.325C400.028 256.125 399.078 252.6 399.078 247.75C399.078 244.65 399.428 241.55 400.128 238.45C400.878 235.3 401.903 232.325 403.203 229.525C404.553 226.675 406.103 224.15 407.853 221.95C409.653 219.75 411.628 218.025 413.778 216.775C415.928 215.475 418.153 214.825 420.453 214.825C424.353 214.825 427.403 215.875 429.603 217.975C431.803 220.075 432.903 222.75 432.903 226C432.903 228.5 432.203 230.775 430.803 232.825C429.453 234.825 427.603 236.625 425.253 238.225C422.903 239.825 420.278 241.275 417.378 242.575C414.478 243.875 411.503 245.05 408.453 246.1C408.203 247.9 408.078 249.5 408.078 250.9C408.078 251.75 408.553 252.175 409.503 252.175C411.753 252.175 414.153 251.825 416.703 251.125C419.303 250.375 421.928 249.425 424.578 248.275C427.228 247.075 429.778 245.85 432.228 244.6C434.678 243.3 436.903 242.075 438.903 240.925C440.953 239.725 442.628 238.775 443.928 238.075C445.278 237.325 446.153 236.95 446.553 236.95C447.653 236.95 448.453 237.275 448.953 237.925C449.453 238.575 449.703 239.275 449.703 240.025C449.703 240.375 449.028 241.15 447.678 242.35C446.378 243.55 444.578 244.975 442.278 246.625C440.028 248.225 437.478 249.9 434.628 251.65C431.828 253.35 428.903 254.975 425.853 256.525C422.853 258.025 419.928 259.225 417.078 260.125C414.278 261.075 411.728 261.55 409.428 261.55ZM409.728 239.425C411.778 238.225 413.803 236.975 415.803 235.675C417.853 234.325 419.553 232.825 420.903 231.175C422.253 229.475 422.928 227.5 422.928 225.25C422.928 224.6 422.753 224.175 422.403 223.975C422.053 223.725 421.553 223.6 420.903 223.6C419.153 223.6 417.553 224.375 416.103 225.925C414.703 227.475 413.453 229.475 412.353 231.925C411.303 234.325 410.428 236.825 409.728 239.425ZM452.129 262.825C449.979 262.825 448.454 262.525 447.554 261.925C446.704 261.325 446.279 260.45 446.279 259.3C446.279 258.3 446.629 257.45 447.329 256.75C448.029 256 449.579 255.25 451.979 254.5C454.779 253.65 457.429 252.675 459.929 251.575C462.479 250.425 464.554 249.175 466.154 247.825C467.804 246.475 468.629 245.05 468.629 243.55C468.629 242.55 468.279 241.825 467.579 241.375C466.929 240.925 466.154 240.7 465.254 240.7C464.504 240.7 463.404 240.825 461.954 241.075C460.554 241.275 459.004 241.55 457.304 241.9C455.604 242.2 453.954 242.475 452.354 242.725C450.804 242.925 449.479 243.025 448.379 243.025C445.779 243.025 443.854 242.45 442.604 241.3C441.354 240.1 440.729 238.575 440.729 236.725C440.729 235.725 441.254 234.35 442.304 232.6C443.354 230.85 444.754 228.925 446.504 226.825C448.254 224.725 450.204 222.625 452.354 220.525C454.504 218.425 456.679 216.5 458.879 214.75C461.129 212.95 463.254 211.525 465.254 210.475C467.254 209.375 468.954 208.825 470.354 208.825C471.954 208.825 473.229 209.325 474.179 210.325C475.179 211.325 475.679 212.675 475.679 214.375C475.679 215.175 475.604 216.05 475.454 217C475.304 217.9 474.929 218.725 474.329 219.475C473.729 220.175 472.804 220.675 471.554 220.975C470.304 221.275 468.604 221.225 466.454 220.825C464.754 222.075 462.979 223.45 461.129 224.95C459.329 226.4 457.629 227.925 456.029 229.525C454.429 231.075 453.104 232.6 452.054 234.1C453.904 233.5 456.004 233.025 458.354 232.675C460.704 232.275 463.079 232.075 465.479 232.075C468.379 232.075 470.729 232.6 472.529 233.65C474.379 234.65 475.729 236 476.579 237.7C477.479 239.4 477.929 241.275 477.929 243.325C477.929 245.625 477.179 247.925 475.679 250.225C474.179 252.525 472.179 254.625 469.679 256.525C467.179 258.425 464.404 259.95 461.354 261.1C458.304 262.25 455.229 262.825 452.129 262.825ZM490.301 260.125C488.901 260.125 487.651 259.65 486.551 258.7C485.501 257.75 484.976 256.2 484.976 254.05C484.976 252.9 485.126 251.275 485.426 249.175C485.776 247.075 486.226 244.8 486.776 242.35C487.326 239.85 487.926 237.375 488.576 234.925C489.276 232.475 489.951 230.3 490.601 228.4C491.251 226.45 491.826 225 492.326 224.05C492.976 222.9 493.576 222.2 494.126 221.95C494.726 221.65 495.301 221.5 495.851 221.5C496.851 221.5 497.776 221.8 498.626 222.4C499.526 223 499.976 224.325 499.976 226.375C499.976 227.175 499.826 228.475 499.526 230.275C499.226 232.025 498.851 234.075 498.401 236.425C497.951 238.775 497.451 241.2 496.901 243.7C496.401 246.2 495.901 248.575 495.401 250.825C494.951 253.025 494.576 254.875 494.276 256.375C494.026 257.625 493.501 258.55 492.701 259.15C491.951 259.8 491.151 260.125 490.301 260.125ZM498.926 214.075C497.276 214.075 495.751 213.6 494.351 212.65C492.951 211.65 492.251 210.125 492.251 208.075C492.251 206.375 492.676 205 493.526 203.95C494.376 202.9 495.376 202.15 496.526 201.7C497.726 201.2 498.776 200.95 499.676 200.95C500.576 200.95 501.576 201.15 502.676 201.55C503.776 201.9 504.726 202.575 505.526 203.575C506.376 204.525 506.801 205.9 506.801 207.7C506.801 208.9 506.376 210 505.526 211C504.676 211.95 503.626 212.7 502.376 213.25C501.176 213.8 500.026 214.075 498.926 214.075ZM515.807 280.6C512.057 280.6 509.207 280.325 507.257 279.775C505.357 279.225 504.057 278.5 503.357 277.6C502.657 276.75 502.307 275.875 502.307 274.975C502.307 273.725 502.707 272.7 503.507 271.9C504.357 271.1 505.457 270.7 506.807 270.7C507.707 270.7 509.007 270.825 510.707 271.075C512.407 271.325 514.107 271.45 515.807 271.45C520.807 271.45 524.932 270.25 528.182 267.85C531.432 265.5 533.982 261.925 535.832 257.125C537.682 252.275 538.957 246.175 539.657 238.825C536.207 244.475 532.382 249 528.182 252.4C524.032 255.8 519.707 257.5 515.207 257.5C509.907 257.5 507.257 254.9 507.257 249.7C507.257 247.2 507.932 244.575 509.282 241.825C510.632 239.075 512.432 236.35 514.682 233.65C516.932 230.95 519.407 228.4 522.107 226C524.807 223.55 527.507 221.4 530.207 219.55C532.957 217.7 535.507 216.25 537.857 215.2C540.207 214.1 542.107 213.55 543.557 213.55C544.707 213.55 545.707 213.75 546.557 214.15C547.457 214.55 548.157 215.35 548.657 216.55C549.157 217.7 549.407 219.4 549.407 221.65C549.407 227.9 549.182 233.95 548.732 239.8C548.282 245.6 547.407 250.975 546.107 255.925C544.807 260.875 542.907 265.2 540.407 268.9C537.957 272.6 534.732 275.475 530.732 277.525C526.732 279.575 521.757 280.6 515.807 280.6ZM516.857 248.2C516.857 248.55 517.007 248.725 517.307 248.725C518.307 248.725 519.657 248.2 521.357 247.15C523.057 246.05 524.882 244.6 526.832 242.8C528.832 240.95 530.782 238.9 532.682 236.65C534.582 234.35 536.257 231.975 537.707 229.525C539.207 227.075 540.282 224.7 540.932 222.4C538.332 223.9 535.632 225.65 532.832 227.65C530.082 229.6 527.482 231.7 525.032 233.95C522.632 236.2 520.657 238.55 519.107 241C517.607 243.4 516.857 245.8 516.857 248.2ZM569.482 259C568.282 259 567.082 258.6 565.882 257.8C564.732 256.95 563.782 255.75 563.032 254.2C562.282 252.6 561.907 250.675 561.907 248.425C561.907 245.425 562.307 242.225 563.107 238.825C563.957 235.425 564.982 232.025 566.182 228.625C567.382 225.225 568.557 222.025 569.707 219.025C570.257 217.575 570.932 216.6 571.732 216.1C572.532 215.55 573.582 215.275 574.882 215.275C577.832 215.275 579.307 216.75 579.307 219.7C579.307 220.2 579.082 221.175 578.632 222.625C578.182 224.025 577.582 225.75 576.832 227.8C576.132 229.85 575.382 232.075 574.582 234.475C573.832 236.825 573.132 239.225 572.482 241.675C571.882 244.075 571.407 246.35 571.057 248.5C572.207 246.75 573.482 244.575 574.882 241.975C576.332 239.325 577.857 236.55 579.457 233.65C581.107 230.75 582.757 228.05 584.407 225.55C586.057 223 587.682 220.925 589.282 219.325C590.882 217.725 592.407 216.925 593.857 216.925C595.107 216.925 596.282 217.175 597.382 217.675C598.532 218.125 599.532 219.025 600.382 220.375C601.232 221.675 601.882 223.55 602.332 226C602.832 228.45 603.082 231.675 603.082 235.675C603.082 237.675 603.257 239.625 603.607 241.525C604.007 243.375 604.657 244.925 605.557 246.175C606.457 247.375 607.732 247.975 609.382 247.975C612.232 247.975 614.782 247.45 617.032 246.4C619.282 245.35 621.257 244.125 622.957 242.725C624.657 241.325 626.082 240.1 627.232 239.05C627.932 238.35 628.532 237.8 629.032 237.4C629.582 237 630.032 236.8 630.382 236.8C631.432 236.8 632.182 237.075 632.632 237.625C633.132 238.175 633.382 238.925 633.382 239.875C633.382 240.375 632.957 241.3 632.107 242.65C631.257 244 630.057 245.55 628.507 247.3C627.007 249 625.282 250.65 623.332 252.25C621.382 253.85 619.282 255.175 617.032 256.225C614.782 257.275 612.482 257.8 610.132 257.8C606.182 257.8 602.907 257.1 600.307 255.7C597.757 254.25 595.857 251.85 594.607 248.5C593.357 245.1 592.732 240.475 592.732 234.625C592.732 234.475 592.732 234.225 592.732 233.875C592.732 232.325 592.707 230.95 592.657 229.75C592.657 228.55 592.582 227.575 592.432 226.825C591.582 228.375 590.557 230.225 589.357 232.375C588.207 234.525 586.957 236.825 585.607 239.275C584.257 241.675 582.857 244.05 581.407 246.4C579.957 248.7 578.507 250.8 577.057 252.7C575.657 254.6 574.307 256.125 573.007 257.275C571.707 258.425 570.532 259 569.482 259ZM659.559 226.525C659.559 229.775 657.709 233 654.009 236.2C650.359 239.35 644.684 242.15 636.984 244.6C636.984 244.65 636.984 244.725 636.984 244.825C636.984 246.475 637.184 247.8 637.584 248.8C637.984 249.75 638.859 250.225 640.209 250.225C642.209 250.225 644.434 249.625 646.884 248.425C649.384 247.175 651.959 245.6 654.609 243.7C657.309 241.75 659.934 239.7 662.484 237.55C665.034 235.4 667.384 233.375 669.534 231.475C671.734 229.525 673.584 227.95 675.084 226.75C676.634 225.5 677.659 224.875 678.159 224.875C679.209 224.875 680.084 225.275 680.784 226.075C681.534 226.875 681.909 228.075 681.909 229.675C681.909 230.575 681.859 231.65 681.759 232.9C683.959 229.1 686.509 225.975 689.409 223.525C692.309 221.025 695.159 219.175 697.959 217.975C700.809 216.725 703.234 216.1 705.234 216.1C707.484 216.1 709.009 216.55 709.809 217.45C710.609 218.3 711.009 219.2 711.009 220.15C711.009 220.7 710.884 221.25 710.634 221.8C710.434 222.3 709.884 222.85 708.984 223.45C708.134 224.05 706.709 224.75 704.709 225.55C702.059 226.55 699.534 227.725 697.134 229.075C694.784 230.425 692.609 232.275 690.609 234.625C688.659 236.925 686.884 240.025 685.284 243.925C683.734 247.775 682.434 252.725 681.384 258.775C681.034 260.475 680.484 261.625 679.734 262.225C678.984 262.875 678.109 263.2 677.109 263.2C677.009 263.2 676.834 263.2 676.584 263.2C676.134 263.25 675.659 263.2 675.159 263.05C674.709 262.95 674.259 262.525 673.809 261.775C673.409 261.075 673.084 259.85 672.834 258.1C672.584 256.35 672.459 253.85 672.459 250.6C672.459 248.65 672.534 246.6 672.684 244.45C672.884 242.25 673.134 239.975 673.434 237.625C670.884 240.125 668.159 242.65 665.259 245.2C662.359 247.75 659.359 250.1 656.259 252.25C653.209 254.35 650.209 256.05 647.259 257.35C644.359 258.65 641.659 259.3 639.159 259.3C635.809 259.3 633.059 258.225 630.909 256.075C628.809 253.875 627.759 250.5 627.759 245.95C627.759 241.45 628.359 237.375 629.559 233.725C630.809 230.025 632.409 226.85 634.359 224.2C636.309 221.55 638.384 219.525 640.584 218.125C642.834 216.675 644.934 215.95 646.884 215.95C651.034 215.95 654.184 216.95 656.334 218.95C658.484 220.9 659.559 223.425 659.559 226.525ZM637.959 237.925C639.259 237.275 640.634 236.525 642.084 235.675C643.584 234.775 644.984 233.85 646.284 232.9C647.584 231.9 648.634 230.925 649.434 229.975C650.284 229.025 650.709 228.125 650.709 227.275C650.709 225.875 650.309 225.025 649.509 224.725C648.759 224.375 647.734 224.2 646.434 224.2C645.084 224.2 643.859 224.925 642.759 226.375C641.659 227.775 640.709 229.525 639.909 231.625C639.109 233.725 638.459 235.825 637.959 237.925Z" fill="#FE6D73"/>
</svg>
