<svg width="967" height="281" viewBox="0 0 967 281" fill="none" xmlns="http://www.w3.org/2000/svg">
<path d="M14.825 12.95C12.425 12.95 10.725 12.7 9.725 12.2C8.725 11.7 8.125 11.1 7.925 10.4C7.725 9.7 7.625 9.1 7.625 8.6C7.625 8.55 7.625 8.525 7.625 8.525C7.625 7.425 8.125 6.375 9.125 5.375C10.125 4.325 11.525 3.6 13.325 3.2C14.825 2.9 16.6 2.6 18.65 2.3C20.75 1.95 22.95 1.65 25.25 1.4C27.6 1.1 29.85 0.874999 32 0.724998C34.15 0.574997 36.05 0.499996 37.7 0.499996C39.9 0.499996 41.6 0.824997 42.8 1.475C44 2.075 44.825 2.775 45.275 3.575C45.775 4.375 46.025 5.05 46.025 5.6C46.025 6.1 45.9 6.6 45.65 7.1C45.4 7.6 44.775 8.1 43.775 8.6C42.825 9.1 41.3 9.575 39.2 10.025C37.1 10.475 34.2 10.9 30.5 11.3C30.15 11.35 29.775 11.4 29.375 11.45C29.025 13.6 28.6 16.175 28.1 19.175C27.6 22.125 27.05 25.225 26.45 28.475C25.9 31.675 25.35 34.75 24.8 37.7C24.3 40.6 23.85 43.075 23.45 45.125C25.5 44.925 27.3 44.775 28.85 44.675C30.45 44.575 31.525 44.525 32.075 44.525C33.825 44.525 35.025 44.9 35.675 45.65C36.325 46.35 36.65 47.275 36.65 48.425C36.65 48.875 35.85 49.575 34.25 50.525C32.65 51.475 30.425 52.5 27.575 53.6C24.775 54.7 21.55 55.675 17.9 56.525C15.5 57.075 13.125 57.5 10.775 57.8C8.425 58.1 6.725 58.25 5.675 58.25C3.625 58.25 2.3 57.875 1.7 57.125C1.15 56.375 0.875 55.425 0.875 54.275C0.875 53.275 1.175 52.25 1.775 51.2C2.425 50.15 3.325 49.4 4.475 48.95C5.675 48.5 7 48.075 8.45 47.675C9.9 47.275 11.4 46.925 12.95 46.625C13.05 45.325 13.25 43.6 13.55 41.45C13.85 39.3 14.175 36.95 14.525 34.4C14.925 31.8 15.325 29.175 15.725 26.525C16.175 23.825 16.6 21.3 17 18.95C17.45 16.55 17.825 14.475 18.125 12.725C16.675 12.875 15.575 12.95 14.825 12.95ZM96.0389 55.85C94.4389 55.85 92.9889 55.4 91.6889 54.5C90.3889 53.65 89.3639 52.525 88.6139 51.125C87.8639 49.675 87.4889 48.125 87.4889 46.475C87.4889 43.375 88.1639 40.35 89.5139 37.4C90.9139 34.45 92.7389 31.65 94.9889 29C97.2389 26.35 99.6889 23.925 102.339 21.725C105.039 19.475 107.714 17.55 110.364 15.95C113.064 14.35 115.514 13.1 117.714 12.2C119.964 11.3 121.714 10.85 122.964 10.85C124.414 10.85 125.589 11.175 126.489 11.825C127.439 12.425 127.914 13.375 127.914 14.675C127.914 15.075 127.814 15.4 127.614 15.65C128.264 15.8 128.789 16.175 129.189 16.775C129.589 17.375 129.789 18.275 129.789 19.475C129.789 19.975 129.664 21.275 129.414 23.375C129.164 25.475 128.889 28.025 128.589 31.025C128.339 34.025 128.214 37.15 128.214 40.4C128.214 40.9 128.289 41.35 128.439 41.75C128.589 42.1 128.914 42.275 129.414 42.275C131.414 42.275 133.439 41.875 135.489 41.075C137.589 40.225 139.614 39.2 141.564 38C143.564 36.75 145.364 35.525 146.964 34.325C148.614 33.075 149.989 32.05 151.089 31.25C152.239 30.4 152.989 29.975 153.339 29.975C155.039 29.975 155.889 30.825 155.889 32.525C155.889 32.975 155.339 33.925 154.239 35.375C153.189 36.775 151.739 38.4 149.889 40.25C148.039 42.05 145.964 43.85 143.664 45.65C141.414 47.4 139.064 48.85 136.614 50C134.214 51.15 131.889 51.725 129.639 51.725C126.889 51.725 124.789 51.075 123.339 49.775C121.939 48.475 120.939 46.725 120.339 44.525C119.789 42.275 119.489 39.75 119.439 36.95C116.889 40.6 114.239 43.85 111.489 46.7C108.789 49.5 106.114 51.725 103.464 53.375C100.814 55.025 98.3389 55.85 96.0389 55.85ZM122.589 18.275C117.689 20.625 113.289 23.325 109.389 26.375C105.489 29.375 102.389 32.525 100.089 35.825C97.8389 39.125 96.7139 42.3 96.7139 45.35C96.7139 46.2 97.1139 46.625 97.9139 46.625C98.8639 46.625 100.114 46.075 101.664 44.975C103.264 43.875 104.989 42.425 106.839 40.625C108.689 38.775 110.539 36.725 112.389 34.475C114.239 32.175 115.964 29.825 117.564 27.425C119.164 25.025 120.439 22.725 121.389 20.525C121.739 19.725 122.139 18.975 122.589 18.275ZM215.766 51.275C215.466 53.975 213.866 55.325 210.966 55.325C209.466 55.325 208.266 54.875 207.366 53.975C206.516 53.075 206.091 51.775 206.091 50.075C206.091 47.175 206.216 44.075 206.466 40.775C206.766 37.425 207.116 34.05 207.516 30.65C207.966 27.25 208.391 24 208.791 20.9C206.991 23.5 205.091 26.175 203.091 28.925C201.091 31.675 199.091 34.35 197.091 36.95C195.091 39.55 193.166 41.9 191.316 44C189.516 46.05 187.866 47.7 186.366 48.95C184.866 50.15 183.616 50.75 182.616 50.75C180.216 50.75 178.141 49.875 176.391 48.125C174.641 46.325 173.766 44.05 173.766 41.3C173.766 40.35 173.866 39.075 174.066 37.475C174.266 35.825 174.516 34.075 174.816 32.225C175.116 30.375 175.366 28.625 175.566 26.975C175.766 25.325 175.866 24.025 175.866 23.075C175.866 23.075 175.866 23.025 175.866 22.925C175.916 22.675 175.866 22.55 175.716 22.55C175.516 22.55 174.966 23.225 174.066 24.575C173.166 25.875 172.066 27.575 170.766 29.675C169.466 31.775 168.091 33.975 166.641 36.275C165.241 38.575 163.916 40.725 162.666 42.725C161.466 44.725 160.466 46.275 159.666 47.375C158.566 49.075 157.541 50.15 156.591 50.6C155.641 51.05 154.541 51.275 153.291 51.275C151.541 51.275 150.166 50.7 149.166 49.55C148.216 48.35 147.741 46.675 147.741 44.525C147.741 43.625 147.891 42.225 148.191 40.325C148.541 38.425 148.966 36.325 149.466 34.025C149.966 31.675 150.466 29.4 150.966 27.2C151.516 24.95 151.991 23.05 152.391 21.5C152.841 19.45 153.466 18.025 154.266 17.225C155.116 16.375 156.191 15.95 157.491 15.95C160.541 15.95 162.066 17.45 162.066 20.45C162.066 21 161.891 21.9 161.541 23.15C161.191 24.4 160.766 25.85 160.266 27.5C159.766 29.15 159.241 30.85 158.691 32.6C158.141 34.3 157.691 35.9 157.341 37.4C158.541 35.3 159.841 33.05 161.241 30.65C162.641 28.25 164.066 25.9 165.516 23.6C167.016 21.3 168.491 19.2 169.941 17.3C171.441 15.4 172.916 13.9 174.366 12.8C175.816 11.65 177.191 11.075 178.491 11.075C179.791 11.075 181.066 11.55 182.316 12.5C183.566 13.4 184.591 14.575 185.391 16.025C186.241 17.425 186.666 18.925 186.666 20.525C186.666 22.025 186.466 23.825 186.066 25.925C185.666 28.025 185.216 30.225 184.716 32.525C184.216 34.825 183.866 37.075 183.666 39.275C185.366 37.375 187.166 35.225 189.066 32.825C190.966 30.375 192.916 27.85 194.916 25.25C196.916 22.65 198.866 20.125 200.766 17.675C202.716 15.225 204.516 13 206.166 11C207.866 9 209.366 7.425 210.666 6.275C211.966 5.075 212.966 4.475 213.666 4.475C215.716 4.475 217.316 5.025 218.466 6.125C219.666 7.175 220.266 9.025 220.266 11.675C220.266 13.325 220.141 15.475 219.891 18.125C219.691 20.775 219.391 23.65 218.991 26.75C218.641 29.8 218.241 32.9 217.791 36.05C217.391 39.15 217.016 42.025 216.666 44.675C216.316 47.325 216.016 49.525 215.766 51.275ZM274.75 55.85C273.15 55.85 271.7 55.4 270.4 54.5C269.1 53.65 268.075 52.525 267.325 51.125C266.575 49.675 266.2 48.125 266.2 46.475C266.2 43.375 266.875 40.35 268.225 37.4C269.625 34.45 271.45 31.65 273.7 29C275.95 26.35 278.4 23.925 281.05 21.725C283.75 19.475 286.425 17.55 289.075 15.95C291.775 14.35 294.225 13.1 296.425 12.2C298.675 11.3 300.425 10.85 301.675 10.85C303.125 10.85 304.3 11.175 305.2 11.825C306.15 12.425 306.625 13.375 306.625 14.675C306.625 15.075 306.525 15.4 306.325 15.65C306.975 15.8 307.5 16.175 307.9 16.775C308.3 17.375 308.5 18.275 308.5 19.475C308.5 19.975 308.375 21.275 308.125 23.375C307.875 25.475 307.6 28.025 307.3 31.025C307.05 34.025 306.925 37.15 306.925 40.4C306.925 40.9 307 41.35 307.15 41.75C307.3 42.1 307.625 42.275 308.125 42.275C310.125 42.275 312.15 41.875 314.2 41.075C316.3 40.225 318.325 39.2 320.275 38C322.275 36.75 324.075 35.525 325.675 34.325C327.325 33.075 328.7 32.05 329.8 31.25C330.95 30.4 331.7 29.975 332.05 29.975C333.75 29.975 334.6 30.825 334.6 32.525C334.6 32.975 334.05 33.925 332.95 35.375C331.9 36.775 330.45 38.4 328.6 40.25C326.75 42.05 324.675 43.85 322.375 45.65C320.125 47.4 317.775 48.85 315.325 50C312.925 51.15 310.6 51.725 308.35 51.725C305.6 51.725 303.5 51.075 302.05 49.775C300.65 48.475 299.65 46.725 299.05 44.525C298.5 42.275 298.2 39.75 298.15 36.95C295.6 40.6 292.95 43.85 290.2 46.7C287.5 49.5 284.825 51.725 282.175 53.375C279.525 55.025 277.05 55.85 274.75 55.85ZM301.3 18.275C296.4 20.625 292 23.325 288.1 26.375C284.2 29.375 281.1 32.525 278.8 35.825C276.55 39.125 275.425 42.3 275.425 45.35C275.425 46.2 275.825 46.625 276.625 46.625C277.575 46.625 278.825 46.075 280.375 44.975C281.975 43.875 283.7 42.425 285.55 40.625C287.4 38.775 289.25 36.725 291.1 34.475C292.95 32.175 294.675 29.825 296.275 27.425C297.875 25.025 299.15 22.725 300.1 20.525C300.45 19.725 300.85 18.975 301.3 18.275ZM396.731 164.925C395.781 164.925 394.956 164.4 394.256 163.35C393.556 162.35 393.231 160.875 393.281 158.925C393.281 158.525 393.331 158 393.431 157.35C390.331 157.25 387.431 156.525 384.731 155.175C382.031 153.775 379.856 151.95 378.206 149.7C376.556 147.45 375.731 145.025 375.731 142.425C375.731 140.625 376.406 138.95 377.756 137.4C379.106 135.8 380.906 134.35 383.156 133.05C385.406 131.7 387.881 130.5 390.581 129.45C388.931 128.35 387.556 127.125 386.456 125.775C385.406 124.375 384.881 122.85 384.881 121.2C384.881 119.5 385.481 117.75 386.681 115.95C387.881 114.15 389.481 112.4 391.481 110.7C393.481 108.95 395.731 107.325 398.231 105.825C400.781 104.325 403.356 103 405.956 101.85C406.556 99.6 407.131 97.475 407.681 95.475C408.281 93.425 408.856 91.5 409.406 89.7C409.756 88.5 410.331 87.475 411.131 86.625C411.931 85.725 412.881 85.275 413.981 85.275C414.931 85.275 415.656 85.7 416.156 86.55C416.656 87.4 416.881 88.4 416.831 89.55C416.781 90.05 416.606 91.125 416.306 92.775C416.006 94.375 415.581 96.375 415.031 98.775C416.931 98.375 418.631 98.175 420.131 98.175C423.031 98.175 425.131 98.675 426.431 99.675C427.731 100.625 428.381 102 428.381 103.8C428.381 104.75 428.056 105.6 427.406 106.35C426.806 107.05 425.481 107.6 423.431 108C421.631 108.3 419.781 108.65 417.881 109.05C416.031 109.4 414.206 109.8 412.406 110.25C411.906 112.5 411.356 114.85 410.756 117.3C410.206 119.7 409.631 122.175 409.031 124.725C411.181 124.425 413.006 124.275 414.506 124.275C416.306 124.275 417.981 124.575 419.531 125.175C421.081 125.775 421.856 126.85 421.856 128.4C421.856 129.25 421.456 130.15 420.656 131.1C419.856 132 418.356 132.775 416.156 133.425C414.006 134.075 410.881 134.425 406.781 134.475C406.331 136.475 405.856 138.475 405.356 140.475C404.906 142.425 404.481 144.375 404.081 146.325C407.481 145.725 410.581 144.975 413.381 144.075C416.231 143.125 418.706 142.175 420.806 141.225C422.956 140.275 424.706 139.5 426.056 138.9C427.406 138.25 428.306 137.925 428.756 137.925C429.606 137.925 430.306 138.225 430.856 138.825C431.406 139.375 431.681 140.075 431.681 140.925C431.681 141.675 431.056 142.825 429.806 144.375C428.556 145.875 426.681 147.5 424.181 149.25C421.731 150.95 418.606 152.525 414.806 153.975C411.056 155.375 406.681 156.35 401.681 156.9C401.481 157.85 401.281 158.775 401.081 159.675C400.581 161.675 399.956 163.05 399.206 163.8C398.456 164.55 397.631 164.925 396.731 164.925ZM395.306 147.225C396.056 143.425 396.956 139.175 398.006 134.475C395.856 135.225 393.756 136.05 391.706 136.95C389.706 137.85 388.056 138.9 386.756 140.1C385.456 141.3 384.806 142.75 384.806 144.45C384.806 145.15 385.206 145.725 386.006 146.175C386.806 146.575 387.831 146.875 389.081 147.075C390.331 147.225 391.631 147.3 392.981 147.3C393.731 147.3 394.506 147.275 395.306 147.225ZM399.881 126.525C400.381 124.325 400.881 122.1 401.381 119.85C401.931 117.6 402.481 115.375 403.031 113.175C400.381 114.225 398.206 115.4 396.506 116.7C394.806 117.95 393.956 119.325 393.956 120.825C393.956 121.925 394.481 122.975 395.531 123.975C396.581 124.975 397.906 125.85 399.506 126.6C399.606 126.6 399.731 126.575 399.881 126.525Z" fill="black"/>
<path d="M16.475 158.1C13.675 158.1 11.25 157.45 9.2 156.15C7.15 154.9 5.575 153.275 4.475 151.275C3.375 149.225 2.825 147.125 2.825 144.975C2.825 141.375 3.375 138.05 4.475 135C5.575 131.9 7.025 129.1 8.825 126.6C10.625 124.05 12.575 121.8 14.675 119.85C16.825 117.9 18.9 116.275 20.9 114.975C22.95 113.625 24.775 112.625 26.375 111.975C27.975 111.275 29.15 110.925 29.9 110.925C31.25 110.925 32.2 111.225 32.75 111.825C33.35 112.375 33.65 113.3 33.65 114.6C33.65 115.35 33.1 116.25 32 117.3C30.95 118.35 29.55 119.55 27.8 120.9C26.1 122.25 24.3 123.775 22.4 125.475C20.5 127.175 18.675 129.075 16.925 131.175C15.225 133.275 13.825 135.575 12.725 138.075C11.675 140.575 11.15 143.3 11.15 146.25C11.15 147.35 11.35 148.2 11.75 148.8C12.2 149.4 12.925 149.7 13.925 149.7C16.775 149.7 19.825 149.2 23.075 148.2C26.375 147.15 29.65 145.85 32.9 144.3C36.2 142.7 39.3 141.05 42.2 139.35C45.15 137.65 47.675 136.125 49.775 134.775C50.625 134.175 51.35 133.7 51.95 133.35C52.55 133 52.975 132.825 53.225 132.825C54.725 132.825 55.475 133.6 55.475 135.15C55.475 135.95 54.875 137.025 53.675 138.375C52.275 140.125 50.375 141.925 47.975 143.775C45.625 145.625 43 147.4 40.1 149.1C37.25 150.8 34.325 152.325 31.325 153.675C28.375 155.025 25.6 156.1 23 156.9C20.4 157.7 18.225 158.1 16.475 158.1ZM52.5775 159.3C51.3275 159.3 50.2525 158.85 49.3525 157.95C48.5025 157.05 48.0775 155.75 48.0775 154.05C48.0775 153.3 48.1775 152.075 48.3775 150.375C48.6275 148.625 48.9275 146.625 49.2775 144.375C49.6775 142.125 50.0525 139.775 50.4025 137.325C50.8025 134.875 51.1275 132.55 51.3775 130.35C51.6775 128.15 51.8775 126.275 51.9775 124.725C52.0775 122.825 52.5775 121.475 53.4775 120.675C54.3775 119.825 55.4525 119.4 56.7025 119.4C57.7025 119.4 58.6025 119.65 59.4025 120.15C60.2525 120.6 60.7775 121.575 60.9775 123.075C61.2275 124.525 61.2525 126.625 61.0525 129.375C63.2525 125.375 65.4775 121.8 67.7275 118.65C70.0275 115.5 72.4275 113 74.9275 111.15C79.0775 108 82.8275 106.425 86.1775 106.425C88.0775 106.425 89.3275 106.85 89.9275 107.7C90.5275 108.55 90.8275 109.425 90.8275 110.325C90.8275 110.925 90.6775 111.475 90.3775 111.975C90.1275 112.475 89.5775 113 88.7275 113.55C87.8775 114.1 86.5775 114.825 84.8275 115.725C82.4775 116.925 80.1525 118.5 77.8525 120.45C75.6025 122.4 73.3525 124.9 71.1025 127.95C68.8525 131 66.5775 134.75 64.2775 139.2C61.9775 143.65 59.6025 148.95 57.1525 155.1C56.7025 156.8 56.0525 157.925 55.2025 158.475C54.4025 159.025 53.5275 159.3 52.5775 159.3ZM96.6102 158.55C93.5102 158.55 91.0102 157.475 89.1102 155.325C87.2102 153.125 86.2602 149.6 86.2602 144.75C86.2602 141.65 86.6102 138.55 87.3102 135.45C88.0602 132.3 89.0852 129.325 90.3852 126.525C91.7352 123.675 93.2852 121.15 95.0352 118.95C96.8352 116.75 98.8102 115.025 100.96 113.775C103.11 112.475 105.335 111.825 107.635 111.825C111.535 111.825 114.585 112.875 116.785 114.975C118.985 117.075 120.085 119.75 120.085 123C120.085 125.5 119.385 127.775 117.985 129.825C116.635 131.825 114.785 133.625 112.435 135.225C110.085 136.825 107.46 138.275 104.56 139.575C101.66 140.875 98.6852 142.05 95.6352 143.1C95.3852 144.9 95.2602 146.5 95.2602 147.9C95.2602 148.75 95.7352 149.175 96.6852 149.175C98.9352 149.175 101.335 148.825 103.885 148.125C106.485 147.375 109.11 146.425 111.76 145.275C114.41 144.075 116.96 142.85 119.41 141.6C121.86 140.3 124.085 139.075 126.085 137.925C128.135 136.725 129.81 135.775 131.11 135.075C132.46 134.325 133.335 133.95 133.735 133.95C134.835 133.95 135.635 134.275 136.135 134.925C136.635 135.575 136.885 136.275 136.885 137.025C136.885 137.375 136.21 138.15 134.86 139.35C133.56 140.55 131.76 141.975 129.46 143.625C127.21 145.225 124.66 146.9 121.81 148.65C119.01 150.35 116.085 151.975 113.035 153.525C110.035 155.025 107.11 156.225 104.26 157.125C101.46 158.075 98.9102 158.55 96.6102 158.55ZM96.9102 136.425C98.9602 135.225 100.985 133.975 102.985 132.675C105.035 131.325 106.735 129.825 108.085 128.175C109.435 126.475 110.11 124.5 110.11 122.25C110.11 121.6 109.935 121.175 109.585 120.975C109.235 120.725 108.735 120.6 108.085 120.6C106.335 120.6 104.735 121.375 103.285 122.925C101.885 124.475 100.635 126.475 99.5352 128.925C98.4852 131.325 97.6102 133.825 96.9102 136.425ZM136.029 158.85C134.429 158.85 132.979 158.4 131.679 157.5C130.379 156.65 129.354 155.525 128.604 154.125C127.854 152.675 127.479 151.125 127.479 149.475C127.479 146.375 128.154 143.35 129.504 140.4C130.904 137.45 132.729 134.65 134.979 132C137.229 129.35 139.679 126.925 142.329 124.725C145.029 122.475 147.704 120.55 150.354 118.95C153.054 117.35 155.504 116.1 157.704 115.2C159.954 114.3 161.704 113.85 162.954 113.85C164.404 113.85 165.579 114.175 166.479 114.825C167.429 115.425 167.904 116.375 167.904 117.675C167.904 118.075 167.804 118.4 167.604 118.65C168.254 118.8 168.779 119.175 169.179 119.775C169.579 120.375 169.779 121.275 169.779 122.475C169.779 122.975 169.654 124.275 169.404 126.375C169.154 128.475 168.879 131.025 168.579 134.025C168.329 137.025 168.204 140.15 168.204 143.4C168.204 143.9 168.279 144.35 168.429 144.75C168.579 145.1 168.904 145.275 169.404 145.275C171.404 145.275 173.429 144.875 175.479 144.075C177.579 143.225 179.604 142.2 181.554 141C183.554 139.75 185.354 138.525 186.954 137.325C188.604 136.075 189.979 135.05 191.079 134.25C192.229 133.4 192.979 132.975 193.329 132.975C195.029 132.975 195.879 133.825 195.879 135.525C195.879 135.975 195.329 136.925 194.229 138.375C193.179 139.775 191.729 141.4 189.879 143.25C188.029 145.05 185.954 146.85 183.654 148.65C181.404 150.4 179.054 151.85 176.604 153C174.204 154.15 171.879 154.725 169.629 154.725C166.879 154.725 164.779 154.075 163.329 152.775C161.929 151.475 160.929 149.725 160.329 147.525C159.779 145.275 159.479 142.75 159.429 139.95C156.879 143.6 154.229 146.85 151.479 149.7C148.779 152.5 146.104 154.725 143.454 156.375C140.804 158.025 138.329 158.85 136.029 158.85ZM162.579 121.275C157.679 123.625 153.279 126.325 149.379 129.375C145.479 132.375 142.379 135.525 140.079 138.825C137.829 142.125 136.704 145.3 136.704 148.35C136.704 149.2 137.104 149.625 137.904 149.625C138.854 149.625 140.104 149.075 141.654 147.975C143.254 146.875 144.979 145.425 146.829 143.625C148.679 141.775 150.529 139.725 152.379 137.475C154.229 135.175 155.954 132.825 157.554 130.425C159.154 128.025 160.429 125.725 161.379 123.525C161.729 122.725 162.129 121.975 162.579 121.275ZM243.574 118.2C243.574 118.8 243.374 119.325 242.974 119.775C242.574 120.225 242.074 120.575 241.474 120.825C240.624 121.175 239.149 121.625 237.049 122.175C234.949 122.725 232.399 123.35 229.399 124.05C226.449 124.75 223.274 125.475 219.874 126.225C216.474 126.925 213.074 127.6 209.674 128.25C208.374 133.05 207.049 138 205.699 143.1C204.349 148.15 202.999 153.125 201.649 158.025C201.149 159.775 200.549 161.1 199.849 162C199.149 162.95 197.949 163.425 196.249 163.425C194.399 163.425 193.149 162.825 192.499 161.625C191.899 160.475 191.824 158.9 192.274 156.9C193.574 151.45 194.774 146.375 195.874 141.675C197.024 136.975 197.949 133.175 198.649 130.275C195.649 130.775 193.024 131.175 190.774 131.475C188.524 131.725 186.924 131.825 185.974 131.775C184.924 131.675 184.049 131.25 183.349 130.5C182.649 129.75 182.324 128.825 182.374 127.725C182.474 126.725 182.924 125.875 183.724 125.175C184.524 124.425 185.474 123.975 186.574 123.825C188.124 123.675 190.124 123.45 192.574 123.15C195.024 122.85 197.724 122.5 200.674 122.1C201.324 119.55 202.074 116.925 202.924 114.225C203.774 111.475 204.649 108.85 205.549 106.35C206.499 103.8 207.399 101.575 208.249 99.675C209.099 97.775 209.874 96.4 210.574 95.55C211.124 94.9 211.799 94.4 212.599 94.05C213.449 93.7 214.274 93.525 215.074 93.525C216.124 93.525 216.974 93.9 217.624 94.65C218.274 95.4 218.599 96.275 218.599 97.275C218.599 97.675 218.574 98.1 218.524 98.55C218.474 98.95 218.374 99.35 218.224 99.75C217.274 102.25 216.249 105.275 215.149 108.825C214.099 112.375 212.999 116.275 211.849 120.525C215.599 119.975 219.274 119.425 222.874 118.875C226.524 118.275 229.824 117.725 232.774 117.225C235.774 116.675 238.174 116.2 239.974 115.8C240.974 115.45 241.824 115.525 242.524 116.025C243.224 116.475 243.574 117.2 243.574 118.2ZM234.539 155.125C233.139 155.125 231.889 154.65 230.789 153.7C229.739 152.75 229.214 151.2 229.214 149.05C229.214 147.9 229.364 146.275 229.664 144.175C230.014 142.075 230.464 139.8 231.014 137.35C231.564 134.85 232.164 132.375 232.814 129.925C233.514 127.475 234.189 125.3 234.839 123.4C235.489 121.45 236.064 120 236.564 119.05C237.214 117.9 237.814 117.2 238.364 116.95C238.964 116.65 239.539 116.5 240.089 116.5C241.089 116.5 242.014 116.8 242.864 117.4C243.764 118 244.214 119.325 244.214 121.375C244.214 122.175 244.064 123.475 243.764 125.275C243.464 127.025 243.089 129.075 242.639 131.425C242.189 133.775 241.689 136.2 241.139 138.7C240.639 141.2 240.139 143.575 239.639 145.825C239.189 148.025 238.814 149.875 238.514 151.375C238.264 152.625 237.739 153.55 236.939 154.15C236.189 154.8 235.389 155.125 234.539 155.125ZM243.164 109.075C241.514 109.075 239.989 108.6 238.589 107.65C237.189 106.65 236.489 105.125 236.489 103.075C236.489 101.375 236.914 100 237.764 98.95C238.614 97.9 239.614 97.15 240.764 96.7C241.964 96.2 243.014 95.95 243.914 95.95C244.814 95.95 245.814 96.15 246.914 96.55C248.014 96.9 248.964 97.575 249.764 98.575C250.614 99.525 251.039 100.9 251.039 102.7C251.039 103.9 250.614 105 249.764 106C248.914 106.95 247.864 107.7 246.614 108.25C245.414 108.8 244.264 109.075 243.164 109.075ZM265.634 155.925C264.334 155.925 263.184 155.3 262.184 154.05C261.234 152.8 260.509 150.875 260.009 148.275C259.609 146.075 259.259 143.575 258.959 140.775C258.659 137.975 258.384 135.225 258.134 132.525C257.934 129.775 257.784 127.375 257.684 125.325C257.584 123.275 257.534 121.875 257.534 121.125C257.534 118.425 258.009 116.2 258.959 114.45C259.909 112.65 261.734 111.75 264.434 111.75C265.584 111.75 266.459 112.25 267.059 113.25C267.659 114.2 267.959 115.525 267.959 117.225C267.959 118.275 267.959 119.6 267.959 121.2C268.009 122.75 268.059 124.5 268.109 126.45C268.159 128.6 268.209 130.925 268.259 133.425C268.359 135.875 268.409 138.325 268.409 140.775C270.159 138.025 272.034 135.1 274.034 132C276.034 128.85 277.984 125.8 279.884 122.85C281.834 119.9 283.584 117.3 285.134 115.05C286.684 112.75 287.859 111.125 288.659 110.175C289.359 109.325 290.209 108.6 291.209 108C292.209 107.35 293.259 107.025 294.359 107.025C295.559 107.025 296.559 107.5 297.359 108.45C298.159 109.4 298.559 110.5 298.559 111.75C298.559 112.7 298.359 113.6 297.959 114.45C297.609 115.3 297.159 116.1 296.609 116.85C295.109 118.95 293.334 121.4 291.284 124.2C289.284 127 287.184 129.95 284.984 133.05C282.784 136.1 280.634 139.05 278.534 141.9C276.484 144.75 274.659 147.275 273.059 149.475C271.759 151.325 270.709 152.725 269.909 153.675C269.109 154.575 268.384 155.175 267.734 155.475C267.134 155.775 266.434 155.925 265.634 155.925ZM310.477 158.55C307.377 158.55 304.877 157.475 302.977 155.325C301.077 153.125 300.127 149.6 300.127 144.75C300.127 141.65 300.477 138.55 301.177 135.45C301.927 132.3 302.952 129.325 304.252 126.525C305.602 123.675 307.152 121.15 308.902 118.95C310.702 116.75 312.677 115.025 314.827 113.775C316.977 112.475 319.202 111.825 321.502 111.825C325.402 111.825 328.452 112.875 330.652 114.975C332.852 117.075 333.952 119.75 333.952 123C333.952 125.5 333.252 127.775 331.852 129.825C330.502 131.825 328.652 133.625 326.302 135.225C323.952 136.825 321.327 138.275 318.427 139.575C315.527 140.875 312.552 142.05 309.502 143.1C309.252 144.9 309.127 146.5 309.127 147.9C309.127 148.75 309.602 149.175 310.552 149.175C312.802 149.175 315.202 148.825 317.752 148.125C320.352 147.375 322.977 146.425 325.627 145.275C328.277 144.075 330.827 142.85 333.277 141.6C335.727 140.3 337.952 139.075 339.952 137.925C342.002 136.725 343.677 135.775 344.977 135.075C346.327 134.325 347.202 133.95 347.602 133.95C348.702 133.95 349.502 134.275 350.002 134.925C350.502 135.575 350.752 136.275 350.752 137.025C350.752 137.375 350.077 138.15 348.727 139.35C347.427 140.55 345.627 141.975 343.327 143.625C341.077 145.225 338.527 146.9 335.677 148.65C332.877 150.35 329.952 151.975 326.902 153.525C323.902 155.025 320.977 156.225 318.127 157.125C315.327 158.075 312.777 158.55 310.477 158.55ZM310.777 136.425C312.827 135.225 314.852 133.975 316.852 132.675C318.902 131.325 320.602 129.825 321.952 128.175C323.302 126.475 323.977 124.5 323.977 122.25C323.977 121.6 323.802 121.175 323.452 120.975C323.102 120.725 322.602 120.6 321.952 120.6C320.202 120.6 318.602 121.375 317.152 122.925C315.752 124.475 314.502 126.475 313.402 128.925C312.352 131.325 311.477 133.825 310.777 136.425Z" fill="#17C3B2"/>
<path d="M482.175 156.3C479.025 156.3 476.725 155.35 475.275 153.45C473.875 151.5 473.175 149.025 473.175 146.025C473.175 143.175 473.8 140.425 475.05 137.775C476.3 135.075 477.975 132.5 480.075 130.05C482.175 127.6 484.525 125.325 487.125 123.225C489.725 121.075 492.35 119.15 495 117.45C497.7 115.7 500.275 114.225 502.725 113.025C505.175 111.775 507.3 110.825 509.1 110.175C510.9 109.525 512.2 109.2 513 109.2C513.85 109.2 514.55 109.425 515.1 109.875C515.7 110.275 516 111.075 516 112.275C516 113.525 515.5 114.65 514.5 115.65C513.5 116.65 512.275 117.5 510.825 118.2C508.775 119.2 506.45 120.425 503.85 121.875C501.3 123.275 498.725 124.875 496.125 126.675C493.525 128.475 491.125 130.4 488.925 132.45C486.775 134.5 485.025 136.65 483.675 138.9C482.325 141.1 481.65 143.35 481.65 145.65C481.65 146.15 481.75 146.55 481.95 146.85C482.15 147.15 482.575 147.3 483.225 147.3C484.075 147.3 485.2 146.9 486.6 146.1C488 145.25 489.525 144.15 491.175 142.8C492.825 141.4 494.475 139.875 496.125 138.225C497.775 136.525 499.3 134.825 500.7 133.125C502.15 131.375 503.35 129.75 504.3 128.25C505 127.1 505.825 126.15 506.775 125.4C507.775 124.65 508.8 124.275 509.85 124.275C510.7 124.275 511.4 124.525 511.95 125.025C512.55 125.475 512.85 126.3 512.85 127.5C512.85 127.9 512.825 128.85 512.775 130.35C512.725 131.8 512.65 133.575 512.55 135.675C512.5 137.725 512.475 139.875 512.475 142.125C512.475 144.075 512.65 145.775 513 147.225C513.4 148.625 514.225 149.325 515.475 149.325C516.975 149.325 518.525 148.8 520.125 147.75C521.725 146.65 523.275 145.275 524.775 143.625C526.325 141.925 527.75 140.125 529.05 138.225C530.35 136.325 531.45 134.525 532.35 132.825C533.3 131.075 533.975 129.675 534.375 128.625C535.025 124.225 535.875 120.775 536.925 118.275C537.975 115.725 539.125 113.925 540.375 112.875C541.675 111.825 542.925 111.3 544.125 111.3C545.475 111.3 546.6 111.625 547.5 112.275C548.45 112.925 548.925 114.45 548.925 116.85C548.925 118.1 548.4 119.975 547.35 122.475C546.3 124.975 544.9 127.725 543.15 130.725C542.75 132.975 542.5 135.3 542.4 137.7C542.3 140.1 542.45 142.35 542.85 144.45C544.2 143.5 545.575 142.1 546.975 140.25C548.375 138.35 549.775 136.25 551.175 133.95C552.575 131.6 553.975 129.25 555.375 126.9C556.775 124.5 558.15 122.3 559.5 120.3C560.9 118.3 562.25 116.7 563.55 115.5C564.9 114.25 566.225 113.625 567.525 113.625C568.875 113.625 570.1 113.875 571.2 114.375C572.35 114.825 573.3 115.725 574.05 117.075C574.85 118.375 575.45 120.25 575.85 122.7C576.3 125.1 576.525 128.25 576.525 132.15C576.525 134.2 576.725 136.2 577.125 138.15C577.525 140.05 578.2 141.625 579.15 142.875C580.1 144.075 581.425 144.675 583.125 144.675C585.875 144.675 588.325 144.225 590.475 143.325C592.625 142.375 594.5 141.275 596.1 140.025C597.7 138.775 599.025 137.7 600.075 136.8C601.175 135.85 602.025 135.375 602.625 135.375C603.625 135.375 604.375 135.675 604.875 136.275C605.425 136.825 605.7 137.525 605.7 138.375C605.7 138.875 605.275 139.75 604.425 141C603.625 142.2 602.5 143.55 601.05 145.05C599.65 146.5 598 147.925 596.1 149.325C594.25 150.675 592.275 151.8 590.175 152.7C588.075 153.6 585.95 154.05 583.8 154.05C579.9 154.05 576.675 153.35 574.125 151.95C571.625 150.5 569.75 148.1 568.5 144.75C567.3 141.35 566.7 136.775 566.7 131.025C566.7 130.675 566.7 130.35 566.7 130.05C566.7 129.75 566.7 129.45 566.7 129.15C566.7 127.9 566.675 126.825 566.625 125.925C566.625 125.025 566.5 124.325 566.25 123.825C565.45 125.175 564.475 126.875 563.325 128.925C562.225 130.975 561 133.175 559.65 135.525C558.3 137.875 556.85 140.2 555.3 142.5C553.8 144.8 552.275 146.9 550.725 148.8C549.175 150.7 547.625 152.225 546.075 153.375C544.575 154.525 543.15 155.1 541.8 155.1C540.8 155.1 539.7 154.6 538.5 153.6C537.35 152.6 536.375 151.25 535.575 149.55C534.775 147.8 534.375 145.825 534.375 143.625C532.225 146.325 530 148.8 527.7 151.05C525.4 153.25 523.125 155 520.875 156.3C518.675 157.65 516.575 158.325 514.575 158.325C512.925 158.325 511.325 157.85 509.775 156.9C508.275 155.95 506.975 154.25 505.875 151.8C504.775 149.35 504.075 145.875 503.775 141.375C501.425 144.325 498.975 146.925 496.425 149.175C493.925 151.425 491.45 153.175 489 154.425C486.6 155.675 484.325 156.3 482.175 156.3ZM605.072 158.85C603.472 158.85 602.022 158.4 600.722 157.5C599.422 156.65 598.397 155.525 597.647 154.125C596.897 152.675 596.522 151.125 596.522 149.475C596.522 146.375 597.197 143.35 598.547 140.4C599.947 137.45 601.772 134.65 604.022 132C606.272 129.35 608.722 126.925 611.372 124.725C614.072 122.475 616.747 120.55 619.397 118.95C622.097 117.35 624.547 116.1 626.747 115.2C628.997 114.3 630.747 113.85 631.997 113.85C633.447 113.85 634.622 114.175 635.522 114.825C636.472 115.425 636.947 116.375 636.947 117.675C636.947 118.075 636.847 118.4 636.647 118.65C637.297 118.8 637.822 119.175 638.222 119.775C638.622 120.375 638.822 121.275 638.822 122.475C638.822 122.975 638.697 124.275 638.447 126.375C638.197 128.475 637.922 131.025 637.622 134.025C637.372 137.025 637.247 140.15 637.247 143.4C637.247 143.9 637.322 144.35 637.472 144.75C637.622 145.1 637.947 145.275 638.447 145.275C640.447 145.275 642.472 144.875 644.522 144.075C646.622 143.225 648.647 142.2 650.597 141C652.597 139.75 654.397 138.525 655.997 137.325C657.647 136.075 659.022 135.05 660.122 134.25C661.272 133.4 662.022 132.975 662.372 132.975C664.072 132.975 664.922 133.825 664.922 135.525C664.922 135.975 664.372 136.925 663.272 138.375C662.222 139.775 660.772 141.4 658.922 143.25C657.072 145.05 654.997 146.85 652.697 148.65C650.447 150.4 648.097 151.85 645.647 153C643.247 154.15 640.922 154.725 638.672 154.725C635.922 154.725 633.822 154.075 632.372 152.775C630.972 151.475 629.972 149.725 629.372 147.525C628.822 145.275 628.522 142.75 628.472 139.95C625.922 143.6 623.272 146.85 620.522 149.7C617.822 152.5 615.147 154.725 612.497 156.375C609.847 158.025 607.372 158.85 605.072 158.85ZM631.622 121.275C626.722 123.625 622.322 126.325 618.422 129.375C614.522 132.375 611.422 135.525 609.122 138.825C606.872 142.125 605.747 145.3 605.747 148.35C605.747 149.2 606.147 149.625 606.947 149.625C607.897 149.625 609.147 149.075 610.697 147.975C612.297 146.875 614.022 145.425 615.872 143.625C617.722 141.775 619.572 139.725 621.422 137.475C623.272 135.175 624.997 132.825 626.597 130.425C628.197 128.025 629.472 125.725 630.422 123.525C630.772 122.725 631.172 121.975 631.622 121.275ZM674.007 159.75C669.507 159.75 665.957 158.375 663.357 155.625C660.807 152.825 659.532 148.85 659.532 143.7C659.532 140.9 659.907 137.625 660.657 133.875C661.407 130.075 662.382 126.075 663.582 121.875C664.832 117.625 666.157 113.425 667.557 109.275C669.007 105.125 670.432 101.275 671.832 97.725C673.232 94.175 674.457 91.2 675.507 88.8C676.407 86.95 677.682 86.025 679.332 86.025C680.382 86.025 681.232 86.35 681.882 87C682.582 87.65 682.932 88.7 682.932 90.15C682.932 90.85 682.582 92.375 681.882 94.725C681.182 97.075 680.257 99.975 679.107 103.425C678.007 106.825 676.807 110.5 675.507 114.45C674.257 118.4 673.057 122.375 671.907 126.375C670.807 130.375 669.907 134.15 669.207 137.7C668.507 141.2 668.157 144.175 668.157 146.625C668.157 147.625 668.432 148.425 668.982 149.025C669.582 149.625 670.357 149.925 671.307 149.925C673.357 149.925 675.457 149.55 677.607 148.8C679.807 148.05 681.957 147.1 684.057 145.95C686.207 144.8 688.232 143.575 690.132 142.275C692.032 140.975 693.732 139.75 695.232 138.6C696.782 137.4 698.032 136.45 698.982 135.75C700.232 134.8 701.082 134.325 701.532 134.325C703.232 134.325 704.082 135.15 704.082 136.8C704.082 137.2 703.582 138.025 702.582 139.275C701.732 140.375 700.532 141.775 698.982 143.475C697.432 145.175 695.632 146.975 693.582 148.875C691.582 150.725 689.432 152.475 687.132 154.125C684.882 155.775 682.632 157.125 680.382 158.175C678.132 159.225 676.007 159.75 674.007 159.75ZM712.943 176.625C710.143 176.625 707.593 176.45 705.293 176.1C702.993 175.8 700.743 175.3 698.543 174.6C696.343 173.9 693.968 172.975 691.418 171.825C690.368 171.325 689.493 170.8 688.793 170.25C688.093 169.7 687.743 168.875 687.743 167.775C687.743 166.175 688.243 164.95 689.243 164.1C690.193 163.3 691.518 162.9 693.218 162.9C694.118 162.9 695.268 163.2 696.668 163.8C698.068 164.45 699.668 165.175 701.468 165.975C703.318 166.825 705.368 167.55 707.618 168.15C709.868 168.8 712.293 169.125 714.893 169.125C717.543 169.125 720.018 168.025 722.318 165.825C724.618 163.625 726.468 160.525 727.868 156.525C729.318 152.575 730.043 147.9 730.043 142.5C730.043 141.25 730.018 139.9 729.968 138.45C729.918 136.95 729.868 135.375 729.818 133.725C728.018 137.125 726.068 140.3 723.968 143.25C721.868 146.2 719.693 148.6 717.443 150.45C715.243 152.25 713.018 153.15 710.768 153.15C708.018 153.15 706.018 152.5 704.768 151.2C703.568 149.85 702.968 147.725 702.968 144.825C702.968 142.375 703.143 139.7 703.493 136.8C703.893 133.85 704.418 130.875 705.068 127.875C705.718 124.875 706.468 122.025 707.318 119.325C708.218 116.575 709.168 114.2 710.168 112.2C710.918 110.75 712.068 110.025 713.618 110.025C714.618 110.025 715.618 110.5 716.618 111.45C717.668 112.4 718.193 113.675 718.193 115.275C718.193 116.175 717.968 117.475 717.518 119.175C717.068 120.875 716.518 122.8 715.868 124.95C715.268 127.05 714.643 129.275 713.993 131.625C713.343 133.925 712.793 136.2 712.343 138.45C711.893 140.65 711.668 142.65 711.668 144.45C711.668 144.65 711.818 144.75 712.118 144.75C712.718 144.75 713.518 144.25 714.518 143.25C715.568 142.2 716.718 140.85 717.968 139.2C719.268 137.5 720.568 135.65 721.868 133.65C723.218 131.6 724.518 129.575 725.768 127.575C727.018 125.575 728.143 123.75 729.143 122.1C728.993 121.3 728.893 120.6 728.843 120C728.843 119.35 728.843 118.8 728.843 118.35C728.843 116.3 729.193 114.6 729.893 113.25C730.643 111.9 732.093 111.225 734.243 111.225C735.643 111.225 736.718 111.75 737.468 112.8C738.218 113.8 738.593 115.225 738.593 117.075C738.593 117.875 738.468 118.8 738.218 119.85C737.968 120.85 737.468 122.45 736.718 124.65L737.543 122.325C737.993 126.825 738.368 130.825 738.668 134.325C739.018 137.825 739.193 141.3 739.193 144.75C739.193 151.25 738.093 156.875 735.893 161.625C733.743 166.425 730.693 170.125 726.743 172.725C722.843 175.325 718.243 176.625 712.943 176.625ZM806.294 118.2C806.294 118.8 806.094 119.325 805.694 119.775C805.294 120.225 804.794 120.575 804.194 120.825C803.344 121.175 801.869 121.625 799.769 122.175C797.669 122.725 795.119 123.35 792.119 124.05C789.169 124.75 785.994 125.475 782.594 126.225C779.194 126.925 775.794 127.6 772.394 128.25C771.094 133.05 769.769 138 768.419 143.1C767.069 148.15 765.719 153.125 764.369 158.025C763.869 159.775 763.269 161.1 762.569 162C761.869 162.95 760.669 163.425 758.969 163.425C757.119 163.425 755.869 162.825 755.219 161.625C754.619 160.475 754.544 158.9 754.994 156.9C756.294 151.45 757.494 146.375 758.594 141.675C759.744 136.975 760.669 133.175 761.369 130.275C758.369 130.775 755.744 131.175 753.494 131.475C751.244 131.725 749.644 131.825 748.694 131.775C747.644 131.675 746.769 131.25 746.069 130.5C745.369 129.75 745.044 128.825 745.094 127.725C745.194 126.725 745.644 125.875 746.444 125.175C747.244 124.425 748.194 123.975 749.294 123.825C750.844 123.675 752.844 123.45 755.294 123.15C757.744 122.85 760.444 122.5 763.394 122.1C764.044 119.55 764.794 116.925 765.644 114.225C766.494 111.475 767.369 108.85 768.269 106.35C769.219 103.8 770.119 101.575 770.969 99.675C771.819 97.775 772.594 96.4 773.294 95.55C773.844 94.9 774.519 94.4 775.319 94.05C776.169 93.7 776.994 93.525 777.794 93.525C778.844 93.525 779.694 93.9 780.344 94.65C780.994 95.4 781.319 96.275 781.319 97.275C781.319 97.675 781.294 98.1 781.244 98.55C781.194 98.95 781.094 99.35 780.944 99.75C779.994 102.25 778.969 105.275 777.869 108.825C776.819 112.375 775.719 116.275 774.569 120.525C778.319 119.975 781.994 119.425 785.594 118.875C789.244 118.275 792.544 117.725 795.494 117.225C798.494 116.675 800.894 116.2 802.694 115.8C803.694 115.45 804.544 115.525 805.244 116.025C805.944 116.475 806.294 117.2 806.294 118.2ZM797.259 155.125C795.859 155.125 794.609 154.65 793.509 153.7C792.459 152.75 791.934 151.2 791.934 149.05C791.934 147.9 792.084 146.275 792.384 144.175C792.734 142.075 793.184 139.8 793.734 137.35C794.284 134.85 794.884 132.375 795.534 129.925C796.234 127.475 796.909 125.3 797.559 123.4C798.209 121.45 798.784 120 799.284 119.05C799.934 117.9 800.534 117.2 801.084 116.95C801.684 116.65 802.259 116.5 802.809 116.5C803.809 116.5 804.734 116.8 805.584 117.4C806.484 118 806.934 119.325 806.934 121.375C806.934 122.175 806.784 123.475 806.484 125.275C806.184 127.025 805.809 129.075 805.359 131.425C804.909 133.775 804.409 136.2 803.859 138.7C803.359 141.2 802.859 143.575 802.359 145.825C801.909 148.025 801.534 149.875 801.234 151.375C800.984 152.625 800.459 153.55 799.659 154.15C798.909 154.8 798.109 155.125 797.259 155.125ZM805.884 109.075C804.234 109.075 802.709 108.6 801.309 107.65C799.909 106.65 799.209 105.125 799.209 103.075C799.209 101.375 799.634 100 800.484 98.95C801.334 97.9 802.334 97.15 803.484 96.7C804.684 96.2 805.734 95.95 806.634 95.95C807.534 95.95 808.534 96.15 809.634 96.55C810.734 96.9 811.684 97.575 812.484 98.575C813.334 99.525 813.759 100.9 813.759 102.7C813.759 103.9 813.334 105 812.484 106C811.634 106.95 810.584 107.7 809.334 108.25C808.134 108.8 806.984 109.075 805.884 109.075ZM829.683 158.1C826.883 158.1 824.458 157.45 822.408 156.15C820.358 154.9 818.783 153.275 817.683 151.275C816.583 149.225 816.033 147.125 816.033 144.975C816.033 141.375 816.583 138.05 817.683 135C818.783 131.9 820.233 129.1 822.033 126.6C823.833 124.05 825.783 121.8 827.883 119.85C830.033 117.9 832.108 116.275 834.108 114.975C836.158 113.625 837.983 112.625 839.583 111.975C841.183 111.275 842.358 110.925 843.108 110.925C844.458 110.925 845.408 111.225 845.958 111.825C846.558 112.375 846.858 113.3 846.858 114.6C846.858 115.35 846.308 116.25 845.208 117.3C844.158 118.35 842.758 119.55 841.008 120.9C839.308 122.25 837.508 123.775 835.608 125.475C833.708 127.175 831.883 129.075 830.133 131.175C828.433 133.275 827.033 135.575 825.933 138.075C824.883 140.575 824.358 143.3 824.358 146.25C824.358 147.35 824.558 148.2 824.958 148.8C825.408 149.4 826.133 149.7 827.133 149.7C829.983 149.7 833.033 149.2 836.283 148.2C839.583 147.15 842.858 145.85 846.108 144.3C849.408 142.7 852.508 141.05 855.408 139.35C858.358 137.65 860.883 136.125 862.983 134.775C863.833 134.175 864.558 133.7 865.158 133.35C865.758 133 866.183 132.825 866.433 132.825C867.933 132.825 868.683 133.6 868.683 135.15C868.683 135.95 868.083 137.025 866.883 138.375C865.483 140.125 863.583 141.925 861.183 143.775C858.833 145.625 856.208 147.4 853.308 149.1C850.458 150.8 847.533 152.325 844.533 153.675C841.583 155.025 838.808 156.1 836.208 156.9C833.608 157.7 831.433 158.1 829.683 158.1ZM867.133 158.85C865.533 158.85 864.083 158.4 862.783 157.5C861.483 156.65 860.458 155.525 859.708 154.125C858.958 152.675 858.583 151.125 858.583 149.475C858.583 146.375 859.258 143.35 860.608 140.4C862.008 137.45 863.833 134.65 866.083 132C868.333 129.35 870.783 126.925 873.433 124.725C876.133 122.475 878.808 120.55 881.458 118.95C884.158 117.35 886.608 116.1 888.808 115.2C891.058 114.3 892.808 113.85 894.058 113.85C895.508 113.85 896.683 114.175 897.583 114.825C898.533 115.425 899.008 116.375 899.008 117.675C899.008 118.075 898.908 118.4 898.708 118.65C899.358 118.8 899.883 119.175 900.283 119.775C900.683 120.375 900.883 121.275 900.883 122.475C900.883 122.975 900.758 124.275 900.508 126.375C900.258 128.475 899.983 131.025 899.683 134.025C899.433 137.025 899.308 140.15 899.308 143.4C899.308 143.9 899.383 144.35 899.533 144.75C899.683 145.1 900.008 145.275 900.508 145.275C902.508 145.275 904.533 144.875 906.583 144.075C908.683 143.225 910.708 142.2 912.658 141C914.658 139.75 916.458 138.525 918.058 137.325C919.708 136.075 921.083 135.05 922.183 134.25C923.333 133.4 924.083 132.975 924.433 132.975C926.133 132.975 926.983 133.825 926.983 135.525C926.983 135.975 926.433 136.925 925.333 138.375C924.283 139.775 922.833 141.4 920.983 143.25C919.133 145.05 917.058 146.85 914.758 148.65C912.508 150.4 910.158 151.85 907.708 153C905.308 154.15 902.983 154.725 900.733 154.725C897.983 154.725 895.883 154.075 894.433 152.775C893.033 151.475 892.033 149.725 891.433 147.525C890.883 145.275 890.583 142.75 890.533 139.95C887.983 143.6 885.333 146.85 882.583 149.7C879.883 152.5 877.208 154.725 874.558 156.375C871.908 158.025 869.433 158.85 867.133 158.85ZM893.683 121.275C888.783 123.625 884.383 126.325 880.483 129.375C876.583 132.375 873.483 135.525 871.183 138.825C868.933 142.125 867.808 145.3 867.808 148.35C867.808 149.2 868.208 149.625 869.008 149.625C869.958 149.625 871.208 149.075 872.758 147.975C874.358 146.875 876.083 145.425 877.933 143.625C879.783 141.775 881.633 139.725 883.483 137.475C885.333 135.175 887.058 132.825 888.658 130.425C890.258 128.025 891.533 125.725 892.483 123.525C892.833 122.725 893.233 121.975 893.683 121.275ZM936.068 159.75C931.568 159.75 928.018 158.375 925.418 155.625C922.868 152.825 921.593 148.85 921.593 143.7C921.593 140.9 921.968 137.625 922.718 133.875C923.468 130.075 924.443 126.075 925.643 121.875C926.893 117.625 928.218 113.425 929.618 109.275C931.068 105.125 932.493 101.275 933.893 97.725C935.293 94.175 936.518 91.2 937.568 88.8C938.468 86.95 939.743 86.025 941.393 86.025C942.443 86.025 943.293 86.35 943.943 87C944.643 87.65 944.993 88.7 944.993 90.15C944.993 90.85 944.643 92.375 943.943 94.725C943.243 97.075 942.318 99.975 941.168 103.425C940.068 106.825 938.868 110.5 937.568 114.45C936.318 118.4 935.118 122.375 933.968 126.375C932.868 130.375 931.968 134.15 931.268 137.7C930.568 141.2 930.218 144.175 930.218 146.625C930.218 147.625 930.493 148.425 931.043 149.025C931.643 149.625 932.418 149.925 933.368 149.925C935.418 149.925 937.518 149.55 939.668 148.8C941.868 148.05 944.018 147.1 946.118 145.95C948.268 144.8 950.293 143.575 952.193 142.275C954.093 140.975 955.793 139.75 957.293 138.6C958.843 137.4 960.093 136.45 961.043 135.75C962.293 134.8 963.143 134.325 963.593 134.325C965.293 134.325 966.143 135.15 966.143 136.8C966.143 137.2 965.643 138.025 964.643 139.275C963.793 140.375 962.593 141.775 961.043 143.475C959.493 145.175 957.693 146.975 955.643 148.875C953.643 150.725 951.493 152.475 949.193 154.125C946.943 155.775 944.693 157.125 942.443 158.175C940.193 159.225 938.068 159.75 936.068 159.75Z" fill="#227C9D"/>
<path d="M52.85 212.125C52.85 216.025 52.5 220.15 51.8 224.5C51.15 228.8 50.075 233.025 48.575 237.175C47.125 241.275 45.2 245 42.8 248.35C40.4 251.7 37.5 254.375 34.1 256.375C30.75 258.375 26.825 259.375 22.325 259.375C17.175 259.375 13.025 257.725 9.875 254.425C6.725 251.125 5.15 246.075 5.15 239.275C5.15 235.925 5.525 232.65 6.275 229.45C7.075 226.2 7.925 223.275 8.825 220.675C8.725 220.225 8.675 219.7 8.675 219.1C8.675 216.95 9 214.925 9.65 213.025C10.35 211.075 11.225 209.375 12.275 207.925C13.375 206.425 14.525 205.25 15.725 204.4C16.975 203.55 18.15 203.125 19.25 203.125C20.4 203.125 21.4 203.525 22.25 204.325C23.15 205.075 23.6 206.4 23.6 208.3C23.6 209.45 23.175 211.05 22.325 213.1C21.525 215.1 20.6 217.5 19.55 220.3C18.5 223.05 17.55 226.15 16.7 229.6C15.9 233 15.5 236.65 15.5 240.55C15.5 245.95 18.2 248.65 23.6 248.65C26.4 248.65 28.8 247.85 30.8 246.25C32.85 244.6 34.525 242.4 35.825 239.65C37.175 236.9 38.275 233.8 39.125 230.35C39.975 226.9 40.625 223.35 41.075 219.7C41.525 216 41.85 212.45 42.05 209.05C42.2 207.15 42.775 205.775 43.775 204.925C44.825 204.075 46.075 203.65 47.525 203.65C48.475 203.65 49.35 203.825 50.15 204.175C50.95 204.475 51.6 205.225 52.1 206.425C52.6 207.625 52.85 209.525 52.85 212.125ZM81.3289 218.95C78.9289 218.95 77.2289 218.7 76.2289 218.2C75.2289 217.7 74.6289 217.1 74.4289 216.4C74.2289 215.7 74.1289 215.1 74.1289 214.6C74.1289 214.55 74.1289 214.525 74.1289 214.525C74.1289 213.425 74.6289 212.375 75.6289 211.375C76.6289 210.325 78.0289 209.6 79.8289 209.2C81.3289 208.9 83.1039 208.6 85.1539 208.3C87.2539 207.95 89.4539 207.65 91.7539 207.4C94.1039 207.1 96.3539 206.875 98.5039 206.725C100.654 206.575 102.554 206.5 104.204 206.5C106.404 206.5 108.104 206.825 109.304 207.475C110.504 208.075 111.329 208.775 111.779 209.575C112.279 210.375 112.529 211.05 112.529 211.6C112.529 212.1 112.404 212.6 112.154 213.1C111.904 213.6 111.279 214.1 110.279 214.6C109.329 215.1 107.804 215.575 105.704 216.025C103.604 216.475 100.704 216.9 97.0039 217.3C96.6539 217.35 96.2789 217.4 95.8789 217.45C95.5289 219.6 95.1039 222.175 94.6039 225.175C94.1039 228.125 93.5539 231.225 92.9539 234.475C92.4039 237.675 91.8539 240.75 91.3039 243.7C90.8039 246.6 90.3539 249.075 89.9539 251.125C92.0039 250.925 93.8039 250.775 95.3539 250.675C96.9539 250.575 98.0289 250.525 98.5789 250.525C100.329 250.525 101.529 250.9 102.179 251.65C102.829 252.35 103.154 253.275 103.154 254.425C103.154 254.875 102.354 255.575 100.754 256.525C99.1539 257.475 96.9289 258.5 94.0789 259.6C91.2789 260.7 88.0539 261.675 84.4039 262.525C82.0039 263.075 79.6289 263.5 77.2789 263.8C74.9289 264.1 73.2289 264.25 72.1789 264.25C70.1289 264.25 68.8039 263.875 68.2039 263.125C67.6539 262.375 67.3789 261.425 67.3789 260.275C67.3789 259.275 67.6789 258.25 68.2789 257.2C68.9289 256.15 69.8289 255.4 70.9789 254.95C72.1789 254.5 73.5039 254.075 74.9539 253.675C76.4039 253.275 77.9039 252.925 79.4539 252.625C79.5539 251.325 79.7539 249.6 80.0539 247.45C80.3539 245.3 80.6789 242.95 81.0289 240.4C81.4289 237.8 81.8289 235.175 82.2289 232.525C82.6789 229.825 83.1039 227.3 83.5039 224.95C83.9539 222.55 84.3289 220.475 84.6289 218.725C83.1789 218.875 82.0789 218.95 81.3289 218.95ZM121.067 272.2C119.967 272.2 119.117 271.7 118.517 270.7C117.917 269.75 117.617 268.675 117.617 267.475C117.617 266.725 118.017 265.3 118.817 263.2C119.617 261.15 120.692 258.625 122.042 255.625C123.442 252.575 125.042 249.25 126.842 245.65C128.642 242 130.567 238.225 132.617 234.325C134.667 230.375 136.717 226.45 138.767 222.55C140.867 218.65 142.892 214.95 144.842 211.45C146.792 207.95 148.592 204.825 150.242 202.075C150.892 201.075 151.667 200.2 152.567 199.45C153.517 198.7 154.567 198.325 155.717 198.325C156.867 198.325 157.792 198.8 158.492 199.75C159.242 200.65 159.617 201.725 159.617 202.975C159.617 203.425 159.142 204.675 158.192 206.725C157.242 208.725 155.942 211.35 154.292 214.6C152.642 217.8 150.717 221.475 148.517 225.625C146.367 229.775 144.042 234.225 141.542 238.975C139.092 243.675 136.567 248.5 133.967 253.45C131.417 258.4 128.917 263.325 126.467 268.225C125.967 269.325 125.242 270.25 124.292 271C123.342 271.8 122.267 272.2 121.067 272.2ZM222.113 212.125C222.113 216.025 221.763 220.15 221.063 224.5C220.413 228.8 219.338 233.025 217.838 237.175C216.388 241.275 214.463 245 212.063 248.35C209.663 251.7 206.763 254.375 203.363 256.375C200.013 258.375 196.088 259.375 191.588 259.375C186.438 259.375 182.288 257.725 179.138 254.425C175.988 251.125 174.413 246.075 174.413 239.275C174.413 235.925 174.788 232.65 175.538 229.45C176.338 226.2 177.188 223.275 178.088 220.675C177.988 220.225 177.938 219.7 177.938 219.1C177.938 216.95 178.263 214.925 178.913 213.025C179.613 211.075 180.488 209.375 181.538 207.925C182.638 206.425 183.788 205.25 184.988 204.4C186.238 203.55 187.413 203.125 188.513 203.125C189.663 203.125 190.663 203.525 191.513 204.325C192.413 205.075 192.863 206.4 192.863 208.3C192.863 209.45 192.438 211.05 191.588 213.1C190.788 215.1 189.863 217.5 188.813 220.3C187.763 223.05 186.813 226.15 185.963 229.6C185.163 233 184.763 236.65 184.763 240.55C184.763 245.95 187.463 248.65 192.863 248.65C195.663 248.65 198.063 247.85 200.063 246.25C202.113 244.6 203.788 242.4 205.088 239.65C206.438 236.9 207.538 233.8 208.388 230.35C209.238 226.9 209.888 223.35 210.338 219.7C210.788 216 211.113 212.45 211.313 209.05C211.463 207.15 212.038 205.775 213.038 204.925C214.088 204.075 215.338 203.65 216.788 203.65C217.738 203.65 218.613 203.825 219.413 204.175C220.213 204.475 220.863 205.225 221.363 206.425C221.863 207.625 222.113 209.525 222.113 212.125ZM276.317 260.5C274.067 260.5 272.367 259.75 271.217 258.25C270.067 256.75 268.917 254.925 267.767 252.775C266.667 250.625 265.617 248.5 264.617 246.4C263.617 244.25 262.617 242.075 261.617 239.875C258.967 243.025 256.467 246.025 254.117 248.875C251.817 251.675 249.792 254.15 248.042 256.3C246.342 258.4 245.067 260.025 244.217 261.175C243.467 262.125 242.717 262.925 241.967 263.575C241.267 264.275 240.242 264.625 238.892 264.625C237.592 264.625 236.567 264.225 235.817 263.425C235.117 262.675 234.767 261.625 234.767 260.275C234.767 259.225 235.392 257.7 236.642 255.7C237.892 253.65 239.567 251.25 241.667 248.5C243.817 245.7 246.217 242.725 248.867 239.575C251.567 236.375 254.367 233.1 257.267 229.75C254.367 222.6 252.092 216.575 250.442 211.675C248.842 206.725 248.042 203.2 248.042 201.1C248.042 198.35 249.392 196.975 252.092 196.975C253.542 196.975 254.667 197.375 255.467 198.175C256.317 198.925 257.017 199.975 257.567 201.325C258.067 202.475 258.842 204.575 259.892 207.625C260.942 210.625 262.592 215.125 264.842 221.125C268.342 217.125 271.217 213.725 273.467 210.925C275.767 208.125 277.667 205.875 279.167 204.175C280.667 202.475 281.967 201.225 283.067 200.425C284.167 199.625 285.242 199.225 286.292 199.225C287.692 199.225 288.767 199.6 289.517 200.35C290.317 201.05 290.717 202.075 290.717 203.425C290.717 204.675 290.492 205.75 290.042 206.65C289.592 207.55 288.992 208.5 288.242 209.5C287.092 211.2 285.467 213.2 283.367 215.5C281.317 217.75 279.017 220.225 276.467 222.925C273.967 225.625 271.442 228.45 268.892 231.4C270.792 236 272.617 239.975 274.367 243.325C276.117 246.675 277.542 249.425 278.642 251.575C279.742 253.725 280.292 255.325 280.292 256.375C280.292 257.625 279.942 258.625 279.242 259.375C278.542 260.125 277.567 260.5 276.317 260.5ZM342.391 263.575C340.941 263.575 339.791 263.175 338.941 262.375C338.141 261.625 337.741 260.55 337.741 259.15C337.741 257.85 338.091 256.75 338.791 255.85C339.491 254.9 340.841 254 342.841 253.15C342.991 253.1 343.141 253.05 343.291 253C342.041 252.75 341.166 252.05 340.666 250.9C340.216 249.75 339.991 248.425 339.991 246.925C339.991 246.075 340.141 244.7 340.441 242.8C340.741 240.9 341.116 238.725 341.566 236.275C342.016 233.825 342.491 231.4 342.991 229C343.491 226.55 343.916 224.4 344.266 222.55C345.216 218.3 346.441 214.55 347.941 211.3C349.441 208.05 351.466 205.525 354.016 203.725C356.566 201.875 359.841 200.95 363.841 200.95C366.891 200.95 369.891 201.6 372.841 202.9C375.841 204.15 378.566 205.925 381.016 208.225C383.466 210.525 385.416 213.225 386.866 216.325C388.366 219.425 389.116 222.825 389.116 226.525C389.116 230.725 387.466 234.95 384.166 239.2C380.866 243.45 376.241 247.525 370.291 251.425C364.391 255.275 357.491 258.75 349.591 261.85C348.291 262.35 347.116 262.75 346.066 263.05C345.066 263.4 343.841 263.575 342.391 263.575ZM348.841 250.825C356.091 247.925 361.941 245.15 366.391 242.5C370.841 239.85 374.066 237.05 376.066 234.1C378.116 231.15 379.141 227.8 379.141 224.05C379.141 221.95 378.441 219.95 377.041 218.05C375.641 216.15 373.841 214.625 371.641 213.475C369.441 212.275 367.116 211.675 364.666 211.675C362.016 211.675 359.891 212.75 358.291 214.9C356.691 217 355.416 220.6 354.466 225.7C354.016 227.75 353.541 229.975 353.041 232.375C352.591 234.725 352.141 237 351.691 239.2C351.291 241.35 350.941 243.15 350.641 244.6C350.391 246.05 350.241 246.9 350.191 247.15C349.941 248.65 349.491 249.875 348.841 250.825ZM409.428 261.55C406.328 261.55 403.828 260.475 401.928 258.325C400.028 256.125 399.078 252.6 399.078 247.75C399.078 244.65 399.428 241.55 400.128 238.45C400.878 235.3 401.903 232.325 403.203 229.525C404.553 226.675 406.103 224.15 407.853 221.95C409.653 219.75 411.628 218.025 413.778 216.775C415.928 215.475 418.153 214.825 420.453 214.825C424.353 214.825 427.403 215.875 429.603 217.975C431.803 220.075 432.903 222.75 432.903 226C432.903 228.5 432.203 230.775 430.803 232.825C429.453 234.825 427.603 236.625 425.253 238.225C422.903 239.825 420.278 241.275 417.378 242.575C414.478 243.875 411.503 245.05 408.453 246.1C408.203 247.9 408.078 249.5 408.078 250.9C408.078 251.75 408.553 252.175 409.503 252.175C411.753 252.175 414.153 251.825 416.703 251.125C419.303 250.375 421.928 249.425 424.578 248.275C427.228 247.075 429.778 245.85 432.228 244.6C434.678 243.3 436.903 242.075 438.903 240.925C440.953 239.725 442.628 238.775 443.928 238.075C445.278 237.325 446.153 236.95 446.553 236.95C447.653 236.95 448.453 237.275 448.953 237.925C449.453 238.575 449.703 239.275 449.703 240.025C449.703 240.375 449.028 241.15 447.678 242.35C446.378 243.55 444.578 244.975 442.278 246.625C440.028 248.225 437.478 249.9 434.628 251.65C431.828 253.35 428.903 254.975 425.853 256.525C422.853 258.025 419.928 259.225 417.078 260.125C414.278 261.075 411.728 261.55 409.428 261.55ZM409.728 239.425C411.778 238.225 413.803 236.975 415.803 235.675C417.853 234.325 419.553 232.825 420.903 231.175C422.253 229.475 422.928 227.5 422.928 225.25C422.928 224.6 422.753 224.175 422.403 223.975C422.053 223.725 421.553 223.6 420.903 223.6C419.153 223.6 417.553 224.375 416.103 225.925C414.703 227.475 413.453 229.475 412.353 231.925C411.303 234.325 410.428 236.825 409.728 239.425ZM452.129 262.825C449.979 262.825 448.454 262.525 447.554 261.925C446.704 261.325 446.279 260.45 446.279 259.3C446.279 258.3 446.629 257.45 447.329 256.75C448.029 256 449.579 255.25 451.979 254.5C454.779 253.65 457.429 252.675 459.929 251.575C462.479 250.425 464.554 249.175 466.154 247.825C467.804 246.475 468.629 245.05 468.629 243.55C468.629 242.55 468.279 241.825 467.579 241.375C466.929 240.925 466.154 240.7 465.254 240.7C464.504 240.7 463.404 240.825 461.954 241.075C460.554 241.275 459.004 241.55 457.304 241.9C455.604 242.2 453.954 242.475 452.354 242.725C450.804 242.925 449.479 243.025 448.379 243.025C445.779 243.025 443.854 242.45 442.604 241.3C441.354 240.1 440.729 238.575 440.729 236.725C440.729 235.725 441.254 234.35 442.304 232.6C443.354 230.85 444.754 228.925 446.504 226.825C448.254 224.725 450.204 222.625 452.354 220.525C454.504 218.425 456.679 216.5 458.879 214.75C461.129 212.95 463.254 211.525 465.254 210.475C467.254 209.375 468.954 208.825 470.354 208.825C471.954 208.825 473.229 209.325 474.179 210.325C475.179 211.325 475.679 212.675 475.679 214.375C475.679 215.175 475.604 216.05 475.454 217C475.304 217.9 474.929 218.725 474.329 219.475C473.729 220.175 472.804 220.675 471.554 220.975C470.304 221.275 468.604 221.225 466.454 220.825C464.754 222.075 462.979 223.45 461.129 224.95C459.329 226.4 457.629 227.925 456.029 229.525C454.429 231.075 453.104 232.6 452.054 234.1C453.904 233.5 456.004 233.025 458.354 232.675C460.704 232.275 463.079 232.075 465.479 232.075C468.379 232.075 470.729 232.6 472.529 233.65C474.379 234.65 475.729 236 476.579 237.7C477.479 239.4 477.929 241.275 477.929 243.325C477.929 245.625 477.179 247.925 475.679 250.225C474.179 252.525 472.179 254.625 469.679 256.525C467.179 258.425 464.404 259.95 461.354 261.1C458.304 262.25 455.229 262.825 452.129 262.825ZM490.301 260.125C488.901 260.125 487.651 259.65 486.551 258.7C485.501 257.75 484.976 256.2 484.976 254.05C484.976 252.9 485.126 251.275 485.426 249.175C485.776 247.075 486.226 244.8 486.776 242.35C487.326 239.85 487.926 237.375 488.576 234.925C489.276 232.475 489.951 230.3 490.601 228.4C491.251 226.45 491.826 225 492.326 224.05C492.976 222.9 493.576 222.2 494.126 221.95C494.726 221.65 495.301 221.5 495.851 221.5C496.851 221.5 497.776 221.8 498.626 222.4C499.526 223 499.976 224.325 499.976 226.375C499.976 227.175 499.826 228.475 499.526 230.275C499.226 232.025 498.851 234.075 498.401 236.425C497.951 238.775 497.451 241.2 496.901 243.7C496.401 246.2 495.901 248.575 495.401 250.825C494.951 253.025 494.576 254.875 494.276 256.375C494.026 257.625 493.501 258.55 492.701 259.15C491.951 259.8 491.151 260.125 490.301 260.125ZM498.926 214.075C497.276 214.075 495.751 213.6 494.351 212.65C492.951 211.65 492.251 210.125 492.251 208.075C492.251 206.375 492.676 205 493.526 203.95C494.376 202.9 495.376 202.15 496.526 201.7C497.726 201.2 498.776 200.95 499.676 200.95C500.576 200.95 501.576 201.15 502.676 201.55C503.776 201.9 504.726 202.575 505.526 203.575C506.376 204.525 506.801 205.9 506.801 207.7C506.801 208.9 506.376 210 505.526 211C504.676 211.95 503.626 212.7 502.376 213.25C501.176 213.8 500.026 214.075 498.926 214.075ZM515.807 280.6C512.057 280.6 509.207 280.325 507.257 279.775C505.357 279.225 504.057 278.5 503.357 277.6C502.657 276.75 502.307 275.875 502.307 274.975C502.307 273.725 502.707 272.7 503.507 271.9C504.357 271.1 505.457 270.7 506.807 270.7C507.707 270.7 509.007 270.825 510.707 271.075C512.407 271.325 514.107 271.45 515.807 271.45C520.807 271.45 524.932 270.25 528.182 267.85C531.432 265.5 533.982 261.925 535.832 257.125C537.682 252.275 538.957 246.175 539.657 238.825C536.207 244.475 532.382 249 528.182 252.4C524.032 255.8 519.707 257.5 515.207 257.5C509.907 257.5 507.257 254.9 507.257 249.7C507.257 247.2 507.932 244.575 509.282 241.825C510.632 239.075 512.432 236.35 514.682 233.65C516.932 230.95 519.407 228.4 522.107 226C524.807 223.55 527.507 221.4 530.207 219.55C532.957 217.7 535.507 216.25 537.857 215.2C540.207 214.1 542.107 213.55 543.557 213.55C544.707 213.55 545.707 213.75 546.557 214.15C547.457 214.55 548.157 215.35 548.657 216.55C549.157 217.7 549.407 219.4 549.407 221.65C549.407 227.9 549.182 233.95 548.732 239.8C548.282 245.6 547.407 250.975 546.107 255.925C544.807 260.875 542.907 265.2 540.407 268.9C537.957 272.6 534.732 275.475 530.732 277.525C526.732 279.575 521.757 280.6 515.807 280.6ZM516.857 248.2C516.857 248.55 517.007 248.725 517.307 248.725C518.307 248.725 519.657 248.2 521.357 247.15C523.057 246.05 524.882 244.6 526.832 242.8C528.832 240.95 530.782 238.9 532.682 236.65C534.582 234.35 536.257 231.975 537.707 229.525C539.207 227.075 540.282 224.7 540.932 222.4C538.332 223.9 535.632 225.65 532.832 227.65C530.082 229.6 527.482 231.7 525.032 233.95C522.632 236.2 520.657 238.55 519.107 241C517.607 243.4 516.857 245.8 516.857 248.2ZM569.482 259C568.282 259 567.082 258.6 565.882 257.8C564.732 256.95 563.782 255.75 563.032 254.2C562.282 252.6 561.907 250.675 561.907 248.425C561.907 245.425 562.307 242.225 563.107 238.825C563.957 235.425 564.982 232.025 566.182 228.625C567.382 225.225 568.557 222.025 569.707 219.025C570.257 217.575 570.932 216.6 571.732 216.1C572.532 215.55 573.582 215.275 574.882 215.275C577.832 215.275 579.307 216.75 579.307 219.7C579.307 220.2 579.082 221.175 578.632 222.625C578.182 224.025 577.582 225.75 576.832 227.8C576.132 229.85 575.382 232.075 574.582 234.475C573.832 236.825 573.132 239.225 572.482 241.675C571.882 244.075 571.407 246.35 571.057 248.5C572.207 246.75 573.482 244.575 574.882 241.975C576.332 239.325 577.857 236.55 579.457 233.65C581.107 230.75 582.757 228.05 584.407 225.55C586.057 223 587.682 220.925 589.282 219.325C590.882 217.725 592.407 216.925 593.857 216.925C595.107 216.925 596.282 217.175 597.382 217.675C598.532 218.125 599.532 219.025 600.382 220.375C601.232 221.675 601.882 223.55 602.332 226C602.832 228.45 603.082 231.675 603.082 235.675C603.082 237.675 603.257 239.625 603.607 241.525C604.007 243.375 604.657 244.925 605.557 246.175C606.457 247.375 607.732 247.975 609.382 247.975C612.232 247.975 614.782 247.45 617.032 246.4C619.282 245.35 621.257 244.125 622.957 242.725C624.657 241.325 626.082 240.1 627.232 239.05C627.932 238.35 628.532 237.8 629.032 237.4C629.582 237 630.032 236.8 630.382 236.8C631.432 236.8 632.182 237.075 632.632 237.625C633.132 238.175 633.382 238.925 633.382 239.875C633.382 240.375 632.957 241.3 632.107 242.65C631.257 244 630.057 245.55 628.507 247.3C627.007 249 625.282 250.65 623.332 252.25C621.382 253.85 619.282 255.175 617.032 256.225C614.782 257.275 612.482 257.8 610.132 257.8C606.182 257.8 602.907 257.1 600.307 255.7C597.757 254.25 595.857 251.85 594.607 248.5C593.357 245.1 592.732 240.475 592.732 234.625C592.732 234.475 592.732 234.225 592.732 233.875C592.732 232.325 592.707 230.95 592.657 229.75C592.657 228.55 592.582 227.575 592.432 226.825C591.582 228.375 590.557 230.225 589.357 232.375C588.207 234.525 586.957 236.825 585.607 239.275C584.257 241.675 582.857 244.05 581.407 246.4C579.957 248.7 578.507 250.8 577.057 252.7C575.657 254.6 574.307 256.125 573.007 257.275C571.707 258.425 570.532 259 569.482 259ZM659.559 226.525C659.559 229.775 657.709 233 654.009 236.2C650.359 239.35 644.684 242.15 636.984 244.6C636.984 244.65 636.984 244.725 636.984 244.825C636.984 246.475 637.184 247.8 637.584 248.8C637.984 249.75 638.859 250.225 640.209 250.225C642.209 250.225 644.434 249.625 646.884 248.425C649.384 247.175 651.959 245.6 654.609 243.7C657.309 241.75 659.934 239.7 662.484 237.55C665.034 235.4 667.384 233.375 669.534 231.475C671.734 229.525 673.584 227.95 675.084 226.75C676.634 225.5 677.659 224.875 678.159 224.875C679.209 224.875 680.084 225.275 680.784 226.075C681.534 226.875 681.909 228.075 681.909 229.675C681.909 230.575 681.859 231.65 681.759 232.9C683.959 229.1 686.509 225.975 689.409 223.525C692.309 221.025 695.159 219.175 697.959 217.975C700.809 216.725 703.234 216.1 705.234 216.1C707.484 216.1 709.009 216.55 709.809 217.45C710.609 218.3 711.009 219.2 711.009 220.15C711.009 220.7 710.884 221.25 710.634 221.8C710.434 222.3 709.884 222.85 708.984 223.45C708.134 224.05 706.709 224.75 704.709 225.55C702.059 226.55 699.534 227.725 697.134 229.075C694.784 230.425 692.609 232.275 690.609 234.625C688.659 236.925 686.884 240.025 685.284 243.925C683.734 247.775 682.434 252.725 681.384 258.775C681.034 260.475 680.484 261.625 679.734 262.225C678.984 262.875 678.109 263.2 677.109 263.2C677.009 263.2 676.834 263.2 676.584 263.2C676.134 263.25 675.659 263.2 675.159 263.05C674.709 262.95 674.259 262.525 673.809 261.775C673.409 261.075 673.084 259.85 672.834 258.1C672.584 256.35 672.459 253.85 672.459 250.6C672.459 248.65 672.534 246.6 672.684 244.45C672.884 242.25 673.134 239.975 673.434 237.625C670.884 240.125 668.159 242.65 665.259 245.2C662.359 247.75 659.359 250.1 656.259 252.25C653.209 254.35 650.209 256.05 647.259 257.35C644.359 258.65 641.659 259.3 639.159 259.3C635.809 259.3 633.059 258.225 630.909 256.075C628.809 253.875 627.759 250.5 627.759 245.95C627.759 241.45 628.359 237.375 629.559 233.725C630.809 230.025 632.409 226.85 634.359 224.2C636.309 221.55 638.384 219.525 640.584 218.125C642.834 216.675 644.934 215.95 646.884 215.95C651.034 215.95 654.184 216.95 656.334 218.95C658.484 220.9 659.559 223.425 659.559 226.525ZM637.959 237.925C639.259 237.275 640.634 236.525 642.084 235.675C643.584 234.775 644.984 233.85 646.284 232.9C647.584 231.9 648.634 230.925 649.434 229.975C650.284 229.025 650.709 228.125 650.709 227.275C650.709 225.875 650.309 225.025 649.509 224.725C648.759 224.375 647.734 224.2 646.434 224.2C645.084 224.2 643.859 224.925 642.759 226.375C641.659 227.775 640.709 229.525 639.909 231.625C639.109 233.725 638.459 235.825 637.959 237.925Z" fill="#FE6D73"/>
</svg>
