<svg width="969" height="284" viewBox="0 0 969 284" fill="none" xmlns="http://www.w3.org/2000/svg">
<path d="M16.825 12.95C14.425 12.95 12.725 12.7 11.725 12.2C10.725 11.7 10.125 11.1 9.925 10.4C9.725 9.7 9.625 9.1 9.625 8.6C9.625 8.55 9.625 8.525 9.625 8.525C9.625 7.425 10.125 6.375 11.125 5.375C12.125 4.325 13.525 3.6 15.325 3.2C16.825 2.9 18.6 2.6 20.65 2.3C22.75 1.95 24.95 1.65 27.25 1.4C29.6 1.1 31.85 0.874999 34 0.724998C36.15 0.574997 38.05 0.499996 39.7 0.499996C41.9 0.499996 43.6 0.824997 44.8 1.475C46 2.075 46.825 2.775 47.275 3.575C47.775 4.375 48.025 5.05 48.025 5.6C48.025 6.1 47.9 6.6 47.65 7.1C47.4 7.6 46.775 8.1 45.775 8.6C44.825 9.1 43.3 9.575 41.2 10.025C39.1 10.475 36.2 10.9 32.5 11.3C32.15 11.35 31.775 11.4 31.375 11.45C31.025 13.6 30.6 16.175 30.1 19.175C29.6 22.125 29.05 25.225 28.45 28.475C27.9 31.675 27.35 34.75 26.8 37.7C26.3 40.6 25.85 43.075 25.45 45.125C27.5 44.925 29.3 44.775 30.85 44.675C32.45 44.575 33.525 44.525 34.075 44.525C35.825 44.525 37.025 44.9 37.675 45.65C38.325 46.35 38.65 47.275 38.65 48.425C38.65 48.875 37.85 49.575 36.25 50.525C34.65 51.475 32.425 52.5 29.575 53.6C26.775 54.7 23.55 55.675 19.9 56.525C17.5 57.075 15.125 57.5 12.775 57.8C10.425 58.1 8.725 58.25 7.675 58.25C5.625 58.25 4.3 57.875 3.7 57.125C3.15 56.375 2.875 55.425 2.875 54.275C2.875 53.275 3.175 52.25 3.775 51.2C4.425 50.15 5.325 49.4 6.475 48.95C7.675 48.5 9 48.075 10.45 47.675C11.9 47.275 13.4 46.925 14.95 46.625C15.05 45.325 15.25 43.6 15.55 41.45C15.85 39.3 16.175 36.95 16.525 34.4C16.925 31.8 17.325 29.175 17.725 26.525C18.175 23.825 18.6 21.3 19 18.95C19.45 16.55 19.825 14.475 20.125 12.725C18.675 12.875 17.575 12.95 16.825 12.95ZM98.0389 55.85C96.4389 55.85 94.9889 55.4 93.6889 54.5C92.3889 53.65 91.3639 52.525 90.6139 51.125C89.8639 49.675 89.4889 48.125 89.4889 46.475C89.4889 43.375 90.1639 40.35 91.5139 37.4C92.9139 34.45 94.7389 31.65 96.9889 29C99.2389 26.35 101.689 23.925 104.339 21.725C107.039 19.475 109.714 17.55 112.364 15.95C115.064 14.35 117.514 13.1 119.714 12.2C121.964 11.3 123.714 10.85 124.964 10.85C126.414 10.85 127.589 11.175 128.489 11.825C129.439 12.425 129.914 13.375 129.914 14.675C129.914 15.075 129.814 15.4 129.614 15.65C130.264 15.8 130.789 16.175 131.189 16.775C131.589 17.375 131.789 18.275 131.789 19.475C131.789 19.975 131.664 21.275 131.414 23.375C131.164 25.475 130.889 28.025 130.589 31.025C130.339 34.025 130.214 37.15 130.214 40.4C130.214 40.9 130.289 41.35 130.439 41.75C130.589 42.1 130.914 42.275 131.414 42.275C133.414 42.275 135.439 41.875 137.489 41.075C139.589 40.225 141.614 39.2 143.564 38C145.564 36.75 147.364 35.525 148.964 34.325C150.614 33.075 151.989 32.05 153.089 31.25C154.239 30.4 154.989 29.975 155.339 29.975C157.039 29.975 157.889 30.825 157.889 32.525C157.889 32.975 157.339 33.925 156.239 35.375C155.189 36.775 153.739 38.4 151.889 40.25C150.039 42.05 147.964 43.85 145.664 45.65C143.414 47.4 141.064 48.85 138.614 50C136.214 51.15 133.889 51.725 131.639 51.725C128.889 51.725 126.789 51.075 125.339 49.775C123.939 48.475 122.939 46.725 122.339 44.525C121.789 42.275 121.489 39.75 121.439 36.95C118.889 40.6 116.239 43.85 113.489 46.7C110.789 49.5 108.114 51.725 105.464 53.375C102.814 55.025 100.339 55.85 98.0389 55.85ZM124.589 18.275C119.689 20.625 115.289 23.325 111.389 26.375C107.489 29.375 104.389 32.525 102.089 35.825C99.8389 39.125 98.7139 42.3 98.7139 45.35C98.7139 46.2 99.1139 46.625 99.9139 46.625C100.864 46.625 102.114 46.075 103.664 44.975C105.264 43.875 106.989 42.425 108.839 40.625C110.689 38.775 112.539 36.725 114.389 34.475C116.239 32.175 117.964 29.825 119.564 27.425C121.164 25.025 122.439 22.725 123.389 20.525C123.739 19.725 124.139 18.975 124.589 18.275ZM217.766 51.275C217.466 53.975 215.866 55.325 212.966 55.325C211.466 55.325 210.266 54.875 209.366 53.975C208.516 53.075 208.091 51.775 208.091 50.075C208.091 47.175 208.216 44.075 208.466 40.775C208.766 37.425 209.116 34.05 209.516 30.65C209.966 27.25 210.391 24 210.791 20.9C208.991 23.5 207.091 26.175 205.091 28.925C203.091 31.675 201.091 34.35 199.091 36.95C197.091 39.55 195.166 41.9 193.316 44C191.516 46.05 189.866 47.7 188.366 48.95C186.866 50.15 185.616 50.75 184.616 50.75C182.216 50.75 180.141 49.875 178.391 48.125C176.641 46.325 175.766 44.05 175.766 41.3C175.766 40.35 175.866 39.075 176.066 37.475C176.266 35.825 176.516 34.075 176.816 32.225C177.116 30.375 177.366 28.625 177.566 26.975C177.766 25.325 177.866 24.025 177.866 23.075C177.866 23.075 177.866 23.025 177.866 22.925C177.916 22.675 177.866 22.55 177.716 22.55C177.516 22.55 176.966 23.225 176.066 24.575C175.166 25.875 174.066 27.575 172.766 29.675C171.466 31.775 170.091 33.975 168.641 36.275C167.241 38.575 165.916 40.725 164.666 42.725C163.466 44.725 162.466 46.275 161.666 47.375C160.566 49.075 159.541 50.15 158.591 50.6C157.641 51.05 156.541 51.275 155.291 51.275C153.541 51.275 152.166 50.7 151.166 49.55C150.216 48.35 149.741 46.675 149.741 44.525C149.741 43.625 149.891 42.225 150.191 40.325C150.541 38.425 150.966 36.325 151.466 34.025C151.966 31.675 152.466 29.4 152.966 27.2C153.516 24.95 153.991 23.05 154.391 21.5C154.841 19.45 155.466 18.025 156.266 17.225C157.116 16.375 158.191 15.95 159.491 15.95C162.541 15.95 164.066 17.45 164.066 20.45C164.066 21 163.891 21.9 163.541 23.15C163.191 24.4 162.766 25.85 162.266 27.5C161.766 29.15 161.241 30.85 160.691 32.6C160.141 34.3 159.691 35.9 159.341 37.4C160.541 35.3 161.841 33.05 163.241 30.65C164.641 28.25 166.066 25.9 167.516 23.6C169.016 21.3 170.491 19.2 171.941 17.3C173.441 15.4 174.916 13.9 176.366 12.8C177.816 11.65 179.191 11.075 180.491 11.075C181.791 11.075 183.066 11.55 184.316 12.5C185.566 13.4 186.591 14.575 187.391 16.025C188.241 17.425 188.666 18.925 188.666 20.525C188.666 22.025 188.466 23.825 188.066 25.925C187.666 28.025 187.216 30.225 186.716 32.525C186.216 34.825 185.866 37.075 185.666 39.275C187.366 37.375 189.166 35.225 191.066 32.825C192.966 30.375 194.916 27.85 196.916 25.25C198.916 22.65 200.866 20.125 202.766 17.675C204.716 15.225 206.516 13 208.166 11C209.866 9 211.366 7.425 212.666 6.275C213.966 5.075 214.966 4.475 215.666 4.475C217.716 4.475 219.316 5.025 220.466 6.125C221.666 7.175 222.266 9.025 222.266 11.675C222.266 13.325 222.141 15.475 221.891 18.125C221.691 20.775 221.391 23.65 220.991 26.75C220.641 29.8 220.241 32.9 219.791 36.05C219.391 39.15 219.016 42.025 218.666 44.675C218.316 47.325 218.016 49.525 217.766 51.275ZM276.75 55.85C275.15 55.85 273.7 55.4 272.4 54.5C271.1 53.65 270.075 52.525 269.325 51.125C268.575 49.675 268.2 48.125 268.2 46.475C268.2 43.375 268.875 40.35 270.225 37.4C271.625 34.45 273.45 31.65 275.7 29C277.95 26.35 280.4 23.925 283.05 21.725C285.75 19.475 288.425 17.55 291.075 15.95C293.775 14.35 296.225 13.1 298.425 12.2C300.675 11.3 302.425 10.85 303.675 10.85C305.125 10.85 306.3 11.175 307.2 11.825C308.15 12.425 308.625 13.375 308.625 14.675C308.625 15.075 308.525 15.4 308.325 15.65C308.975 15.8 309.5 16.175 309.9 16.775C310.3 17.375 310.5 18.275 310.5 19.475C310.5 19.975 310.375 21.275 310.125 23.375C309.875 25.475 309.6 28.025 309.3 31.025C309.05 34.025 308.925 37.15 308.925 40.4C308.925 40.9 309 41.35 309.15 41.75C309.3 42.1 309.625 42.275 310.125 42.275C312.125 42.275 314.15 41.875 316.2 41.075C318.3 40.225 320.325 39.2 322.275 38C324.275 36.75 326.075 35.525 327.675 34.325C329.325 33.075 330.7 32.05 331.8 31.25C332.95 30.4 333.7 29.975 334.05 29.975C335.75 29.975 336.6 30.825 336.6 32.525C336.6 32.975 336.05 33.925 334.95 35.375C333.9 36.775 332.45 38.4 330.6 40.25C328.75 42.05 326.675 43.85 324.375 45.65C322.125 47.4 319.775 48.85 317.325 50C314.925 51.15 312.6 51.725 310.35 51.725C307.6 51.725 305.5 51.075 304.05 49.775C302.65 48.475 301.65 46.725 301.05 44.525C300.5 42.275 300.2 39.75 300.15 36.95C297.6 40.6 294.95 43.85 292.2 46.7C289.5 49.5 286.825 51.725 284.175 53.375C281.525 55.025 279.05 55.85 276.75 55.85ZM303.3 18.275C298.4 20.625 294 23.325 290.1 26.375C286.2 29.375 283.1 32.525 280.8 35.825C278.55 39.125 277.425 42.3 277.425 45.35C277.425 46.2 277.825 46.625 278.625 46.625C279.575 46.625 280.825 46.075 282.375 44.975C283.975 43.875 285.7 42.425 287.55 40.625C289.4 38.775 291.25 36.725 293.1 34.475C294.95 32.175 296.675 29.825 298.275 27.425C299.875 25.025 301.15 22.725 302.1 20.525C302.45 19.725 302.85 18.975 303.3 18.275ZM398.731 164.925C397.781 164.925 396.956 164.4 396.256 163.35C395.556 162.35 395.231 160.875 395.281 158.925C395.281 158.525 395.331 158 395.431 157.35C392.331 157.25 389.431 156.525 386.731 155.175C384.031 153.775 381.856 151.95 380.206 149.7C378.556 147.45 377.731 145.025 377.731 142.425C377.731 140.625 378.406 138.95 379.756 137.4C381.106 135.8 382.906 134.35 385.156 133.05C387.406 131.7 389.881 130.5 392.581 129.45C390.931 128.35 389.556 127.125 388.456 125.775C387.406 124.375 386.881 122.85 386.881 121.2C386.881 119.5 387.481 117.75 388.681 115.95C389.881 114.15 391.481 112.4 393.481 110.7C395.481 108.95 397.731 107.325 400.231 105.825C402.781 104.325 405.356 103 407.956 101.85C408.556 99.6 409.131 97.475 409.681 95.475C410.281 93.425 410.856 91.5 411.406 89.7C411.756 88.5 412.331 87.475 413.131 86.625C413.931 85.725 414.881 85.275 415.981 85.275C416.931 85.275 417.656 85.7 418.156 86.55C418.656 87.4 418.881 88.4 418.831 89.55C418.781 90.05 418.606 91.125 418.306 92.775C418.006 94.375 417.581 96.375 417.031 98.775C418.931 98.375 420.631 98.175 422.131 98.175C425.031 98.175 427.131 98.675 428.431 99.675C429.731 100.625 430.381 102 430.381 103.8C430.381 104.75 430.056 105.6 429.406 106.35C428.806 107.05 427.481 107.6 425.431 108C423.631 108.3 421.781 108.65 419.881 109.05C418.031 109.4 416.206 109.8 414.406 110.25C413.906 112.5 413.356 114.85 412.756 117.3C412.206 119.7 411.631 122.175 411.031 124.725C413.181 124.425 415.006 124.275 416.506 124.275C418.306 124.275 419.981 124.575 421.531 125.175C423.081 125.775 423.856 126.85 423.856 128.4C423.856 129.25 423.456 130.15 422.656 131.1C421.856 132 420.356 132.775 418.156 133.425C416.006 134.075 412.881 134.425 408.781 134.475C408.331 136.475 407.856 138.475 407.356 140.475C406.906 142.425 406.481 144.375 406.081 146.325C409.481 145.725 412.581 144.975 415.381 144.075C418.231 143.125 420.706 142.175 422.806 141.225C424.956 140.275 426.706 139.5 428.056 138.9C429.406 138.25 430.306 137.925 430.756 137.925C431.606 137.925 432.306 138.225 432.856 138.825C433.406 139.375 433.681 140.075 433.681 140.925C433.681 141.675 433.056 142.825 431.806 144.375C430.556 145.875 428.681 147.5 426.181 149.25C423.731 150.95 420.606 152.525 416.806 153.975C413.056 155.375 408.681 156.35 403.681 156.9C403.481 157.85 403.281 158.775 403.081 159.675C402.581 161.675 401.956 163.05 401.206 163.8C400.456 164.55 399.631 164.925 398.731 164.925ZM397.306 147.225C398.056 143.425 398.956 139.175 400.006 134.475C397.856 135.225 395.756 136.05 393.706 136.95C391.706 137.85 390.056 138.9 388.756 140.1C387.456 141.3 386.806 142.75 386.806 144.45C386.806 145.15 387.206 145.725 388.006 146.175C388.806 146.575 389.831 146.875 391.081 147.075C392.331 147.225 393.631 147.3 394.981 147.3C395.731 147.3 396.506 147.275 397.306 147.225ZM401.881 126.525C402.381 124.325 402.881 122.1 403.381 119.85C403.931 117.6 404.481 115.375 405.031 113.175C402.381 114.225 400.206 115.4 398.506 116.7C396.806 117.95 395.956 119.325 395.956 120.825C395.956 121.925 396.481 122.975 397.531 123.975C398.581 124.975 399.906 125.85 401.506 126.6C401.606 126.6 401.731 126.575 401.881 126.525Z" fill="black"/>
<path d="M18.475 158.1C15.675 158.1 13.25 157.45 11.2 156.15C9.15 154.9 7.575 153.275 6.475 151.275C5.375 149.225 4.825 147.125 4.825 144.975C4.825 141.375 5.375 138.05 6.475 135C7.575 131.9 9.025 129.1 10.825 126.6C12.625 124.05 14.575 121.8 16.675 119.85C18.825 117.9 20.9 116.275 22.9 114.975C24.95 113.625 26.775 112.625 28.375 111.975C29.975 111.275 31.15 110.925 31.9 110.925C33.25 110.925 34.2 111.225 34.75 111.825C35.35 112.375 35.65 113.3 35.65 114.6C35.65 115.35 35.1 116.25 34 117.3C32.95 118.35 31.55 119.55 29.8 120.9C28.1 122.25 26.3 123.775 24.4 125.475C22.5 127.175 20.675 129.075 18.925 131.175C17.225 133.275 15.825 135.575 14.725 138.075C13.675 140.575 13.15 143.3 13.15 146.25C13.15 147.35 13.35 148.2 13.75 148.8C14.2 149.4 14.925 149.7 15.925 149.7C18.775 149.7 21.825 149.2 25.075 148.2C28.375 147.15 31.65 145.85 34.9 144.3C38.2 142.7 41.3 141.05 44.2 139.35C47.15 137.65 49.675 136.125 51.775 134.775C52.625 134.175 53.35 133.7 53.95 133.35C54.55 133 54.975 132.825 55.225 132.825C56.725 132.825 57.475 133.6 57.475 135.15C57.475 135.95 56.875 137.025 55.675 138.375C54.275 140.125 52.375 141.925 49.975 143.775C47.625 145.625 45 147.4 42.1 149.1C39.25 150.8 36.325 152.325 33.325 153.675C30.375 155.025 27.6 156.1 25 156.9C22.4 157.7 20.225 158.1 18.475 158.1ZM54.5775 159.3C53.3275 159.3 52.2525 158.85 51.3525 157.95C50.5025 157.05 50.0775 155.75 50.0775 154.05C50.0775 153.3 50.1775 152.075 50.3775 150.375C50.6275 148.625 50.9275 146.625 51.2775 144.375C51.6775 142.125 52.0525 139.775 52.4025 137.325C52.8025 134.875 53.1275 132.55 53.3775 130.35C53.6775 128.15 53.8775 126.275 53.9775 124.725C54.0775 122.825 54.5775 121.475 55.4775 120.675C56.3775 119.825 57.4525 119.4 58.7025 119.4C59.7025 119.4 60.6025 119.65 61.4025 120.15C62.2525 120.6 62.7775 121.575 62.9775 123.075C63.2275 124.525 63.2525 126.625 63.0525 129.375C65.2525 125.375 67.4775 121.8 69.7275 118.65C72.0275 115.5 74.4275 113 76.9275 111.15C81.0775 108 84.8275 106.425 88.1775 106.425C90.0775 106.425 91.3275 106.85 91.9275 107.7C92.5275 108.55 92.8275 109.425 92.8275 110.325C92.8275 110.925 92.6775 111.475 92.3775 111.975C92.1275 112.475 91.5775 113 90.7275 113.55C89.8775 114.1 88.5775 114.825 86.8275 115.725C84.4775 116.925 82.1525 118.5 79.8525 120.45C77.6025 122.4 75.3525 124.9 73.1025 127.95C70.8525 131 68.5775 134.75 66.2775 139.2C63.9775 143.65 61.6025 148.95 59.1525 155.1C58.7025 156.8 58.0525 157.925 57.2025 158.475C56.4025 159.025 55.5275 159.3 54.5775 159.3ZM98.6102 158.55C95.5102 158.55 93.0102 157.475 91.1102 155.325C89.2102 153.125 88.2602 149.6 88.2602 144.75C88.2602 141.65 88.6102 138.55 89.3102 135.45C90.0602 132.3 91.0852 129.325 92.3852 126.525C93.7352 123.675 95.2852 121.15 97.0352 118.95C98.8352 116.75 100.81 115.025 102.96 113.775C105.11 112.475 107.335 111.825 109.635 111.825C113.535 111.825 116.585 112.875 118.785 114.975C120.985 117.075 122.085 119.75 122.085 123C122.085 125.5 121.385 127.775 119.985 129.825C118.635 131.825 116.785 133.625 114.435 135.225C112.085 136.825 109.46 138.275 106.56 139.575C103.66 140.875 100.685 142.05 97.6352 143.1C97.3852 144.9 97.2602 146.5 97.2602 147.9C97.2602 148.75 97.7352 149.175 98.6852 149.175C100.935 149.175 103.335 148.825 105.885 148.125C108.485 147.375 111.11 146.425 113.76 145.275C116.41 144.075 118.96 142.85 121.41 141.6C123.86 140.3 126.085 139.075 128.085 137.925C130.135 136.725 131.81 135.775 133.11 135.075C134.46 134.325 135.335 133.95 135.735 133.95C136.835 133.95 137.635 134.275 138.135 134.925C138.635 135.575 138.885 136.275 138.885 137.025C138.885 137.375 138.21 138.15 136.86 139.35C135.56 140.55 133.76 141.975 131.46 143.625C129.21 145.225 126.66 146.9 123.81 148.65C121.01 150.35 118.085 151.975 115.035 153.525C112.035 155.025 109.11 156.225 106.26 157.125C103.46 158.075 100.91 158.55 98.6102 158.55ZM98.9102 136.425C100.96 135.225 102.985 133.975 104.985 132.675C107.035 131.325 108.735 129.825 110.085 128.175C111.435 126.475 112.11 124.5 112.11 122.25C112.11 121.6 111.935 121.175 111.585 120.975C111.235 120.725 110.735 120.6 110.085 120.6C108.335 120.6 106.735 121.375 105.285 122.925C103.885 124.475 102.635 126.475 101.535 128.925C100.485 131.325 99.6102 133.825 98.9102 136.425ZM138.029 158.85C136.429 158.85 134.979 158.4 133.679 157.5C132.379 156.65 131.354 155.525 130.604 154.125C129.854 152.675 129.479 151.125 129.479 149.475C129.479 146.375 130.154 143.35 131.504 140.4C132.904 137.45 134.729 134.65 136.979 132C139.229 129.35 141.679 126.925 144.329 124.725C147.029 122.475 149.704 120.55 152.354 118.95C155.054 117.35 157.504 116.1 159.704 115.2C161.954 114.3 163.704 113.85 164.954 113.85C166.404 113.85 167.579 114.175 168.479 114.825C169.429 115.425 169.904 116.375 169.904 117.675C169.904 118.075 169.804 118.4 169.604 118.65C170.254 118.8 170.779 119.175 171.179 119.775C171.579 120.375 171.779 121.275 171.779 122.475C171.779 122.975 171.654 124.275 171.404 126.375C171.154 128.475 170.879 131.025 170.579 134.025C170.329 137.025 170.204 140.15 170.204 143.4C170.204 143.9 170.279 144.35 170.429 144.75C170.579 145.1 170.904 145.275 171.404 145.275C173.404 145.275 175.429 144.875 177.479 144.075C179.579 143.225 181.604 142.2 183.554 141C185.554 139.75 187.354 138.525 188.954 137.325C190.604 136.075 191.979 135.05 193.079 134.25C194.229 133.4 194.979 132.975 195.329 132.975C197.029 132.975 197.879 133.825 197.879 135.525C197.879 135.975 197.329 136.925 196.229 138.375C195.179 139.775 193.729 141.4 191.879 143.25C190.029 145.05 187.954 146.85 185.654 148.65C183.404 150.4 181.054 151.85 178.604 153C176.204 154.15 173.879 154.725 171.629 154.725C168.879 154.725 166.779 154.075 165.329 152.775C163.929 151.475 162.929 149.725 162.329 147.525C161.779 145.275 161.479 142.75 161.429 139.95C158.879 143.6 156.229 146.85 153.479 149.7C150.779 152.5 148.104 154.725 145.454 156.375C142.804 158.025 140.329 158.85 138.029 158.85ZM164.579 121.275C159.679 123.625 155.279 126.325 151.379 129.375C147.479 132.375 144.379 135.525 142.079 138.825C139.829 142.125 138.704 145.3 138.704 148.35C138.704 149.2 139.104 149.625 139.904 149.625C140.854 149.625 142.104 149.075 143.654 147.975C145.254 146.875 146.979 145.425 148.829 143.625C150.679 141.775 152.529 139.725 154.379 137.475C156.229 135.175 157.954 132.825 159.554 130.425C161.154 128.025 162.429 125.725 163.379 123.525C163.729 122.725 164.129 121.975 164.579 121.275ZM245.574 118.2C245.574 118.8 245.374 119.325 244.974 119.775C244.574 120.225 244.074 120.575 243.474 120.825C242.624 121.175 241.149 121.625 239.049 122.175C236.949 122.725 234.399 123.35 231.399 124.05C228.449 124.75 225.274 125.475 221.874 126.225C218.474 126.925 215.074 127.6 211.674 128.25C210.374 133.05 209.049 138 207.699 143.1C206.349 148.15 204.999 153.125 203.649 158.025C203.149 159.775 202.549 161.1 201.849 162C201.149 162.95 199.949 163.425 198.249 163.425C196.399 163.425 195.149 162.825 194.499 161.625C193.899 160.475 193.824 158.9 194.274 156.9C195.574 151.45 196.774 146.375 197.874 141.675C199.024 136.975 199.949 133.175 200.649 130.275C197.649 130.775 195.024 131.175 192.774 131.475C190.524 131.725 188.924 131.825 187.974 131.775C186.924 131.675 186.049 131.25 185.349 130.5C184.649 129.75 184.324 128.825 184.374 127.725C184.474 126.725 184.924 125.875 185.724 125.175C186.524 124.425 187.474 123.975 188.574 123.825C190.124 123.675 192.124 123.45 194.574 123.15C197.024 122.85 199.724 122.5 202.674 122.1C203.324 119.55 204.074 116.925 204.924 114.225C205.774 111.475 206.649 108.85 207.549 106.35C208.499 103.8 209.399 101.575 210.249 99.675C211.099 97.775 211.874 96.4 212.574 95.55C213.124 94.9 213.799 94.4 214.599 94.05C215.449 93.7 216.274 93.525 217.074 93.525C218.124 93.525 218.974 93.9 219.624 94.65C220.274 95.4 220.599 96.275 220.599 97.275C220.599 97.675 220.574 98.1 220.524 98.55C220.474 98.95 220.374 99.35 220.224 99.75C219.274 102.25 218.249 105.275 217.149 108.825C216.099 112.375 214.999 116.275 213.849 120.525C217.599 119.975 221.274 119.425 224.874 118.875C228.524 118.275 231.824 117.725 234.774 117.225C237.774 116.675 240.174 116.2 241.974 115.8C242.974 115.45 243.824 115.525 244.524 116.025C245.224 116.475 245.574 117.2 245.574 118.2ZM236.539 155.125C235.139 155.125 233.889 154.65 232.789 153.7C231.739 152.75 231.214 151.2 231.214 149.05C231.214 147.9 231.364 146.275 231.664 144.175C232.014 142.075 232.464 139.8 233.014 137.35C233.564 134.85 234.164 132.375 234.814 129.925C235.514 127.475 236.189 125.3 236.839 123.4C237.489 121.45 238.064 120 238.564 119.05C239.214 117.9 239.814 117.2 240.364 116.95C240.964 116.65 241.539 116.5 242.089 116.5C243.089 116.5 244.014 116.8 244.864 117.4C245.764 118 246.214 119.325 246.214 121.375C246.214 122.175 246.064 123.475 245.764 125.275C245.464 127.025 245.089 129.075 244.639 131.425C244.189 133.775 243.689 136.2 243.139 138.7C242.639 141.2 242.139 143.575 241.639 145.825C241.189 148.025 240.814 149.875 240.514 151.375C240.264 152.625 239.739 153.55 238.939 154.15C238.189 154.8 237.389 155.125 236.539 155.125ZM245.164 109.075C243.514 109.075 241.989 108.6 240.589 107.65C239.189 106.65 238.489 105.125 238.489 103.075C238.489 101.375 238.914 100 239.764 98.95C240.614 97.9 241.614 97.15 242.764 96.7C243.964 96.2 245.014 95.95 245.914 95.95C246.814 95.95 247.814 96.15 248.914 96.55C250.014 96.9 250.964 97.575 251.764 98.575C252.614 99.525 253.039 100.9 253.039 102.7C253.039 103.9 252.614 105 251.764 106C250.914 106.95 249.864 107.7 248.614 108.25C247.414 108.8 246.264 109.075 245.164 109.075ZM267.634 155.925C266.334 155.925 265.184 155.3 264.184 154.05C263.234 152.8 262.509 150.875 262.009 148.275C261.609 146.075 261.259 143.575 260.959 140.775C260.659 137.975 260.384 135.225 260.134 132.525C259.934 129.775 259.784 127.375 259.684 125.325C259.584 123.275 259.534 121.875 259.534 121.125C259.534 118.425 260.009 116.2 260.959 114.45C261.909 112.65 263.734 111.75 266.434 111.75C267.584 111.75 268.459 112.25 269.059 113.25C269.659 114.2 269.959 115.525 269.959 117.225C269.959 118.275 269.959 119.6 269.959 121.2C270.009 122.75 270.059 124.5 270.109 126.45C270.159 128.6 270.209 130.925 270.259 133.425C270.359 135.875 270.409 138.325 270.409 140.775C272.159 138.025 274.034 135.1 276.034 132C278.034 128.85 279.984 125.8 281.884 122.85C283.834 119.9 285.584 117.3 287.134 115.05C288.684 112.75 289.859 111.125 290.659 110.175C291.359 109.325 292.209 108.6 293.209 108C294.209 107.35 295.259 107.025 296.359 107.025C297.559 107.025 298.559 107.5 299.359 108.45C300.159 109.4 300.559 110.5 300.559 111.75C300.559 112.7 300.359 113.6 299.959 114.45C299.609 115.3 299.159 116.1 298.609 116.85C297.109 118.95 295.334 121.4 293.284 124.2C291.284 127 289.184 129.95 286.984 133.05C284.784 136.1 282.634 139.05 280.534 141.9C278.484 144.75 276.659 147.275 275.059 149.475C273.759 151.325 272.709 152.725 271.909 153.675C271.109 154.575 270.384 155.175 269.734 155.475C269.134 155.775 268.434 155.925 267.634 155.925ZM312.477 158.55C309.377 158.55 306.877 157.475 304.977 155.325C303.077 153.125 302.127 149.6 302.127 144.75C302.127 141.65 302.477 138.55 303.177 135.45C303.927 132.3 304.952 129.325 306.252 126.525C307.602 123.675 309.152 121.15 310.902 118.95C312.702 116.75 314.677 115.025 316.827 113.775C318.977 112.475 321.202 111.825 323.502 111.825C327.402 111.825 330.452 112.875 332.652 114.975C334.852 117.075 335.952 119.75 335.952 123C335.952 125.5 335.252 127.775 333.852 129.825C332.502 131.825 330.652 133.625 328.302 135.225C325.952 136.825 323.327 138.275 320.427 139.575C317.527 140.875 314.552 142.05 311.502 143.1C311.252 144.9 311.127 146.5 311.127 147.9C311.127 148.75 311.602 149.175 312.552 149.175C314.802 149.175 317.202 148.825 319.752 148.125C322.352 147.375 324.977 146.425 327.627 145.275C330.277 144.075 332.827 142.85 335.277 141.6C337.727 140.3 339.952 139.075 341.952 137.925C344.002 136.725 345.677 135.775 346.977 135.075C348.327 134.325 349.202 133.95 349.602 133.95C350.702 133.95 351.502 134.275 352.002 134.925C352.502 135.575 352.752 136.275 352.752 137.025C352.752 137.375 352.077 138.15 350.727 139.35C349.427 140.55 347.627 141.975 345.327 143.625C343.077 145.225 340.527 146.9 337.677 148.65C334.877 150.35 331.952 151.975 328.902 153.525C325.902 155.025 322.977 156.225 320.127 157.125C317.327 158.075 314.777 158.55 312.477 158.55ZM312.777 136.425C314.827 135.225 316.852 133.975 318.852 132.675C320.902 131.325 322.602 129.825 323.952 128.175C325.302 126.475 325.977 124.5 325.977 122.25C325.977 121.6 325.802 121.175 325.452 120.975C325.102 120.725 324.602 120.6 323.952 120.6C322.202 120.6 320.602 121.375 319.152 122.925C317.752 124.475 316.502 126.475 315.402 128.925C314.352 131.325 313.477 133.825 312.777 136.425Z" fill="#17C3B2"/>
<path d="M484.175 156.3C481.025 156.3 478.725 155.35 477.275 153.45C475.875 151.5 475.175 149.025 475.175 146.025C475.175 143.175 475.8 140.425 477.05 137.775C478.3 135.075 479.975 132.5 482.075 130.05C484.175 127.6 486.525 125.325 489.125 123.225C491.725 121.075 494.35 119.15 497 117.45C499.7 115.7 502.275 114.225 504.725 113.025C507.175 111.775 509.3 110.825 511.1 110.175C512.9 109.525 514.2 109.2 515 109.2C515.85 109.2 516.55 109.425 517.1 109.875C517.7 110.275 518 111.075 518 112.275C518 113.525 517.5 114.65 516.5 115.65C515.5 116.65 514.275 117.5 512.825 118.2C510.775 119.2 508.45 120.425 505.85 121.875C503.3 123.275 500.725 124.875 498.125 126.675C495.525 128.475 493.125 130.4 490.925 132.45C488.775 134.5 487.025 136.65 485.675 138.9C484.325 141.1 483.65 143.35 483.65 145.65C483.65 146.15 483.75 146.55 483.95 146.85C484.15 147.15 484.575 147.3 485.225 147.3C486.075 147.3 487.2 146.9 488.6 146.1C490 145.25 491.525 144.15 493.175 142.8C494.825 141.4 496.475 139.875 498.125 138.225C499.775 136.525 501.3 134.825 502.7 133.125C504.15 131.375 505.35 129.75 506.3 128.25C507 127.1 507.825 126.15 508.775 125.4C509.775 124.65 510.8 124.275 511.85 124.275C512.7 124.275 513.4 124.525 513.95 125.025C514.55 125.475 514.85 126.3 514.85 127.5C514.85 127.9 514.825 128.85 514.775 130.35C514.725 131.8 514.65 133.575 514.55 135.675C514.5 137.725 514.475 139.875 514.475 142.125C514.475 144.075 514.65 145.775 515 147.225C515.4 148.625 516.225 149.325 517.475 149.325C518.975 149.325 520.525 148.8 522.125 147.75C523.725 146.65 525.275 145.275 526.775 143.625C528.325 141.925 529.75 140.125 531.05 138.225C532.35 136.325 533.45 134.525 534.35 132.825C535.3 131.075 535.975 129.675 536.375 128.625C537.025 124.225 537.875 120.775 538.925 118.275C539.975 115.725 541.125 113.925 542.375 112.875C543.675 111.825 544.925 111.3 546.125 111.3C547.475 111.3 548.6 111.625 549.5 112.275C550.45 112.925 550.925 114.45 550.925 116.85C550.925 118.1 550.4 119.975 549.35 122.475C548.3 124.975 546.9 127.725 545.15 130.725C544.75 132.975 544.5 135.3 544.4 137.7C544.3 140.1 544.45 142.35 544.85 144.45C546.2 143.5 547.575 142.1 548.975 140.25C550.375 138.35 551.775 136.25 553.175 133.95C554.575 131.6 555.975 129.25 557.375 126.9C558.775 124.5 560.15 122.3 561.5 120.3C562.9 118.3 564.25 116.7 565.55 115.5C566.9 114.25 568.225 113.625 569.525 113.625C570.875 113.625 572.1 113.875 573.2 114.375C574.35 114.825 575.3 115.725 576.05 117.075C576.85 118.375 577.45 120.25 577.85 122.7C578.3 125.1 578.525 128.25 578.525 132.15C578.525 134.2 578.725 136.2 579.125 138.15C579.525 140.05 580.2 141.625 581.15 142.875C582.1 144.075 583.425 144.675 585.125 144.675C587.875 144.675 590.325 144.225 592.475 143.325C594.625 142.375 596.5 141.275 598.1 140.025C599.7 138.775 601.025 137.7 602.075 136.8C603.175 135.85 604.025 135.375 604.625 135.375C605.625 135.375 606.375 135.675 606.875 136.275C607.425 136.825 607.7 137.525 607.7 138.375C607.7 138.875 607.275 139.75 606.425 141C605.625 142.2 604.5 143.55 603.05 145.05C601.65 146.5 600 147.925 598.1 149.325C596.25 150.675 594.275 151.8 592.175 152.7C590.075 153.6 587.95 154.05 585.8 154.05C581.9 154.05 578.675 153.35 576.125 151.95C573.625 150.5 571.75 148.1 570.5 144.75C569.3 141.35 568.7 136.775 568.7 131.025C568.7 130.675 568.7 130.35 568.7 130.05C568.7 129.75 568.7 129.45 568.7 129.15C568.7 127.9 568.675 126.825 568.625 125.925C568.625 125.025 568.5 124.325 568.25 123.825C567.45 125.175 566.475 126.875 565.325 128.925C564.225 130.975 563 133.175 561.65 135.525C560.3 137.875 558.85 140.2 557.3 142.5C555.8 144.8 554.275 146.9 552.725 148.8C551.175 150.7 549.625 152.225 548.075 153.375C546.575 154.525 545.15 155.1 543.8 155.1C542.8 155.1 541.7 154.6 540.5 153.6C539.35 152.6 538.375 151.25 537.575 149.55C536.775 147.8 536.375 145.825 536.375 143.625C534.225 146.325 532 148.8 529.7 151.05C527.4 153.25 525.125 155 522.875 156.3C520.675 157.65 518.575 158.325 516.575 158.325C514.925 158.325 513.325 157.85 511.775 156.9C510.275 155.95 508.975 154.25 507.875 151.8C506.775 149.35 506.075 145.875 505.775 141.375C503.425 144.325 500.975 146.925 498.425 149.175C495.925 151.425 493.45 153.175 491 154.425C488.6 155.675 486.325 156.3 484.175 156.3ZM607.072 158.85C605.472 158.85 604.022 158.4 602.722 157.5C601.422 156.65 600.397 155.525 599.647 154.125C598.897 152.675 598.522 151.125 598.522 149.475C598.522 146.375 599.197 143.35 600.547 140.4C601.947 137.45 603.772 134.65 606.022 132C608.272 129.35 610.722 126.925 613.372 124.725C616.072 122.475 618.747 120.55 621.397 118.95C624.097 117.35 626.547 116.1 628.747 115.2C630.997 114.3 632.747 113.85 633.997 113.85C635.447 113.85 636.622 114.175 637.522 114.825C638.472 115.425 638.947 116.375 638.947 117.675C638.947 118.075 638.847 118.4 638.647 118.65C639.297 118.8 639.822 119.175 640.222 119.775C640.622 120.375 640.822 121.275 640.822 122.475C640.822 122.975 640.697 124.275 640.447 126.375C640.197 128.475 639.922 131.025 639.622 134.025C639.372 137.025 639.247 140.15 639.247 143.4C639.247 143.9 639.322 144.35 639.472 144.75C639.622 145.1 639.947 145.275 640.447 145.275C642.447 145.275 644.472 144.875 646.522 144.075C648.622 143.225 650.647 142.2 652.597 141C654.597 139.75 656.397 138.525 657.997 137.325C659.647 136.075 661.022 135.05 662.122 134.25C663.272 133.4 664.022 132.975 664.372 132.975C666.072 132.975 666.922 133.825 666.922 135.525C666.922 135.975 666.372 136.925 665.272 138.375C664.222 139.775 662.772 141.4 660.922 143.25C659.072 145.05 656.997 146.85 654.697 148.65C652.447 150.4 650.097 151.85 647.647 153C645.247 154.15 642.922 154.725 640.672 154.725C637.922 154.725 635.822 154.075 634.372 152.775C632.972 151.475 631.972 149.725 631.372 147.525C630.822 145.275 630.522 142.75 630.472 139.95C627.922 143.6 625.272 146.85 622.522 149.7C619.822 152.5 617.147 154.725 614.497 156.375C611.847 158.025 609.372 158.85 607.072 158.85ZM633.622 121.275C628.722 123.625 624.322 126.325 620.422 129.375C616.522 132.375 613.422 135.525 611.122 138.825C608.872 142.125 607.747 145.3 607.747 148.35C607.747 149.2 608.147 149.625 608.947 149.625C609.897 149.625 611.147 149.075 612.697 147.975C614.297 146.875 616.022 145.425 617.872 143.625C619.722 141.775 621.572 139.725 623.422 137.475C625.272 135.175 626.997 132.825 628.597 130.425C630.197 128.025 631.472 125.725 632.422 123.525C632.772 122.725 633.172 121.975 633.622 121.275ZM676.007 159.75C671.507 159.75 667.957 158.375 665.357 155.625C662.807 152.825 661.532 148.85 661.532 143.7C661.532 140.9 661.907 137.625 662.657 133.875C663.407 130.075 664.382 126.075 665.582 121.875C666.832 117.625 668.157 113.425 669.557 109.275C671.007 105.125 672.432 101.275 673.832 97.725C675.232 94.175 676.457 91.2 677.507 88.8C678.407 86.95 679.682 86.025 681.332 86.025C682.382 86.025 683.232 86.35 683.882 87C684.582 87.65 684.932 88.7 684.932 90.15C684.932 90.85 684.582 92.375 683.882 94.725C683.182 97.075 682.257 99.975 681.107 103.425C680.007 106.825 678.807 110.5 677.507 114.45C676.257 118.4 675.057 122.375 673.907 126.375C672.807 130.375 671.907 134.15 671.207 137.7C670.507 141.2 670.157 144.175 670.157 146.625C670.157 147.625 670.432 148.425 670.982 149.025C671.582 149.625 672.357 149.925 673.307 149.925C675.357 149.925 677.457 149.55 679.607 148.8C681.807 148.05 683.957 147.1 686.057 145.95C688.207 144.8 690.232 143.575 692.132 142.275C694.032 140.975 695.732 139.75 697.232 138.6C698.782 137.4 700.032 136.45 700.982 135.75C702.232 134.8 703.082 134.325 703.532 134.325C705.232 134.325 706.082 135.15 706.082 136.8C706.082 137.2 705.582 138.025 704.582 139.275C703.732 140.375 702.532 141.775 700.982 143.475C699.432 145.175 697.632 146.975 695.582 148.875C693.582 150.725 691.432 152.475 689.132 154.125C686.882 155.775 684.632 157.125 682.382 158.175C680.132 159.225 678.007 159.75 676.007 159.75ZM714.943 176.625C712.143 176.625 709.593 176.45 707.293 176.1C704.993 175.8 702.743 175.3 700.543 174.6C698.343 173.9 695.968 172.975 693.418 171.825C692.368 171.325 691.493 170.8 690.793 170.25C690.093 169.7 689.743 168.875 689.743 167.775C689.743 166.175 690.243 164.95 691.243 164.1C692.193 163.3 693.518 162.9 695.218 162.9C696.118 162.9 697.268 163.2 698.668 163.8C700.068 164.45 701.668 165.175 703.468 165.975C705.318 166.825 707.368 167.55 709.618 168.15C711.868 168.8 714.293 169.125 716.893 169.125C719.543 169.125 722.018 168.025 724.318 165.825C726.618 163.625 728.468 160.525 729.868 156.525C731.318 152.575 732.043 147.9 732.043 142.5C732.043 141.25 732.018 139.9 731.968 138.45C731.918 136.95 731.868 135.375 731.818 133.725C730.018 137.125 728.068 140.3 725.968 143.25C723.868 146.2 721.693 148.6 719.443 150.45C717.243 152.25 715.018 153.15 712.768 153.15C710.018 153.15 708.018 152.5 706.768 151.2C705.568 149.85 704.968 147.725 704.968 144.825C704.968 142.375 705.143 139.7 705.493 136.8C705.893 133.85 706.418 130.875 707.068 127.875C707.718 124.875 708.468 122.025 709.318 119.325C710.218 116.575 711.168 114.2 712.168 112.2C712.918 110.75 714.068 110.025 715.618 110.025C716.618 110.025 717.618 110.5 718.618 111.45C719.668 112.4 720.193 113.675 720.193 115.275C720.193 116.175 719.968 117.475 719.518 119.175C719.068 120.875 718.518 122.8 717.868 124.95C717.268 127.05 716.643 129.275 715.993 131.625C715.343 133.925 714.793 136.2 714.343 138.45C713.893 140.65 713.668 142.65 713.668 144.45C713.668 144.65 713.818 144.75 714.118 144.75C714.718 144.75 715.518 144.25 716.518 143.25C717.568 142.2 718.718 140.85 719.968 139.2C721.268 137.5 722.568 135.65 723.868 133.65C725.218 131.6 726.518 129.575 727.768 127.575C729.018 125.575 730.143 123.75 731.143 122.1C730.993 121.3 730.893 120.6 730.843 120C730.843 119.35 730.843 118.8 730.843 118.35C730.843 116.3 731.193 114.6 731.893 113.25C732.643 111.9 734.093 111.225 736.243 111.225C737.643 111.225 738.718 111.75 739.468 112.8C740.218 113.8 740.593 115.225 740.593 117.075C740.593 117.875 740.468 118.8 740.218 119.85C739.968 120.85 739.468 122.45 738.718 124.65L739.543 122.325C739.993 126.825 740.368 130.825 740.668 134.325C741.018 137.825 741.193 141.3 741.193 144.75C741.193 151.25 740.093 156.875 737.893 161.625C735.743 166.425 732.693 170.125 728.743 172.725C724.843 175.325 720.243 176.625 714.943 176.625ZM808.294 118.2C808.294 118.8 808.094 119.325 807.694 119.775C807.294 120.225 806.794 120.575 806.194 120.825C805.344 121.175 803.869 121.625 801.769 122.175C799.669 122.725 797.119 123.35 794.119 124.05C791.169 124.75 787.994 125.475 784.594 126.225C781.194 126.925 777.794 127.6 774.394 128.25C773.094 133.05 771.769 138 770.419 143.1C769.069 148.15 767.719 153.125 766.369 158.025C765.869 159.775 765.269 161.1 764.569 162C763.869 162.95 762.669 163.425 760.969 163.425C759.119 163.425 757.869 162.825 757.219 161.625C756.619 160.475 756.544 158.9 756.994 156.9C758.294 151.45 759.494 146.375 760.594 141.675C761.744 136.975 762.669 133.175 763.369 130.275C760.369 130.775 757.744 131.175 755.494 131.475C753.244 131.725 751.644 131.825 750.694 131.775C749.644 131.675 748.769 131.25 748.069 130.5C747.369 129.75 747.044 128.825 747.094 127.725C747.194 126.725 747.644 125.875 748.444 125.175C749.244 124.425 750.194 123.975 751.294 123.825C752.844 123.675 754.844 123.45 757.294 123.15C759.744 122.85 762.444 122.5 765.394 122.1C766.044 119.55 766.794 116.925 767.644 114.225C768.494 111.475 769.369 108.85 770.269 106.35C771.219 103.8 772.119 101.575 772.969 99.675C773.819 97.775 774.594 96.4 775.294 95.55C775.844 94.9 776.519 94.4 777.319 94.05C778.169 93.7 778.994 93.525 779.794 93.525C780.844 93.525 781.694 93.9 782.344 94.65C782.994 95.4 783.319 96.275 783.319 97.275C783.319 97.675 783.294 98.1 783.244 98.55C783.194 98.95 783.094 99.35 782.944 99.75C781.994 102.25 780.969 105.275 779.869 108.825C778.819 112.375 777.719 116.275 776.569 120.525C780.319 119.975 783.994 119.425 787.594 118.875C791.244 118.275 794.544 117.725 797.494 117.225C800.494 116.675 802.894 116.2 804.694 115.8C805.694 115.45 806.544 115.525 807.244 116.025C807.944 116.475 808.294 117.2 808.294 118.2ZM799.259 155.125C797.859 155.125 796.609 154.65 795.509 153.7C794.459 152.75 793.934 151.2 793.934 149.05C793.934 147.9 794.084 146.275 794.384 144.175C794.734 142.075 795.184 139.8 795.734 137.35C796.284 134.85 796.884 132.375 797.534 129.925C798.234 127.475 798.909 125.3 799.559 123.4C800.209 121.45 800.784 120 801.284 119.05C801.934 117.9 802.534 117.2 803.084 116.95C803.684 116.65 804.259 116.5 804.809 116.5C805.809 116.5 806.734 116.8 807.584 117.4C808.484 118 808.934 119.325 808.934 121.375C808.934 122.175 808.784 123.475 808.484 125.275C808.184 127.025 807.809 129.075 807.359 131.425C806.909 133.775 806.409 136.2 805.859 138.7C805.359 141.2 804.859 143.575 804.359 145.825C803.909 148.025 803.534 149.875 803.234 151.375C802.984 152.625 802.459 153.55 801.659 154.15C800.909 154.8 800.109 155.125 799.259 155.125ZM807.884 109.075C806.234 109.075 804.709 108.6 803.309 107.65C801.909 106.65 801.209 105.125 801.209 103.075C801.209 101.375 801.634 100 802.484 98.95C803.334 97.9 804.334 97.15 805.484 96.7C806.684 96.2 807.734 95.95 808.634 95.95C809.534 95.95 810.534 96.15 811.634 96.55C812.734 96.9 813.684 97.575 814.484 98.575C815.334 99.525 815.759 100.9 815.759 102.7C815.759 103.9 815.334 105 814.484 106C813.634 106.95 812.584 107.7 811.334 108.25C810.134 108.8 808.984 109.075 807.884 109.075ZM831.683 158.1C828.883 158.1 826.458 157.45 824.408 156.15C822.358 154.9 820.783 153.275 819.683 151.275C818.583 149.225 818.033 147.125 818.033 144.975C818.033 141.375 818.583 138.05 819.683 135C820.783 131.9 822.233 129.1 824.033 126.6C825.833 124.05 827.783 121.8 829.883 119.85C832.033 117.9 834.108 116.275 836.108 114.975C838.158 113.625 839.983 112.625 841.583 111.975C843.183 111.275 844.358 110.925 845.108 110.925C846.458 110.925 847.408 111.225 847.958 111.825C848.558 112.375 848.858 113.3 848.858 114.6C848.858 115.35 848.308 116.25 847.208 117.3C846.158 118.35 844.758 119.55 843.008 120.9C841.308 122.25 839.508 123.775 837.608 125.475C835.708 127.175 833.883 129.075 832.133 131.175C830.433 133.275 829.033 135.575 827.933 138.075C826.883 140.575 826.358 143.3 826.358 146.25C826.358 147.35 826.558 148.2 826.958 148.8C827.408 149.4 828.133 149.7 829.133 149.7C831.983 149.7 835.033 149.2 838.283 148.2C841.583 147.15 844.858 145.85 848.108 144.3C851.408 142.7 854.508 141.05 857.408 139.35C860.358 137.65 862.883 136.125 864.983 134.775C865.833 134.175 866.558 133.7 867.158 133.35C867.758 133 868.183 132.825 868.433 132.825C869.933 132.825 870.683 133.6 870.683 135.15C870.683 135.95 870.083 137.025 868.883 138.375C867.483 140.125 865.583 141.925 863.183 143.775C860.833 145.625 858.208 147.4 855.308 149.1C852.458 150.8 849.533 152.325 846.533 153.675C843.583 155.025 840.808 156.1 838.208 156.9C835.608 157.7 833.433 158.1 831.683 158.1ZM869.133 158.85C867.533 158.85 866.083 158.4 864.783 157.5C863.483 156.65 862.458 155.525 861.708 154.125C860.958 152.675 860.583 151.125 860.583 149.475C860.583 146.375 861.258 143.35 862.608 140.4C864.008 137.45 865.833 134.65 868.083 132C870.333 129.35 872.783 126.925 875.433 124.725C878.133 122.475 880.808 120.55 883.458 118.95C886.158 117.35 888.608 116.1 890.808 115.2C893.058 114.3 894.808 113.85 896.058 113.85C897.508 113.85 898.683 114.175 899.583 114.825C900.533 115.425 901.008 116.375 901.008 117.675C901.008 118.075 900.908 118.4 900.708 118.65C901.358 118.8 901.883 119.175 902.283 119.775C902.683 120.375 902.883 121.275 902.883 122.475C902.883 122.975 902.758 124.275 902.508 126.375C902.258 128.475 901.983 131.025 901.683 134.025C901.433 137.025 901.308 140.15 901.308 143.4C901.308 143.9 901.383 144.35 901.533 144.75C901.683 145.1 902.008 145.275 902.508 145.275C904.508 145.275 906.533 144.875 908.583 144.075C910.683 143.225 912.708 142.2 914.658 141C916.658 139.75 918.458 138.525 920.058 137.325C921.708 136.075 923.083 135.05 924.183 134.25C925.333 133.4 926.083 132.975 926.433 132.975C928.133 132.975 928.983 133.825 928.983 135.525C928.983 135.975 928.433 136.925 927.333 138.375C926.283 139.775 924.833 141.4 922.983 143.25C921.133 145.05 919.058 146.85 916.758 148.65C914.508 150.4 912.158 151.85 909.708 153C907.308 154.15 904.983 154.725 902.733 154.725C899.983 154.725 897.883 154.075 896.433 152.775C895.033 151.475 894.033 149.725 893.433 147.525C892.883 145.275 892.583 142.75 892.533 139.95C889.983 143.6 887.333 146.85 884.583 149.7C881.883 152.5 879.208 154.725 876.558 156.375C873.908 158.025 871.433 158.85 869.133 158.85ZM895.683 121.275C890.783 123.625 886.383 126.325 882.483 129.375C878.583 132.375 875.483 135.525 873.183 138.825C870.933 142.125 869.808 145.3 869.808 148.35C869.808 149.2 870.208 149.625 871.008 149.625C871.958 149.625 873.208 149.075 874.758 147.975C876.358 146.875 878.083 145.425 879.933 143.625C881.783 141.775 883.633 139.725 885.483 137.475C887.333 135.175 889.058 132.825 890.658 130.425C892.258 128.025 893.533 125.725 894.483 123.525C894.833 122.725 895.233 121.975 895.683 121.275ZM938.068 159.75C933.568 159.75 930.018 158.375 927.418 155.625C924.868 152.825 923.593 148.85 923.593 143.7C923.593 140.9 923.968 137.625 924.718 133.875C925.468 130.075 926.443 126.075 927.643 121.875C928.893 117.625 930.218 113.425 931.618 109.275C933.068 105.125 934.493 101.275 935.893 97.725C937.293 94.175 938.518 91.2 939.568 88.8C940.468 86.95 941.743 86.025 943.393 86.025C944.443 86.025 945.293 86.35 945.943 87C946.643 87.65 946.993 88.7 946.993 90.15C946.993 90.85 946.643 92.375 945.943 94.725C945.243 97.075 944.318 99.975 943.168 103.425C942.068 106.825 940.868 110.5 939.568 114.45C938.318 118.4 937.118 122.375 935.968 126.375C934.868 130.375 933.968 134.15 933.268 137.7C932.568 141.2 932.218 144.175 932.218 146.625C932.218 147.625 932.493 148.425 933.043 149.025C933.643 149.625 934.418 149.925 935.368 149.925C937.418 149.925 939.518 149.55 941.668 148.8C943.868 148.05 946.018 147.1 948.118 145.95C950.268 144.8 952.293 143.575 954.193 142.275C956.093 140.975 957.793 139.75 959.293 138.6C960.843 137.4 962.093 136.45 963.043 135.75C964.293 134.8 965.143 134.325 965.593 134.325C967.293 134.325 968.143 135.15 968.143 136.8C968.143 137.2 967.643 138.025 966.643 139.275C965.793 140.375 964.593 141.775 963.043 143.475C961.493 145.175 959.693 146.975 957.643 148.875C955.643 150.725 953.493 152.475 951.193 154.125C948.943 155.775 946.693 157.125 944.443 158.175C942.193 159.225 940.068 159.75 938.068 159.75Z" fill="#227C9D"/>
<path d="M5.2 283.075C3.8 283.075 2.7 282.575 1.9 281.575C1.15 280.625 0.775 279.15 0.775 277.15C0.775 274.4 1.025 271.125 1.525 267.325C2.025 263.525 2.7 259.5 3.55 255.25C4.4 251 5.325 246.825 6.325 242.725C7.525 238.025 8.7 233.75 9.85 229.9C11.05 226.05 12.25 222.975 13.45 220.675C14.7 218.325 15.95 217.15 17.2 217.15C18.35 217.15 19.35 217.575 20.2 218.425C21.1 219.225 21.55 220.425 21.55 222.025C21.55 223.175 21.25 224.825 20.65 226.975C20.05 229.075 19.3 231.7 18.4 234.85C20.1 232.05 21.85 229.3 23.65 226.6C25.5 223.9 27.375 221.45 29.275 219.25C31.175 217.05 33.025 215.3 34.825 214C36.625 212.7 38.325 212.05 39.925 212.05C41.825 212.05 43.5 212.6 44.95 213.7C46.45 214.8 47.625 216.3 48.475 218.2C49.325 220.1 49.75 222.25 49.75 224.65C49.75 229.1 48.95 233.425 47.35 237.625C45.75 241.775 43.525 245.5 40.675 248.8C37.875 252.1 34.6 254.725 30.85 256.675C27.1 258.575 23.05 259.525 18.7 259.525C17.45 259.525 16.3 259.4 15.25 259.15C14.25 258.95 13.325 258.7 12.475 258.4C11.875 261.6 11.3 264.875 10.75 268.225C10.25 271.625 9.725 275.2 9.175 278.95C8.575 281.7 7.25 283.075 5.2 283.075ZM40.675 220.9C39.575 220.9 38.175 221.65 36.475 223.15C34.825 224.65 33.025 226.625 31.075 229.075C29.125 231.475 27.15 234.1 25.15 236.95C23.2 239.75 21.325 242.5 19.525 245.2C17.775 247.9 16.275 250.25 15.025 252.25C18.825 251.85 22.175 250.85 25.075 249.25C27.975 247.6 30.45 245.6 32.5 243.25C34.55 240.9 36.2 238.425 37.45 235.825C38.75 233.175 39.7 230.6 40.3 228.1C40.9 225.6 41.2 223.425 41.2 221.575C41.2 221.125 41.025 220.9 40.675 220.9ZM60.3637 262.3C59.1137 262.3 58.0387 261.85 57.1387 260.95C56.2887 260.05 55.8637 258.75 55.8637 257.05C55.8637 256.3 55.9637 255.075 56.1637 253.375C56.4137 251.625 56.7137 249.625 57.0637 247.375C57.4637 245.125 57.8387 242.775 58.1887 240.325C58.5887 237.875 58.9137 235.55 59.1637 233.35C59.4637 231.15 59.6637 229.275 59.7637 227.725C59.8637 225.825 60.3637 224.475 61.2637 223.675C62.1637 222.825 63.2387 222.4 64.4887 222.4C65.4887 222.4 66.3887 222.65 67.1887 223.15C68.0387 223.6 68.5637 224.575 68.7637 226.075C69.0137 227.525 69.0387 229.625 68.8387 232.375C71.0387 228.375 73.2637 224.8 75.5137 221.65C77.8137 218.5 80.2137 216 82.7137 214.15C86.8637 211 90.6137 209.425 93.9637 209.425C95.8637 209.425 97.1137 209.85 97.7137 210.7C98.3137 211.55 98.6137 212.425 98.6137 213.325C98.6137 213.925 98.4637 214.475 98.1637 214.975C97.9137 215.475 97.3637 216 96.5137 216.55C95.6637 217.1 94.3637 217.825 92.6137 218.725C90.2637 219.925 87.9387 221.5 85.6387 223.45C83.3887 225.4 81.1387 227.9 78.8887 230.95C76.6387 234 74.3637 237.75 72.0637 242.2C69.7637 246.65 67.3887 251.95 64.9387 258.1C64.4887 259.8 63.8387 260.925 62.9887 261.475C62.1887 262.025 61.3137 262.3 60.3637 262.3ZM106.199 261.475C102.649 261.475 99.7992 260.225 97.6492 257.725C95.4992 255.175 94.4242 251.775 94.4242 247.525C94.4242 246.175 94.5992 244.8 94.9492 243.4C95.3492 242 95.8242 240.7 96.3742 239.5C96.0742 239.05 95.8242 238.475 95.6242 237.775C95.4742 237.025 95.3992 236.15 95.3992 235.15C95.3992 231.9 95.9742 228.925 97.1242 226.225C98.2742 223.475 99.8242 221.1 101.774 219.1C103.724 217.1 105.874 215.55 108.224 214.45C110.574 213.35 112.949 212.8 115.349 212.8C119.449 212.8 122.799 214.175 125.399 216.925C128.049 219.675 129.374 223.95 129.374 229.75C129.374 232.65 128.924 235.6 128.024 238.6C127.124 241.6 125.899 244.475 124.349 247.225C122.849 249.925 121.099 252.35 119.099 254.5C117.149 256.65 115.049 258.35 112.799 259.6C110.599 260.85 108.399 261.475 106.199 261.475ZM104.999 236.125C105.249 236.675 105.374 237.325 105.374 238.075C105.374 238.825 105.224 239.6 104.924 240.4C104.624 241.2 104.324 242.275 104.024 243.625C103.724 244.925 103.574 246.8 103.574 249.25C103.574 249.9 103.649 250.45 103.799 250.9C103.999 251.3 104.424 251.5 105.074 251.5C106.774 251.5 108.374 250.95 109.874 249.85C111.424 248.75 112.799 247.3 113.999 245.5C115.249 243.7 116.299 241.7 117.149 239.5C118.049 237.25 118.724 234.975 119.174 232.675C119.674 230.325 119.924 228.15 119.924 226.15C119.924 224.85 119.674 223.95 119.174 223.45C118.674 222.95 117.799 222.7 116.549 222.7C114.849 222.7 113.099 223.25 111.299 224.35C109.549 225.4 108.074 226.85 106.874 228.7C105.674 230.5 105.074 232.55 105.074 234.85C105.074 235.3 105.049 235.725 104.999 236.125ZM146.617 261.325C143.617 261.325 141.542 260.725 140.392 259.525C139.292 258.375 138.742 256.775 138.742 254.725C138.742 246.025 140.367 236.95 143.617 227.5C146.917 218 151.542 208.475 157.492 198.925C158.492 197.275 159.317 196.3 159.967 196C160.617 195.7 161.342 195.55 162.142 195.55C163.292 195.55 164.292 195.95 165.142 196.75C166.042 197.55 166.492 198.6 166.492 199.9C166.492 200.3 166.067 201.4 165.217 203.2C164.367 205 163.242 207.3 161.842 210.1C160.492 212.9 159.017 216.075 157.417 219.625C155.817 223.125 154.242 226.825 152.692 230.725C151.192 234.625 149.892 238.55 148.792 242.5C150.492 240.35 152.417 238.15 154.567 235.9C156.767 233.6 159.042 231.5 161.392 229.6C163.742 227.65 166.017 226.1 168.217 224.95C170.417 223.75 172.392 223.15 174.142 223.15C175.792 223.15 177.317 223.55 178.717 224.35C180.167 225.15 181.342 226.4 182.242 228.1C183.142 229.8 183.592 232 183.592 234.7C183.592 237.65 182.742 240.675 181.042 243.775C179.392 246.875 176.967 249.75 173.767 252.4C170.617 255.05 166.742 257.2 162.142 258.85C157.592 260.5 152.417 261.325 146.617 261.325ZM149.767 252.775C153.617 252.475 157.092 251.65 160.192 250.3C163.342 248.95 166.042 247.275 168.292 245.275C170.542 243.275 172.267 241.175 173.467 238.975C174.667 236.725 175.267 234.6 175.267 232.6C175.267 232.15 175.142 231.925 174.892 231.925C173.842 231.925 172.517 232.4 170.917 233.35C169.317 234.25 167.567 235.475 165.667 237.025C163.767 238.575 161.842 240.275 159.892 242.125C157.942 243.975 156.092 245.825 154.342 247.675C152.592 249.525 151.067 251.225 149.767 252.775ZM205.646 262.75C201.146 262.75 197.596 261.375 194.996 258.625C192.446 255.825 191.171 251.85 191.171 246.7C191.171 243.9 191.546 240.625 192.296 236.875C193.046 233.075 194.021 229.075 195.221 224.875C196.471 220.625 197.796 216.425 199.196 212.275C200.646 208.125 202.071 204.275 203.471 200.725C204.871 197.175 206.096 194.2 207.146 191.8C208.046 189.95 209.321 189.025 210.971 189.025C212.021 189.025 212.871 189.35 213.521 190C214.221 190.65 214.571 191.7 214.571 193.15C214.571 193.85 214.221 195.375 213.521 197.725C212.821 200.075 211.896 202.975 210.746 206.425C209.646 209.825 208.446 213.5 207.146 217.45C205.896 221.4 204.696 225.375 203.546 229.375C202.446 233.375 201.546 237.15 200.846 240.7C200.146 244.2 199.796 247.175 199.796 249.625C199.796 250.625 200.071 251.425 200.621 252.025C201.221 252.625 201.996 252.925 202.946 252.925C204.996 252.925 207.096 252.55 209.246 251.8C211.446 251.05 213.596 250.1 215.696 248.95C217.846 247.8 219.871 246.575 221.771 245.275C223.671 243.975 225.371 242.75 226.871 241.6C228.421 240.4 229.671 239.45 230.621 238.75C231.871 237.8 232.721 237.325 233.171 237.325C234.871 237.325 235.721 238.15 235.721 239.8C235.721 240.2 235.221 241.025 234.221 242.275C233.371 243.375 232.171 244.775 230.621 246.475C229.071 248.175 227.271 249.975 225.221 251.875C223.221 253.725 221.071 255.475 218.771 257.125C216.521 258.775 214.271 260.125 212.021 261.175C209.771 262.225 207.646 262.75 205.646 262.75ZM241.213 261.55C238.113 261.55 235.613 260.475 233.713 258.325C231.813 256.125 230.863 252.6 230.863 247.75C230.863 244.65 231.213 241.55 231.913 238.45C232.663 235.3 233.688 232.325 234.988 229.525C236.338 226.675 237.888 224.15 239.638 221.95C241.438 219.75 243.413 218.025 245.563 216.775C247.713 215.475 249.938 214.825 252.238 214.825C256.138 214.825 259.188 215.875 261.388 217.975C263.588 220.075 264.688 222.75 264.688 226C264.688 228.5 263.988 230.775 262.588 232.825C261.238 234.825 259.388 236.625 257.038 238.225C254.688 239.825 252.063 241.275 249.163 242.575C246.263 243.875 243.288 245.05 240.238 246.1C239.988 247.9 239.863 249.5 239.863 250.9C239.863 251.75 240.338 252.175 241.288 252.175C243.538 252.175 245.938 251.825 248.488 251.125C251.088 250.375 253.713 249.425 256.363 248.275C259.013 247.075 261.563 245.85 264.013 244.6C266.463 243.3 268.688 242.075 270.688 240.925C272.738 239.725 274.413 238.775 275.713 238.075C277.063 237.325 277.938 236.95 278.338 236.95C279.438 236.95 280.238 237.275 280.738 237.925C281.238 238.575 281.488 239.275 281.488 240.025C281.488 240.375 280.813 241.15 279.463 242.35C278.163 243.55 276.363 244.975 274.063 246.625C271.813 248.225 269.263 249.9 266.413 251.65C263.613 253.35 260.688 254.975 257.638 256.525C254.638 258.025 251.713 259.225 248.863 260.125C246.063 261.075 243.513 261.55 241.213 261.55ZM241.513 239.425C243.563 238.225 245.588 236.975 247.588 235.675C249.638 234.325 251.338 232.825 252.688 231.175C254.038 229.475 254.713 227.5 254.713 225.25C254.713 224.6 254.538 224.175 254.188 223.975C253.838 223.725 253.338 223.6 252.688 223.6C250.938 223.6 249.338 224.375 247.888 225.925C246.488 227.475 245.238 229.475 244.138 231.925C243.088 234.325 242.213 236.825 241.513 239.425ZM343.23 257.275C342.93 259.975 341.33 261.325 338.43 261.325C336.93 261.325 335.73 260.875 334.83 259.975C333.98 259.075 333.555 257.775 333.555 256.075C333.555 253.175 333.68 250.075 333.93 246.775C334.23 243.425 334.58 240.05 334.98 236.65C335.43 233.25 335.855 230 336.255 226.9C334.455 229.5 332.555 232.175 330.555 234.925C328.555 237.675 326.555 240.35 324.555 242.95C322.555 245.55 320.63 247.9 318.78 250C316.98 252.05 315.33 253.7 313.83 254.95C312.33 256.15 311.08 256.75 310.08 256.75C307.68 256.75 305.605 255.875 303.855 254.125C302.105 252.325 301.23 250.05 301.23 247.3C301.23 246.35 301.33 245.075 301.53 243.475C301.73 241.825 301.98 240.075 302.28 238.225C302.58 236.375 302.83 234.625 303.03 232.975C303.23 231.325 303.33 230.025 303.33 229.075C303.33 229.075 303.33 229.025 303.33 228.925C303.38 228.675 303.33 228.55 303.18 228.55C302.98 228.55 302.43 229.225 301.53 230.575C300.63 231.875 299.53 233.575 298.23 235.675C296.93 237.775 295.555 239.975 294.105 242.275C292.705 244.575 291.38 246.725 290.13 248.725C288.93 250.725 287.93 252.275 287.13 253.375C286.03 255.075 285.005 256.15 284.055 256.6C283.105 257.05 282.005 257.275 280.755 257.275C279.005 257.275 277.63 256.7 276.63 255.55C275.68 254.35 275.205 252.675 275.205 250.525C275.205 249.625 275.355 248.225 275.655 246.325C276.005 244.425 276.43 242.325 276.93 240.025C277.43 237.675 277.93 235.4 278.43 233.2C278.98 230.95 279.455 229.05 279.855 227.5C280.305 225.45 280.93 224.025 281.73 223.225C282.58 222.375 283.655 221.95 284.955 221.95C288.005 221.95 289.53 223.45 289.53 226.45C289.53 227 289.355 227.9 289.005 229.15C288.655 230.4 288.23 231.85 287.73 233.5C287.23 235.15 286.705 236.85 286.155 238.6C285.605 240.3 285.155 241.9 284.805 243.4C286.005 241.3 287.305 239.05 288.705 236.65C290.105 234.25 291.53 231.9 292.98 229.6C294.48 227.3 295.955 225.2 297.405 223.3C298.905 221.4 300.38 219.9 301.83 218.8C303.28 217.65 304.655 217.075 305.955 217.075C307.255 217.075 308.53 217.55 309.78 218.5C311.03 219.4 312.055 220.575 312.855 222.025C313.705 223.425 314.13 224.925 314.13 226.525C314.13 228.025 313.93 229.825 313.53 231.925C313.13 234.025 312.68 236.225 312.18 238.525C311.68 240.825 311.33 243.075 311.13 245.275C312.83 243.375 314.63 241.225 316.53 238.825C318.43 236.375 320.38 233.85 322.38 231.25C324.38 228.65 326.33 226.125 328.23 223.675C330.18 221.225 331.98 219 333.63 217C335.33 215 336.83 213.425 338.13 212.275C339.43 211.075 340.43 210.475 341.13 210.475C343.18 210.475 344.78 211.025 345.93 212.125C347.13 213.175 347.73 215.025 347.73 217.675C347.73 219.325 347.605 221.475 347.355 224.125C347.155 226.775 346.855 229.65 346.455 232.75C346.105 235.8 345.705 238.9 345.255 242.05C344.855 245.15 344.48 248.025 344.13 250.675C343.78 253.325 343.48 255.525 343.23 257.275ZM365.683 233.875C363.733 233.875 362.133 233.5 360.883 232.75C359.683 232 359.083 230.75 359.083 229C359.083 228.5 359.808 227.875 361.258 227.125C362.708 226.325 364.683 225.55 367.183 224.8C369.733 224 372.658 223.35 375.958 222.85C379.258 222.3 382.733 222.025 386.383 222.025C389.433 222.025 391.533 222.4 392.683 223.15C393.883 223.9 394.483 225.15 394.483 226.9C394.483 227.6 393.683 228.35 392.083 229.15C390.483 229.95 388.308 230.725 385.558 231.475C382.808 232.175 379.708 232.75 376.258 233.2C372.858 233.65 369.333 233.875 365.683 233.875ZM412.088 262.825C409.938 262.825 408.413 262.525 407.513 261.925C406.663 261.325 406.238 260.45 406.238 259.3C406.238 258.3 406.588 257.45 407.288 256.75C407.988 256 409.538 255.25 411.938 254.5C414.738 253.65 417.388 252.675 419.888 251.575C422.438 250.425 424.513 249.175 426.113 247.825C427.763 246.475 428.588 245.05 428.588 243.55C428.588 242.55 428.238 241.825 427.538 241.375C426.888 240.925 426.113 240.7 425.213 240.7C424.463 240.7 423.363 240.825 421.913 241.075C420.513 241.275 418.963 241.55 417.263 241.9C415.563 242.2 413.913 242.475 412.313 242.725C410.763 242.925 409.438 243.025 408.338 243.025C405.738 243.025 403.813 242.45 402.563 241.3C401.313 240.1 400.688 238.575 400.688 236.725C400.688 235.725 401.213 234.35 402.263 232.6C403.313 230.85 404.713 228.925 406.463 226.825C408.213 224.725 410.163 222.625 412.313 220.525C414.463 218.425 416.638 216.5 418.838 214.75C421.088 212.95 423.213 211.525 425.213 210.475C427.213 209.375 428.913 208.825 430.313 208.825C431.913 208.825 433.188 209.325 434.138 210.325C435.138 211.325 435.638 212.675 435.638 214.375C435.638 215.175 435.563 216.05 435.413 217C435.263 217.9 434.888 218.725 434.288 219.475C433.688 220.175 432.763 220.675 431.513 220.975C430.263 221.275 428.563 221.225 426.413 220.825C424.713 222.075 422.938 223.45 421.088 224.95C419.288 226.4 417.588 227.925 415.988 229.525C414.388 231.075 413.063 232.6 412.013 234.1C413.863 233.5 415.963 233.025 418.313 232.675C420.663 232.275 423.038 232.075 425.438 232.075C428.338 232.075 430.688 232.6 432.488 233.65C434.338 234.65 435.688 236 436.538 237.7C437.438 239.4 437.888 241.275 437.888 243.325C437.888 245.625 437.138 247.925 435.638 250.225C434.138 252.525 432.138 254.625 429.638 256.525C427.138 258.425 424.363 259.95 421.313 261.1C418.263 262.25 415.188 262.825 412.088 262.825ZM457.469 261.475C453.919 261.475 451.069 260.225 448.919 257.725C446.769 255.175 445.694 251.775 445.694 247.525C445.694 246.175 445.869 244.8 446.219 243.4C446.619 242 447.094 240.7 447.644 239.5C447.344 239.05 447.094 238.475 446.894 237.775C446.744 237.025 446.669 236.15 446.669 235.15C446.669 231.9 447.244 228.925 448.394 226.225C449.544 223.475 451.094 221.1 453.044 219.1C454.994 217.1 457.144 215.55 459.494 214.45C461.844 213.35 464.219 212.8 466.619 212.8C470.719 212.8 474.069 214.175 476.669 216.925C479.319 219.675 480.644 223.95 480.644 229.75C480.644 232.65 480.194 235.6 479.294 238.6C478.394 241.6 477.169 244.475 475.619 247.225C474.119 249.925 472.369 252.35 470.369 254.5C468.419 256.65 466.319 258.35 464.069 259.6C461.869 260.85 459.669 261.475 457.469 261.475ZM456.269 236.125C456.519 236.675 456.644 237.325 456.644 238.075C456.644 238.825 456.494 239.6 456.194 240.4C455.894 241.2 455.594 242.275 455.294 243.625C454.994 244.925 454.844 246.8 454.844 249.25C454.844 249.9 454.919 250.45 455.069 250.9C455.269 251.3 455.694 251.5 456.344 251.5C458.044 251.5 459.644 250.95 461.144 249.85C462.694 248.75 464.069 247.3 465.269 245.5C466.519 243.7 467.569 241.7 468.419 239.5C469.319 237.25 469.994 234.975 470.444 232.675C470.944 230.325 471.194 228.15 471.194 226.15C471.194 224.85 470.944 223.95 470.444 223.45C469.944 222.95 469.069 222.7 467.819 222.7C466.119 222.7 464.369 223.25 462.569 224.35C460.819 225.4 459.344 226.85 458.144 228.7C456.944 230.5 456.344 232.55 456.344 234.85C456.344 235.3 456.319 235.725 456.269 236.125ZM505.133 262.75C500.633 262.75 497.083 261.375 494.483 258.625C491.933 255.825 490.658 251.85 490.658 246.7C490.658 243.9 491.033 240.625 491.783 236.875C492.533 233.075 493.508 229.075 494.708 224.875C495.958 220.625 497.283 216.425 498.683 212.275C500.133 208.125 501.558 204.275 502.958 200.725C504.358 197.175 505.583 194.2 506.633 191.8C507.533 189.95 508.808 189.025 510.458 189.025C511.508 189.025 512.358 189.35 513.008 190C513.708 190.65 514.058 191.7 514.058 193.15C514.058 193.85 513.708 195.375 513.008 197.725C512.308 200.075 511.383 202.975 510.233 206.425C509.133 209.825 507.933 213.5 506.633 217.45C505.383 221.4 504.183 225.375 503.033 229.375C501.933 233.375 501.033 237.15 500.333 240.7C499.633 244.2 499.283 247.175 499.283 249.625C499.283 250.625 499.558 251.425 500.108 252.025C500.708 252.625 501.483 252.925 502.433 252.925C504.483 252.925 506.583 252.55 508.733 251.8C510.933 251.05 513.083 250.1 515.183 248.95C517.333 247.8 519.358 246.575 521.258 245.275C523.158 243.975 524.858 242.75 526.358 241.6C527.908 240.4 529.158 239.45 530.108 238.75C531.358 237.8 532.208 237.325 532.658 237.325C534.358 237.325 535.208 238.15 535.208 239.8C535.208 240.2 534.708 241.025 533.708 242.275C532.858 243.375 531.658 244.775 530.108 246.475C528.558 248.175 526.758 249.975 524.708 251.875C522.708 253.725 520.558 255.475 518.258 257.125C516.008 258.775 513.758 260.125 511.508 261.175C509.258 262.225 507.133 262.75 505.133 262.75ZM540.241 258.925C538.941 258.925 537.791 258.3 536.791 257.05C535.841 255.8 535.116 253.875 534.616 251.275C534.216 249.075 533.866 246.575 533.566 243.775C533.266 240.975 532.991 238.225 532.741 235.525C532.541 232.775 532.391 230.375 532.291 228.325C532.191 226.275 532.141 224.875 532.141 224.125C532.141 221.425 532.616 219.2 533.566 217.45C534.516 215.65 536.341 214.75 539.041 214.75C540.191 214.75 541.066 215.25 541.666 216.25C542.266 217.2 542.566 218.525 542.566 220.225C542.566 221.275 542.566 222.6 542.566 224.2C542.616 225.75 542.666 227.5 542.716 229.45C542.766 231.6 542.816 233.925 542.866 236.425C542.966 238.875 543.016 241.325 543.016 243.775C544.766 241.025 546.641 238.1 548.641 235C550.641 231.85 552.591 228.8 554.491 225.85C556.441 222.9 558.191 220.3 559.741 218.05C561.291 215.75 562.466 214.125 563.266 213.175C563.966 212.325 564.816 211.6 565.816 211C566.816 210.35 567.866 210.025 568.966 210.025C570.166 210.025 571.166 210.5 571.966 211.45C572.766 212.4 573.166 213.5 573.166 214.75C573.166 215.7 572.966 216.6 572.566 217.45C572.216 218.3 571.766 219.1 571.216 219.85C569.716 221.95 567.941 224.4 565.891 227.2C563.891 230 561.791 232.95 559.591 236.05C557.391 239.1 555.241 242.05 553.141 244.9C551.091 247.75 549.266 250.275 547.666 252.475C546.366 254.325 545.316 255.725 544.516 256.675C543.716 257.575 542.991 258.175 542.341 258.475C541.741 258.775 541.041 258.925 540.241 258.925ZM612.633 226.525C612.633 229.775 610.783 233 607.083 236.2C603.433 239.35 597.758 242.15 590.058 244.6C590.058 244.65 590.058 244.725 590.058 244.825C590.058 246.475 590.258 247.8 590.658 248.8C591.058 249.75 591.933 250.225 593.283 250.225C595.283 250.225 597.508 249.625 599.958 248.425C602.458 247.175 605.033 245.6 607.683 243.7C610.383 241.75 613.008 239.7 615.558 237.55C618.108 235.4 620.458 233.375 622.608 231.475C624.808 229.525 626.658 227.95 628.158 226.75C629.708 225.5 630.733 224.875 631.233 224.875C632.283 224.875 633.158 225.275 633.858 226.075C634.608 226.875 634.983 228.075 634.983 229.675C634.983 230.575 634.933 231.65 634.833 232.9C637.033 229.1 639.583 225.975 642.483 223.525C645.383 221.025 648.233 219.175 651.033 217.975C653.883 216.725 656.308 216.1 658.308 216.1C660.558 216.1 662.083 216.55 662.883 217.45C663.683 218.3 664.083 219.2 664.083 220.15C664.083 220.7 663.958 221.25 663.708 221.8C663.508 222.3 662.958 222.85 662.058 223.45C661.208 224.05 659.783 224.75 657.783 225.55C655.133 226.55 652.608 227.725 650.208 229.075C647.858 230.425 645.683 232.275 643.683 234.625C641.733 236.925 639.958 240.025 638.358 243.925C636.808 247.775 635.508 252.725 634.458 258.775C634.108 260.475 633.558 261.625 632.808 262.225C632.058 262.875 631.183 263.2 630.183 263.2C630.083 263.2 629.908 263.2 629.658 263.2C629.208 263.25 628.733 263.2 628.233 263.05C627.783 262.95 627.333 262.525 626.883 261.775C626.483 261.075 626.158 259.85 625.908 258.1C625.658 256.35 625.533 253.85 625.533 250.6C625.533 248.65 625.608 246.6 625.758 244.45C625.958 242.25 626.208 239.975 626.508 237.625C623.958 240.125 621.233 242.65 618.333 245.2C615.433 247.75 612.433 250.1 609.333 252.25C606.283 254.35 603.283 256.05 600.333 257.35C597.433 258.65 594.733 259.3 592.233 259.3C588.883 259.3 586.133 258.225 583.983 256.075C581.883 253.875 580.833 250.5 580.833 245.95C580.833 241.45 581.433 237.375 582.633 233.725C583.883 230.025 585.483 226.85 587.433 224.2C589.383 221.55 591.458 219.525 593.658 218.125C595.908 216.675 598.008 215.95 599.958 215.95C604.108 215.95 607.258 216.95 609.408 218.95C611.558 220.9 612.633 223.425 612.633 226.525ZM591.033 237.925C592.333 237.275 593.708 236.525 595.158 235.675C596.658 234.775 598.058 233.85 599.358 232.9C600.658 231.9 601.708 230.925 602.508 229.975C603.358 229.025 603.783 228.125 603.783 227.275C603.783 225.875 603.383 225.025 602.583 224.725C601.833 224.375 600.808 224.2 599.508 224.2C598.158 224.2 596.933 224.925 595.833 226.375C594.733 227.775 593.783 229.525 592.983 231.625C592.183 233.725 591.533 235.825 591.033 237.925Z" fill="#FE6D73"/>
</svg>
