<svg width="467" height="186" viewBox="0 0 467 186" fill="none" xmlns="http://www.w3.org/2000/svg">
<path d="M5.925 60.625C4.075 60.625 2.7 59.9 1.8 58.45C0.9 56.95 0.45 54.25 0.45 50.35C0.45 45.35 0.9 40.425 1.8 35.575C2.75 30.725 4.075 26.175 5.775 21.925C7.525 17.675 9.625 13.95 12.075 10.75C14.575 7.5 17.4 4.975 20.55 3.175C23.7 1.325 27.125 0.399998 30.825 0.399998C36.325 0.399998 40.4 1.875 43.05 4.825C45.75 7.725 47.1 12 47.1 17.65C47.1 20.65 46.5 23.325 45.3 25.675C44.1 27.975 42.525 29.8 40.575 31.15C38.675 32.45 36.625 33.1 34.425 33.1C33.175 33.1 31.85 32.875 30.45 32.425C33.15 35.925 35.85 38.975 38.55 41.575C41.3 44.175 44.025 46.575 46.725 48.775C49.475 50.925 52.225 53.125 54.975 55.375C56.425 56.525 57.25 57.75 57.45 59.05C57.65 60.35 57.3 61.45 56.4 62.35C55.55 63.3 54.225 63.775 52.425 63.775C51.025 63.775 49.25 63.15 47.1 61.9C44.95 60.7 42.625 59.075 40.125 57.025C37.625 54.925 35.125 52.6 32.625 50.05C30.175 47.5 27.925 44.9 25.875 42.25C23.875 39.6 22.25 37.075 21 34.675C19.8 32.275 19.2 30.225 19.2 28.525C19.2 26.925 19.625 25.7 20.475 24.85C21.325 23.95 22.425 23.5 23.775 23.5C24.875 23.5 25.875 23.65 26.775 23.95C27.725 24.25 28.725 24.4 29.775 24.4C30.875 24.4 32.025 24.1 33.225 23.5C34.475 22.9 35.525 21.975 36.375 20.725C37.225 19.425 37.65 17.775 37.65 15.775C37.65 13.575 37.025 12.1 35.775 11.35C34.575 10.6 32.95 10.225 30.9 10.225C28.05 10.225 25.475 11.225 23.175 13.225C20.875 15.225 18.875 18.05 17.175 21.7C15.475 25.35 14.1 29.65 13.05 34.6C12.05 39.55 11.375 44.95 11.025 50.8C10.825 54.6 10.325 57.2 9.525 58.6C8.725 59.95 7.525 60.625 5.925 60.625ZM77.3279 63.55C74.2279 63.55 71.7279 62.475 69.8279 60.325C67.9279 58.125 66.9779 54.6 66.9779 49.75C66.9779 46.65 67.3279 43.55 68.0279 40.45C68.7779 37.3 69.8029 34.325 71.1029 31.525C72.4529 28.675 74.0029 26.15 75.7529 23.95C77.5529 21.75 79.5279 20.025 81.6779 18.775C83.8279 17.475 86.0529 16.825 88.3529 16.825C92.2529 16.825 95.3029 17.875 97.5029 19.975C99.7029 22.075 100.803 24.75 100.803 28C100.803 30.5 100.103 32.775 98.7029 34.825C97.3529 36.825 95.5029 38.625 93.1529 40.225C90.8029 41.825 88.1779 43.275 85.2779 44.575C82.3779 45.875 79.4029 47.05 76.3529 48.1C76.1029 49.9 75.9779 51.5 75.9779 52.9C75.9779 53.75 76.4529 54.175 77.4029 54.175C79.6529 54.175 82.0529 53.825 84.6029 53.125C87.2029 52.375 89.8279 51.425 92.4779 50.275C95.1279 49.075 97.6779 47.85 100.128 46.6C102.578 45.3 104.803 44.075 106.803 42.925C108.853 41.725 110.528 40.775 111.828 40.075C113.178 39.325 114.053 38.95 114.453 38.95C115.553 38.95 116.353 39.275 116.853 39.925C117.353 40.575 117.603 41.275 117.603 42.025C117.603 42.375 116.928 43.15 115.578 44.35C114.278 45.55 112.478 46.975 110.178 48.625C107.928 50.225 105.378 51.9 102.528 53.65C99.7279 55.35 96.8029 56.975 93.7529 58.525C90.7529 60.025 87.8279 61.225 84.9779 62.125C82.1779 63.075 79.6279 63.55 77.3279 63.55ZM77.6279 41.425C79.6779 40.225 81.7029 38.975 83.7029 37.675C85.7529 36.325 87.4529 34.825 88.8029 33.175C90.1529 31.475 90.8279 29.5 90.8279 27.25C90.8279 26.6 90.6529 26.175 90.3029 25.975C89.9529 25.725 89.4529 25.6 88.8029 25.6C87.0529 25.6 85.4529 26.375 84.0029 27.925C82.6029 29.475 81.3529 31.475 80.2529 33.925C79.2029 36.325 78.3279 38.825 77.6279 41.425ZM120.029 64.825C117.879 64.825 116.354 64.525 115.454 63.925C114.604 63.325 114.179 62.45 114.179 61.3C114.179 60.3 114.529 59.45 115.229 58.75C115.929 58 117.479 57.25 119.879 56.5C122.679 55.65 125.329 54.675 127.829 53.575C130.379 52.425 132.454 51.175 134.054 49.825C135.704 48.475 136.529 47.05 136.529 45.55C136.529 44.55 136.179 43.825 135.479 43.375C134.829 42.925 134.054 42.7 133.154 42.7C132.404 42.7 131.304 42.825 129.854 43.075C128.454 43.275 126.904 43.55 125.204 43.9C123.504 44.2 121.854 44.475 120.254 44.725C118.704 44.925 117.379 45.025 116.279 45.025C113.679 45.025 111.754 44.45 110.504 43.3C109.254 42.1 108.629 40.575 108.629 38.725C108.629 37.725 109.154 36.35 110.204 34.6C111.254 32.85 112.654 30.925 114.404 28.825C116.154 26.725 118.104 24.625 120.254 22.525C122.404 20.425 124.579 18.5 126.779 16.75C129.029 14.95 131.154 13.525 133.154 12.475C135.154 11.375 136.854 10.825 138.254 10.825C139.854 10.825 141.129 11.325 142.079 12.325C143.079 13.325 143.579 14.675 143.579 16.375C143.579 17.175 143.504 18.05 143.354 19C143.204 19.9 142.829 20.725 142.229 21.475C141.629 22.175 140.704 22.675 139.454 22.975C138.204 23.275 136.504 23.225 134.354 22.825C132.654 24.075 130.879 25.45 129.029 26.95C127.229 28.4 125.529 29.925 123.929 31.525C122.329 33.075 121.004 34.6 119.954 36.1C121.804 35.5 123.904 35.025 126.254 34.675C128.604 34.275 130.979 34.075 133.379 34.075C136.279 34.075 138.629 34.6 140.429 35.65C142.279 36.65 143.629 38 144.479 39.7C145.379 41.4 145.829 43.275 145.829 45.325C145.829 47.625 145.079 49.925 143.579 52.225C142.079 54.525 140.079 56.625 137.579 58.525C135.079 60.425 132.304 61.95 129.254 63.1C126.204 64.25 123.129 64.825 120.029 64.825ZM155.378 85.075C153.978 85.075 152.878 84.575 152.078 83.575C151.328 82.625 150.953 81.15 150.953 79.15C150.953 76.4 151.203 73.125 151.703 69.325C152.203 65.525 152.878 61.5 153.728 57.25C154.578 53 155.503 48.825 156.503 44.725C157.703 40.025 158.878 35.75 160.028 31.9C161.228 28.05 162.428 24.975 163.628 22.675C164.878 20.325 166.128 19.15 167.378 19.15C168.528 19.15 169.528 19.575 170.378 20.425C171.278 21.225 171.728 22.425 171.728 24.025C171.728 25.175 171.428 26.825 170.828 28.975C170.228 31.075 169.478 33.7 168.578 36.85C170.278 34.05 172.028 31.3 173.828 28.6C175.678 25.9 177.553 23.45 179.453 21.25C181.353 19.05 183.203 17.3 185.003 16C186.803 14.7 188.503 14.05 190.103 14.05C192.003 14.05 193.678 14.6 195.128 15.7C196.628 16.8 197.803 18.3 198.653 20.2C199.503 22.1 199.928 24.25 199.928 26.65C199.928 31.1 199.128 35.425 197.528 39.625C195.928 43.775 193.703 47.5 190.853 50.8C188.053 54.1 184.778 56.725 181.028 58.675C177.278 60.575 173.228 61.525 168.878 61.525C167.628 61.525 166.478 61.4 165.428 61.15C164.428 60.95 163.503 60.7 162.653 60.4C162.053 63.6 161.478 66.875 160.928 70.225C160.428 73.625 159.903 77.2 159.353 80.95C158.753 83.7 157.428 85.075 155.378 85.075ZM190.853 22.9C189.753 22.9 188.353 23.65 186.653 25.15C185.003 26.65 183.203 28.625 181.253 31.075C179.303 33.475 177.328 36.1 175.328 38.95C173.378 41.75 171.503 44.5 169.703 47.2C167.953 49.9 166.453 52.25 165.203 54.25C169.003 53.85 172.353 52.85 175.253 51.25C178.153 49.6 180.628 47.6 182.678 45.25C184.728 42.9 186.378 40.425 187.628 37.825C188.928 35.175 189.878 32.6 190.478 30.1C191.078 27.6 191.378 25.425 191.378 23.575C191.378 23.125 191.203 22.9 190.853 22.9ZM258.149 64.825C256.199 64.825 254.774 64.3 253.874 63.25C252.974 62.25 252.524 60.225 252.524 57.175C252.524 54.575 252.949 51.2 253.799 47.05C254.649 42.9 255.599 38.425 256.649 33.625C251.099 39.825 244.699 43.775 237.449 45.475C235.999 48.475 234.299 51.225 232.349 53.725C230.399 56.225 228.274 58.25 225.974 59.8C223.724 61.3 221.374 62.05 218.924 62.05C215.874 62.05 213.249 61.05 211.049 59.05C208.899 57.05 207.824 53.975 207.824 49.825C207.824 47.025 208.249 44.65 209.099 42.7C209.949 40.7 210.924 39.2 212.024 38.2C211.124 36.3 210.674 34.125 210.674 31.675C210.674 28.375 211.574 25.45 213.374 22.9C215.174 20.35 217.549 18.35 220.499 16.9C223.499 15.45 226.749 14.725 230.249 14.725C232.199 14.725 234.049 15.225 235.799 16.225C237.599 17.175 239.049 18.65 240.149 20.65C241.299 22.6 241.874 25.075 241.874 28.075C241.874 30.575 241.499 33.325 240.749 36.325C244.299 34.225 247.799 31.35 251.249 27.7C254.749 24.05 257.874 19.95 260.624 15.4C261.474 14.05 262.674 13.375 264.224 13.375C265.524 13.375 266.549 13.775 267.299 14.575C268.099 15.325 268.499 16.325 268.499 17.575C268.499 17.825 268.349 18.65 268.049 20.05C267.749 21.45 267.349 23.275 266.849 25.525C266.349 27.725 265.799 30.15 265.199 32.8C264.649 35.45 264.099 38.15 263.549 40.9C262.999 43.65 262.499 46.25 262.049 48.7C263.349 46.35 264.749 43.85 266.249 41.2C267.799 38.5 269.399 35.85 271.049 33.25C272.699 30.6 274.324 28.2 275.924 26.05C277.524 23.9 278.999 22.2 280.349 20.95C281.699 19.65 282.849 19 283.799 19C285.699 19 287.299 19.55 288.599 20.65C289.899 21.75 290.549 22.875 290.549 24.025C290.549 25.175 290.424 26.95 290.174 29.35C289.924 31.75 289.599 34.45 289.199 37.45C288.849 40.4 288.474 43.375 288.074 46.375C287.674 49.375 287.349 52.1 287.099 54.55C286.849 56.95 286.724 58.75 286.724 59.95C286.724 60.95 286.249 61.9 285.299 62.8C284.349 63.7 283.274 64.15 282.074 64.15C281.974 64.15 281.799 64.15 281.549 64.15C280.949 64.2 280.399 64.1 279.899 63.85C279.399 63.65 278.974 62.9 278.624 61.6C278.324 60.3 278.174 58.1 278.174 55C278.174 52.9 278.274 50.6 278.474 48.1C278.674 45.6 278.924 43.1 279.224 40.6C279.574 38.05 279.949 35.675 280.349 33.475C279.049 35.625 277.599 38.075 275.999 40.825C274.449 43.525 272.824 46.3 271.124 49.15C269.424 51.95 267.749 54.55 266.099 56.95C264.499 59.3 262.999 61.2 261.599 62.65C260.249 64.1 259.099 64.825 258.149 64.825ZM229.949 39.775C230.599 37.825 231.124 35.8 231.524 33.7C231.924 31.55 232.124 29.45 232.124 27.4C232.124 26.55 231.949 25.725 231.599 24.925C231.249 24.125 230.649 23.725 229.799 23.725C228.099 23.725 226.424 24.075 224.774 24.775C223.174 25.475 221.849 26.475 220.799 27.775C219.749 29.075 219.224 30.625 219.224 32.425C219.224 34.025 219.749 35.375 220.799 36.475C221.899 37.575 223.249 38.4 224.849 38.95C226.499 39.5 228.124 39.775 229.724 39.775C229.774 39.775 229.849 39.775 229.949 39.775ZM226.874 46.375C225.124 46.325 223.424 46.1 221.774 45.7C220.124 45.25 218.624 44.625 217.274 43.825C217.124 44.625 216.974 45.4 216.824 46.15C216.674 46.85 216.599 47.525 216.599 48.175C216.599 49.275 216.774 50.275 217.124 51.175C217.524 52.025 218.324 52.45 219.524 52.45C220.774 52.45 222.024 51.9 223.274 50.8C224.574 49.7 225.774 48.225 226.874 46.375ZM311.924 64.825C309.774 64.825 308.249 64.525 307.349 63.925C306.499 63.325 306.074 62.45 306.074 61.3C306.074 60.3 306.424 59.45 307.124 58.75C307.824 58 309.374 57.25 311.774 56.5C314.574 55.65 317.224 54.675 319.724 53.575C322.274 52.425 324.349 51.175 325.949 49.825C327.599 48.475 328.424 47.05 328.424 45.55C328.424 44.55 328.074 43.825 327.374 43.375C326.724 42.925 325.949 42.7 325.049 42.7C324.299 42.7 323.199 42.825 321.749 43.075C320.349 43.275 318.799 43.55 317.099 43.9C315.399 44.2 313.749 44.475 312.149 44.725C310.599 44.925 309.274 45.025 308.174 45.025C305.574 45.025 303.649 44.45 302.399 43.3C301.149 42.1 300.524 40.575 300.524 38.725C300.524 37.725 301.049 36.35 302.099 34.6C303.149 32.85 304.549 30.925 306.299 28.825C308.049 26.725 309.999 24.625 312.149 22.525C314.299 20.425 316.474 18.5 318.674 16.75C320.924 14.95 323.049 13.525 325.049 12.475C327.049 11.375 328.749 10.825 330.149 10.825C331.749 10.825 333.024 11.325 333.974 12.325C334.974 13.325 335.474 14.675 335.474 16.375C335.474 17.175 335.399 18.05 335.249 19C335.099 19.9 334.724 20.725 334.124 21.475C333.524 22.175 332.599 22.675 331.349 22.975C330.099 23.275 328.399 23.225 326.249 22.825C324.549 24.075 322.774 25.45 320.924 26.95C319.124 28.4 317.424 29.925 315.824 31.525C314.224 33.075 312.899 34.6 311.849 36.1C313.699 35.5 315.799 35.025 318.149 34.675C320.499 34.275 322.874 34.075 325.274 34.075C328.174 34.075 330.524 34.6 332.324 35.65C334.174 36.65 335.524 38 336.374 39.7C337.274 41.4 337.724 43.275 337.724 45.325C337.724 47.625 336.974 49.925 335.474 52.225C333.974 54.525 331.974 56.625 329.474 58.525C326.974 60.425 324.199 61.95 321.149 63.1C318.099 64.25 315.024 64.825 311.924 64.825ZM350.096 62.125C348.696 62.125 347.446 61.65 346.346 60.7C345.296 59.75 344.771 58.2 344.771 56.05C344.771 54.9 344.921 53.275 345.221 51.175C345.571 49.075 346.021 46.8 346.571 44.35C347.121 41.85 347.721 39.375 348.371 36.925C349.071 34.475 349.746 32.3 350.396 30.4C351.046 28.45 351.621 27 352.121 26.05C352.771 24.9 353.371 24.2 353.921 23.95C354.521 23.65 355.096 23.5 355.646 23.5C356.646 23.5 357.571 23.8 358.421 24.4C359.321 25 359.771 26.325 359.771 28.375C359.771 29.175 359.621 30.475 359.321 32.275C359.021 34.025 358.646 36.075 358.196 38.425C357.746 40.775 357.246 43.2 356.696 45.7C356.196 48.2 355.696 50.575 355.196 52.825C354.746 55.025 354.371 56.875 354.071 58.375C353.821 59.625 353.296 60.55 352.496 61.15C351.746 61.8 350.946 62.125 350.096 62.125ZM358.721 16.075C357.071 16.075 355.546 15.6 354.146 14.65C352.746 13.65 352.046 12.125 352.046 10.075C352.046 8.375 352.471 7 353.321 5.95C354.171 4.9 355.171 4.15 356.321 3.7C357.521 3.2 358.571 2.95 359.471 2.95C360.371 2.95 361.371 3.15 362.471 3.55C363.571 3.9 364.521 4.575 365.321 5.575C366.171 6.525 366.596 7.9 366.596 9.7C366.596 10.9 366.171 12 365.321 13C364.471 13.95 363.421 14.7 362.171 15.25C360.971 15.8 359.821 16.075 358.721 16.075ZM381.19 60.925C379.89 60.925 378.74 60.3 377.74 59.05C376.79 57.8 376.065 55.875 375.565 53.275C375.165 51.075 374.815 48.575 374.515 45.775C374.215 42.975 373.94 40.225 373.69 37.525C373.49 34.775 373.34 32.375 373.24 30.325C373.14 28.275 373.09 26.875 373.09 26.125C373.09 23.425 373.565 21.2 374.515 19.45C375.465 17.65 377.29 16.75 379.99 16.75C381.14 16.75 382.015 17.25 382.615 18.25C383.215 19.2 383.515 20.525 383.515 22.225C383.515 23.275 383.515 24.6 383.515 26.2C383.565 27.75 383.615 29.5 383.665 31.45C383.715 33.6 383.765 35.925 383.815 38.425C383.915 40.875 383.965 43.325 383.965 45.775C385.715 43.025 387.59 40.1 389.59 37C391.59 33.85 393.54 30.8 395.44 27.85C397.39 24.9 399.14 22.3 400.69 20.05C402.24 17.75 403.415 16.125 404.215 15.175C404.915 14.325 405.765 13.6 406.765 13C407.765 12.35 408.815 12.025 409.915 12.025C411.115 12.025 412.115 12.5 412.915 13.45C413.715 14.4 414.115 15.5 414.115 16.75C414.115 17.7 413.915 18.6 413.515 19.45C413.165 20.3 412.715 21.1 412.165 21.85C410.665 23.95 408.89 26.4 406.84 29.2C404.84 32 402.74 34.95 400.54 38.05C398.34 41.1 396.19 44.05 394.09 46.9C392.04 49.75 390.215 52.275 388.615 54.475C387.315 56.325 386.265 57.725 385.465 58.675C384.665 59.575 383.94 60.175 383.29 60.475C382.69 60.775 381.99 60.925 381.19 60.925ZM426.034 63.55C422.934 63.55 420.434 62.475 418.534 60.325C416.634 58.125 415.684 54.6 415.684 49.75C415.684 46.65 416.034 43.55 416.734 40.45C417.484 37.3 418.509 34.325 419.809 31.525C421.159 28.675 422.709 26.15 424.459 23.95C426.259 21.75 428.234 20.025 430.384 18.775C432.534 17.475 434.759 16.825 437.059 16.825C440.959 16.825 444.009 17.875 446.209 19.975C448.409 22.075 449.509 24.75 449.509 28C449.509 30.5 448.809 32.775 447.409 34.825C446.059 36.825 444.209 38.625 441.859 40.225C439.509 41.825 436.884 43.275 433.984 44.575C431.084 45.875 428.109 47.05 425.059 48.1C424.809 49.9 424.684 51.5 424.684 52.9C424.684 53.75 425.159 54.175 426.109 54.175C428.359 54.175 430.759 53.825 433.309 53.125C435.909 52.375 438.534 51.425 441.184 50.275C443.834 49.075 446.384 47.85 448.834 46.6C451.284 45.3 453.509 44.075 455.509 42.925C457.559 41.725 459.234 40.775 460.534 40.075C461.884 39.325 462.759 38.95 463.159 38.95C464.259 38.95 465.059 39.275 465.559 39.925C466.059 40.575 466.309 41.275 466.309 42.025C466.309 42.375 465.634 43.15 464.284 44.35C462.984 45.55 461.184 46.975 458.884 48.625C456.634 50.225 454.084 51.9 451.234 53.65C448.434 55.35 445.509 56.975 442.459 58.525C439.459 60.025 436.534 61.225 433.684 62.125C430.884 63.075 428.334 63.55 426.034 63.55ZM426.334 41.425C428.384 40.225 430.409 38.975 432.409 37.675C434.459 36.325 436.159 34.825 437.509 33.175C438.859 31.475 439.534 29.5 439.534 27.25C439.534 26.6 439.359 26.175 439.009 25.975C438.659 25.725 438.159 25.6 437.509 25.6C435.759 25.6 434.159 26.375 432.709 27.925C431.309 29.475 430.059 31.475 428.959 33.925C427.909 36.325 427.034 38.825 426.334 41.425Z" fill="#FE6D73"/>
<path d="M5.925 163.625C4.075 163.625 2.7 162.9 1.8 161.45C0.9 159.95 0.45 157.25 0.45 153.35C0.45 148.35 0.9 143.425 1.8 138.575C2.75 133.725 4.075 129.175 5.775 124.925C7.525 120.675 9.625 116.95 12.075 113.75C14.575 110.5 17.4 107.975 20.55 106.175C23.7 104.325 27.125 103.4 30.825 103.4C36.325 103.4 40.4 104.875 43.05 107.825C45.75 110.725 47.1 115 47.1 120.65C47.1 123.65 46.5 126.325 45.3 128.675C44.1 130.975 42.525 132.8 40.575 134.15C38.675 135.45 36.625 136.1 34.425 136.1C33.175 136.1 31.85 135.875 30.45 135.425C33.15 138.925 35.85 141.975 38.55 144.575C41.3 147.175 44.025 149.575 46.725 151.775C49.475 153.925 52.225 156.125 54.975 158.375C56.425 159.525 57.25 160.75 57.45 162.05C57.65 163.35 57.3 164.45 56.4 165.35C55.55 166.3 54.225 166.775 52.425 166.775C51.025 166.775 49.25 166.15 47.1 164.9C44.95 163.7 42.625 162.075 40.125 160.025C37.625 157.925 35.125 155.6 32.625 153.05C30.175 150.5 27.925 147.9 25.875 145.25C23.875 142.6 22.25 140.075 21 137.675C19.8 135.275 19.2 133.225 19.2 131.525C19.2 129.925 19.625 128.7 20.475 127.85C21.325 126.95 22.425 126.5 23.775 126.5C24.875 126.5 25.875 126.65 26.775 126.95C27.725 127.25 28.725 127.4 29.775 127.4C30.875 127.4 32.025 127.1 33.225 126.5C34.475 125.9 35.525 124.975 36.375 123.725C37.225 122.425 37.65 120.775 37.65 118.775C37.65 116.575 37.025 115.1 35.775 114.35C34.575 113.6 32.95 113.225 30.9 113.225C28.05 113.225 25.475 114.225 23.175 116.225C20.875 118.225 18.875 121.05 17.175 124.7C15.475 128.35 14.1 132.65 13.05 137.6C12.05 142.55 11.375 147.95 11.025 153.8C10.825 157.6 10.325 160.2 9.525 161.6C8.725 162.95 7.525 163.625 5.925 163.625ZM77.3279 166.55C74.2279 166.55 71.7279 165.475 69.8279 163.325C67.9279 161.125 66.9779 157.6 66.9779 152.75C66.9779 149.65 67.3279 146.55 68.0279 143.45C68.7779 140.3 69.8029 137.325 71.1029 134.525C72.4529 131.675 74.0029 129.15 75.7529 126.95C77.5529 124.75 79.5279 123.025 81.6779 121.775C83.8279 120.475 86.0529 119.825 88.3529 119.825C92.2529 119.825 95.3029 120.875 97.5029 122.975C99.7029 125.075 100.803 127.75 100.803 131C100.803 133.5 100.103 135.775 98.7029 137.825C97.3529 139.825 95.5029 141.625 93.1529 143.225C90.8029 144.825 88.1779 146.275 85.2779 147.575C82.3779 148.875 79.4029 150.05 76.3529 151.1C76.1029 152.9 75.9779 154.5 75.9779 155.9C75.9779 156.75 76.4529 157.175 77.4029 157.175C79.6529 157.175 82.0529 156.825 84.6029 156.125C87.2029 155.375 89.8279 154.425 92.4779 153.275C95.1279 152.075 97.6779 150.85 100.128 149.6C102.578 148.3 104.803 147.075 106.803 145.925C108.853 144.725 110.528 143.775 111.828 143.075C113.178 142.325 114.053 141.95 114.453 141.95C115.553 141.95 116.353 142.275 116.853 142.925C117.353 143.575 117.603 144.275 117.603 145.025C117.603 145.375 116.928 146.15 115.578 147.35C114.278 148.55 112.478 149.975 110.178 151.625C107.928 153.225 105.378 154.9 102.528 156.65C99.7279 158.35 96.8029 159.975 93.7529 161.525C90.7529 163.025 87.8279 164.225 84.9779 165.125C82.1779 166.075 79.6279 166.55 77.3279 166.55ZM77.6279 144.425C79.6779 143.225 81.7029 141.975 83.7029 140.675C85.7529 139.325 87.4529 137.825 88.8029 136.175C90.1529 134.475 90.8279 132.5 90.8279 130.25C90.8279 129.6 90.6529 129.175 90.3029 128.975C89.9529 128.725 89.4529 128.6 88.8029 128.6C87.0529 128.6 85.4529 129.375 84.0029 130.925C82.6029 132.475 81.3529 134.475 80.2529 136.925C79.2029 139.325 78.3279 141.825 77.6279 144.425ZM144.526 123.875C147.276 117.325 149.701 110.575 151.801 103.625C152.201 102.225 152.776 101.15 153.526 100.4C154.326 99.65 155.426 99.275 156.826 99.275C157.976 99.275 158.851 99.625 159.451 100.325C160.051 100.975 160.351 101.875 160.351 103.025C160.351 103.975 159.951 105.675 159.151 108.125C158.351 110.525 157.376 113.575 156.226 117.275C155.076 120.975 153.926 125.25 152.776 130.1C151.626 134.95 150.651 140.275 149.851 146.075C149.051 151.875 148.651 158.075 148.651 164.675C148.651 166.475 148.301 167.95 147.601 169.1C146.951 170.3 145.801 170.9 144.151 170.9C142.351 170.9 141.026 170.275 140.176 169.025C139.376 167.775 138.976 166.175 138.976 164.225C138.976 160.375 139.101 157.175 139.351 154.625C139.651 152.025 139.951 149.8 140.251 147.95C137.801 152.15 135.201 155.775 132.451 158.825C129.751 161.825 127.151 164.125 124.651 165.725C122.151 167.375 120.001 168.2 118.201 168.2C115.251 168.2 112.851 167.375 111.001 165.725C109.151 164.075 108.226 161.575 108.226 158.225C108.226 155.625 108.851 152.95 110.101 150.2C111.351 147.4 113.001 144.65 115.051 141.95C117.101 139.25 119.351 136.725 121.801 134.375C124.301 131.975 126.801 129.875 129.301 128.075C131.801 126.225 134.126 124.775 136.276 123.725C138.426 122.675 140.176 122.15 141.526 122.15C143.026 122.15 144.026 122.725 144.526 123.875ZM142.801 127.925C142.501 128.125 142.176 128.325 141.826 128.525C141.526 128.675 141.226 128.85 140.926 129.05C139.026 130.25 137.001 131.7 134.851 133.4C132.701 135.05 130.576 136.9 128.476 138.95C126.376 140.95 124.451 143.05 122.701 145.25C121.001 147.4 119.626 149.55 118.576 151.7C117.576 153.8 117.076 155.825 117.076 157.775C117.076 158.125 117.226 158.375 117.526 158.525C117.826 158.675 118.101 158.75 118.351 158.75C120.101 158.75 121.976 157.975 123.976 156.425C126.026 154.875 128.101 152.725 130.201 149.975C132.351 147.175 134.476 143.9 136.576 140.15C138.726 136.4 140.801 132.325 142.801 127.925ZM174.594 166.55C171.494 166.55 168.994 165.475 167.094 163.325C165.194 161.125 164.244 157.6 164.244 152.75C164.244 149.65 164.594 146.55 165.294 143.45C166.044 140.3 167.069 137.325 168.369 134.525C169.719 131.675 171.269 129.15 173.019 126.95C174.819 124.75 176.794 123.025 178.944 121.775C181.094 120.475 183.319 119.825 185.619 119.825C189.519 119.825 192.569 120.875 194.769 122.975C196.969 125.075 198.069 127.75 198.069 131C198.069 133.5 197.369 135.775 195.969 137.825C194.619 139.825 192.769 141.625 190.419 143.225C188.069 144.825 185.444 146.275 182.544 147.575C179.644 148.875 176.669 150.05 173.619 151.1C173.369 152.9 173.244 154.5 173.244 155.9C173.244 156.75 173.719 157.175 174.669 157.175C176.919 157.175 179.319 156.825 181.869 156.125C184.469 155.375 187.094 154.425 189.744 153.275C192.394 152.075 194.944 150.85 197.394 149.6C199.844 148.3 202.069 147.075 204.069 145.925C206.119 144.725 207.794 143.775 209.094 143.075C210.444 142.325 211.319 141.95 211.719 141.95C212.819 141.95 213.619 142.275 214.119 142.925C214.619 143.575 214.869 144.275 214.869 145.025C214.869 145.375 214.194 146.15 212.844 147.35C211.544 148.55 209.744 149.975 207.444 151.625C205.194 153.225 202.644 154.9 199.794 156.65C196.994 158.35 194.069 159.975 191.019 161.525C188.019 163.025 185.094 164.225 182.244 165.125C179.444 166.075 176.894 166.55 174.594 166.55ZM174.894 144.425C176.944 143.225 178.969 141.975 180.969 140.675C183.019 139.325 184.719 137.825 186.069 136.175C187.419 134.475 188.094 132.5 188.094 130.25C188.094 129.6 187.919 129.175 187.569 128.975C187.219 128.725 186.719 128.6 186.069 128.6C184.319 128.6 182.719 129.375 181.269 130.925C179.869 132.475 178.619 134.475 177.519 136.925C176.469 139.325 175.594 141.825 174.894 144.425ZM217.295 167.825C215.145 167.825 213.62 167.525 212.72 166.925C211.87 166.325 211.445 165.45 211.445 164.3C211.445 163.3 211.795 162.45 212.495 161.75C213.195 161 214.745 160.25 217.145 159.5C219.945 158.65 222.595 157.675 225.095 156.575C227.645 155.425 229.72 154.175 231.32 152.825C232.97 151.475 233.795 150.05 233.795 148.55C233.795 147.55 233.445 146.825 232.745 146.375C232.095 145.925 231.32 145.7 230.42 145.7C229.67 145.7 228.57 145.825 227.12 146.075C225.72 146.275 224.17 146.55 222.47 146.9C220.77 147.2 219.12 147.475 217.52 147.725C215.97 147.925 214.645 148.025 213.545 148.025C210.945 148.025 209.02 147.45 207.77 146.3C206.52 145.1 205.895 143.575 205.895 141.725C205.895 140.725 206.42 139.35 207.47 137.6C208.52 135.85 209.92 133.925 211.67 131.825C213.42 129.725 215.37 127.625 217.52 125.525C219.67 123.425 221.845 121.5 224.045 119.75C226.295 117.95 228.42 116.525 230.42 115.475C232.42 114.375 234.12 113.825 235.52 113.825C237.12 113.825 238.395 114.325 239.345 115.325C240.345 116.325 240.845 117.675 240.845 119.375C240.845 120.175 240.77 121.05 240.62 122C240.47 122.9 240.095 123.725 239.495 124.475C238.895 125.175 237.97 125.675 236.72 125.975C235.47 126.275 233.77 126.225 231.62 125.825C229.92 127.075 228.145 128.45 226.295 129.95C224.495 131.4 222.795 132.925 221.195 134.525C219.595 136.075 218.27 137.6 217.22 139.1C219.07 138.5 221.17 138.025 223.52 137.675C225.87 137.275 228.245 137.075 230.645 137.075C233.545 137.075 235.895 137.6 237.695 138.65C239.545 139.65 240.895 141 241.745 142.7C242.645 144.4 243.095 146.275 243.095 148.325C243.095 150.625 242.345 152.925 240.845 155.225C239.345 157.525 237.345 159.625 234.845 161.525C232.345 163.425 229.57 164.95 226.52 166.1C223.47 167.25 220.395 167.825 217.295 167.825ZM255.467 165.125C254.067 165.125 252.817 164.65 251.717 163.7C250.667 162.75 250.142 161.2 250.142 159.05C250.142 157.9 250.292 156.275 250.592 154.175C250.942 152.075 251.392 149.8 251.942 147.35C252.492 144.85 253.092 142.375 253.742 139.925C254.442 137.475 255.117 135.3 255.767 133.4C256.417 131.45 256.992 130 257.492 129.05C258.142 127.9 258.742 127.2 259.292 126.95C259.892 126.65 260.467 126.5 261.017 126.5C262.017 126.5 262.942 126.8 263.792 127.4C264.692 128 265.142 129.325 265.142 131.375C265.142 132.175 264.992 133.475 264.692 135.275C264.392 137.025 264.017 139.075 263.567 141.425C263.117 143.775 262.617 146.2 262.067 148.7C261.567 151.2 261.067 153.575 260.567 155.825C260.117 158.025 259.742 159.875 259.442 161.375C259.192 162.625 258.667 163.55 257.867 164.15C257.117 164.8 256.317 165.125 255.467 165.125ZM264.092 119.075C262.442 119.075 260.917 118.6 259.517 117.65C258.117 116.65 257.417 115.125 257.417 113.075C257.417 111.375 257.842 110 258.692 108.95C259.542 107.9 260.542 107.15 261.692 106.7C262.892 106.2 263.942 105.95 264.842 105.95C265.742 105.95 266.742 106.15 267.842 106.55C268.942 106.9 269.892 107.575 270.692 108.575C271.542 109.525 271.967 110.9 271.967 112.7C271.967 113.9 271.542 115 270.692 116C269.842 116.95 268.792 117.7 267.542 118.25C266.342 118.8 265.192 119.075 264.092 119.075ZM280.973 185.6C277.223 185.6 274.373 185.325 272.423 184.775C270.523 184.225 269.223 183.5 268.523 182.6C267.823 181.75 267.473 180.875 267.473 179.975C267.473 178.725 267.873 177.7 268.673 176.9C269.523 176.1 270.623 175.7 271.973 175.7C272.873 175.7 274.173 175.825 275.873 176.075C277.573 176.325 279.273 176.45 280.973 176.45C285.973 176.45 290.098 175.25 293.348 172.85C296.598 170.5 299.148 166.925 300.998 162.125C302.848 157.275 304.123 151.175 304.823 143.825C301.373 149.475 297.548 154 293.348 157.4C289.198 160.8 284.873 162.5 280.373 162.5C275.073 162.5 272.423 159.9 272.423 154.7C272.423 152.2 273.098 149.575 274.448 146.825C275.798 144.075 277.598 141.35 279.848 138.65C282.098 135.95 284.573 133.4 287.273 131C289.973 128.55 292.673 126.4 295.373 124.55C298.123 122.7 300.673 121.25 303.023 120.2C305.373 119.1 307.273 118.55 308.723 118.55C309.873 118.55 310.873 118.75 311.723 119.15C312.623 119.55 313.323 120.35 313.823 121.55C314.323 122.7 314.573 124.4 314.573 126.65C314.573 132.9 314.348 138.95 313.898 144.8C313.448 150.6 312.573 155.975 311.273 160.925C309.973 165.875 308.073 170.2 305.573 173.9C303.123 177.6 299.898 180.475 295.898 182.525C291.898 184.575 286.923 185.6 280.973 185.6ZM282.023 153.2C282.023 153.55 282.173 153.725 282.473 153.725C283.473 153.725 284.823 153.2 286.523 152.15C288.223 151.05 290.048 149.6 291.998 147.8C293.998 145.95 295.948 143.9 297.848 141.65C299.748 139.35 301.423 136.975 302.873 134.525C304.373 132.075 305.448 129.7 306.098 127.4C303.498 128.9 300.798 130.65 297.998 132.65C295.248 134.6 292.648 136.7 290.198 138.95C287.798 141.2 285.823 143.55 284.273 146C282.773 148.4 282.023 150.8 282.023 153.2ZM334.648 164C333.448 164 332.248 163.6 331.048 162.8C329.898 161.95 328.948 160.75 328.198 159.2C327.448 157.6 327.073 155.675 327.073 153.425C327.073 150.425 327.473 147.225 328.273 143.825C329.123 140.425 330.148 137.025 331.348 133.625C332.548 130.225 333.723 127.025 334.873 124.025C335.423 122.575 336.098 121.6 336.898 121.1C337.698 120.55 338.748 120.275 340.048 120.275C342.998 120.275 344.473 121.75 344.473 124.7C344.473 125.2 344.248 126.175 343.798 127.625C343.348 129.025 342.748 130.75 341.998 132.8C341.298 134.85 340.548 137.075 339.748 139.475C338.998 141.825 338.298 144.225 337.648 146.675C337.048 149.075 336.573 151.35 336.223 153.5C337.373 151.75 338.648 149.575 340.048 146.975C341.498 144.325 343.023 141.55 344.623 138.65C346.273 135.75 347.923 133.05 349.573 130.55C351.223 128 352.848 125.925 354.448 124.325C356.048 122.725 357.573 121.925 359.023 121.925C360.273 121.925 361.448 122.175 362.548 122.675C363.698 123.125 364.698 124.025 365.548 125.375C366.398 126.675 367.048 128.55 367.498 131C367.998 133.45 368.248 136.675 368.248 140.675C368.248 142.675 368.423 144.625 368.773 146.525C369.173 148.375 369.823 149.925 370.723 151.175C371.623 152.375 372.898 152.975 374.548 152.975C377.398 152.975 379.948 152.45 382.198 151.4C384.448 150.35 386.423 149.125 388.123 147.725C389.823 146.325 391.248 145.1 392.398 144.05C393.098 143.35 393.698 142.8 394.198 142.4C394.748 142 395.198 141.8 395.548 141.8C396.598 141.8 397.348 142.075 397.798 142.625C398.298 143.175 398.548 143.925 398.548 144.875C398.548 145.375 398.123 146.3 397.273 147.65C396.423 149 395.223 150.55 393.673 152.3C392.173 154 390.448 155.65 388.498 157.25C386.548 158.85 384.448 160.175 382.198 161.225C379.948 162.275 377.648 162.8 375.298 162.8C371.348 162.8 368.073 162.1 365.473 160.7C362.923 159.25 361.023 156.85 359.773 153.5C358.523 150.1 357.898 145.475 357.898 139.625C357.898 139.475 357.898 139.225 357.898 138.875C357.898 137.325 357.873 135.95 357.823 134.75C357.823 133.55 357.748 132.575 357.598 131.825C356.748 133.375 355.723 135.225 354.523 137.375C353.373 139.525 352.123 141.825 350.773 144.275C349.423 146.675 348.023 149.05 346.573 151.4C345.123 153.7 343.673 155.8 342.223 157.7C340.823 159.6 339.473 161.125 338.173 162.275C336.873 163.425 335.698 164 334.648 164Z" fill="#DF6C89"/>
</svg>
