<svg width="1399" height="92" viewBox="0 0 1399 92" fill="none" xmlns="http://www.w3.org/2000/svg">
<path d="M6.8 72.925C4.8 72.925 3.3 72.375 2.3 71.275C1.3 70.175 0.8 69.05 0.8 67.9C0.8 66.55 1.05 65.525 1.55 64.825C2.05 64.125 3.025 63.6 4.475 63.25C6.375 62.85 8.35 62.35 10.4 61.75C12.5 61.15 14.5 60.525 16.4 59.875C18.35 59.175 20.05 58.475 21.5 57.775C22.95 57.025 24 56.325 24.65 55.675C23.85 55.225 22.575 54.7 20.825 54.1C19.075 53.45 17.125 52.7 14.975 51.85C12.875 50.95 10.85 49.9 8.9 48.7C6.95 47.5 5.35 46.1 4.1 44.5C2.85 42.9 2.225 41.075 2.225 39.025C2.225 36.175 2.95 33.5 4.4 31C5.85 28.5 7.775 26.175 10.175 24.025C12.575 21.875 15.175 19.9 17.975 18.1C20.825 16.3 23.65 14.675 26.45 13.225C29.3 11.725 31.85 10.4 34.1 9.25C34.95 8.75 35.75 8.425 36.5 8.275C37.3 8.075 38.025 7.975 38.675 7.975C40.925 7.975 42.475 8.525 43.325 9.62499C44.175 10.725 44.6 11.85 44.6 13C44.6 13.8 44.225 14.75 43.475 15.85C42.725 16.9 41.525 17.875 39.875 18.775C38.275 19.675 36.15 20.325 33.5 20.725C33.05 20.775 32.65 20.825 32.3 20.875C30.3 21.875 28.15 23.075 25.85 24.475C23.55 25.875 21.375 27.35 19.325 28.9C17.325 30.4 15.675 31.9 14.375 33.4C13.075 34.9 12.425 36.25 12.425 37.45C12.425 38.8 12.975 40.025 14.075 41.125C15.175 42.175 16.575 43.15 18.275 44.05C20.025 44.9 21.85 45.725 23.75 46.525C25.7 47.325 27.525 48.15 29.225 49C30.975 49.8 32.4 50.7 33.5 51.7C34.6 52.7 35.15 53.825 35.15 55.075C35.15 56.775 34.575 58.4 33.425 59.95C32.275 61.5 30.775 62.95 28.925 64.3C27.075 65.6 25.05 66.775 22.85 67.825C20.65 68.875 18.475 69.775 16.325 70.525C14.225 71.325 12.325 71.925 10.625 72.325C8.925 72.725 7.65 72.925 6.8 72.925ZM53.7805 71.125C52.3805 71.125 51.1305 70.65 50.0305 69.7C48.9805 68.75 48.4555 67.2 48.4555 65.05C48.4555 63.9 48.6055 62.275 48.9055 60.175C49.2555 58.075 49.7055 55.8 50.2555 53.35C50.8055 50.85 51.4055 48.375 52.0555 45.925C52.7555 43.475 53.4305 41.3 54.0805 39.4C54.7305 37.45 55.3055 36 55.8055 35.05C56.4555 33.9 57.0555 33.2 57.6055 32.95C58.2055 32.65 58.7805 32.5 59.3305 32.5C60.3305 32.5 61.2555 32.8 62.1055 33.4C63.0055 34 63.4555 35.325 63.4555 37.375C63.4555 38.175 63.3055 39.475 63.0055 41.275C62.7055 43.025 62.3305 45.075 61.8805 47.425C61.4305 49.775 60.9305 52.2 60.3805 54.7C59.8805 57.2 59.3805 59.575 58.8805 61.825C58.4305 64.025 58.0555 65.875 57.7555 67.375C57.5055 68.625 56.9805 69.55 56.1805 70.15C55.4305 70.8 54.6305 71.125 53.7805 71.125ZM62.4055 25.075C60.7555 25.075 59.2305 24.6 57.8305 23.65C56.4305 22.65 55.7305 21.125 55.7305 19.075C55.7305 17.375 56.1555 16 57.0055 14.95C57.8555 13.9 58.8555 13.15 60.0055 12.7C61.2055 12.2 62.2555 11.95 63.1555 11.95C64.0555 11.95 65.0555 12.15 66.1555 12.55C67.2555 12.9 68.2055 13.575 69.0055 14.575C69.8555 15.525 70.2805 16.9 70.2805 18.7C70.2805 19.9 69.8555 21 69.0055 22C68.1555 22.95 67.1055 23.7 65.8555 24.25C64.6555 24.8 63.5055 25.075 62.4055 25.075ZM140.769 68.275C140.469 70.975 138.869 72.325 135.969 72.325C134.469 72.325 133.269 71.875 132.369 70.975C131.519 70.075 131.094 68.775 131.094 67.075C131.094 64.175 131.219 61.075 131.469 57.775C131.769 54.425 132.119 51.05 132.519 47.65C132.969 44.25 133.394 41 133.794 37.9C131.994 40.5 130.094 43.175 128.094 45.925C126.094 48.675 124.094 51.35 122.094 53.95C120.094 56.55 118.169 58.9 116.319 61C114.519 63.05 112.869 64.7 111.369 65.95C109.869 67.15 108.619 67.75 107.619 67.75C105.219 67.75 103.144 66.875 101.394 65.125C99.6443 63.325 98.7693 61.05 98.7693 58.3C98.7693 57.35 98.8693 56.075 99.0693 54.475C99.2693 52.825 99.5193 51.075 99.8193 49.225C100.119 47.375 100.369 45.625 100.569 43.975C100.769 42.325 100.869 41.025 100.869 40.075C100.869 40.075 100.869 40.025 100.869 39.925C100.919 39.675 100.869 39.55 100.719 39.55C100.519 39.55 99.9693 40.225 99.0693 41.575C98.1693 42.875 97.0693 44.575 95.7693 46.675C94.4693 48.775 93.0943 50.975 91.6443 53.275C90.2443 55.575 88.9193 57.725 87.6693 59.725C86.4693 61.725 85.4693 63.275 84.6693 64.375C83.5693 66.075 82.5443 67.15 81.5943 67.6C80.6443 68.05 79.5443 68.275 78.2943 68.275C76.5443 68.275 75.1693 67.7 74.1693 66.55C73.2193 65.35 72.7443 63.675 72.7443 61.525C72.7443 60.625 72.8943 59.225 73.1943 57.325C73.5443 55.425 73.9693 53.325 74.4693 51.025C74.9693 48.675 75.4693 46.4 75.9693 44.2C76.5193 41.95 76.9943 40.05 77.3943 38.5C77.8443 36.45 78.4693 35.025 79.2693 34.225C80.1193 33.375 81.1943 32.95 82.4943 32.95C85.5443 32.95 87.0693 34.45 87.0693 37.45C87.0693 38 86.8943 38.9 86.5443 40.15C86.1943 41.4 85.7693 42.85 85.2693 44.5C84.7693 46.15 84.2443 47.85 83.6943 49.6C83.1443 51.3 82.6943 52.9 82.3443 54.4C83.5443 52.3 84.8443 50.05 86.2443 47.65C87.6443 45.25 89.0693 42.9 90.5193 40.6C92.0193 38.3 93.4943 36.2 94.9443 34.3C96.4443 32.4 97.9193 30.9 99.3693 29.8C100.819 28.65 102.194 28.075 103.494 28.075C104.794 28.075 106.069 28.55 107.319 29.5C108.569 30.4 109.594 31.575 110.394 33.025C111.244 34.425 111.669 35.925 111.669 37.525C111.669 39.025 111.469 40.825 111.069 42.925C110.669 45.025 110.219 47.225 109.719 49.525C109.219 51.825 108.869 54.075 108.669 56.275C110.369 54.375 112.169 52.225 114.069 49.825C115.969 47.375 117.919 44.85 119.919 42.25C121.919 39.65 123.869 37.125 125.769 34.675C127.719 32.225 129.519 30 131.169 28C132.869 26 134.369 24.425 135.669 23.275C136.969 22.075 137.969 21.475 138.669 21.475C140.719 21.475 142.319 22.025 143.469 23.125C144.669 24.175 145.269 26.025 145.269 28.675C145.269 30.325 145.144 32.475 144.894 35.125C144.694 37.775 144.394 40.65 143.994 43.75C143.644 46.8 143.244 49.9 142.794 53.05C142.394 56.15 142.019 59.025 141.669 61.675C141.319 64.325 141.019 66.525 140.769 68.275ZM206.243 73.825C204.293 73.825 202.868 73.3 201.968 72.25C201.068 71.25 200.618 69.225 200.618 66.175C200.618 63.575 201.043 60.2 201.893 56.05C202.743 51.9 203.693 47.425 204.743 42.625C199.193 48.825 192.793 52.775 185.543 54.475C184.093 57.475 182.393 60.225 180.443 62.725C178.493 65.225 176.368 67.25 174.068 68.8C171.818 70.3 169.468 71.05 167.018 71.05C163.968 71.05 161.343 70.05 159.143 68.05C156.993 66.05 155.918 62.975 155.918 58.825C155.918 56.025 156.343 53.65 157.193 51.7C158.043 49.7 159.018 48.2 160.118 47.2C159.218 45.3 158.768 43.125 158.768 40.675C158.768 37.375 159.668 34.45 161.468 31.9C163.268 29.35 165.643 27.35 168.593 25.9C171.593 24.45 174.843 23.725 178.343 23.725C180.293 23.725 182.143 24.225 183.893 25.225C185.693 26.175 187.143 27.65 188.243 29.65C189.393 31.6 189.968 34.075 189.968 37.075C189.968 39.575 189.593 42.325 188.843 45.325C192.393 43.225 195.893 40.35 199.343 36.7C202.843 33.05 205.968 28.95 208.718 24.4C209.568 23.05 210.768 22.375 212.318 22.375C213.618 22.375 214.643 22.775 215.393 23.575C216.193 24.325 216.593 25.325 216.593 26.575C216.593 26.825 216.443 27.65 216.143 29.05C215.843 30.45 215.443 32.275 214.943 34.525C214.443 36.725 213.893 39.15 213.293 41.8C212.743 44.45 212.193 47.15 211.643 49.9C211.093 52.65 210.593 55.25 210.143 57.7C211.443 55.35 212.843 52.85 214.343 50.2C215.893 47.5 217.493 44.85 219.143 42.25C220.793 39.6 222.418 37.2 224.018 35.05C225.618 32.9 227.093 31.2 228.443 29.95C229.793 28.65 230.943 28 231.893 28C233.793 28 235.393 28.55 236.693 29.65C237.993 30.75 238.643 31.875 238.643 33.025C238.643 34.175 238.518 35.95 238.268 38.35C238.018 40.75 237.693 43.45 237.293 46.45C236.943 49.4 236.568 52.375 236.168 55.375C235.768 58.375 235.443 61.1 235.193 63.55C234.943 65.95 234.818 67.75 234.818 68.95C234.818 69.95 234.343 70.9 233.393 71.8C232.443 72.7 231.368 73.15 230.168 73.15C230.068 73.15 229.893 73.15 229.643 73.15C229.043 73.2 228.493 73.1 227.993 72.85C227.493 72.65 227.068 71.9 226.718 70.6C226.418 69.3 226.268 67.1 226.268 64C226.268 61.9 226.368 59.6 226.568 57.1C226.768 54.6 227.018 52.1 227.318 49.6C227.668 47.05 228.043 44.675 228.443 42.475C227.143 44.625 225.693 47.075 224.093 49.825C222.543 52.525 220.918 55.3 219.218 58.15C217.518 60.95 215.843 63.55 214.193 65.95C212.593 68.3 211.093 70.2 209.693 71.65C208.343 73.1 207.193 73.825 206.243 73.825ZM178.043 48.775C178.693 46.825 179.218 44.8 179.618 42.7C180.018 40.55 180.218 38.45 180.218 36.4C180.218 35.55 180.043 34.725 179.693 33.925C179.343 33.125 178.743 32.725 177.893 32.725C176.193 32.725 174.518 33.075 172.868 33.775C171.268 34.475 169.943 35.475 168.893 36.775C167.843 38.075 167.318 39.625 167.318 41.425C167.318 43.025 167.843 44.375 168.893 45.475C169.993 46.575 171.343 47.4 172.943 47.95C174.593 48.5 176.218 48.775 177.818 48.775C177.868 48.775 177.943 48.775 178.043 48.775ZM174.968 55.375C173.218 55.325 171.518 55.1 169.868 54.7C168.218 54.25 166.718 53.625 165.368 52.825C165.218 53.625 165.068 54.4 164.918 55.15C164.768 55.85 164.693 56.525 164.693 57.175C164.693 58.275 164.868 59.275 165.218 60.175C165.618 61.025 166.418 61.45 167.618 61.45C168.868 61.45 170.118 60.9 171.368 59.8C172.668 58.7 173.868 57.225 174.968 55.375ZM263.093 72.55C259.993 72.55 257.493 71.475 255.593 69.325C253.693 67.125 252.743 63.6 252.743 58.75C252.743 55.65 253.093 52.55 253.793 49.45C254.543 46.3 255.568 43.325 256.868 40.525C258.218 37.675 259.768 35.15 261.518 32.95C263.318 30.75 265.293 29.025 267.443 27.775C269.593 26.475 271.818 25.825 274.118 25.825C278.018 25.825 281.068 26.875 283.268 28.975C285.468 31.075 286.568 33.75 286.568 37C286.568 39.5 285.868 41.775 284.468 43.825C283.118 45.825 281.268 47.625 278.918 49.225C276.568 50.825 273.943 52.275 271.043 53.575C268.143 54.875 265.168 56.05 262.118 57.1C261.868 58.9 261.743 60.5 261.743 61.9C261.743 62.75 262.218 63.175 263.168 63.175C265.418 63.175 267.818 62.825 270.368 62.125C272.968 61.375 275.593 60.425 278.243 59.275C280.893 58.075 283.443 56.85 285.893 55.6C288.343 54.3 290.568 53.075 292.568 51.925C294.618 50.725 296.293 49.775 297.593 49.075C298.943 48.325 299.818 47.95 300.218 47.95C301.318 47.95 302.118 48.275 302.618 48.925C303.118 49.575 303.368 50.275 303.368 51.025C303.368 51.375 302.693 52.15 301.343 53.35C300.043 54.55 298.243 55.975 295.943 57.625C293.693 59.225 291.143 60.9 288.293 62.65C285.493 64.35 282.568 65.975 279.518 67.525C276.518 69.025 273.593 70.225 270.743 71.125C267.943 72.075 265.393 72.55 263.093 72.55ZM263.393 50.425C265.443 49.225 267.468 47.975 269.468 46.675C271.518 45.325 273.218 43.825 274.568 42.175C275.918 40.475 276.593 38.5 276.593 36.25C276.593 35.6 276.418 35.175 276.068 34.975C275.718 34.725 275.218 34.6 274.568 34.6C272.818 34.6 271.218 35.375 269.768 36.925C268.368 38.475 267.118 40.475 266.018 42.925C264.968 45.325 264.093 47.825 263.393 50.425Z" fill="#8A7DBB"/>
<path d="M338.697 70.3C335.547 70.3 333.247 69.35 331.797 67.45C330.397 65.5 329.697 63.025 329.697 60.025C329.697 57.175 330.322 54.425 331.572 51.775C332.822 49.075 334.497 46.5 336.597 44.05C338.697 41.6 341.047 39.325 343.647 37.225C346.247 35.075 348.872 33.15 351.522 31.45C354.222 29.7 356.797 28.225 359.247 27.025C361.697 25.775 363.822 24.825 365.622 24.175C367.422 23.525 368.722 23.2 369.522 23.2C370.372 23.2 371.072 23.425 371.622 23.875C372.222 24.275 372.522 25.075 372.522 26.275C372.522 27.525 372.022 28.65 371.022 29.65C370.022 30.65 368.797 31.5 367.347 32.2C365.297 33.2 362.972 34.425 360.372 35.875C357.822 37.275 355.247 38.875 352.647 40.675C350.047 42.475 347.647 44.4 345.447 46.45C343.297 48.5 341.547 50.65 340.197 52.9C338.847 55.1 338.172 57.35 338.172 59.65C338.172 60.15 338.272 60.55 338.472 60.85C338.672 61.15 339.097 61.3 339.747 61.3C340.597 61.3 341.722 60.9 343.122 60.1C344.522 59.25 346.047 58.15 347.697 56.8C349.347 55.4 350.997 53.875 352.647 52.225C354.297 50.525 355.822 48.825 357.222 47.125C358.672 45.375 359.872 43.75 360.822 42.25C361.522 41.1 362.347 40.15 363.297 39.4C364.297 38.65 365.322 38.275 366.372 38.275C367.222 38.275 367.922 38.525 368.472 39.025C369.072 39.475 369.372 40.3 369.372 41.5C369.372 41.9 369.347 42.85 369.297 44.35C369.247 45.8 369.172 47.575 369.072 49.675C369.022 51.725 368.997 53.875 368.997 56.125C368.997 58.075 369.172 59.775 369.522 61.225C369.922 62.625 370.747 63.325 371.997 63.325C373.497 63.325 375.047 62.8 376.647 61.75C378.247 60.65 379.797 59.275 381.297 57.625C382.847 55.925 384.272 54.125 385.572 52.225C386.872 50.325 387.972 48.525 388.872 46.825C389.822 45.075 390.497 43.675 390.897 42.625C391.547 38.225 392.397 34.775 393.447 32.275C394.497 29.725 395.647 27.925 396.897 26.875C398.197 25.825 399.447 25.3 400.647 25.3C401.997 25.3 403.122 25.625 404.022 26.275C404.972 26.925 405.447 28.45 405.447 30.85C405.447 32.1 404.922 33.975 403.872 36.475C402.822 38.975 401.422 41.725 399.672 44.725C399.272 46.975 399.022 49.3 398.922 51.7C398.822 54.1 398.972 56.35 399.372 58.45C400.722 57.5 402.097 56.1 403.497 54.25C404.897 52.35 406.297 50.25 407.697 47.95C409.097 45.6 410.497 43.25 411.897 40.9C413.297 38.5 414.672 36.3 416.022 34.3C417.422 32.3 418.772 30.7 420.072 29.5C421.422 28.25 422.747 27.625 424.047 27.625C425.397 27.625 426.622 27.875 427.722 28.375C428.872 28.825 429.822 29.725 430.572 31.075C431.372 32.375 431.972 34.25 432.372 36.7C432.822 39.1 433.047 42.25 433.047 46.15C433.047 48.2 433.247 50.2 433.647 52.15C434.047 54.05 434.722 55.625 435.672 56.875C436.622 58.075 437.947 58.675 439.647 58.675C442.397 58.675 444.847 58.225 446.997 57.325C449.147 56.375 451.022 55.275 452.622 54.025C454.222 52.775 455.547 51.7 456.597 50.8C457.697 49.85 458.547 49.375 459.147 49.375C460.147 49.375 460.897 49.675 461.397 50.275C461.947 50.825 462.222 51.525 462.222 52.375C462.222 52.875 461.797 53.75 460.947 55C460.147 56.2 459.022 57.55 457.572 59.05C456.172 60.5 454.522 61.925 452.622 63.325C450.772 64.675 448.797 65.8 446.697 66.7C444.597 67.6 442.472 68.05 440.322 68.05C436.422 68.05 433.197 67.35 430.647 65.95C428.147 64.5 426.272 62.1 425.022 58.75C423.822 55.35 423.222 50.775 423.222 45.025C423.222 44.675 423.222 44.35 423.222 44.05C423.222 43.75 423.222 43.45 423.222 43.15C423.222 41.9 423.197 40.825 423.147 39.925C423.147 39.025 423.022 38.325 422.772 37.825C421.972 39.175 420.997 40.875 419.847 42.925C418.747 44.975 417.522 47.175 416.172 49.525C414.822 51.875 413.372 54.2 411.822 56.5C410.322 58.8 408.797 60.9 407.247 62.8C405.697 64.7 404.147 66.225 402.597 67.375C401.097 68.525 399.672 69.1 398.322 69.1C397.322 69.1 396.222 68.6 395.022 67.6C393.872 66.6 392.897 65.25 392.097 63.55C391.297 61.8 390.897 59.825 390.897 57.625C388.747 60.325 386.522 62.8 384.222 65.05C381.922 67.25 379.647 69 377.397 70.3C375.197 71.65 373.097 72.325 371.097 72.325C369.447 72.325 367.847 71.85 366.297 70.9C364.797 69.95 363.497 68.25 362.397 65.8C361.297 63.35 360.597 59.875 360.297 55.375C357.947 58.325 355.497 60.925 352.947 63.175C350.447 65.425 347.972 67.175 345.522 68.425C343.122 69.675 340.847 70.3 338.697 70.3ZM487.469 29.875C490.219 23.325 492.644 16.575 494.744 9.62499C495.144 8.225 495.719 7.15 496.469 6.4C497.269 5.65 498.369 5.275 499.769 5.275C500.919 5.275 501.794 5.625 502.394 6.325C502.994 6.975 503.294 7.875 503.294 9.025C503.294 9.975 502.894 11.675 502.094 14.125C501.294 16.525 500.319 19.575 499.169 23.275C498.019 26.975 496.869 31.25 495.719 36.1C494.569 40.95 493.594 46.275 492.794 52.075C491.994 57.875 491.594 64.075 491.594 70.675C491.594 72.475 491.244 73.95 490.544 75.1C489.894 76.3 488.744 76.9 487.094 76.9C485.294 76.9 483.969 76.275 483.119 75.025C482.319 73.775 481.919 72.175 481.919 70.225C481.919 66.375 482.044 63.175 482.294 60.625C482.594 58.025 482.894 55.8 483.194 53.95C480.744 58.15 478.144 61.775 475.394 64.825C472.694 67.825 470.094 70.125 467.594 71.725C465.094 73.375 462.944 74.2 461.144 74.2C458.194 74.2 455.794 73.375 453.944 71.725C452.094 70.075 451.169 67.575 451.169 64.225C451.169 61.625 451.794 58.95 453.044 56.2C454.294 53.4 455.944 50.65 457.994 47.95C460.044 45.25 462.294 42.725 464.744 40.375C467.244 37.975 469.744 35.875 472.244 34.075C474.744 32.225 477.069 30.775 479.219 29.725C481.369 28.675 483.119 28.15 484.469 28.15C485.969 28.15 486.969 28.725 487.469 29.875ZM485.744 33.925C485.444 34.125 485.119 34.325 484.769 34.525C484.469 34.675 484.169 34.85 483.869 35.05C481.969 36.25 479.944 37.7 477.794 39.4C475.644 41.05 473.519 42.9 471.419 44.95C469.319 46.95 467.394 49.05 465.644 51.25C463.944 53.4 462.569 55.55 461.519 57.7C460.519 59.8 460.019 61.825 460.019 63.775C460.019 64.125 460.169 64.375 460.469 64.525C460.769 64.675 461.044 64.75 461.294 64.75C463.044 64.75 464.919 63.975 466.919 62.425C468.969 60.875 471.044 58.725 473.144 55.975C475.294 53.175 477.419 49.9 479.519 46.15C481.669 42.4 483.744 38.325 485.744 33.925ZM549.723 75.85C547.423 75.85 545.773 75.2 544.773 73.9C543.773 72.6 543.273 70.7 543.273 68.2C543.273 65.9 543.698 62.9 544.548 59.2C545.448 55.45 546.623 51.275 548.073 46.675C549.573 42.025 551.248 37.25 553.098 32.35C554.948 27.4 556.873 22.55 558.873 17.8C560.873 13 562.823 8.6 564.723 4.6C565.623 2.85 566.573 1.65 567.573 0.999999C568.573 0.349998 569.673 0.0249979 570.873 0.0249979C572.023 0.0249979 572.998 0.349998 573.798 0.999999C574.598 1.6 574.998 2.575 574.998 3.925C574.998 4.225 574.598 5.375 573.798 7.375C572.998 9.325 571.948 11.875 570.648 15.025C569.348 18.125 567.923 21.625 566.373 25.525C564.823 29.375 563.273 33.4 561.723 37.6C560.173 41.75 558.773 45.85 557.523 49.9C556.273 53.95 555.273 57.7 554.523 61.15C556.273 58.8 558.148 56.2 560.148 53.35C562.198 50.45 564.273 47.575 566.373 44.725C568.523 41.825 570.623 39.175 572.673 36.775C574.773 34.375 576.723 32.45 578.523 31C580.323 29.55 581.898 28.825 583.248 28.825C585.748 28.825 587.748 29.525 589.248 30.925C590.798 32.275 591.573 34.625 591.573 37.975C591.573 39.525 591.273 41.4 590.673 43.6C590.073 45.75 589.348 48.025 588.498 50.425C587.698 52.775 586.998 55.05 586.398 57.25C585.798 59.45 585.498 61.375 585.498 63.025C585.498 63.925 585.923 64.375 586.773 64.375C589.223 64.375 591.698 63.85 594.198 62.8C596.748 61.75 599.173 60.45 601.473 58.9C603.823 57.3 605.948 55.725 607.848 54.175C609.798 52.575 611.373 51.25 612.573 50.2C613.423 49.4 614.198 48.875 614.898 48.625C615.598 48.325 616.248 48.175 616.848 48.175C618.898 48.175 619.923 49.2 619.923 51.25C619.923 51.65 619.848 52.15 619.698 52.75C619.548 53.3 619.073 54 618.273 54.85C617.473 55.7 616.273 56.9 614.673 58.45C613.073 60 611.198 61.65 609.048 63.4C606.948 65.15 604.648 66.825 602.148 68.425C599.698 69.975 597.173 71.25 594.573 72.25C591.973 73.25 589.448 73.75 586.998 73.75C583.298 73.75 580.448 72.7 578.448 70.6C576.448 68.55 575.448 65.75 575.448 62.2C575.448 59.75 575.948 56.675 576.948 52.975C577.948 49.225 579.073 45.4 580.323 41.5C578.573 43.2 576.748 45.225 574.848 47.575C572.948 49.875 571.023 52.325 569.073 54.925C567.123 57.475 565.198 60 563.298 62.5C561.448 64.95 559.673 67.2 557.973 69.25C556.273 71.25 554.723 72.85 553.323 74.05C551.923 75.25 550.723 75.85 549.723 75.85ZM646.159 37.525C646.159 40.775 644.309 44 640.609 47.2C636.959 50.35 631.284 53.15 623.584 55.6C623.584 55.65 623.584 55.725 623.584 55.825C623.584 57.475 623.784 58.8 624.184 59.8C624.584 60.75 625.459 61.225 626.809 61.225C628.809 61.225 631.034 60.625 633.484 59.425C635.984 58.175 638.559 56.6 641.209 54.7C643.909 52.75 646.534 50.7 649.084 48.55C651.634 46.4 653.984 44.375 656.134 42.475C658.334 40.525 660.184 38.95 661.684 37.75C663.234 36.5 664.259 35.875 664.759 35.875C665.809 35.875 666.684 36.275 667.384 37.075C668.134 37.875 668.509 39.075 668.509 40.675C668.509 41.575 668.459 42.65 668.359 43.9C670.559 40.1 673.109 36.975 676.009 34.525C678.909 32.025 681.759 30.175 684.559 28.975C687.409 27.725 689.834 27.1 691.834 27.1C694.084 27.1 695.609 27.55 696.409 28.45C697.209 29.3 697.609 30.2 697.609 31.15C697.609 31.7 697.484 32.25 697.234 32.8C697.034 33.3 696.484 33.85 695.584 34.45C694.734 35.05 693.309 35.75 691.309 36.55C688.659 37.55 686.134 38.725 683.734 40.075C681.384 41.425 679.209 43.275 677.209 45.625C675.259 47.925 673.484 51.025 671.884 54.925C670.334 58.775 669.034 63.725 667.984 69.775C667.634 71.475 667.084 72.625 666.334 73.225C665.584 73.875 664.709 74.2 663.709 74.2C663.609 74.2 663.434 74.2 663.184 74.2C662.734 74.25 662.259 74.2 661.759 74.05C661.309 73.95 660.859 73.525 660.409 72.775C660.009 72.075 659.684 70.85 659.434 69.1C659.184 67.35 659.059 64.85 659.059 61.6C659.059 59.65 659.134 57.6 659.284 55.45C659.484 53.25 659.734 50.975 660.034 48.625C657.484 51.125 654.759 53.65 651.859 56.2C648.959 58.75 645.959 61.1 642.859 63.25C639.809 65.35 636.809 67.05 633.859 68.35C630.959 69.65 628.259 70.3 625.759 70.3C622.409 70.3 619.659 69.225 617.509 67.075C615.409 64.875 614.359 61.5 614.359 56.95C614.359 52.45 614.959 48.375 616.159 44.725C617.409 41.025 619.009 37.85 620.959 35.2C622.909 32.55 624.984 30.525 627.184 29.125C629.434 27.675 631.534 26.95 633.484 26.95C637.634 26.95 640.784 27.95 642.934 29.95C645.084 31.9 646.159 34.425 646.159 37.525ZM624.559 48.925C625.859 48.275 627.234 47.525 628.684 46.675C630.184 45.775 631.584 44.85 632.884 43.9C634.184 42.9 635.234 41.925 636.034 40.975C636.884 40.025 637.309 39.125 637.309 38.275C637.309 36.875 636.909 36.025 636.109 35.725C635.359 35.375 634.334 35.2 633.034 35.2C631.684 35.2 630.459 35.925 629.359 37.375C628.259 38.775 627.309 40.525 626.509 42.625C625.709 44.725 625.059 46.825 624.559 48.925ZM736.81 78.4C735.56 78.4 734.485 78.025 733.585 77.275C732.685 76.575 732.285 75.125 732.385 72.925C732.485 70.475 732.66 67.925 732.91 65.275C733.16 62.625 733.435 60.15 733.735 57.85C734.385 52.8 734.535 48.9 734.185 46.15C733.885 43.35 733.11 41.35 731.86 40.15C730.66 38.95 729.035 38.15 726.985 37.75C725.985 37.55 725.185 37.175 724.585 36.625C723.985 36.025 723.685 35.25 723.685 34.3C723.685 33.05 724.185 32.225 725.185 31.825C726.135 31.425 727.36 31.225 728.86 31.225C730.01 31.225 731.485 31.3 733.285 31.45C735.135 31.55 737.11 31.625 739.21 31.675C740.96 25.925 742.935 21.175 745.135 17.425C747.335 13.675 749.735 10.725 752.335 8.575C754.935 6.375 757.685 4.85 760.585 4C763.485 3.1 766.485 2.65 769.585 2.65C773.435 2.65 775.36 4.025 775.36 6.775C775.36 8.125 774.71 9.15 773.41 9.85C772.11 10.55 770.135 11.125 767.485 11.575C764.335 12.125 761.56 13.15 759.16 14.65C756.81 16.15 754.735 18.275 752.935 21.025C751.185 23.775 749.635 27.325 748.285 31.675C755.235 31.525 760.935 31.15 765.385 30.55C769.835 29.95 773.26 29.375 775.66 28.825C778.11 28.225 779.81 27.925 780.76 27.925C782.11 27.925 782.935 28.25 783.235 28.9C783.585 29.55 783.76 30.25 783.76 31C783.76 31.85 782.96 32.725 781.36 33.625C780.31 34.225 778.635 34.9 776.335 35.65C774.035 36.35 771.335 37.05 768.235 37.75C765.135 38.4 761.86 38.95 758.41 39.4C755.01 39.8 751.685 40 748.435 40C747.635 40 746.91 40 746.26 40C745.71 42.9 745.16 45.975 744.61 49.225C744.11 52.425 743.66 55.55 743.26 58.6C742.86 61.65 742.51 64.425 742.21 66.925C741.96 69.425 741.81 71.425 741.76 72.925C741.71 74.775 741.235 76.15 740.335 77.05C739.435 77.95 738.26 78.4 736.81 78.4ZM773.752 72.85C772.152 72.85 770.702 72.4 769.402 71.5C768.102 70.65 767.077 69.525 766.327 68.125C765.577 66.675 765.202 65.125 765.202 63.475C765.202 60.375 765.877 57.35 767.227 54.4C768.627 51.45 770.452 48.65 772.702 46C774.952 43.35 777.402 40.925 780.052 38.725C782.752 36.475 785.427 34.55 788.077 32.95C790.777 31.35 793.227 30.1 795.427 29.2C797.677 28.3 799.427 27.85 800.677 27.85C802.127 27.85 803.302 28.175 804.202 28.825C805.152 29.425 805.627 30.375 805.627 31.675C805.627 32.075 805.527 32.4 805.327 32.65C805.977 32.8 806.502 33.175 806.902 33.775C807.302 34.375 807.502 35.275 807.502 36.475C807.502 36.975 807.377 38.275 807.127 40.375C806.877 42.475 806.602 45.025 806.302 48.025C806.052 51.025 805.927 54.15 805.927 57.4C805.927 57.9 806.002 58.35 806.152 58.75C806.302 59.1 806.627 59.275 807.127 59.275C809.127 59.275 811.152 58.875 813.202 58.075C815.302 57.225 817.327 56.2 819.277 55C821.277 53.75 823.077 52.525 824.677 51.325C826.327 50.075 827.702 49.05 828.802 48.25C829.952 47.4 830.702 46.975 831.052 46.975C832.752 46.975 833.602 47.825 833.602 49.525C833.602 49.975 833.052 50.925 831.952 52.375C830.902 53.775 829.452 55.4 827.602 57.25C825.752 59.05 823.677 60.85 821.377 62.65C819.127 64.4 816.777 65.85 814.327 67C811.927 68.15 809.602 68.725 807.352 68.725C804.602 68.725 802.502 68.075 801.052 66.775C799.652 65.475 798.652 63.725 798.052 61.525C797.502 59.275 797.202 56.75 797.152 53.95C794.602 57.6 791.952 60.85 789.202 63.7C786.502 66.5 783.827 68.725 781.177 70.375C778.527 72.025 776.052 72.85 773.752 72.85ZM800.302 35.275C795.402 37.625 791.002 40.325 787.102 43.375C783.202 46.375 780.102 49.525 777.802 52.825C775.552 56.125 774.427 59.3 774.427 62.35C774.427 63.2 774.827 63.625 775.627 63.625C776.577 63.625 777.827 63.075 779.377 61.975C780.977 60.875 782.702 59.425 784.552 57.625C786.402 55.775 788.252 53.725 790.102 51.475C791.952 49.175 793.677 46.825 795.277 44.425C796.877 42.025 798.152 39.725 799.102 37.525C799.452 36.725 799.852 35.975 800.302 35.275ZM836.779 69.925C835.479 69.925 834.329 69.3 833.329 68.05C832.379 66.8 831.654 64.875 831.154 62.275C830.754 60.075 830.404 57.575 830.104 54.775C829.804 51.975 829.529 49.225 829.279 46.525C829.079 43.775 828.929 41.375 828.829 39.325C828.729 37.275 828.679 35.875 828.679 35.125C828.679 32.425 829.154 30.2 830.104 28.45C831.054 26.65 832.879 25.75 835.579 25.75C836.729 25.75 837.604 26.25 838.204 27.25C838.804 28.2 839.104 29.525 839.104 31.225C839.104 32.275 839.104 33.6 839.104 35.2C839.154 36.75 839.204 38.5 839.254 40.45C839.304 42.6 839.354 44.925 839.404 47.425C839.504 49.875 839.554 52.325 839.554 54.775C841.304 52.025 843.179 49.1 845.179 46C847.179 42.85 849.129 39.8 851.029 36.85C852.979 33.9 854.729 31.3 856.279 29.05C857.829 26.75 859.004 25.125 859.804 24.175C860.504 23.325 861.354 22.6 862.354 22C863.354 21.35 864.404 21.025 865.504 21.025C866.704 21.025 867.704 21.5 868.504 22.45C869.304 23.4 869.704 24.5 869.704 25.75C869.704 26.7 869.504 27.6 869.104 28.45C868.754 29.3 868.304 30.1 867.754 30.85C866.254 32.95 864.479 35.4 862.429 38.2C860.429 41 858.329 43.95 856.129 47.05C853.929 50.1 851.779 53.05 849.679 55.9C847.629 58.75 845.804 61.275 844.204 63.475C842.904 65.325 841.854 66.725 841.054 67.675C840.254 68.575 839.529 69.175 838.879 69.475C838.279 69.775 837.579 69.925 836.779 69.925ZM884.231 72.475C880.681 72.475 877.831 71.225 875.681 68.725C873.531 66.175 872.456 62.775 872.456 58.525C872.456 57.175 872.631 55.8 872.981 54.4C873.381 53 873.856 51.7 874.406 50.5C874.106 50.05 873.856 49.475 873.656 48.775C873.506 48.025 873.431 47.15 873.431 46.15C873.431 42.9 874.006 39.925 875.156 37.225C876.306 34.475 877.856 32.1 879.806 30.1C881.756 28.1 883.906 26.55 886.256 25.45C888.606 24.35 890.981 23.8 893.381 23.8C897.481 23.8 900.831 25.175 903.431 27.925C906.081 30.675 907.406 34.95 907.406 40.75C907.406 43.65 906.956 46.6 906.056 49.6C905.156 52.6 903.931 55.475 902.381 58.225C900.881 60.925 899.131 63.35 897.131 65.5C895.181 67.65 893.081 69.35 890.831 70.6C888.631 71.85 886.431 72.475 884.231 72.475ZM883.031 47.125C883.281 47.675 883.406 48.325 883.406 49.075C883.406 49.825 883.256 50.6 882.956 51.4C882.656 52.2 882.356 53.275 882.056 54.625C881.756 55.925 881.606 57.8 881.606 60.25C881.606 60.9 881.681 61.45 881.831 61.9C882.031 62.3 882.456 62.5 883.106 62.5C884.806 62.5 886.406 61.95 887.906 60.85C889.456 59.75 890.831 58.3 892.031 56.5C893.281 54.7 894.331 52.7 895.181 50.5C896.081 48.25 896.756 45.975 897.206 43.675C897.706 41.325 897.956 39.15 897.956 37.15C897.956 35.85 897.706 34.95 897.206 34.45C896.706 33.95 895.831 33.7 894.581 33.7C892.881 33.7 891.131 34.25 889.331 35.35C887.581 36.4 886.106 37.85 884.906 39.7C883.706 41.5 883.106 43.55 883.106 45.85C883.106 46.3 883.081 46.725 883.031 47.125ZM919.036 73.3C917.786 73.3 916.711 72.85 915.811 71.95C914.961 71.05 914.536 69.75 914.536 68.05C914.536 67.3 914.636 66.075 914.836 64.375C915.086 62.625 915.386 60.625 915.736 58.375C916.136 56.125 916.511 53.775 916.861 51.325C917.261 48.875 917.586 46.55 917.836 44.35C918.136 42.15 918.336 40.275 918.436 38.725C918.536 36.825 919.036 35.475 919.936 34.675C920.836 33.825 921.911 33.4 923.161 33.4C924.161 33.4 925.061 33.65 925.861 34.15C926.711 34.6 927.236 35.575 927.436 37.075C927.686 38.525 927.711 40.625 927.511 43.375C929.711 39.375 931.936 35.8 934.186 32.65C936.486 29.5 938.886 27 941.386 25.15C945.536 22 949.286 20.425 952.636 20.425C954.536 20.425 955.786 20.85 956.386 21.7C956.986 22.55 957.286 23.425 957.286 24.325C957.286 24.925 957.136 25.475 956.836 25.975C956.586 26.475 956.036 27 955.186 27.55C954.336 28.1 953.036 28.825 951.286 29.725C948.936 30.925 946.611 32.5 944.311 34.45C942.061 36.4 939.811 38.9 937.561 41.95C935.311 45 933.036 48.75 930.736 53.2C928.436 57.65 926.061 62.95 923.611 69.1C923.161 70.8 922.511 71.925 921.661 72.475C920.861 73.025 919.986 73.3 919.036 73.3ZM968.621 73.3C965.871 73.3 963.421 72.55 961.271 71.05C959.121 69.6 957.421 67.55 956.171 64.9C954.971 62.25 954.371 59.15 954.371 55.6C954.371 51.8 954.821 48.1 955.721 44.5C956.621 40.85 957.771 37.575 959.171 34.675C960.571 31.725 961.971 29.4 963.371 27.7C964.821 25.95 966.071 25.075 967.121 25.075C968.221 25.075 969.121 25.4 969.821 26.05C970.571 26.7 970.946 27.675 970.946 28.975C970.946 29.175 970.721 29.9 970.271 31.15C969.871 32.35 969.346 33.9 968.696 35.8C968.046 37.65 967.396 39.725 966.746 42.025C966.096 44.275 965.546 46.575 965.096 48.925C964.696 51.275 964.496 53.525 964.496 55.675C964.496 58.275 964.896 60.35 965.696 61.9C966.496 63.45 968.221 64.225 970.871 64.225C973.571 64.225 976.196 63.45 978.746 61.9C981.346 60.35 983.846 58.275 986.246 55.675C988.646 53.025 990.946 50.075 993.146 46.825C990.546 47.025 988.096 47.125 985.796 47.125C984.246 47.125 983.121 46.975 982.421 46.675C981.721 46.325 981.271 45.875 981.071 45.325C980.921 44.775 980.846 44.125 980.846 43.375C980.846 42.325 981.321 41.375 982.271 40.525C983.221 39.675 984.271 39.225 985.421 39.175C987.571 39.025 989.746 38.85 991.946 38.65C994.196 38.45 996.421 38.225 998.621 37.975C1000.27 35.025 1001.8 32.1 1003.2 29.2C1004.65 26.25 1005.97 23.475 1007.17 20.875C1008.32 17.625 1009.55 14.625 1010.85 11.875C1012.2 9.075 1013.5 6.825 1014.75 5.12499C1016 3.425 1017.17 2.575 1018.27 2.575C1019.57 2.575 1020.55 2.925 1021.2 3.625C1021.9 4.325 1022.25 5.25 1022.25 6.4C1022.25 6.75 1022 7.775 1021.5 9.475C1021 11.175 1020.3 13.375 1019.4 16.075C1018.55 18.775 1017.57 21.825 1016.47 25.225C1015.42 28.575 1014.3 32.125 1013.1 35.875C1017.85 35.075 1022.17 34.3 1026.07 33.55C1030.02 32.8 1033.25 32.175 1035.75 31.675C1038.25 31.175 1039.75 30.925 1040.25 30.925C1041.25 30.925 1042.07 31.4 1042.72 32.35C1043.37 33.25 1043.7 34.125 1043.7 34.975C1043.7 35.475 1042.77 36.125 1040.92 36.925C1039.12 37.725 1036.65 38.6 1033.5 39.55C1030.4 40.45 1026.85 41.375 1022.85 42.325C1018.9 43.225 1014.75 44.025 1010.4 44.725C1009.2 48.675 1008.05 52.55 1006.95 56.35C1005.9 60.1 1005 63.575 1004.25 66.775C1003.9 68.175 1003.32 69.25 1002.52 70C1001.77 70.7 1000.75 71.05 999.446 71.05C998.096 71.05 997.096 70.725 996.446 70.075C995.796 69.475 995.471 68.375 995.471 66.775C995.471 66.625 995.621 65.8 995.921 64.3C996.271 62.75 996.696 60.85 997.196 58.6C997.746 56.3 998.271 53.95 998.771 51.55C995.821 55.65 992.696 59.35 989.396 62.65C986.096 65.95 982.696 68.55 979.196 70.45C975.696 72.35 972.171 73.3 968.621 73.3ZM968.846 19.9C967.196 19.9 965.846 19.4 964.796 18.4C963.746 17.35 963.221 16.125 963.221 14.725C963.221 13.025 963.846 11.575 965.096 10.375C966.396 9.175 967.921 8.575 969.671 8.575C971.621 8.575 973.096 9.1 974.096 10.15C975.146 11.2 975.671 12.6 975.671 14.35C975.671 15.6 975.021 16.85 973.721 18.1C972.421 19.3 970.796 19.9 968.846 19.9ZM1045.98 72.55C1042.88 72.55 1040.38 71.475 1038.48 69.325C1036.58 67.125 1035.63 63.6 1035.63 58.75C1035.63 55.65 1035.98 52.55 1036.68 49.45C1037.43 46.3 1038.45 43.325 1039.75 40.525C1041.1 37.675 1042.65 35.15 1044.4 32.95C1046.2 30.75 1048.18 29.025 1050.33 27.775C1052.48 26.475 1054.7 25.825 1057 25.825C1060.9 25.825 1063.95 26.875 1066.15 28.975C1068.35 31.075 1069.45 33.75 1069.45 37C1069.45 39.5 1068.75 41.775 1067.35 43.825C1066 45.825 1064.15 47.625 1061.8 49.225C1059.45 50.825 1056.83 52.275 1053.93 53.575C1051.03 54.875 1048.05 56.05 1045 57.1C1044.75 58.9 1044.63 60.5 1044.63 61.9C1044.63 62.75 1045.1 63.175 1046.05 63.175C1048.3 63.175 1050.7 62.825 1053.25 62.125C1055.85 61.375 1058.48 60.425 1061.13 59.275C1063.78 58.075 1066.33 56.85 1068.78 55.6C1071.23 54.3 1073.45 53.075 1075.45 51.925C1077.5 50.725 1079.18 49.775 1080.48 49.075C1081.83 48.325 1082.7 47.95 1083.1 47.95C1084.2 47.95 1085 48.275 1085.5 48.925C1086 49.575 1086.25 50.275 1086.25 51.025C1086.25 51.375 1085.58 52.15 1084.23 53.35C1082.93 54.55 1081.13 55.975 1078.83 57.625C1076.58 59.225 1074.03 60.9 1071.18 62.65C1068.38 64.35 1065.45 65.975 1062.4 67.525C1059.4 69.025 1056.48 70.225 1053.63 71.125C1050.83 72.075 1048.28 72.55 1045.98 72.55ZM1046.28 50.425C1048.33 49.225 1050.35 47.975 1052.35 46.675C1054.4 45.325 1056.1 43.825 1057.45 42.175C1058.8 40.475 1059.48 38.5 1059.48 36.25C1059.48 35.6 1059.3 35.175 1058.95 34.975C1058.6 34.725 1058.1 34.6 1057.45 34.6C1055.7 34.6 1054.1 35.375 1052.65 36.925C1051.25 38.475 1050 40.475 1048.9 42.925C1047.85 45.325 1046.98 47.825 1046.28 50.425ZM1166.28 32.2C1166.28 32.8 1166.08 33.325 1165.68 33.775C1165.28 34.225 1164.78 34.575 1164.18 34.825C1163.33 35.175 1161.86 35.625 1159.76 36.175C1157.66 36.725 1155.11 37.35 1152.11 38.05C1149.16 38.75 1145.98 39.475 1142.58 40.225C1139.18 40.925 1135.78 41.6 1132.38 42.25C1131.08 47.05 1129.76 52 1128.41 57.1C1127.06 62.15 1125.71 67.125 1124.36 72.025C1123.86 73.775 1123.26 75.1 1122.56 76C1121.86 76.95 1120.66 77.425 1118.96 77.425C1117.11 77.425 1115.86 76.825 1115.21 75.625C1114.61 74.475 1114.53 72.9 1114.98 70.9C1116.28 65.45 1117.48 60.375 1118.58 55.675C1119.73 50.975 1120.66 47.175 1121.36 44.275C1118.36 44.775 1115.73 45.175 1113.48 45.475C1111.23 45.725 1109.63 45.825 1108.68 45.775C1107.63 45.675 1106.76 45.25 1106.06 44.5C1105.36 43.75 1105.03 42.825 1105.08 41.725C1105.18 40.725 1105.63 39.875 1106.43 39.175C1107.23 38.425 1108.18 37.975 1109.28 37.825C1110.83 37.675 1112.83 37.45 1115.28 37.15C1117.73 36.85 1120.43 36.5 1123.38 36.1C1124.03 33.55 1124.78 30.925 1125.63 28.225C1126.48 25.475 1127.36 22.85 1128.26 20.35C1129.21 17.8 1130.11 15.575 1130.96 13.675C1131.81 11.775 1132.58 10.4 1133.28 9.55C1133.83 8.9 1134.51 8.4 1135.31 8.05C1136.16 7.7 1136.98 7.525 1137.78 7.525C1138.83 7.525 1139.68 7.9 1140.33 8.65C1140.98 9.4 1141.31 10.275 1141.31 11.275C1141.31 11.675 1141.28 12.1 1141.23 12.55C1141.18 12.95 1141.08 13.35 1140.93 13.75C1139.98 16.25 1138.96 19.275 1137.86 22.825C1136.81 26.375 1135.71 30.275 1134.56 34.525C1138.31 33.975 1141.98 33.425 1145.58 32.875C1149.23 32.275 1152.53 31.725 1155.48 31.225C1158.48 30.675 1160.88 30.2 1162.68 29.8C1163.68 29.45 1164.53 29.525 1165.23 30.025C1165.93 30.475 1166.28 31.2 1166.28 32.2ZM1160.71 75.85C1158.41 75.85 1156.76 75.2 1155.76 73.9C1154.76 72.6 1154.26 70.7 1154.26 68.2C1154.26 65.9 1154.68 62.9 1155.53 59.2C1156.43 55.45 1157.61 51.275 1159.06 46.675C1160.56 42.025 1162.23 37.25 1164.08 32.35C1165.93 27.4 1167.86 22.55 1169.86 17.8C1171.86 13 1173.81 8.6 1175.71 4.6C1176.61 2.85 1177.56 1.65 1178.56 0.999999C1179.56 0.349998 1180.66 0.0249979 1181.86 0.0249979C1183.01 0.0249979 1183.98 0.349998 1184.78 0.999999C1185.58 1.6 1185.98 2.575 1185.98 3.925C1185.98 4.225 1185.58 5.375 1184.78 7.375C1183.98 9.325 1182.93 11.875 1181.63 15.025C1180.33 18.125 1178.91 21.625 1177.36 25.525C1175.81 29.375 1174.26 33.4 1172.71 37.6C1171.16 41.75 1169.76 45.85 1168.51 49.9C1167.26 53.95 1166.26 57.7 1165.51 61.15C1167.26 58.8 1169.13 56.2 1171.13 53.35C1173.18 50.45 1175.26 47.575 1177.36 44.725C1179.51 41.825 1181.61 39.175 1183.66 36.775C1185.76 34.375 1187.71 32.45 1189.51 31C1191.31 29.55 1192.88 28.825 1194.23 28.825C1196.73 28.825 1198.73 29.525 1200.23 30.925C1201.78 32.275 1202.56 34.625 1202.56 37.975C1202.56 39.525 1202.26 41.4 1201.66 43.6C1201.06 45.75 1200.33 48.025 1199.48 50.425C1198.68 52.775 1197.98 55.05 1197.38 57.25C1196.78 59.45 1196.48 61.375 1196.48 63.025C1196.48 63.925 1196.91 64.375 1197.76 64.375C1200.21 64.375 1202.68 63.85 1205.18 62.8C1207.73 61.75 1210.16 60.45 1212.46 58.9C1214.81 57.3 1216.93 55.725 1218.83 54.175C1220.78 52.575 1222.36 51.25 1223.56 50.2C1224.41 49.4 1225.18 48.875 1225.88 48.625C1226.58 48.325 1227.23 48.175 1227.83 48.175C1229.88 48.175 1230.91 49.2 1230.91 51.25C1230.91 51.65 1230.83 52.15 1230.68 52.75C1230.53 53.3 1230.06 54 1229.26 54.85C1228.46 55.7 1227.26 56.9 1225.66 58.45C1224.06 60 1222.18 61.65 1220.03 63.4C1217.93 65.15 1215.63 66.825 1213.13 68.425C1210.68 69.975 1208.16 71.25 1205.56 72.25C1202.96 73.25 1200.43 73.75 1197.98 73.75C1194.28 73.75 1191.43 72.7 1189.43 70.6C1187.43 68.55 1186.43 65.75 1186.43 62.2C1186.43 59.75 1186.93 56.675 1187.93 52.975C1188.93 49.225 1190.06 45.4 1191.31 41.5C1189.56 43.2 1187.73 45.225 1185.83 47.575C1183.93 49.875 1182.01 52.325 1180.06 54.925C1178.11 57.475 1176.18 60 1174.28 62.5C1172.43 64.95 1170.66 67.2 1168.96 69.25C1167.26 71.25 1165.71 72.85 1164.31 74.05C1162.91 75.25 1161.71 75.85 1160.71 75.85ZM1226.83 71.125C1225.43 71.125 1224.18 70.65 1223.08 69.7C1222.03 68.75 1221.5 67.2 1221.5 65.05C1221.5 63.9 1221.65 62.275 1221.95 60.175C1222.3 58.075 1222.75 55.8 1223.3 53.35C1223.85 50.85 1224.45 48.375 1225.1 45.925C1225.8 43.475 1226.48 41.3 1227.13 39.4C1227.78 37.45 1228.35 36 1228.85 35.05C1229.5 33.9 1230.1 33.2 1230.65 32.95C1231.25 32.65 1231.83 32.5 1232.38 32.5C1233.38 32.5 1234.3 32.8 1235.15 33.4C1236.05 34 1236.5 35.325 1236.5 37.375C1236.5 38.175 1236.35 39.475 1236.05 41.275C1235.75 43.025 1235.38 45.075 1234.93 47.425C1234.48 49.775 1233.98 52.2 1233.43 54.7C1232.93 57.2 1232.43 59.575 1231.93 61.825C1231.48 64.025 1231.1 65.875 1230.8 67.375C1230.55 68.625 1230.03 69.55 1229.23 70.15C1228.48 70.8 1227.68 71.125 1226.83 71.125ZM1235.45 25.075C1233.8 25.075 1232.28 24.6 1230.88 23.65C1229.48 22.65 1228.78 21.125 1228.78 19.075C1228.78 17.375 1229.2 16 1230.05 14.95C1230.9 13.9 1231.9 13.15 1233.05 12.7C1234.25 12.2 1235.3 11.95 1236.2 11.95C1237.1 11.95 1238.1 12.15 1239.2 12.55C1240.3 12.9 1241.25 13.575 1242.05 14.575C1242.9 15.525 1243.33 16.9 1243.33 18.7C1243.33 19.9 1242.9 21 1242.05 22C1241.2 22.95 1240.15 23.7 1238.9 24.25C1237.7 24.8 1236.55 25.075 1235.45 25.075ZM1254.08 70C1252.88 70 1251.68 69.6 1250.48 68.8C1249.33 67.95 1248.38 66.75 1247.63 65.2C1246.88 63.6 1246.5 61.675 1246.5 59.425C1246.5 56.425 1246.9 53.225 1247.7 49.825C1248.55 46.425 1249.58 43.025 1250.78 39.625C1251.98 36.225 1253.15 33.025 1254.3 30.025C1254.85 28.575 1255.53 27.6 1256.33 27.1C1257.13 26.55 1258.18 26.275 1259.48 26.275C1262.43 26.275 1263.9 27.75 1263.9 30.7C1263.9 31.2 1263.68 32.175 1263.23 33.625C1262.78 35.025 1262.18 36.75 1261.43 38.8C1260.73 40.85 1259.98 43.075 1259.18 45.475C1258.43 47.825 1257.73 50.225 1257.08 52.675C1256.48 55.075 1256 57.35 1255.65 59.5C1256.8 57.75 1258.08 55.575 1259.48 52.975C1260.93 50.325 1262.45 47.55 1264.05 44.65C1265.7 41.75 1267.35 39.05 1269 36.55C1270.65 34 1272.28 31.925 1273.88 30.325C1275.48 28.725 1277 27.925 1278.45 27.925C1279.7 27.925 1280.88 28.175 1281.98 28.675C1283.13 29.125 1284.13 30.025 1284.98 31.375C1285.83 32.675 1286.48 34.55 1286.93 37C1287.43 39.45 1287.68 42.675 1287.68 46.675C1287.68 48.675 1287.85 50.625 1288.2 52.525C1288.6 54.375 1289.25 55.925 1290.15 57.175C1291.05 58.375 1292.33 58.975 1293.98 58.975C1296.83 58.975 1299.38 58.45 1301.63 57.4C1303.88 56.35 1305.85 55.125 1307.55 53.725C1309.25 52.325 1310.68 51.1 1311.83 50.05C1312.53 49.35 1313.13 48.8 1313.63 48.4C1314.18 48 1314.63 47.8 1314.98 47.8C1316.03 47.8 1316.78 48.075 1317.23 48.625C1317.73 49.175 1317.98 49.925 1317.98 50.875C1317.98 51.375 1317.55 52.3 1316.7 53.65C1315.85 55 1314.65 56.55 1313.1 58.3C1311.6 60 1309.88 61.65 1307.93 63.25C1305.98 64.85 1303.88 66.175 1301.63 67.225C1299.38 68.275 1297.08 68.8 1294.73 68.8C1290.78 68.8 1287.5 68.1 1284.9 66.7C1282.35 65.25 1280.45 62.85 1279.2 59.5C1277.95 56.1 1277.33 51.475 1277.33 45.625C1277.33 45.475 1277.33 45.225 1277.33 44.875C1277.33 43.325 1277.3 41.95 1277.25 40.75C1277.25 39.55 1277.18 38.575 1277.03 37.825C1276.18 39.375 1275.15 41.225 1273.95 43.375C1272.8 45.525 1271.55 47.825 1270.2 50.275C1268.85 52.675 1267.45 55.05 1266 57.4C1264.55 59.7 1263.1 61.8 1261.65 63.7C1260.25 65.6 1258.9 67.125 1257.6 68.275C1256.3 69.425 1255.13 70 1254.08 70ZM1317.37 91.6C1313.62 91.6 1310.77 91.325 1308.82 90.775C1306.92 90.225 1305.62 89.5 1304.92 88.6C1304.22 87.75 1303.87 86.875 1303.87 85.975C1303.87 84.725 1304.27 83.7 1305.07 82.9C1305.92 82.1 1307.02 81.7 1308.37 81.7C1309.27 81.7 1310.57 81.825 1312.27 82.075C1313.97 82.325 1315.67 82.45 1317.37 82.45C1322.37 82.45 1326.5 81.25 1329.75 78.85C1333 76.5 1335.55 72.925 1337.4 68.125C1339.25 63.275 1340.52 57.175 1341.22 49.825C1337.77 55.475 1333.95 60 1329.75 63.4C1325.6 66.8 1321.27 68.5 1316.77 68.5C1311.47 68.5 1308.82 65.9 1308.82 60.7C1308.82 58.2 1309.5 55.575 1310.85 52.825C1312.2 50.075 1314 47.35 1316.25 44.65C1318.5 41.95 1320.97 39.4 1323.67 37C1326.37 34.55 1329.07 32.4 1331.77 30.55C1334.52 28.7 1337.07 27.25 1339.42 26.2C1341.77 25.1 1343.67 24.55 1345.12 24.55C1346.27 24.55 1347.27 24.75 1348.12 25.15C1349.02 25.55 1349.72 26.35 1350.22 27.55C1350.72 28.7 1350.97 30.4 1350.97 32.65C1350.97 38.9 1350.75 44.95 1350.3 50.8C1349.85 56.6 1348.97 61.975 1347.67 66.925C1346.37 71.875 1344.47 76.2 1341.97 79.9C1339.52 83.6 1336.3 86.475 1332.3 88.525C1328.3 90.575 1323.32 91.6 1317.37 91.6ZM1318.42 59.2C1318.42 59.55 1318.57 59.725 1318.87 59.725C1319.87 59.725 1321.22 59.2 1322.92 58.15C1324.62 57.05 1326.45 55.6 1328.4 53.8C1330.4 51.95 1332.35 49.9 1334.25 47.65C1336.15 45.35 1337.82 42.975 1339.27 40.525C1340.77 38.075 1341.85 35.7 1342.5 33.4C1339.9 34.9 1337.2 36.65 1334.4 38.65C1331.65 40.6 1329.05 42.7 1326.6 44.95C1324.2 47.2 1322.22 49.55 1320.67 52C1319.17 54.4 1318.42 56.8 1318.42 59.2ZM1372.27 73.825C1370.12 73.825 1368.6 73.525 1367.7 72.925C1366.85 72.325 1366.42 71.45 1366.42 70.3C1366.42 69.3 1366.77 68.45 1367.47 67.75C1368.17 67 1369.72 66.25 1372.12 65.5C1374.92 64.65 1377.57 63.675 1380.07 62.575C1382.62 61.425 1384.7 60.175 1386.3 58.825C1387.95 57.475 1388.77 56.05 1388.77 54.55C1388.77 53.55 1388.42 52.825 1387.72 52.375C1387.07 51.925 1386.3 51.7 1385.4 51.7C1384.65 51.7 1383.55 51.825 1382.1 52.075C1380.7 52.275 1379.15 52.55 1377.45 52.9C1375.75 53.2 1374.1 53.475 1372.5 53.725C1370.95 53.925 1369.62 54.025 1368.52 54.025C1365.92 54.025 1364 53.45 1362.75 52.3C1361.5 51.1 1360.87 49.575 1360.87 47.725C1360.87 46.725 1361.4 45.35 1362.45 43.6C1363.5 41.85 1364.9 39.925 1366.65 37.825C1368.4 35.725 1370.35 33.625 1372.5 31.525C1374.65 29.425 1376.82 27.5 1379.02 25.75C1381.27 23.95 1383.4 22.525 1385.4 21.475C1387.4 20.375 1389.1 19.825 1390.5 19.825C1392.1 19.825 1393.37 20.325 1394.32 21.325C1395.32 22.325 1395.82 23.675 1395.82 25.375C1395.82 26.175 1395.75 27.05 1395.6 28C1395.45 28.9 1395.07 29.725 1394.47 30.475C1393.87 31.175 1392.95 31.675 1391.7 31.975C1390.45 32.275 1388.75 32.225 1386.6 31.825C1384.9 33.075 1383.12 34.45 1381.27 35.95C1379.47 37.4 1377.77 38.925 1376.17 40.525C1374.57 42.075 1373.25 43.6 1372.2 45.1C1374.05 44.5 1376.15 44.025 1378.5 43.675C1380.85 43.275 1383.22 43.075 1385.62 43.075C1388.52 43.075 1390.87 43.6 1392.67 44.65C1394.52 45.65 1395.87 47 1396.72 48.7C1397.62 50.4 1398.07 52.275 1398.07 54.325C1398.07 56.625 1397.32 58.925 1395.82 61.225C1394.32 63.525 1392.32 65.625 1389.82 67.525C1387.32 69.425 1384.55 70.95 1381.5 72.1C1378.45 73.25 1375.37 73.825 1372.27 73.825Z" fill="black"/>
</svg>
