<svg width="833" height="72" viewBox="0 0 833 72" fill="none" xmlns="http://www.w3.org/2000/svg">
<path d="M56.55 65.05C55.1 65.05 54 64.6 53.25 63.7C52.55 62.8 52.2 61.575 52.2 60.025C52.2 58.775 52.25 57.7 52.35 56.8C52.45 55.9 52.65 54.95 52.95 53.95C53.25 52.9 53.625 51.625 54.075 50.125C54.575 48.575 55.2 46.6 55.95 44.2C56.4 42.8 56.95 40.975 57.6 38.725C58.3 36.425 59 33.925 59.7 31.225C60.4 28.475 60.975 25.725 61.425 22.975C61.925 20.175 62.175 17.6 62.175 15.25C62.175 13.65 61.825 12.175 61.125 10.825C56.475 15.425 52.075 21.425 47.925 28.825C43.825 36.225 40.175 44.825 36.975 54.625C36.025 57.075 34.925 58.725 33.675 59.575C32.425 60.375 31.225 60.775 30.075 60.775C29.725 60.775 29.2 60.575 28.5 60.175C27.8 59.725 27.15 58.925 26.55 57.775C25.95 56.625 25.65 55 25.65 52.9C25.65 52.4 25.775 51.775 26.025 51.025C26.275 50.225 26.65 49.375 27.15 48.475C27.6 45.875 27.925 43.1 28.125 40.15C28.375 37.15 28.525 34.175 28.575 31.225C28.675 28.225 28.725 25.425 28.725 22.825C28.725 20.825 28.575 19.075 28.275 17.575C25.825 20.675 23.5 24.425 21.3 28.825C19.1 33.225 17.1 37.9 15.3 42.85C13.55 47.8 12.1 52.65 10.95 57.4C10.65 58.55 10.3 59.625 9.9 60.625C9.5 61.575 8.9 62.35 8.1 62.95C7.35 63.5 6.25 63.775 4.8 63.775C3.2 63.775 2 63.125 1.2 61.825C0.4 60.525 2.12342e-07 58.8 2.12342e-07 56.65C2.12342e-07 55 0.35 52.875 1.05 50.275C1.75 47.625 2.7 44.75 3.9 41.65C5.1 38.5 6.475 35.3 8.025 32.05C9.625 28.75 11.3 25.575 13.05 22.525C14.8 19.475 16.575 16.75 18.375 14.35C20.225 11.9 21.975 9.975 23.625 8.575C25.325 7.125 26.875 6.4 28.275 6.4C28.325 6.4 28.4 6.4 28.5 6.4C29.6 6.4 30.6 6.5 31.5 6.7C32.45 6.85 33.275 7.375 33.975 8.275C34.725 9.125 35.375 10.55 35.925 12.55C36.475 14.55 36.95 17.375 37.35 21.025C37.45 21.925 37.525 23 37.575 24.25C37.625 25.45 37.65 26.7 37.65 28C39.3 24.3 41.1 20.825 43.05 17.575C45.05 14.325 47.1 11.45 49.2 8.95C51.35 6.45 53.475 4.5 55.575 3.1C57.675 1.7 59.625 0.999997 61.425 0.999997C63.525 0.999997 65.475 1.525 67.275 2.575C69.075 3.575 70.525 5.275 71.625 7.675C72.725 10.075 73.275 13.35 73.275 17.5C73.275 21.9 72.875 26.175 72.075 30.325C71.275 34.425 70.275 38.3 69.075 41.95C67.875 45.6 66.675 48.95 65.475 52C64.275 55 63.275 57.6 62.475 59.8C61.825 61.35 61.075 62.625 60.225 63.625C59.375 64.575 58.15 65.05 56.55 65.05ZM95.165 66.475C91.615 66.475 88.765 65.225 86.615 62.725C84.465 60.175 83.39 56.775 83.39 52.525C83.39 51.175 83.565 49.8 83.915 48.4C84.315 47 84.79 45.7 85.34 44.5C85.04 44.05 84.79 43.475 84.59 42.775C84.44 42.025 84.365 41.15 84.365 40.15C84.365 36.9 84.94 33.925 86.09 31.225C87.24 28.475 88.79 26.1 90.74 24.1C92.69 22.1 94.84 20.55 97.19 19.45C99.54 18.35 101.915 17.8 104.315 17.8C108.415 17.8 111.765 19.175 114.365 21.925C117.015 24.675 118.34 28.95 118.34 34.75C118.34 37.65 117.89 40.6 116.99 43.6C116.09 46.6 114.865 49.475 113.315 52.225C111.815 54.925 110.065 57.35 108.065 59.5C106.115 61.65 104.015 63.35 101.765 64.6C99.565 65.85 97.365 66.475 95.165 66.475ZM93.965 41.125C94.215 41.675 94.34 42.325 94.34 43.075C94.34 43.825 94.19 44.6 93.89 45.4C93.59 46.2 93.29 47.275 92.99 48.625C92.69 49.925 92.54 51.8 92.54 54.25C92.54 54.9 92.615 55.45 92.765 55.9C92.965 56.3 93.39 56.5 94.04 56.5C95.74 56.5 97.34 55.95 98.84 54.85C100.39 53.75 101.765 52.3 102.965 50.5C104.215 48.7 105.265 46.7 106.115 44.5C107.015 42.25 107.69 39.975 108.14 37.675C108.64 35.325 108.89 33.15 108.89 31.15C108.89 29.85 108.64 28.95 108.14 28.45C107.64 27.95 106.765 27.7 105.515 27.7C103.815 27.7 102.065 28.25 100.265 29.35C98.515 30.4 97.04 31.85 95.84 33.7C94.64 35.5 94.04 37.55 94.04 39.85C94.04 40.3 94.015 40.725 93.965 41.125ZM129.969 67.3C128.719 67.3 127.644 66.85 126.744 65.95C125.894 65.05 125.469 63.75 125.469 62.05C125.469 61.3 125.569 60.075 125.769 58.375C126.019 56.625 126.319 54.625 126.669 52.375C127.069 50.125 127.444 47.775 127.794 45.325C128.194 42.875 128.519 40.55 128.769 38.35C129.069 36.15 129.269 34.275 129.369 32.725C129.469 30.825 129.969 29.475 130.869 28.675C131.769 27.825 132.844 27.4 134.094 27.4C135.094 27.4 135.994 27.65 136.794 28.15C137.644 28.6 138.169 29.575 138.369 31.075C138.619 32.525 138.644 34.625 138.444 37.375C140.644 33.375 142.869 29.8 145.119 26.65C147.419 23.5 149.819 21 152.319 19.15C156.469 16 160.219 14.425 163.569 14.425C165.469 14.425 166.719 14.85 167.319 15.7C167.919 16.55 168.219 17.425 168.219 18.325C168.219 18.925 168.069 19.475 167.769 19.975C167.519 20.475 166.969 21 166.119 21.55C165.269 22.1 163.969 22.825 162.219 23.725C159.869 24.925 157.544 26.5 155.244 28.45C152.994 30.4 150.744 32.9 148.494 35.95C146.244 39 143.969 42.75 141.669 47.2C139.369 51.65 136.994 56.95 134.544 63.1C134.094 64.8 133.444 65.925 132.594 66.475C131.794 67.025 130.919 67.3 129.969 67.3ZM174.002 66.55C170.902 66.55 168.402 65.475 166.502 63.325C164.602 61.125 163.652 57.6 163.652 52.75C163.652 49.65 164.002 46.55 164.702 43.45C165.452 40.3 166.477 37.325 167.777 34.525C169.127 31.675 170.677 29.15 172.427 26.95C174.227 24.75 176.202 23.025 178.352 21.775C180.502 20.475 182.727 19.825 185.027 19.825C188.927 19.825 191.977 20.875 194.177 22.975C196.377 25.075 197.477 27.75 197.477 31C197.477 33.5 196.777 35.775 195.377 37.825C194.027 39.825 192.177 41.625 189.827 43.225C187.477 44.825 184.852 46.275 181.952 47.575C179.052 48.875 176.077 50.05 173.027 51.1C172.777 52.9 172.652 54.5 172.652 55.9C172.652 56.75 173.127 57.175 174.077 57.175C176.327 57.175 178.727 56.825 181.277 56.125C183.877 55.375 186.502 54.425 189.152 53.275C191.802 52.075 194.352 50.85 196.802 49.6C199.252 48.3 201.477 47.075 203.477 45.925C205.527 44.725 207.202 43.775 208.502 43.075C209.852 42.325 210.727 41.95 211.127 41.95C212.227 41.95 213.027 42.275 213.527 42.925C214.027 43.575 214.277 44.275 214.277 45.025C214.277 45.375 213.602 46.15 212.252 47.35C210.952 48.55 209.152 49.975 206.852 51.625C204.602 53.225 202.052 54.9 199.202 56.65C196.402 58.35 193.477 59.975 190.427 61.525C187.427 63.025 184.502 64.225 181.652 65.125C178.852 66.075 176.302 66.55 174.002 66.55ZM174.302 44.425C176.352 43.225 178.377 41.975 180.377 40.675C182.427 39.325 184.127 37.825 185.477 36.175C186.827 34.475 187.502 32.5 187.502 30.25C187.502 29.6 187.327 29.175 186.977 28.975C186.627 28.725 186.127 28.6 185.477 28.6C183.727 28.6 182.127 29.375 180.677 30.925C179.277 32.475 178.027 34.475 176.927 36.925C175.877 39.325 175.002 41.825 174.302 44.425ZM249.456 66.85C247.856 66.85 246.406 66.4 245.106 65.5C243.806 64.65 242.781 63.525 242.031 62.125C241.281 60.675 240.906 59.125 240.906 57.475C240.906 54.375 241.581 51.35 242.931 48.4C244.331 45.45 246.156 42.65 248.406 40C250.656 37.35 253.106 34.925 255.756 32.725C258.456 30.475 261.131 28.55 263.781 26.95C266.481 25.35 268.931 24.1 271.131 23.2C273.381 22.3 275.131 21.85 276.381 21.85C277.831 21.85 279.006 22.175 279.906 22.825C280.856 23.425 281.331 24.375 281.331 25.675C281.331 26.075 281.231 26.4 281.031 26.65C281.681 26.8 282.206 27.175 282.606 27.775C283.006 28.375 283.206 29.275 283.206 30.475C283.206 30.975 283.081 32.275 282.831 34.375C282.581 36.475 282.306 39.025 282.006 42.025C281.756 45.025 281.631 48.15 281.631 51.4C281.631 51.9 281.706 52.35 281.856 52.75C282.006 53.1 282.331 53.275 282.831 53.275C284.831 53.275 286.856 52.875 288.906 52.075C291.006 51.225 293.031 50.2 294.981 49C296.981 47.75 298.781 46.525 300.381 45.325C302.031 44.075 303.406 43.05 304.506 42.25C305.656 41.4 306.406 40.975 306.756 40.975C308.456 40.975 309.306 41.825 309.306 43.525C309.306 43.975 308.756 44.925 307.656 46.375C306.606 47.775 305.156 49.4 303.306 51.25C301.456 53.05 299.381 54.85 297.081 56.65C294.831 58.4 292.481 59.85 290.031 61C287.631 62.15 285.306 62.725 283.056 62.725C280.306 62.725 278.206 62.075 276.756 60.775C275.356 59.475 274.356 57.725 273.756 55.525C273.206 53.275 272.906 50.75 272.856 47.95C270.306 51.6 267.656 54.85 264.906 57.7C262.206 60.5 259.531 62.725 256.881 64.375C254.231 66.025 251.756 66.85 249.456 66.85ZM276.006 29.275C271.106 31.625 266.706 34.325 262.806 37.375C258.906 40.375 255.806 43.525 253.506 46.825C251.256 50.125 250.131 53.3 250.131 56.35C250.131 57.2 250.531 57.625 251.331 57.625C252.281 57.625 253.531 57.075 255.081 55.975C256.681 54.875 258.406 53.425 260.256 51.625C262.106 49.775 263.956 47.725 265.806 45.475C267.656 43.175 269.381 40.825 270.981 38.425C272.581 36.025 273.856 33.725 274.806 31.525C275.156 30.725 275.556 29.975 276.006 29.275ZM311.583 66.325C308.583 66.325 306.508 65.725 305.358 64.525C304.258 63.375 303.708 61.775 303.708 59.725C303.708 51.025 305.333 41.95 308.583 32.5C311.883 23 316.508 13.475 322.458 3.925C323.458 2.275 324.283 1.3 324.933 0.999997C325.583 0.699998 326.308 0.549999 327.108 0.549999C328.258 0.549999 329.258 0.949998 330.108 1.75C331.008 2.55 331.458 3.6 331.458 4.9C331.458 5.3 331.033 6.4 330.183 8.2C329.333 10 328.208 12.3 326.808 15.1C325.458 17.9 323.983 21.075 322.383 24.625C320.783 28.125 319.208 31.825 317.658 35.725C316.158 39.625 314.858 43.55 313.758 47.5C315.458 45.35 317.383 43.15 319.533 40.9C321.733 38.6 324.008 36.5 326.358 34.6C328.708 32.65 330.983 31.1 333.183 29.95C335.383 28.75 337.358 28.15 339.108 28.15C340.758 28.15 342.283 28.55 343.683 29.35C345.133 30.15 346.308 31.4 347.208 33.1C348.108 34.8 348.558 37 348.558 39.7C348.558 42.65 347.708 45.675 346.008 48.775C344.358 51.875 341.933 54.75 338.733 57.4C335.583 60.05 331.708 62.2 327.108 63.85C322.558 65.5 317.383 66.325 311.583 66.325ZM314.733 57.775C318.583 57.475 322.058 56.65 325.158 55.3C328.308 53.95 331.008 52.275 333.258 50.275C335.508 48.275 337.233 46.175 338.433 43.975C339.633 41.725 340.233 39.6 340.233 37.6C340.233 37.15 340.108 36.925 339.858 36.925C338.808 36.925 337.483 37.4 335.883 38.35C334.283 39.25 332.533 40.475 330.633 42.025C328.733 43.575 326.808 45.275 324.858 47.125C322.908 48.975 321.058 50.825 319.308 52.675C317.558 54.525 316.033 56.225 314.733 57.775ZM365.795 66.475C362.245 66.475 359.395 65.225 357.245 62.725C355.095 60.175 354.02 56.775 354.02 52.525C354.02 51.175 354.195 49.8 354.545 48.4C354.945 47 355.42 45.7 355.97 44.5C355.67 44.05 355.42 43.475 355.22 42.775C355.07 42.025 354.995 41.15 354.995 40.15C354.995 36.9 355.57 33.925 356.72 31.225C357.87 28.475 359.42 26.1 361.37 24.1C363.32 22.1 365.47 20.55 367.82 19.45C370.17 18.35 372.545 17.8 374.945 17.8C379.045 17.8 382.395 19.175 384.995 21.925C387.645 24.675 388.97 28.95 388.97 34.75C388.97 37.65 388.52 40.6 387.62 43.6C386.72 46.6 385.495 49.475 383.945 52.225C382.445 54.925 380.695 57.35 378.695 59.5C376.745 61.65 374.645 63.35 372.395 64.6C370.195 65.85 367.995 66.475 365.795 66.475ZM364.595 41.125C364.845 41.675 364.97 42.325 364.97 43.075C364.97 43.825 364.82 44.6 364.52 45.4C364.22 46.2 363.92 47.275 363.62 48.625C363.32 49.925 363.17 51.8 363.17 54.25C363.17 54.9 363.245 55.45 363.395 55.9C363.595 56.3 364.02 56.5 364.67 56.5C366.37 56.5 367.97 55.95 369.47 54.85C371.02 53.75 372.395 52.3 373.595 50.5C374.845 48.7 375.895 46.7 376.745 44.5C377.645 42.25 378.32 39.975 378.77 37.675C379.27 35.325 379.52 33.15 379.52 31.15C379.52 29.85 379.27 28.95 378.77 28.45C378.27 27.95 377.395 27.7 376.145 27.7C374.445 27.7 372.695 28.25 370.895 29.35C369.145 30.4 367.67 31.85 366.47 33.7C365.27 35.5 364.67 37.55 364.67 39.85C364.67 40.3 364.645 40.725 364.595 41.125ZM426.584 67.375C425.434 67.375 424.384 66.9 423.434 65.95C422.534 65.05 422.084 63.525 422.084 61.375C422.084 59.775 422.209 57.55 422.459 54.7C422.759 51.8 423.309 48.075 424.109 43.525C422.359 47.125 420.534 50.325 418.634 53.125C416.734 55.925 414.859 58.125 413.009 59.725C411.209 61.275 409.484 62.05 407.834 62.05C405.184 62.05 403.084 61.25 401.534 59.65C399.984 58 399.209 54.925 399.209 50.425C399.209 48.275 399.384 45.85 399.734 43.15C400.134 40.45 400.634 37.75 401.234 35.05C401.834 32.35 402.434 29.95 403.034 27.85C403.684 25.7 404.259 24.1 404.759 23.05C405.159 22.15 405.659 21.45 406.259 20.95C406.909 20.45 407.734 20.2 408.734 20.2C410.334 20.2 411.559 20.725 412.409 21.775C413.259 22.825 413.684 23.9 413.684 25C413.684 25.85 413.484 27.075 413.084 28.675C412.734 30.275 412.284 32.05 411.734 34C411.234 35.95 410.709 37.95 410.159 40C409.609 42.05 409.134 43.975 408.734 45.775C408.384 47.575 408.209 49.1 408.209 50.35C408.209 51.9 408.809 52.675 410.009 52.675C410.709 52.675 411.609 52 412.709 50.65C413.859 49.3 415.059 47.5 416.309 45.25C417.609 42.95 418.909 40.45 420.209 37.75C421.559 35 422.784 32.225 423.884 29.425C425.034 26.575 426.009 23.95 426.809 21.55C427.309 20.05 427.984 19 428.834 18.4C429.684 17.8 430.659 17.5 431.759 17.5C433.459 17.5 434.759 17.975 435.659 18.925C436.609 19.875 437.084 21.225 437.084 22.975C437.084 23.775 436.959 25.125 436.709 27.025C436.459 28.925 436.134 31.15 435.734 33.7C435.384 36.25 434.959 38.95 434.459 41.8C433.959 44.65 433.459 47.45 432.959 50.2C432.509 52.95 432.059 55.475 431.609 57.775C431.159 60.025 430.784 61.825 430.484 63.175C429.984 65.175 429.384 66.375 428.684 66.775C427.984 67.175 427.284 67.375 426.584 67.375ZM501.581 26.2C501.581 26.8 501.381 27.325 500.981 27.775C500.581 28.225 500.081 28.575 499.481 28.825C498.631 29.175 497.156 29.625 495.056 30.175C492.956 30.725 490.406 31.35 487.406 32.05C484.456 32.75 481.281 33.475 477.881 34.225C474.481 34.925 471.081 35.6 467.681 36.25C466.381 41.05 465.056 46 463.706 51.1C462.356 56.15 461.006 61.125 459.656 66.025C459.156 67.775 458.556 69.1 457.856 70C457.156 70.95 455.956 71.425 454.256 71.425C452.406 71.425 451.156 70.825 450.506 69.625C449.906 68.475 449.831 66.9 450.281 64.9C451.581 59.45 452.781 54.375 453.881 49.675C455.031 44.975 455.956 41.175 456.656 38.275C453.656 38.775 451.031 39.175 448.781 39.475C446.531 39.725 444.931 39.825 443.981 39.775C442.931 39.675 442.056 39.25 441.356 38.5C440.656 37.75 440.331 36.825 440.381 35.725C440.481 34.725 440.931 33.875 441.731 33.175C442.531 32.425 443.481 31.975 444.581 31.825C446.131 31.675 448.131 31.45 450.581 31.15C453.031 30.85 455.731 30.5 458.681 30.1C459.331 27.55 460.081 24.925 460.931 22.225C461.781 19.475 462.656 16.85 463.556 14.35C464.506 11.8 465.406 9.575 466.256 7.675C467.106 5.775 467.881 4.4 468.581 3.55C469.131 2.9 469.806 2.4 470.606 2.05C471.456 1.7 472.281 1.525 473.081 1.525C474.131 1.525 474.981 1.9 475.631 2.65C476.281 3.4 476.606 4.275 476.606 5.275C476.606 5.675 476.581 6.1 476.531 6.55C476.481 6.95 476.381 7.35 476.231 7.75C475.281 10.25 474.256 13.275 473.156 16.825C472.106 20.375 471.006 24.275 469.856 28.525C473.606 27.975 477.281 27.425 480.881 26.875C484.531 26.275 487.831 25.725 490.781 25.225C493.781 24.675 496.181 24.2 497.981 23.8C498.981 23.45 499.831 23.525 500.531 24.025C501.231 24.475 501.581 25.2 501.581 26.2Z" fill="black"/>
<path d="M536.093 66.925C534.093 66.925 532.593 66.375 531.593 65.275C530.593 64.175 530.093 63.05 530.093 61.9C530.093 60.55 530.343 59.525 530.843 58.825C531.343 58.125 532.318 57.6 533.768 57.25C535.668 56.85 537.643 56.35 539.693 55.75C541.793 55.15 543.793 54.525 545.693 53.875C547.643 53.175 549.343 52.475 550.793 51.775C552.243 51.025 553.293 50.325 553.943 49.675C553.143 49.225 551.868 48.7 550.118 48.1C548.368 47.45 546.418 46.7 544.268 45.85C542.168 44.95 540.143 43.9 538.193 42.7C536.243 41.5 534.643 40.1 533.393 38.5C532.143 36.9 531.518 35.075 531.518 33.025C531.518 30.175 532.243 27.5 533.693 25C535.143 22.5 537.068 20.175 539.468 18.025C541.868 15.875 544.468 13.9 547.268 12.1C550.118 10.3 552.943 8.675 555.743 7.225C558.593 5.725 561.143 4.4 563.393 3.25C564.243 2.75 565.043 2.425 565.793 2.275C566.593 2.075 567.318 1.975 567.968 1.975C570.218 1.975 571.768 2.525 572.618 3.62499C573.468 4.725 573.893 5.85 573.893 7C573.893 7.8 573.518 8.75 572.768 9.85C572.018 10.9 570.818 11.875 569.168 12.775C567.568 13.675 565.443 14.325 562.793 14.725C562.343 14.775 561.943 14.825 561.593 14.875C559.593 15.875 557.443 17.075 555.143 18.475C552.843 19.875 550.668 21.35 548.618 22.9C546.618 24.4 544.968 25.9 543.668 27.4C542.368 28.9 541.718 30.25 541.718 31.45C541.718 32.8 542.268 34.025 543.368 35.125C544.468 36.175 545.868 37.15 547.568 38.05C549.318 38.9 551.143 39.725 553.043 40.525C554.993 41.325 556.818 42.15 558.518 43C560.268 43.8 561.693 44.7 562.793 45.7C563.893 46.7 564.443 47.825 564.443 49.075C564.443 50.775 563.868 52.4 562.718 53.95C561.568 55.5 560.068 56.95 558.218 58.3C556.368 59.6 554.343 60.775 552.143 61.825C549.943 62.875 547.768 63.775 545.618 64.525C543.518 65.325 541.618 65.925 539.918 66.325C538.218 66.725 536.943 66.925 536.093 66.925ZM583.073 65.125C581.673 65.125 580.423 64.65 579.323 63.7C578.273 62.75 577.748 61.2 577.748 59.05C577.748 57.9 577.898 56.275 578.198 54.175C578.548 52.075 578.998 49.8 579.548 47.35C580.098 44.85 580.698 42.375 581.348 39.925C582.048 37.475 582.723 35.3 583.373 33.4C584.023 31.45 584.598 30 585.098 29.05C585.748 27.9 586.348 27.2 586.898 26.95C587.498 26.65 588.073 26.5 588.623 26.5C589.623 26.5 590.548 26.8 591.398 27.4C592.298 28 592.748 29.325 592.748 31.375C592.748 32.175 592.598 33.475 592.298 35.275C591.998 37.025 591.623 39.075 591.173 41.425C590.723 43.775 590.223 46.2 589.673 48.7C589.173 51.2 588.673 53.575 588.173 55.825C587.723 58.025 587.348 59.875 587.048 61.375C586.798 62.625 586.273 63.55 585.473 64.15C584.723 64.8 583.923 65.125 583.073 65.125ZM591.698 19.075C590.048 19.075 588.523 18.6 587.123 17.65C585.723 16.65 585.023 15.125 585.023 13.075C585.023 11.375 585.448 10 586.298 8.95C587.148 7.9 588.148 7.15 589.298 6.7C590.498 6.2 591.548 5.95 592.448 5.95C593.348 5.95 594.348 6.15 595.448 6.55C596.548 6.9 597.498 7.575 598.298 8.575C599.148 9.525 599.573 10.9 599.573 12.7C599.573 13.9 599.148 15 598.298 16C597.448 16.95 596.398 17.7 595.148 18.25C593.948 18.8 592.798 19.075 591.698 19.075ZM670.062 62.275C669.762 64.975 668.162 66.325 665.262 66.325C663.762 66.325 662.562 65.875 661.662 64.975C660.812 64.075 660.387 62.775 660.387 61.075C660.387 58.175 660.512 55.075 660.762 51.775C661.062 48.425 661.412 45.05 661.812 41.65C662.262 38.25 662.687 35 663.087 31.9C661.287 34.5 659.387 37.175 657.387 39.925C655.387 42.675 653.387 45.35 651.387 47.95C649.387 50.55 647.462 52.9 645.612 55C643.812 57.05 642.162 58.7 640.662 59.95C639.162 61.15 637.912 61.75 636.912 61.75C634.512 61.75 632.437 60.875 630.687 59.125C628.937 57.325 628.062 55.05 628.062 52.3C628.062 51.35 628.162 50.075 628.362 48.475C628.562 46.825 628.812 45.075 629.112 43.225C629.412 41.375 629.662 39.625 629.862 37.975C630.062 36.325 630.162 35.025 630.162 34.075C630.162 34.075 630.162 34.025 630.162 33.925C630.212 33.675 630.162 33.55 630.012 33.55C629.812 33.55 629.262 34.225 628.362 35.575C627.462 36.875 626.362 38.575 625.062 40.675C623.762 42.775 622.387 44.975 620.937 47.275C619.537 49.575 618.212 51.725 616.962 53.725C615.762 55.725 614.762 57.275 613.962 58.375C612.862 60.075 611.837 61.15 610.887 61.6C609.937 62.05 608.837 62.275 607.587 62.275C605.837 62.275 604.462 61.7 603.462 60.55C602.512 59.35 602.037 57.675 602.037 55.525C602.037 54.625 602.187 53.225 602.487 51.325C602.837 49.425 603.262 47.325 603.762 45.025C604.262 42.675 604.762 40.4 605.262 38.2C605.812 35.95 606.287 34.05 606.687 32.5C607.137 30.45 607.762 29.025 608.562 28.225C609.412 27.375 610.487 26.95 611.787 26.95C614.837 26.95 616.362 28.45 616.362 31.45C616.362 32 616.187 32.9 615.837 34.15C615.487 35.4 615.062 36.85 614.562 38.5C614.062 40.15 613.537 41.85 612.987 43.6C612.437 45.3 611.987 46.9 611.637 48.4C612.837 46.3 614.137 44.05 615.537 41.65C616.937 39.25 618.362 36.9 619.812 34.6C621.312 32.3 622.787 30.2 624.237 28.3C625.737 26.4 627.212 24.9 628.662 23.8C630.112 22.65 631.487 22.075 632.787 22.075C634.087 22.075 635.362 22.55 636.612 23.5C637.862 24.4 638.887 25.575 639.687 27.025C640.537 28.425 640.962 29.925 640.962 31.525C640.962 33.025 640.762 34.825 640.362 36.925C639.962 39.025 639.512 41.225 639.012 43.525C638.512 45.825 638.162 48.075 637.962 50.275C639.662 48.375 641.462 46.225 643.362 43.825C645.262 41.375 647.212 38.85 649.212 36.25C651.212 33.65 653.162 31.125 655.062 28.675C657.012 26.225 658.812 24 660.462 22C662.162 20 663.662 18.425 664.962 17.275C666.262 16.075 667.262 15.475 667.962 15.475C670.012 15.475 671.612 16.025 672.762 17.125C673.962 18.175 674.562 20.025 674.562 22.675C674.562 24.325 674.437 26.475 674.187 29.125C673.987 31.775 673.687 34.65 673.287 37.75C672.937 40.8 672.537 43.9 672.087 47.05C671.687 50.15 671.312 53.025 670.962 55.675C670.612 58.325 670.312 60.525 670.062 62.275ZM735.536 67.825C733.586 67.825 732.161 67.3 731.261 66.25C730.361 65.25 729.911 63.225 729.911 60.175C729.911 57.575 730.336 54.2 731.186 50.05C732.036 45.9 732.986 41.425 734.036 36.625C728.486 42.825 722.086 46.775 714.836 48.475C713.386 51.475 711.686 54.225 709.736 56.725C707.786 59.225 705.661 61.25 703.361 62.8C701.111 64.3 698.761 65.05 696.311 65.05C693.261 65.05 690.636 64.05 688.436 62.05C686.286 60.05 685.211 56.975 685.211 52.825C685.211 50.025 685.636 47.65 686.486 45.7C687.336 43.7 688.311 42.2 689.411 41.2C688.511 39.3 688.061 37.125 688.061 34.675C688.061 31.375 688.961 28.45 690.761 25.9C692.561 23.35 694.936 21.35 697.886 19.9C700.886 18.45 704.136 17.725 707.636 17.725C709.586 17.725 711.436 18.225 713.186 19.225C714.986 20.175 716.436 21.65 717.536 23.65C718.686 25.6 719.261 28.075 719.261 31.075C719.261 33.575 718.886 36.325 718.136 39.325C721.686 37.225 725.186 34.35 728.636 30.7C732.136 27.05 735.261 22.95 738.011 18.4C738.861 17.05 740.061 16.375 741.611 16.375C742.911 16.375 743.936 16.775 744.686 17.575C745.486 18.325 745.886 19.325 745.886 20.575C745.886 20.825 745.736 21.65 745.436 23.05C745.136 24.45 744.736 26.275 744.236 28.525C743.736 30.725 743.186 33.15 742.586 35.8C742.036 38.45 741.486 41.15 740.936 43.9C740.386 46.65 739.886 49.25 739.436 51.7C740.736 49.35 742.136 46.85 743.636 44.2C745.186 41.5 746.786 38.85 748.436 36.25C750.086 33.6 751.711 31.2 753.311 29.05C754.911 26.9 756.386 25.2 757.736 23.95C759.086 22.65 760.236 22 761.186 22C763.086 22 764.686 22.55 765.986 23.65C767.286 24.75 767.936 25.875 767.936 27.025C767.936 28.175 767.811 29.95 767.561 32.35C767.311 34.75 766.986 37.45 766.586 40.45C766.236 43.4 765.861 46.375 765.461 49.375C765.061 52.375 764.736 55.1 764.486 57.55C764.236 59.95 764.111 61.75 764.111 62.95C764.111 63.95 763.636 64.9 762.686 65.8C761.736 66.7 760.661 67.15 759.461 67.15C759.361 67.15 759.186 67.15 758.936 67.15C758.336 67.2 757.786 67.1 757.286 66.85C756.786 66.65 756.361 65.9 756.011 64.6C755.711 63.3 755.561 61.1 755.561 58C755.561 55.9 755.661 53.6 755.861 51.1C756.061 48.6 756.311 46.1 756.611 43.6C756.961 41.05 757.336 38.675 757.736 36.475C756.436 38.625 754.986 41.075 753.386 43.825C751.836 46.525 750.211 49.3 748.511 52.15C746.811 54.95 745.136 57.55 743.486 59.95C741.886 62.3 740.386 64.2 738.986 65.65C737.636 67.1 736.486 67.825 735.536 67.825ZM707.336 42.775C707.986 40.825 708.511 38.8 708.911 36.7C709.311 34.55 709.511 32.45 709.511 30.4C709.511 29.55 709.336 28.725 708.986 27.925C708.636 27.125 708.036 26.725 707.186 26.725C705.486 26.725 703.811 27.075 702.161 27.775C700.561 28.475 699.236 29.475 698.186 30.775C697.136 32.075 696.611 33.625 696.611 35.425C696.611 37.025 697.136 38.375 698.186 39.475C699.286 40.575 700.636 41.4 702.236 41.95C703.886 42.5 705.511 42.775 707.111 42.775C707.161 42.775 707.236 42.775 707.336 42.775ZM704.261 49.375C702.511 49.325 700.811 49.1 699.161 48.7C697.511 48.25 696.011 47.625 694.661 46.825C694.511 47.625 694.361 48.4 694.211 49.15C694.061 49.85 693.986 50.525 693.986 51.175C693.986 52.275 694.161 53.275 694.511 54.175C694.911 55.025 695.711 55.45 696.911 55.45C698.161 55.45 699.411 54.9 700.661 53.8C701.961 52.7 703.161 51.225 704.261 49.375ZM792.386 66.55C789.286 66.55 786.786 65.475 784.886 63.325C782.986 61.125 782.036 57.6 782.036 52.75C782.036 49.65 782.386 46.55 783.086 43.45C783.836 40.3 784.861 37.325 786.161 34.525C787.511 31.675 789.061 29.15 790.811 26.95C792.611 24.75 794.586 23.025 796.736 21.775C798.886 20.475 801.111 19.825 803.411 19.825C807.311 19.825 810.361 20.875 812.561 22.975C814.761 25.075 815.861 27.75 815.861 31C815.861 33.5 815.161 35.775 813.761 37.825C812.411 39.825 810.561 41.625 808.211 43.225C805.861 44.825 803.236 46.275 800.336 47.575C797.436 48.875 794.461 50.05 791.411 51.1C791.161 52.9 791.036 54.5 791.036 55.9C791.036 56.75 791.511 57.175 792.461 57.175C794.711 57.175 797.111 56.825 799.661 56.125C802.261 55.375 804.886 54.425 807.536 53.275C810.186 52.075 812.736 50.85 815.186 49.6C817.636 48.3 819.861 47.075 821.861 45.925C823.911 44.725 825.586 43.775 826.886 43.075C828.236 42.325 829.111 41.95 829.511 41.95C830.611 41.95 831.411 42.275 831.911 42.925C832.411 43.575 832.661 44.275 832.661 45.025C832.661 45.375 831.986 46.15 830.636 47.35C829.336 48.55 827.536 49.975 825.236 51.625C822.986 53.225 820.436 54.9 817.586 56.65C814.786 58.35 811.861 59.975 808.811 61.525C805.811 63.025 802.886 64.225 800.036 65.125C797.236 66.075 794.686 66.55 792.386 66.55ZM792.686 44.425C794.736 43.225 796.761 41.975 798.761 40.675C800.811 39.325 802.511 37.825 803.861 36.175C805.211 34.475 805.886 32.5 805.886 30.25C805.886 29.6 805.711 29.175 805.361 28.975C805.011 28.725 804.511 28.6 803.861 28.6C802.111 28.6 800.511 29.375 799.061 30.925C797.661 32.475 796.411 34.475 795.311 36.925C794.261 39.325 793.386 41.825 792.686 44.425Z" fill="#FE6D73"/>
</svg>
