<svg width="590" height="196" viewBox="0 0 590 196" fill="none" xmlns="http://www.w3.org/2000/svg">
<path d="M33.95 51.95C31.05 51.95 28.2 51.6 25.4 50.9C22.65 50.2 20.05 49.3 17.6 48.2C16.5 52.7 15.55 57.625 14.75 62.975C14.55 64.475 14.25 65.85 13.85 67.1C13.45 68.3 12.825 69.275 11.975 70.025C11.125 70.775 9.875 71.15 8.225 71.15C6.675 71.15 5.65 70.55 5.15 69.35C4.65 68.15 4.4 66.675 4.4 64.925C4.4 64.375 4.6 62.95 5 60.65C5.4 58.35 5.9 55.575 6.5 52.325C7.1 49.025 7.725 45.625 8.375 42.125C6.325 40.075 5.3 38.2 5.3 36.5C5.3 35.65 5.55 34.85 6.05 34.1C6.6 33.3 7.65 32.9 9.2 32.9C9.4 32.9 9.675 32.975 10.025 33.125C10.525 30.325 10.95 27.825 11.3 25.625C11.7 23.375 11.925 21.75 11.975 20.75C12.075 18.85 12.375 17.45 12.875 16.55C13.375 15.6 14 14.975 14.75 14.675C15.55 14.325 16.35 14.15 17.15 14.15C18.2 14.15 19 14.375 19.55 14.825C20.1 15.275 20.375 16.275 20.375 17.825C20.375 19.325 20.35 20.7 20.3 21.95C22.75 17.75 25.3 14.8 27.95 13.1C30.6 11.35 33.5 10.475 36.65 10.475C39.75 10.475 42.45 11.325 44.75 13.025C47.05 14.725 48.825 17.175 50.075 20.375C51.375 23.525 52.025 27.325 52.025 31.775C52.025 38.575 50.45 43.65 47.3 47C44.2 50.3 39.75 51.95 33.95 51.95ZM20.15 39.35C22 40.35 23.975 41.225 26.075 41.975C28.175 42.675 30.325 43.025 32.525 43.025C36.075 43.025 38.675 42.1 40.325 40.25C42.025 38.4 42.875 35.35 42.875 31.1C42.875 23.55 40.6 19.775 36.05 19.775C33.15 19.775 30.325 21.4 27.575 24.65C24.875 27.9 22.4 32.8 20.15 39.35ZM97.6479 38.525C97.6479 41.775 95.7979 45 92.0979 48.2C88.4479 51.35 82.7729 54.15 75.0729 56.6C75.0729 56.65 75.0729 56.725 75.0729 56.825C75.0729 58.475 75.2729 59.8 75.6729 60.8C76.0729 61.75 76.9479 62.225 78.2979 62.225C80.2979 62.225 82.5229 61.625 84.9729 60.425C87.4729 59.175 90.0479 57.6 92.6979 55.7C95.3979 53.75 98.0229 51.7 100.573 49.55C103.123 47.4 105.473 45.375 107.623 43.475C109.823 41.525 111.673 39.95 113.173 38.75C114.723 37.5 115.748 36.875 116.248 36.875C117.298 36.875 118.173 37.275 118.873 38.075C119.623 38.875 119.998 40.075 119.998 41.675C119.998 42.575 119.948 43.65 119.848 44.9C122.048 41.1 124.598 37.975 127.498 35.525C130.398 33.025 133.248 31.175 136.048 29.975C138.898 28.725 141.323 28.1 143.323 28.1C145.573 28.1 147.098 28.55 147.898 29.45C148.698 30.3 149.098 31.2 149.098 32.15C149.098 32.7 148.973 33.25 148.723 33.8C148.523 34.3 147.973 34.85 147.073 35.45C146.223 36.05 144.798 36.75 142.798 37.55C140.148 38.55 137.623 39.725 135.223 41.075C132.873 42.425 130.698 44.275 128.698 46.625C126.748 48.925 124.973 52.025 123.373 55.925C121.823 59.775 120.523 64.725 119.473 70.775C119.123 72.475 118.573 73.625 117.823 74.225C117.073 74.875 116.198 75.2 115.198 75.2C115.098 75.2 114.923 75.2 114.673 75.2C114.223 75.25 113.748 75.2 113.248 75.05C112.798 74.95 112.348 74.525 111.898 73.775C111.498 73.075 111.173 71.85 110.923 70.1C110.673 68.35 110.548 65.85 110.548 62.6C110.548 60.65 110.623 58.6 110.773 56.45C110.973 54.25 111.223 51.975 111.523 49.625C108.973 52.125 106.248 54.65 103.348 57.2C100.448 59.75 97.4479 62.1 94.3479 64.25C91.2979 66.35 88.2979 68.05 85.3479 69.35C82.4479 70.65 79.7479 71.3 77.2479 71.3C73.8979 71.3 71.1479 70.225 68.9979 68.075C66.8979 65.875 65.8479 62.5 65.8479 57.95C65.8479 53.45 66.4479 49.375 67.6479 45.725C68.8979 42.025 70.4979 38.85 72.4479 36.2C74.3979 33.55 76.4729 31.525 78.6729 30.125C80.9229 28.675 83.0229 27.95 84.9729 27.95C89.1229 27.95 92.2729 28.95 94.4229 30.95C96.5729 32.9 97.6479 35.425 97.6479 38.525ZM76.0479 49.925C77.3479 49.275 78.7229 48.525 80.1729 47.675C81.6729 46.775 83.0729 45.85 84.3729 44.9C85.6729 43.9 86.7229 42.925 87.5229 41.975C88.3729 41.025 88.7979 40.125 88.7979 39.275C88.7979 37.875 88.3979 37.025 87.5979 36.725C86.8479 36.375 85.8229 36.2 84.5229 36.2C83.1729 36.2 81.9479 36.925 80.8479 38.375C79.7479 39.775 78.7979 41.525 77.9979 43.625C77.1979 45.725 76.5479 47.825 76.0479 49.925ZM156.014 74.825C153.864 74.825 152.339 74.525 151.439 73.925C150.589 73.325 150.164 72.45 150.164 71.3C150.164 70.3 150.514 69.45 151.214 68.75C151.914 68 153.464 67.25 155.864 66.5C158.664 65.65 161.314 64.675 163.814 63.575C166.364 62.425 168.439 61.175 170.039 59.825C171.689 58.475 172.514 57.05 172.514 55.55C172.514 54.55 172.164 53.825 171.464 53.375C170.814 52.925 170.039 52.7 169.139 52.7C168.389 52.7 167.289 52.825 165.839 53.075C164.439 53.275 162.889 53.55 161.189 53.9C159.489 54.2 157.839 54.475 156.239 54.725C154.689 54.925 153.364 55.025 152.264 55.025C149.664 55.025 147.739 54.45 146.489 53.3C145.239 52.1 144.614 50.575 144.614 48.725C144.614 47.725 145.139 46.35 146.189 44.6C147.239 42.85 148.639 40.925 150.389 38.825C152.139 36.725 154.089 34.625 156.239 32.525C158.389 30.425 160.564 28.5 162.764 26.75C165.014 24.95 167.139 23.525 169.139 22.475C171.139 21.375 172.839 20.825 174.239 20.825C175.839 20.825 177.114 21.325 178.064 22.325C179.064 23.325 179.564 24.675 179.564 26.375C179.564 27.175 179.489 28.05 179.339 29C179.189 29.9 178.814 30.725 178.214 31.475C177.614 32.175 176.689 32.675 175.439 32.975C174.189 33.275 172.489 33.225 170.339 32.825C168.639 34.075 166.864 35.45 165.014 36.95C163.214 38.4 161.514 39.925 159.914 41.525C158.314 43.075 156.989 44.6 155.939 46.1C157.789 45.5 159.889 45.025 162.239 44.675C164.589 44.275 166.964 44.075 169.364 44.075C172.264 44.075 174.614 44.6 176.414 45.65C178.264 46.65 179.614 48 180.464 49.7C181.364 51.4 181.814 53.275 181.814 55.325C181.814 57.625 181.064 59.925 179.564 62.225C178.064 64.525 176.064 66.625 173.564 68.525C171.064 70.425 168.289 71.95 165.239 73.1C162.189 74.25 159.114 74.825 156.014 74.825ZM240.227 74.825C238.277 74.825 236.852 74.3 235.952 73.25C235.052 72.25 234.602 70.225 234.602 67.175C234.602 64.575 235.027 61.2 235.877 57.05C236.727 52.9 237.677 48.425 238.727 43.625C233.177 49.825 226.777 53.775 219.527 55.475C218.077 58.475 216.377 61.225 214.427 63.725C212.477 66.225 210.352 68.25 208.052 69.8C205.802 71.3 203.452 72.05 201.002 72.05C197.952 72.05 195.327 71.05 193.127 69.05C190.977 67.05 189.902 63.975 189.902 59.825C189.902 57.025 190.327 54.65 191.177 52.7C192.027 50.7 193.002 49.2 194.102 48.2C193.202 46.3 192.752 44.125 192.752 41.675C192.752 38.375 193.652 35.45 195.452 32.9C197.252 30.35 199.627 28.35 202.577 26.9C205.577 25.45 208.827 24.725 212.327 24.725C214.277 24.725 216.127 25.225 217.877 26.225C219.677 27.175 221.127 28.65 222.227 30.65C223.377 32.6 223.952 35.075 223.952 38.075C223.952 40.575 223.577 43.325 222.827 46.325C226.377 44.225 229.877 41.35 233.327 37.7C236.827 34.05 239.952 29.95 242.702 25.4C243.552 24.05 244.752 23.375 246.302 23.375C247.602 23.375 248.627 23.775 249.377 24.575C250.177 25.325 250.577 26.325 250.577 27.575C250.577 27.825 250.427 28.65 250.127 30.05C249.827 31.45 249.427 33.275 248.927 35.525C248.427 37.725 247.877 40.15 247.277 42.8C246.727 45.45 246.177 48.15 245.627 50.9C245.077 53.65 244.577 56.25 244.127 58.7C245.427 56.35 246.827 53.85 248.327 51.2C249.877 48.5 251.477 45.85 253.127 43.25C254.777 40.6 256.402 38.2 258.002 36.05C259.602 33.9 261.077 32.2 262.427 30.95C263.777 29.65 264.927 29 265.877 29C267.777 29 269.377 29.55 270.677 30.65C271.977 31.75 272.627 32.875 272.627 34.025C272.627 35.175 272.502 36.95 272.252 39.35C272.002 41.75 271.677 44.45 271.277 47.45C270.927 50.4 270.552 53.375 270.152 56.375C269.752 59.375 269.427 62.1 269.177 64.55C268.927 66.95 268.802 68.75 268.802 69.95C268.802 70.95 268.327 71.9 267.377 72.8C266.427 73.7 265.352 74.15 264.152 74.15C264.052 74.15 263.877 74.15 263.627 74.15C263.027 74.2 262.477 74.1 261.977 73.85C261.477 73.65 261.052 72.9 260.702 71.6C260.402 70.3 260.252 68.1 260.252 65C260.252 62.9 260.352 60.6 260.552 58.1C260.752 55.6 261.002 53.1 261.302 50.6C261.652 48.05 262.027 45.675 262.427 43.475C261.127 45.625 259.677 48.075 258.077 50.825C256.527 53.525 254.902 56.3 253.202 59.15C251.502 61.95 249.827 64.55 248.177 66.95C246.577 69.3 245.077 71.2 243.677 72.65C242.327 74.1 241.177 74.825 240.227 74.825ZM212.027 49.775C212.677 47.825 213.202 45.8 213.602 43.7C214.002 41.55 214.202 39.45 214.202 37.4C214.202 36.55 214.027 35.725 213.677 34.925C213.327 34.125 212.727 33.725 211.877 33.725C210.177 33.725 208.502 34.075 206.852 34.775C205.252 35.475 203.927 36.475 202.877 37.775C201.827 39.075 201.302 40.625 201.302 42.425C201.302 44.025 201.827 45.375 202.877 46.475C203.977 47.575 205.327 48.4 206.927 48.95C208.577 49.5 210.202 49.775 211.802 49.775C211.852 49.775 211.927 49.775 212.027 49.775ZM208.952 56.375C207.202 56.325 205.502 56.1 203.852 55.7C202.202 55.25 200.702 54.625 199.352 53.825C199.202 54.625 199.052 55.4 198.902 56.15C198.752 56.85 198.677 57.525 198.677 58.175C198.677 59.275 198.852 60.275 199.202 61.175C199.602 62.025 200.402 62.45 201.602 62.45C202.852 62.45 204.102 61.9 205.352 60.8C206.652 59.7 207.852 58.225 208.952 56.375ZM291.452 73.85C289.852 73.85 288.402 73.4 287.102 72.5C285.802 71.65 284.777 70.525 284.027 69.125C283.277 67.675 282.902 66.125 282.902 64.475C282.902 61.375 283.577 58.35 284.927 55.4C286.327 52.45 288.152 49.65 290.402 47C292.652 44.35 295.102 41.925 297.752 39.725C300.452 37.475 303.127 35.55 305.777 33.95C308.477 32.35 310.927 31.1 313.127 30.2C315.377 29.3 317.127 28.85 318.377 28.85C319.827 28.85 321.002 29.175 321.902 29.825C322.852 30.425 323.327 31.375 323.327 32.675C323.327 33.075 323.227 33.4 323.027 33.65C323.677 33.8 324.202 34.175 324.602 34.775C325.002 35.375 325.202 36.275 325.202 37.475C325.202 37.975 325.077 39.275 324.827 41.375C324.577 43.475 324.302 46.025 324.002 49.025C323.752 52.025 323.627 55.15 323.627 58.4C323.627 58.9 323.702 59.35 323.852 59.75C324.002 60.1 324.327 60.275 324.827 60.275C326.827 60.275 328.852 59.875 330.902 59.075C333.002 58.225 335.027 57.2 336.977 56C338.977 54.75 340.777 53.525 342.377 52.325C344.027 51.075 345.402 50.05 346.502 49.25C347.652 48.4 348.402 47.975 348.752 47.975C350.452 47.975 351.302 48.825 351.302 50.525C351.302 50.975 350.752 51.925 349.652 53.375C348.602 54.775 347.152 56.4 345.302 58.25C343.452 60.05 341.377 61.85 339.077 63.65C336.827 65.4 334.477 66.85 332.027 68C329.627 69.15 327.302 69.725 325.052 69.725C322.302 69.725 320.202 69.075 318.752 67.775C317.352 66.475 316.352 64.725 315.752 62.525C315.202 60.275 314.902 57.75 314.852 54.95C312.302 58.6 309.652 61.85 306.902 64.7C304.202 67.5 301.527 69.725 298.877 71.375C296.227 73.025 293.752 73.85 291.452 73.85ZM318.002 36.275C313.102 38.625 308.702 41.325 304.802 44.375C300.902 47.375 297.802 50.525 295.502 53.825C293.252 57.125 292.127 60.3 292.127 63.35C292.127 64.2 292.527 64.625 293.327 64.625C294.277 64.625 295.527 64.075 297.077 62.975C298.677 61.875 300.402 60.425 302.252 58.625C304.102 56.775 305.952 54.725 307.802 52.475C309.652 50.175 311.377 47.825 312.977 45.425C314.577 43.025 315.852 40.725 316.802 38.525C317.152 37.725 317.552 36.975 318.002 36.275ZM352.229 74.825C350.079 74.825 348.554 74.525 347.654 73.925C346.804 73.325 346.379 72.45 346.379 71.3C346.379 70.3 346.729 69.45 347.429 68.75C348.129 68 349.679 67.25 352.079 66.5C354.879 65.65 357.529 64.675 360.029 63.575C362.579 62.425 364.654 61.175 366.254 59.825C367.904 58.475 368.729 57.05 368.729 55.55C368.729 54.55 368.379 53.825 367.679 53.375C367.029 52.925 366.254 52.7 365.354 52.7C364.604 52.7 363.504 52.825 362.054 53.075C360.654 53.275 359.104 53.55 357.404 53.9C355.704 54.2 354.054 54.475 352.454 54.725C350.904 54.925 349.579 55.025 348.479 55.025C345.879 55.025 343.954 54.45 342.704 53.3C341.454 52.1 340.829 50.575 340.829 48.725C340.829 47.725 341.354 46.35 342.404 44.6C343.454 42.85 344.854 40.925 346.604 38.825C348.354 36.725 350.304 34.625 352.454 32.525C354.604 30.425 356.779 28.5 358.979 26.75C361.229 24.95 363.354 23.525 365.354 22.475C367.354 21.375 369.054 20.825 370.454 20.825C372.054 20.825 373.329 21.325 374.279 22.325C375.279 23.325 375.779 24.675 375.779 26.375C375.779 27.175 375.704 28.05 375.554 29C375.404 29.9 375.029 30.725 374.429 31.475C373.829 32.175 372.904 32.675 371.654 32.975C370.404 33.275 368.704 33.225 366.554 32.825C364.854 34.075 363.079 35.45 361.229 36.95C359.429 38.4 357.729 39.925 356.129 41.525C354.529 43.075 353.204 44.6 352.154 46.1C354.004 45.5 356.104 45.025 358.454 44.675C360.804 44.275 363.179 44.075 365.579 44.075C368.479 44.075 370.829 44.6 372.629 45.65C374.479 46.65 375.829 48 376.679 49.7C377.579 51.4 378.029 53.275 378.029 55.325C378.029 57.625 377.279 59.925 375.779 62.225C374.279 64.525 372.279 66.625 369.779 68.525C367.279 70.425 364.504 71.95 361.454 73.1C358.404 74.25 355.329 74.825 352.229 74.825Z" fill="#17C3B2"/>
<path d="M440.753 79.925C439.803 79.925 438.978 79.4 438.278 78.35C437.578 77.35 437.253 75.875 437.303 73.925C437.303 73.525 437.353 73 437.453 72.35C434.353 72.25 431.453 71.525 428.753 70.175C426.053 68.775 423.878 66.95 422.228 64.7C420.578 62.45 419.753 60.025 419.753 57.425C419.753 55.625 420.428 53.95 421.778 52.4C423.128 50.8 424.928 49.35 427.178 48.05C429.428 46.7 431.903 45.5 434.603 44.45C432.953 43.35 431.578 42.125 430.478 40.775C429.428 39.375 428.903 37.85 428.903 36.2C428.903 34.5 429.503 32.75 430.703 30.95C431.903 29.15 433.503 27.4 435.503 25.7C437.503 23.95 439.753 22.325 442.253 20.825C444.803 19.325 447.378 18 449.978 16.85C450.578 14.6 451.153 12.475 451.703 10.475C452.303 8.425 452.878 6.5 453.428 4.7C453.778 3.5 454.353 2.475 455.153 1.62499C455.953 0.724997 456.903 0.274999 458.003 0.274999C458.953 0.274999 459.678 0.699998 460.178 1.55C460.678 2.4 460.903 3.4 460.853 4.55C460.803 5.05 460.628 6.125 460.328 7.775C460.028 9.375 459.603 11.375 459.053 13.775C460.953 13.375 462.653 13.175 464.153 13.175C467.053 13.175 469.153 13.675 470.453 14.675C471.753 15.625 472.403 17 472.403 18.8C472.403 19.75 472.078 20.6 471.428 21.35C470.828 22.05 469.503 22.6 467.453 23C465.653 23.3 463.803 23.65 461.903 24.05C460.053 24.4 458.228 24.8 456.428 25.25C455.928 27.5 455.378 29.85 454.778 32.3C454.228 34.7 453.653 37.175 453.053 39.725C455.203 39.425 457.028 39.275 458.528 39.275C460.328 39.275 462.003 39.575 463.553 40.175C465.103 40.775 465.878 41.85 465.878 43.4C465.878 44.25 465.478 45.15 464.678 46.1C463.878 47 462.378 47.775 460.178 48.425C458.028 49.075 454.903 49.425 450.803 49.475C450.353 51.475 449.878 53.475 449.378 55.475C448.928 57.425 448.503 59.375 448.103 61.325C451.503 60.725 454.603 59.975 457.403 59.075C460.253 58.125 462.728 57.175 464.828 56.225C466.978 55.275 468.728 54.5 470.078 53.9C471.428 53.25 472.328 52.925 472.778 52.925C473.628 52.925 474.328 53.225 474.878 53.825C475.428 54.375 475.703 55.075 475.703 55.925C475.703 56.675 475.078 57.825 473.828 59.375C472.578 60.875 470.703 62.5 468.203 64.25C465.753 65.95 462.628 67.525 458.828 68.975C455.078 70.375 450.703 71.35 445.703 71.9C445.503 72.85 445.303 73.775 445.103 74.675C444.603 76.675 443.978 78.05 443.228 78.8C442.478 79.55 441.653 79.925 440.753 79.925ZM439.328 62.225C440.078 58.425 440.978 54.175 442.028 49.475C439.878 50.225 437.778 51.05 435.728 51.95C433.728 52.85 432.078 53.9 430.778 55.1C429.478 56.3 428.828 57.75 428.828 59.45C428.828 60.15 429.228 60.725 430.028 61.175C430.828 61.575 431.853 61.875 433.103 62.075C434.353 62.225 435.653 62.3 437.003 62.3C437.753 62.3 438.528 62.275 439.328 62.225ZM443.903 41.525C444.403 39.325 444.903 37.1 445.403 34.85C445.953 32.6 446.503 30.375 447.053 28.175C444.403 29.225 442.228 30.4 440.528 31.7C438.828 32.95 437.978 34.325 437.978 35.825C437.978 36.925 438.503 37.975 439.553 38.975C440.603 39.975 441.928 40.85 443.528 41.6C443.628 41.6 443.753 41.575 443.903 41.525Z" fill="black"/>
<path d="M6.8 176.925C4.8 176.925 3.3 176.375 2.3 175.275C1.3 174.175 0.8 173.05 0.8 171.9C0.8 170.55 1.05 169.525 1.55 168.825C2.05 168.125 3.025 167.6 4.475 167.25C6.375 166.85 8.35 166.35 10.4 165.75C12.5 165.15 14.5 164.525 16.4 163.875C18.35 163.175 20.05 162.475 21.5 161.775C22.95 161.025 24 160.325 24.65 159.675C23.85 159.225 22.575 158.7 20.825 158.1C19.075 157.45 17.125 156.7 14.975 155.85C12.875 154.95 10.85 153.9 8.9 152.7C6.95 151.5 5.35 150.1 4.1 148.5C2.85 146.9 2.225 145.075 2.225 143.025C2.225 140.175 2.95 137.5 4.4 135C5.85 132.5 7.775 130.175 10.175 128.025C12.575 125.875 15.175 123.9 17.975 122.1C20.825 120.3 23.65 118.675 26.45 117.225C29.3 115.725 31.85 114.4 34.1 113.25C34.95 112.75 35.75 112.425 36.5 112.275C37.3 112.075 38.025 111.975 38.675 111.975C40.925 111.975 42.475 112.525 43.325 113.625C44.175 114.725 44.6 115.85 44.6 117C44.6 117.8 44.225 118.75 43.475 119.85C42.725 120.9 41.525 121.875 39.875 122.775C38.275 123.675 36.15 124.325 33.5 124.725C33.05 124.775 32.65 124.825 32.3 124.875C30.3 125.875 28.15 127.075 25.85 128.475C23.55 129.875 21.375 131.35 19.325 132.9C17.325 134.4 15.675 135.9 14.375 137.4C13.075 138.9 12.425 140.25 12.425 141.45C12.425 142.8 12.975 144.025 14.075 145.125C15.175 146.175 16.575 147.15 18.275 148.05C20.025 148.9 21.85 149.725 23.75 150.525C25.7 151.325 27.525 152.15 29.225 153C30.975 153.8 32.4 154.7 33.5 155.7C34.6 156.7 35.15 157.825 35.15 159.075C35.15 160.775 34.575 162.4 33.425 163.95C32.275 165.5 30.775 166.95 28.925 168.3C27.075 169.6 25.05 170.775 22.85 171.825C20.65 172.875 18.475 173.775 16.325 174.525C14.225 175.325 12.325 175.925 10.625 176.325C8.925 176.725 7.65 176.925 6.8 176.925ZM99.8762 136.2C99.8762 136.8 99.6762 137.325 99.2762 137.775C98.8762 138.225 98.3762 138.575 97.7762 138.825C96.9262 139.175 95.4512 139.625 93.3512 140.175C91.2512 140.725 88.7012 141.35 85.7012 142.05C82.7512 142.75 79.5762 143.475 76.1762 144.225C72.7762 144.925 69.3762 145.6 65.9762 146.25C64.6762 151.05 63.3512 156 62.0012 161.1C60.6512 166.15 59.3012 171.125 57.9512 176.025C57.4512 177.775 56.8512 179.1 56.1512 180C55.4512 180.95 54.2512 181.425 52.5512 181.425C50.7012 181.425 49.4512 180.825 48.8012 179.625C48.2012 178.475 48.1262 176.9 48.5762 174.9C49.8762 169.45 51.0762 164.375 52.1762 159.675C53.3262 154.975 54.2512 151.175 54.9512 148.275C51.9512 148.775 49.3262 149.175 47.0762 149.475C44.8262 149.725 43.2262 149.825 42.2762 149.775C41.2262 149.675 40.3512 149.25 39.6512 148.5C38.9512 147.75 38.6262 146.825 38.6762 145.725C38.7762 144.725 39.2262 143.875 40.0262 143.175C40.8262 142.425 41.7762 141.975 42.8762 141.825C44.4262 141.675 46.4262 141.45 48.8762 141.15C51.3262 140.85 54.0262 140.5 56.9762 140.1C57.6262 137.55 58.3762 134.925 59.2262 132.225C60.0762 129.475 60.9512 126.85 61.8512 124.35C62.8012 121.8 63.7012 119.575 64.5512 117.675C65.4012 115.775 66.1762 114.4 66.8762 113.55C67.4262 112.9 68.1012 112.4 68.9012 112.05C69.7512 111.7 70.5762 111.525 71.3762 111.525C72.4262 111.525 73.2762 111.9 73.9262 112.65C74.5762 113.4 74.9012 114.275 74.9012 115.275C74.9012 115.675 74.8762 116.1 74.8262 116.55C74.7762 116.95 74.6762 117.35 74.5262 117.75C73.5762 120.25 72.5512 123.275 71.4512 126.825C70.4012 130.375 69.3012 134.275 68.1512 138.525C71.9012 137.975 75.5762 137.425 79.1762 136.875C82.8262 136.275 86.1262 135.725 89.0762 135.225C92.0762 134.675 94.4762 134.2 96.2762 133.8C97.2762 133.45 98.1262 133.525 98.8262 134.025C99.5262 134.475 99.8762 135.2 99.8762 136.2ZM101.053 176.475C97.5027 176.475 94.6527 175.225 92.5027 172.725C90.3527 170.175 89.2777 166.775 89.2777 162.525C89.2777 161.175 89.4527 159.8 89.8027 158.4C90.2027 157 90.6777 155.7 91.2277 154.5C90.9277 154.05 90.6777 153.475 90.4777 152.775C90.3277 152.025 90.2527 151.15 90.2527 150.15C90.2527 146.9 90.8277 143.925 91.9777 141.225C93.1277 138.475 94.6777 136.1 96.6277 134.1C98.5777 132.1 100.728 130.55 103.078 129.45C105.428 128.35 107.803 127.8 110.203 127.8C114.303 127.8 117.653 129.175 120.253 131.925C122.903 134.675 124.228 138.95 124.228 144.75C124.228 147.65 123.778 150.6 122.878 153.6C121.978 156.6 120.753 159.475 119.203 162.225C117.703 164.925 115.953 167.35 113.953 169.5C112.003 171.65 109.903 173.35 107.653 174.6C105.453 175.85 103.253 176.475 101.053 176.475ZM99.8527 151.125C100.103 151.675 100.228 152.325 100.228 153.075C100.228 153.825 100.078 154.6 99.7777 155.4C99.4777 156.2 99.1777 157.275 98.8777 158.625C98.5777 159.925 98.4277 161.8 98.4277 164.25C98.4277 164.9 98.5027 165.45 98.6527 165.9C98.8527 166.3 99.2777 166.5 99.9277 166.5C101.628 166.5 103.228 165.95 104.728 164.85C106.278 163.75 107.653 162.3 108.853 160.5C110.103 158.7 111.153 156.7 112.003 154.5C112.903 152.25 113.578 149.975 114.028 147.675C114.528 145.325 114.778 143.15 114.778 141.15C114.778 139.85 114.528 138.95 114.028 138.45C113.528 137.95 112.653 137.7 111.403 137.7C109.703 137.7 107.953 138.25 106.153 139.35C104.403 140.4 102.928 141.85 101.728 143.7C100.528 145.5 99.9277 147.55 99.9277 149.85C99.9277 150.3 99.9027 150.725 99.8527 151.125ZM135.857 177.3C134.607 177.3 133.532 176.85 132.632 175.95C131.782 175.05 131.357 173.75 131.357 172.05C131.357 171.3 131.457 170.075 131.657 168.375C131.907 166.625 132.207 164.625 132.557 162.375C132.957 160.125 133.332 157.775 133.682 155.325C134.082 152.875 134.407 150.55 134.657 148.35C134.957 146.15 135.157 144.275 135.257 142.725C135.357 140.825 135.857 139.475 136.757 138.675C137.657 137.825 138.732 137.4 139.982 137.4C140.982 137.4 141.882 137.65 142.682 138.15C143.532 138.6 144.057 139.575 144.257 141.075C144.507 142.525 144.532 144.625 144.332 147.375C146.532 143.375 148.757 139.8 151.007 136.65C153.307 133.5 155.707 131 158.207 129.15C162.357 126 166.107 124.425 169.457 124.425C171.357 124.425 172.607 124.85 173.207 125.7C173.807 126.55 174.107 127.425 174.107 128.325C174.107 128.925 173.957 129.475 173.657 129.975C173.407 130.475 172.857 131 172.007 131.55C171.157 132.1 169.857 132.825 168.107 133.725C165.757 134.925 163.432 136.5 161.132 138.45C158.882 140.4 156.632 142.9 154.382 145.95C152.132 149 149.857 152.75 147.557 157.2C145.257 161.65 142.882 166.95 140.432 173.1C139.982 174.8 139.332 175.925 138.482 176.475C137.682 177.025 136.807 177.3 135.857 177.3ZM182.892 194.625C180.092 194.625 177.542 194.45 175.242 194.1C172.942 193.8 170.692 193.3 168.492 192.6C166.292 191.9 163.917 190.975 161.367 189.825C160.317 189.325 159.442 188.8 158.742 188.25C158.042 187.7 157.692 186.875 157.692 185.775C157.692 184.175 158.192 182.95 159.192 182.1C160.142 181.3 161.467 180.9 163.167 180.9C164.067 180.9 165.217 181.2 166.617 181.8C168.017 182.45 169.617 183.175 171.417 183.975C173.267 184.825 175.317 185.55 177.567 186.15C179.817 186.8 182.242 187.125 184.842 187.125C187.492 187.125 189.967 186.025 192.267 183.825C194.567 181.625 196.417 178.525 197.817 174.525C199.267 170.575 199.992 165.9 199.992 160.5C199.992 159.25 199.967 157.9 199.917 156.45C199.867 154.95 199.817 153.375 199.767 151.725C197.967 155.125 196.017 158.3 193.917 161.25C191.817 164.2 189.642 166.6 187.392 168.45C185.192 170.25 182.967 171.15 180.717 171.15C177.967 171.15 175.967 170.5 174.717 169.2C173.517 167.85 172.917 165.725 172.917 162.825C172.917 160.375 173.092 157.7 173.442 154.8C173.842 151.85 174.367 148.875 175.017 145.875C175.667 142.875 176.417 140.025 177.267 137.325C178.167 134.575 179.117 132.2 180.117 130.2C180.867 128.75 182.017 128.025 183.567 128.025C184.567 128.025 185.567 128.5 186.567 129.45C187.617 130.4 188.142 131.675 188.142 133.275C188.142 134.175 187.917 135.475 187.467 137.175C187.017 138.875 186.467 140.8 185.817 142.95C185.217 145.05 184.592 147.275 183.942 149.625C183.292 151.925 182.742 154.2 182.292 156.45C181.842 158.65 181.617 160.65 181.617 162.45C181.617 162.65 181.767 162.75 182.067 162.75C182.667 162.75 183.467 162.25 184.467 161.25C185.517 160.2 186.667 158.85 187.917 157.2C189.217 155.5 190.517 153.65 191.817 151.65C193.167 149.6 194.467 147.575 195.717 145.575C196.967 143.575 198.092 141.75 199.092 140.1C198.942 139.3 198.842 138.6 198.792 138C198.792 137.35 198.792 136.8 198.792 136.35C198.792 134.3 199.142 132.6 199.842 131.25C200.592 129.9 202.042 129.225 204.192 129.225C205.592 129.225 206.667 129.75 207.417 130.8C208.167 131.8 208.542 133.225 208.542 135.075C208.542 135.875 208.417 136.8 208.167 137.85C207.917 138.85 207.417 140.45 206.667 142.65L207.492 140.325C207.942 144.825 208.317 148.825 208.617 152.325C208.967 155.825 209.142 159.3 209.142 162.75C209.142 169.25 208.042 174.875 205.842 179.625C203.692 184.425 200.642 188.125 196.692 190.725C192.792 193.325 188.192 194.625 182.892 194.625ZM230.093 176.325C227.093 176.325 225.018 175.725 223.868 174.525C222.768 173.375 222.218 171.775 222.218 169.725C222.218 161.025 223.843 151.95 227.093 142.5C230.393 133 235.018 123.475 240.968 113.925C241.968 112.275 242.793 111.3 243.443 111C244.093 110.7 244.818 110.55 245.618 110.55C246.768 110.55 247.768 110.95 248.618 111.75C249.518 112.55 249.968 113.6 249.968 114.9C249.968 115.3 249.543 116.4 248.693 118.2C247.843 120 246.718 122.3 245.318 125.1C243.968 127.9 242.493 131.075 240.893 134.625C239.293 138.125 237.718 141.825 236.168 145.725C234.668 149.625 233.368 153.55 232.268 157.5C233.968 155.35 235.893 153.15 238.043 150.9C240.243 148.6 242.518 146.5 244.868 144.6C247.218 142.65 249.493 141.1 251.693 139.95C253.893 138.75 255.868 138.15 257.618 138.15C259.268 138.15 260.793 138.55 262.193 139.35C263.643 140.15 264.818 141.4 265.718 143.1C266.618 144.8 267.068 147 267.068 149.7C267.068 152.65 266.218 155.675 264.518 158.775C262.868 161.875 260.443 164.75 257.243 167.4C254.093 170.05 250.218 172.2 245.618 173.85C241.068 175.5 235.893 176.325 230.093 176.325ZM233.243 167.775C237.093 167.475 240.568 166.65 243.668 165.3C246.818 163.95 249.518 162.275 251.768 160.275C254.018 158.275 255.743 156.175 256.943 153.975C258.143 151.725 258.743 149.6 258.743 147.6C258.743 147.15 258.618 146.925 258.368 146.925C257.318 146.925 255.993 147.4 254.393 148.35C252.793 149.25 251.043 150.475 249.143 152.025C247.243 153.575 245.318 155.275 243.368 157.125C241.418 158.975 239.568 160.825 237.818 162.675C236.068 164.525 234.543 166.225 233.243 167.775ZM284.305 176.475C280.755 176.475 277.905 175.225 275.755 172.725C273.605 170.175 272.53 166.775 272.53 162.525C272.53 161.175 272.705 159.8 273.055 158.4C273.455 157 273.93 155.7 274.48 154.5C274.18 154.05 273.93 153.475 273.73 152.775C273.58 152.025 273.505 151.15 273.505 150.15C273.505 146.9 274.08 143.925 275.23 141.225C276.38 138.475 277.93 136.1 279.88 134.1C281.83 132.1 283.98 130.55 286.33 129.45C288.68 128.35 291.055 127.8 293.455 127.8C297.555 127.8 300.905 129.175 303.505 131.925C306.155 134.675 307.48 138.95 307.48 144.75C307.48 147.65 307.03 150.6 306.13 153.6C305.23 156.6 304.005 159.475 302.455 162.225C300.955 164.925 299.205 167.35 297.205 169.5C295.255 171.65 293.155 173.35 290.905 174.6C288.705 175.85 286.505 176.475 284.305 176.475ZM283.105 151.125C283.355 151.675 283.48 152.325 283.48 153.075C283.48 153.825 283.33 154.6 283.03 155.4C282.73 156.2 282.43 157.275 282.13 158.625C281.83 159.925 281.68 161.8 281.68 164.25C281.68 164.9 281.755 165.45 281.905 165.9C282.105 166.3 282.53 166.5 283.18 166.5C284.88 166.5 286.48 165.95 287.98 164.85C289.53 163.75 290.905 162.3 292.105 160.5C293.355 158.7 294.405 156.7 295.255 154.5C296.155 152.25 296.83 149.975 297.28 147.675C297.78 145.325 298.03 143.15 298.03 141.15C298.03 139.85 297.78 138.95 297.28 138.45C296.78 137.95 295.905 137.7 294.655 137.7C292.955 137.7 291.205 138.25 289.405 139.35C287.655 140.4 286.18 141.85 284.98 143.7C283.78 145.5 283.18 147.55 283.18 149.85C283.18 150.3 283.155 150.725 283.105 151.125ZM321.188 176.85C319.588 176.85 318.138 176.4 316.838 175.5C315.538 174.65 314.513 173.525 313.763 172.125C313.013 170.675 312.638 169.125 312.638 167.475C312.638 164.375 313.313 161.35 314.663 158.4C316.063 155.45 317.888 152.65 320.138 150C322.388 147.35 324.838 144.925 327.488 142.725C330.188 140.475 332.863 138.55 335.513 136.95C338.213 135.35 340.663 134.1 342.863 133.2C345.113 132.3 346.863 131.85 348.113 131.85C349.563 131.85 350.738 132.175 351.638 132.825C352.588 133.425 353.063 134.375 353.063 135.675C353.063 136.075 352.963 136.4 352.763 136.65C353.413 136.8 353.938 137.175 354.338 137.775C354.738 138.375 354.938 139.275 354.938 140.475C354.938 140.975 354.813 142.275 354.563 144.375C354.313 146.475 354.038 149.025 353.738 152.025C353.488 155.025 353.363 158.15 353.363 161.4C353.363 161.9 353.438 162.35 353.588 162.75C353.738 163.1 354.063 163.275 354.563 163.275C356.563 163.275 358.588 162.875 360.638 162.075C362.738 161.225 364.763 160.2 366.713 159C368.713 157.75 370.513 156.525 372.113 155.325C373.763 154.075 375.138 153.05 376.238 152.25C377.388 151.4 378.138 150.975 378.488 150.975C380.188 150.975 381.038 151.825 381.038 153.525C381.038 153.975 380.488 154.925 379.388 156.375C378.338 157.775 376.888 159.4 375.038 161.25C373.188 163.05 371.113 164.85 368.813 166.65C366.563 168.4 364.213 169.85 361.763 171C359.363 172.15 357.038 172.725 354.788 172.725C352.038 172.725 349.938 172.075 348.488 170.775C347.088 169.475 346.088 167.725 345.488 165.525C344.938 163.275 344.638 160.75 344.588 157.95C342.038 161.6 339.388 164.85 336.638 167.7C333.938 170.5 331.263 172.725 328.613 174.375C325.963 176.025 323.488 176.85 321.188 176.85ZM347.738 139.275C342.838 141.625 338.438 144.325 334.538 147.375C330.638 150.375 327.538 153.525 325.238 156.825C322.988 160.125 321.863 163.3 321.863 166.35C321.863 167.2 322.263 167.625 323.063 167.625C324.013 167.625 325.263 167.075 326.813 165.975C328.413 164.875 330.138 163.425 331.988 161.625C333.838 159.775 335.688 157.725 337.538 155.475C339.388 153.175 341.113 150.825 342.713 148.425C344.313 146.025 345.588 143.725 346.538 141.525C346.888 140.725 347.288 139.975 347.738 139.275ZM378.435 177.3C377.185 177.3 376.11 176.85 375.21 175.95C374.36 175.05 373.935 173.75 373.935 172.05C373.935 171.3 374.035 170.075 374.235 168.375C374.485 166.625 374.785 164.625 375.135 162.375C375.535 160.125 375.91 157.775 376.26 155.325C376.66 152.875 376.985 150.55 377.235 148.35C377.535 146.15 377.735 144.275 377.835 142.725C377.935 140.825 378.435 139.475 379.335 138.675C380.235 137.825 381.31 137.4 382.56 137.4C383.56 137.4 384.46 137.65 385.26 138.15C386.11 138.6 386.635 139.575 386.835 141.075C387.085 142.525 387.11 144.625 386.91 147.375C389.11 143.375 391.335 139.8 393.585 136.65C395.885 133.5 398.285 131 400.785 129.15C404.935 126 408.685 124.425 412.035 124.425C413.935 124.425 415.185 124.85 415.785 125.7C416.385 126.55 416.685 127.425 416.685 128.325C416.685 128.925 416.535 129.475 416.235 129.975C415.985 130.475 415.435 131 414.585 131.55C413.735 132.1 412.435 132.825 410.685 133.725C408.335 134.925 406.01 136.5 403.71 138.45C401.46 140.4 399.21 142.9 396.96 145.95C394.71 149 392.435 152.75 390.135 157.2C387.835 161.65 385.46 166.95 383.01 173.1C382.56 174.8 381.91 175.925 381.06 176.475C380.26 177.025 379.385 177.3 378.435 177.3ZM441.619 133.875C444.369 127.325 446.794 120.575 448.894 113.625C449.294 112.225 449.869 111.15 450.619 110.4C451.419 109.65 452.519 109.275 453.919 109.275C455.069 109.275 455.944 109.625 456.544 110.325C457.144 110.975 457.444 111.875 457.444 113.025C457.444 113.975 457.044 115.675 456.244 118.125C455.444 120.525 454.469 123.575 453.319 127.275C452.169 130.975 451.019 135.25 449.869 140.1C448.719 144.95 447.744 150.275 446.944 156.075C446.144 161.875 445.744 168.075 445.744 174.675C445.744 176.475 445.394 177.95 444.694 179.1C444.044 180.3 442.894 180.9 441.244 180.9C439.444 180.9 438.119 180.275 437.269 179.025C436.469 177.775 436.069 176.175 436.069 174.225C436.069 170.375 436.194 167.175 436.444 164.625C436.744 162.025 437.044 159.8 437.344 157.95C434.894 162.15 432.294 165.775 429.544 168.825C426.844 171.825 424.244 174.125 421.744 175.725C419.244 177.375 417.094 178.2 415.294 178.2C412.344 178.2 409.944 177.375 408.094 175.725C406.244 174.075 405.319 171.575 405.319 168.225C405.319 165.625 405.944 162.95 407.194 160.2C408.444 157.4 410.094 154.65 412.144 151.95C414.194 149.25 416.444 146.725 418.894 144.375C421.394 141.975 423.894 139.875 426.394 138.075C428.894 136.225 431.219 134.775 433.369 133.725C435.519 132.675 437.269 132.15 438.619 132.15C440.119 132.15 441.119 132.725 441.619 133.875ZM439.894 137.925C439.594 138.125 439.269 138.325 438.919 138.525C438.619 138.675 438.319 138.85 438.019 139.05C436.119 140.25 434.094 141.7 431.944 143.4C429.794 145.05 427.669 146.9 425.569 148.95C423.469 150.95 421.544 153.05 419.794 155.25C418.094 157.4 416.719 159.55 415.669 161.7C414.669 163.8 414.169 165.825 414.169 167.775C414.169 168.125 414.319 168.375 414.619 168.525C414.919 168.675 415.194 168.75 415.444 168.75C417.194 168.75 419.069 167.975 421.069 166.425C423.119 164.875 425.194 162.725 427.294 159.975C429.444 157.175 431.569 153.9 433.669 150.15C435.819 146.4 437.894 142.325 439.894 137.925ZM465.548 175.125C464.148 175.125 462.898 174.65 461.798 173.7C460.748 172.75 460.223 171.2 460.223 169.05C460.223 167.9 460.373 166.275 460.673 164.175C461.023 162.075 461.473 159.8 462.023 157.35C462.573 154.85 463.173 152.375 463.823 149.925C464.523 147.475 465.198 145.3 465.848 143.4C466.498 141.45 467.073 140 467.573 139.05C468.223 137.9 468.823 137.2 469.373 136.95C469.973 136.65 470.548 136.5 471.098 136.5C472.098 136.5 473.023 136.8 473.873 137.4C474.773 138 475.223 139.325 475.223 141.375C475.223 142.175 475.073 143.475 474.773 145.275C474.473 147.025 474.098 149.075 473.648 151.425C473.198 153.775 472.698 156.2 472.148 158.7C471.648 161.2 471.148 163.575 470.648 165.825C470.198 168.025 469.823 169.875 469.523 171.375C469.273 172.625 468.748 173.55 467.948 174.15C467.198 174.8 466.398 175.125 465.548 175.125ZM474.173 129.075C472.523 129.075 470.998 128.6 469.598 127.65C468.198 126.65 467.498 125.125 467.498 123.075C467.498 121.375 467.923 120 468.773 118.95C469.623 117.9 470.623 117.15 471.773 116.7C472.973 116.2 474.023 115.95 474.923 115.95C475.823 115.95 476.823 116.15 477.923 116.55C479.023 116.9 479.973 117.575 480.773 118.575C481.623 119.525 482.048 120.9 482.048 122.7C482.048 123.9 481.623 125 480.773 126C479.923 126.95 478.873 127.7 477.623 128.25C476.423 128.8 475.273 129.075 474.173 129.075ZM492.8 174C491.6 174 490.4 173.6 489.2 172.8C488.05 171.95 487.1 170.75 486.35 169.2C485.6 167.6 485.225 165.675 485.225 163.425C485.225 160.425 485.625 157.225 486.425 153.825C487.275 150.425 488.3 147.025 489.5 143.625C490.7 140.225 491.875 137.025 493.025 134.025C493.575 132.575 494.25 131.6 495.05 131.1C495.85 130.55 496.9 130.275 498.2 130.275C501.15 130.275 502.625 131.75 502.625 134.7C502.625 135.2 502.4 136.175 501.95 137.625C501.5 139.025 500.9 140.75 500.15 142.8C499.45 144.85 498.7 147.075 497.9 149.475C497.15 151.825 496.45 154.225 495.8 156.675C495.2 159.075 494.725 161.35 494.375 163.5C495.525 161.75 496.8 159.575 498.2 156.975C499.65 154.325 501.175 151.55 502.775 148.65C504.425 145.75 506.075 143.05 507.725 140.55C509.375 138 511 135.925 512.6 134.325C514.2 132.725 515.725 131.925 517.175 131.925C518.425 131.925 519.6 132.175 520.7 132.675C521.85 133.125 522.85 134.025 523.7 135.375C524.55 136.675 525.2 138.55 525.65 141C526.15 143.45 526.4 146.675 526.4 150.675C526.4 152.675 526.575 154.625 526.925 156.525C527.325 158.375 527.975 159.925 528.875 161.175C529.775 162.375 531.05 162.975 532.7 162.975C535.55 162.975 538.1 162.45 540.35 161.4C542.6 160.35 544.575 159.125 546.275 157.725C547.975 156.325 549.4 155.1 550.55 154.05C551.25 153.35 551.85 152.8 552.35 152.4C552.9 152 553.35 151.8 553.7 151.8C554.75 151.8 555.5 152.075 555.95 152.625C556.45 153.175 556.7 153.925 556.7 154.875C556.7 155.375 556.275 156.3 555.425 157.65C554.575 159 553.375 160.55 551.825 162.3C550.325 164 548.6 165.65 546.65 167.25C544.7 168.85 542.6 170.175 540.35 171.225C538.1 172.275 535.8 172.8 533.45 172.8C529.5 172.8 526.225 172.1 523.625 170.7C521.075 169.25 519.175 166.85 517.925 163.5C516.675 160.1 516.05 155.475 516.05 149.625C516.05 149.475 516.05 149.225 516.05 148.875C516.05 147.325 516.025 145.95 515.975 144.75C515.975 143.55 515.9 142.575 515.75 141.825C514.9 143.375 513.875 145.225 512.675 147.375C511.525 149.525 510.275 151.825 508.925 154.275C507.575 156.675 506.175 159.05 504.725 161.4C503.275 163.7 501.825 165.8 500.375 167.7C498.975 169.6 497.625 171.125 496.325 172.275C495.025 173.425 493.85 174 492.8 174ZM556.094 195.6C552.344 195.6 549.494 195.325 547.544 194.775C545.644 194.225 544.344 193.5 543.644 192.6C542.944 191.75 542.594 190.875 542.594 189.975C542.594 188.725 542.994 187.7 543.794 186.9C544.644 186.1 545.744 185.7 547.094 185.7C547.994 185.7 549.294 185.825 550.994 186.075C552.694 186.325 554.394 186.45 556.094 186.45C561.094 186.45 565.219 185.25 568.469 182.85C571.719 180.5 574.269 176.925 576.119 172.125C577.969 167.275 579.244 161.175 579.944 153.825C576.494 159.475 572.669 164 568.469 167.4C564.319 170.8 559.994 172.5 555.494 172.5C550.194 172.5 547.544 169.9 547.544 164.7C547.544 162.2 548.219 159.575 549.569 156.825C550.919 154.075 552.719 151.35 554.969 148.65C557.219 145.95 559.694 143.4 562.394 141C565.094 138.55 567.794 136.4 570.494 134.55C573.244 132.7 575.794 131.25 578.144 130.2C580.494 129.1 582.394 128.55 583.844 128.55C584.994 128.55 585.994 128.75 586.844 129.15C587.744 129.55 588.444 130.35 588.944 131.55C589.444 132.7 589.694 134.4 589.694 136.65C589.694 142.9 589.469 148.95 589.019 154.8C588.569 160.6 587.694 165.975 586.394 170.925C585.094 175.875 583.194 180.2 580.694 183.9C578.244 187.6 575.019 190.475 571.019 192.525C567.019 194.575 562.044 195.6 556.094 195.6ZM557.144 163.2C557.144 163.55 557.294 163.725 557.594 163.725C558.594 163.725 559.944 163.2 561.644 162.15C563.344 161.05 565.169 159.6 567.119 157.8C569.119 155.95 571.069 153.9 572.969 151.65C574.869 149.35 576.544 146.975 577.994 144.525C579.494 142.075 580.569 139.7 581.219 137.4C578.619 138.9 575.919 140.65 573.119 142.65C570.369 144.6 567.769 146.7 565.319 148.95C562.919 151.2 560.944 153.55 559.394 156C557.894 158.4 557.144 160.8 557.144 163.2Z" fill="#10857A"/>
</svg>
