<svg width="398" height="188" viewBox="0 0 398 188" fill="none" xmlns="http://www.w3.org/2000/svg">
<path d="M14.825 22.95C12.425 22.95 10.725 22.7 9.725 22.2C8.725 21.7 8.125 21.1 7.925 20.4C7.725 19.7 7.625 19.1 7.625 18.6C7.625 18.55 7.625 18.525 7.625 18.525C7.625 17.425 8.125 16.375 9.125 15.375C10.125 14.325 11.525 13.6 13.325 13.2C14.825 12.9 16.6 12.6 18.65 12.3C20.75 11.95 22.95 11.65 25.25 11.4C27.6 11.1 29.85 10.875 32 10.725C34.15 10.575 36.05 10.5 37.7 10.5C39.9 10.5 41.6 10.825 42.8 11.475C44 12.075 44.825 12.775 45.275 13.575C45.775 14.375 46.025 15.05 46.025 15.6C46.025 16.1 45.9 16.6 45.65 17.1C45.4 17.6 44.775 18.1 43.775 18.6C42.825 19.1 41.3 19.575 39.2 20.025C37.1 20.475 34.2 20.9 30.5 21.3C30.15 21.35 29.775 21.4 29.375 21.45C29.025 23.6 28.6 26.175 28.1 29.175C27.6 32.125 27.05 35.225 26.45 38.475C25.9 41.675 25.35 44.75 24.8 47.7C24.3 50.6 23.85 53.075 23.45 55.125C25.5 54.925 27.3 54.775 28.85 54.675C30.45 54.575 31.525 54.525 32.075 54.525C33.825 54.525 35.025 54.9 35.675 55.65C36.325 56.35 36.65 57.275 36.65 58.425C36.65 58.875 35.85 59.575 34.25 60.525C32.65 61.475 30.425 62.5 27.575 63.6C24.775 64.7 21.55 65.675 17.9 66.525C15.5 67.075 13.125 67.5 10.775 67.8C8.425 68.1 6.725 68.25 5.675 68.25C3.625 68.25 2.3 67.875 1.7 67.125C1.15 66.375 0.875 65.425 0.875 64.275C0.875 63.275 1.175 62.25 1.775 61.2C2.425 60.15 3.325 59.4 4.475 58.95C5.675 58.5 7 58.075 8.45 57.675C9.9 57.275 11.4 56.925 12.95 56.625C13.05 55.325 13.25 53.6 13.55 51.45C13.85 49.3 14.175 46.95 14.525 44.4C14.925 41.8 15.325 39.175 15.725 36.525C16.175 33.825 16.6 31.3 17 28.95C17.45 26.55 17.825 24.475 18.125 22.725C16.675 22.875 15.575 22.95 14.825 22.95ZM102.217 25.2C102.217 25.8 102.017 26.325 101.617 26.775C101.217 27.225 100.717 27.575 100.117 27.825C99.267 28.175 97.792 28.625 95.692 29.175C93.592 29.725 91.042 30.35 88.042 31.05C85.092 31.75 81.917 32.475 78.517 33.225C75.117 33.925 71.717 34.6 68.317 35.25C67.017 40.05 65.692 45 64.342 50.1C62.992 55.15 61.642 60.125 60.292 65.025C59.792 66.775 59.192 68.1 58.492 69C57.792 69.95 56.592 70.425 54.892 70.425C53.042 70.425 51.792 69.825 51.142 68.625C50.542 67.475 50.467 65.9 50.917 63.9C52.217 58.45 53.417 53.375 54.517 48.675C55.667 43.975 56.592 40.175 57.292 37.275C54.292 37.775 51.667 38.175 49.417 38.475C47.167 38.725 45.567 38.825 44.617 38.775C43.567 38.675 42.692 38.25 41.992 37.5C41.292 36.75 40.967 35.825 41.017 34.725C41.117 33.725 41.567 32.875 42.367 32.175C43.167 31.425 44.117 30.975 45.217 30.825C46.767 30.675 48.767 30.45 51.217 30.15C53.667 29.85 56.367 29.5 59.317 29.1C59.967 26.55 60.717 23.925 61.567 21.225C62.417 18.475 63.292 15.85 64.192 13.35C65.142 10.8 66.042 8.575 66.892 6.675C67.742 4.775 68.517 3.4 69.217 2.55C69.767 1.9 70.442 1.4 71.242 1.05C72.092 0.699996 72.917 0.524995 73.717 0.524995C74.767 0.524995 75.617 0.899996 76.267 1.65C76.917 2.4 77.242 3.275 77.242 4.275C77.242 4.675 77.217 5.1 77.167 5.55C77.117 5.95 77.017 6.35 76.867 6.75C75.917 9.25 74.892 12.275 73.792 15.825C72.742 19.375 71.642 23.275 70.492 27.525C74.242 26.975 77.917 26.425 81.517 25.875C85.167 25.275 88.467 24.725 91.417 24.225C94.417 23.675 96.817 23.2 98.617 22.8C99.617 22.45 100.467 22.525 101.167 23.025C101.867 23.475 102.217 24.2 102.217 25.2ZM126.869 30.525C126.869 33.775 125.019 37 121.319 40.2C117.669 43.35 111.994 46.15 104.294 48.6C104.294 48.65 104.294 48.725 104.294 48.825C104.294 50.475 104.494 51.8 104.894 52.8C105.294 53.75 106.169 54.225 107.519 54.225C109.519 54.225 111.744 53.625 114.194 52.425C116.694 51.175 119.269 49.6 121.919 47.7C124.619 45.75 127.244 43.7 129.794 41.55C132.344 39.4 134.694 37.375 136.844 35.475C139.044 33.525 140.894 31.95 142.394 30.75C143.944 29.5 144.969 28.875 145.469 28.875C146.519 28.875 147.394 29.275 148.094 30.075C148.844 30.875 149.219 32.075 149.219 33.675C149.219 34.575 149.169 35.65 149.069 36.9C151.269 33.1 153.819 29.975 156.719 27.525C159.619 25.025 162.469 23.175 165.269 21.975C168.119 20.725 170.544 20.1 172.544 20.1C174.794 20.1 176.319 20.55 177.119 21.45C177.919 22.3 178.319 23.2 178.319 24.15C178.319 24.7 178.194 25.25 177.944 25.8C177.744 26.3 177.194 26.85 176.294 27.45C175.444 28.05 174.019 28.75 172.019 29.55C169.369 30.55 166.844 31.725 164.444 33.075C162.094 34.425 159.919 36.275 157.919 38.625C155.969 40.925 154.194 44.025 152.594 47.925C151.044 51.775 149.744 56.725 148.694 62.775C148.344 64.475 147.794 65.625 147.044 66.225C146.294 66.875 145.419 67.2 144.419 67.2C144.319 67.2 144.144 67.2 143.894 67.2C143.444 67.25 142.969 67.2 142.469 67.05C142.019 66.95 141.569 66.525 141.119 65.775C140.719 65.075 140.394 63.85 140.144 62.1C139.894 60.35 139.769 57.85 139.769 54.6C139.769 52.65 139.844 50.6 139.994 48.45C140.194 46.25 140.444 43.975 140.744 41.625C138.194 44.125 135.469 46.65 132.569 49.2C129.669 51.75 126.669 54.1 123.569 56.25C120.519 58.35 117.519 60.05 114.569 61.35C111.669 62.65 108.969 63.3 106.469 63.3C103.119 63.3 100.369 62.225 98.2186 60.075C96.1186 57.875 95.0686 54.5 95.0686 49.95C95.0686 45.45 95.6686 41.375 96.8686 37.725C98.1186 34.025 99.7186 30.85 101.669 28.2C103.619 25.55 105.694 23.525 107.894 22.125C110.144 20.675 112.244 19.95 114.194 19.95C118.344 19.95 121.494 20.95 123.644 22.95C125.794 24.9 126.869 27.425 126.869 30.525ZM105.269 41.925C106.569 41.275 107.944 40.525 109.394 39.675C110.894 38.775 112.294 37.85 113.594 36.9C114.894 35.9 115.944 34.925 116.744 33.975C117.594 33.025 118.019 32.125 118.019 31.275C118.019 29.875 117.619 29.025 116.819 28.725C116.069 28.375 115.044 28.2 113.744 28.2C112.394 28.2 111.169 28.925 110.069 30.375C108.969 31.775 108.019 33.525 107.219 35.625C106.419 37.725 105.769 39.825 105.269 41.925ZM182.684 65.85C181.084 65.85 179.634 65.4 178.334 64.5C177.034 63.65 176.009 62.525 175.259 61.125C174.509 59.675 174.134 58.125 174.134 56.475C174.134 53.375 174.809 50.35 176.159 47.4C177.559 44.45 179.384 41.65 181.634 39C183.884 36.35 186.334 33.925 188.984 31.725C191.684 29.475 194.359 27.55 197.009 25.95C199.709 24.35 202.159 23.1 204.359 22.2C206.609 21.3 208.359 20.85 209.609 20.85C211.059 20.85 212.234 21.175 213.134 21.825C214.084 22.425 214.559 23.375 214.559 24.675C214.559 25.075 214.459 25.4 214.259 25.65C214.909 25.8 215.434 26.175 215.834 26.775C216.234 27.375 216.434 28.275 216.434 29.475C216.434 29.975 216.309 31.275 216.059 33.375C215.809 35.475 215.534 38.025 215.234 41.025C214.984 44.025 214.859 47.15 214.859 50.4C214.859 50.9 214.934 51.35 215.084 51.75C215.234 52.1 215.559 52.275 216.059 52.275C218.059 52.275 220.084 51.875 222.134 51.075C224.234 50.225 226.259 49.2 228.209 48C230.209 46.75 232.009 45.525 233.609 44.325C235.259 43.075 236.634 42.05 237.734 41.25C238.884 40.4 239.634 39.975 239.984 39.975C241.684 39.975 242.534 40.825 242.534 42.525C242.534 42.975 241.984 43.925 240.884 45.375C239.834 46.775 238.384 48.4 236.534 50.25C234.684 52.05 232.609 53.85 230.309 55.65C228.059 57.4 225.709 58.85 223.259 60C220.859 61.15 218.534 61.725 216.284 61.725C213.534 61.725 211.434 61.075 209.984 59.775C208.584 58.475 207.584 56.725 206.984 54.525C206.434 52.275 206.134 49.75 206.084 46.95C203.534 50.6 200.884 53.85 198.134 56.7C195.434 59.5 192.759 61.725 190.109 63.375C187.459 65.025 184.984 65.85 182.684 65.85ZM209.234 28.275C204.334 30.625 199.934 33.325 196.034 36.375C192.134 39.375 189.034 42.525 186.734 45.825C184.484 49.125 183.359 52.3 183.359 55.35C183.359 56.2 183.759 56.625 184.559 56.625C185.509 56.625 186.759 56.075 188.309 54.975C189.909 53.875 191.634 52.425 193.484 50.625C195.334 48.775 197.184 46.725 199.034 44.475C200.884 42.175 202.609 39.825 204.209 37.425C205.809 35.025 207.084 32.725 208.034 30.525C208.384 29.725 208.784 28.975 209.234 28.275ZM290.23 25.2C290.23 25.8 290.03 26.325 289.63 26.775C289.23 27.225 288.73 27.575 288.13 27.825C287.28 28.175 285.805 28.625 283.705 29.175C281.605 29.725 279.055 30.35 276.055 31.05C273.105 31.75 269.93 32.475 266.53 33.225C263.13 33.925 259.73 34.6 256.33 35.25C255.03 40.05 253.705 45 252.355 50.1C251.005 55.15 249.655 60.125 248.305 65.025C247.805 66.775 247.205 68.1 246.505 69C245.805 69.95 244.605 70.425 242.905 70.425C241.055 70.425 239.805 69.825 239.155 68.625C238.555 67.475 238.48 65.9 238.93 63.9C240.23 58.45 241.43 53.375 242.53 48.675C243.68 43.975 244.605 40.175 245.305 37.275C242.305 37.775 239.68 38.175 237.43 38.475C235.18 38.725 233.58 38.825 232.63 38.775C231.58 38.675 230.705 38.25 230.005 37.5C229.305 36.75 228.98 35.825 229.03 34.725C229.13 33.725 229.58 32.875 230.38 32.175C231.18 31.425 232.13 30.975 233.23 30.825C234.78 30.675 236.78 30.45 239.23 30.15C241.68 29.85 244.38 29.5 247.33 29.1C247.98 26.55 248.73 23.925 249.58 21.225C250.43 18.475 251.305 15.85 252.205 13.35C253.155 10.8 254.055 8.575 254.905 6.675C255.755 4.775 256.53 3.4 257.23 2.55C257.78 1.9 258.455 1.4 259.255 1.05C260.105 0.699996 260.93 0.524995 261.73 0.524995C262.78 0.524995 263.63 0.899996 264.28 1.65C264.93 2.4 265.255 3.275 265.255 4.275C265.255 4.675 265.23 5.1 265.18 5.55C265.13 5.95 265.03 6.35 264.88 6.75C263.93 9.25 262.905 12.275 261.805 15.825C260.755 19.375 259.655 23.275 258.505 27.525C262.255 26.975 265.93 26.425 269.53 25.875C273.18 25.275 276.48 24.725 279.43 24.225C282.43 23.675 284.83 23.2 286.63 22.8C287.63 22.45 288.48 22.525 289.18 23.025C289.88 23.475 290.23 24.2 290.23 25.2ZM281.195 62.125C279.795 62.125 278.545 61.65 277.445 60.7C276.395 59.75 275.87 58.2 275.87 56.05C275.87 54.9 276.02 53.275 276.32 51.175C276.67 49.075 277.12 46.8 277.67 44.35C278.22 41.85 278.82 39.375 279.47 36.925C280.17 34.475 280.845 32.3 281.495 30.4C282.145 28.45 282.72 27 283.22 26.05C283.87 24.9 284.47 24.2 285.02 23.95C285.62 23.65 286.195 23.5 286.745 23.5C287.745 23.5 288.67 23.8 289.52 24.4C290.42 25 290.87 26.325 290.87 28.375C290.87 29.175 290.72 30.475 290.42 32.275C290.12 34.025 289.745 36.075 289.295 38.425C288.845 40.775 288.345 43.2 287.795 45.7C287.295 48.2 286.795 50.575 286.295 52.825C285.845 55.025 285.47 56.875 285.17 58.375C284.92 59.625 284.395 60.55 283.595 61.15C282.845 61.8 282.045 62.125 281.195 62.125ZM289.82 16.075C288.17 16.075 286.645 15.6 285.245 14.65C283.845 13.65 283.145 12.125 283.145 10.075C283.145 8.375 283.57 7 284.42 5.95C285.27 4.9 286.27 4.15 287.42 3.7C288.62 3.2 289.67 2.95 290.57 2.95C291.47 2.95 292.47 3.15 293.57 3.55C294.67 3.9 295.62 4.575 296.42 5.575C297.27 6.525 297.695 7.9 297.695 9.7C297.695 10.9 297.27 12 296.42 13C295.57 13.95 294.52 14.7 293.27 15.25C292.07 15.8 290.92 16.075 289.82 16.075ZM312.289 62.925C310.989 62.925 309.839 62.3 308.839 61.05C307.889 59.8 307.164 57.875 306.664 55.275C306.264 53.075 305.914 50.575 305.614 47.775C305.314 44.975 305.039 42.225 304.789 39.525C304.589 36.775 304.439 34.375 304.339 32.325C304.239 30.275 304.189 28.875 304.189 28.125C304.189 25.425 304.664 23.2 305.614 21.45C306.564 19.65 308.389 18.75 311.089 18.75C312.239 18.75 313.114 19.25 313.714 20.25C314.314 21.2 314.614 22.525 314.614 24.225C314.614 25.275 314.614 26.6 314.614 28.2C314.664 29.75 314.714 31.5 314.764 33.45C314.814 35.6 314.864 37.925 314.914 40.425C315.014 42.875 315.064 45.325 315.064 47.775C316.814 45.025 318.689 42.1 320.689 39C322.689 35.85 324.639 32.8 326.539 29.85C328.489 26.9 330.239 24.3 331.789 22.05C333.339 19.75 334.514 18.125 335.314 17.175C336.014 16.325 336.864 15.6 337.864 15C338.864 14.35 339.914 14.025 341.014 14.025C342.214 14.025 343.214 14.5 344.014 15.45C344.814 16.4 345.214 17.5 345.214 18.75C345.214 19.7 345.014 20.6 344.614 21.45C344.264 22.3 343.814 23.1 343.264 23.85C341.764 25.95 339.989 28.4 337.939 31.2C335.939 34 333.839 36.95 331.639 40.05C329.439 43.1 327.289 46.05 325.189 48.9C323.139 51.75 321.314 54.275 319.714 56.475C318.414 58.325 317.364 59.725 316.564 60.675C315.764 61.575 315.039 62.175 314.389 62.475C313.789 62.775 313.089 62.925 312.289 62.925ZM357.133 65.55C354.033 65.55 351.533 64.475 349.633 62.325C347.733 60.125 346.783 56.6 346.783 51.75C346.783 48.65 347.133 45.55 347.833 42.45C348.583 39.3 349.608 36.325 350.908 33.525C352.258 30.675 353.808 28.15 355.558 25.95C357.358 23.75 359.333 22.025 361.483 20.775C363.633 19.475 365.858 18.825 368.158 18.825C372.058 18.825 375.108 19.875 377.308 21.975C379.508 24.075 380.608 26.75 380.608 30C380.608 32.5 379.908 34.775 378.508 36.825C377.158 38.825 375.308 40.625 372.958 42.225C370.608 43.825 367.983 45.275 365.083 46.575C362.183 47.875 359.208 49.05 356.158 50.1C355.908 51.9 355.783 53.5 355.783 54.9C355.783 55.75 356.258 56.175 357.208 56.175C359.458 56.175 361.858 55.825 364.408 55.125C367.008 54.375 369.633 53.425 372.283 52.275C374.933 51.075 377.483 49.85 379.933 48.6C382.383 47.3 384.608 46.075 386.608 44.925C388.658 43.725 390.333 42.775 391.633 42.075C392.983 41.325 393.858 40.95 394.258 40.95C395.358 40.95 396.158 41.275 396.658 41.925C397.158 42.575 397.408 43.275 397.408 44.025C397.408 44.375 396.733 45.15 395.383 46.35C394.083 47.55 392.283 48.975 389.983 50.625C387.733 52.225 385.183 53.9 382.333 55.65C379.533 57.35 376.608 58.975 373.558 60.525C370.558 62.025 367.633 63.225 364.783 64.125C361.983 65.075 359.433 65.55 357.133 65.55ZM357.433 43.425C359.483 42.225 361.508 40.975 363.508 39.675C365.558 38.325 367.258 36.825 368.608 35.175C369.958 33.475 370.633 31.5 370.633 29.25C370.633 28.6 370.458 28.175 370.108 27.975C369.758 27.725 369.258 27.6 368.608 27.6C366.858 27.6 365.258 28.375 363.808 29.925C362.408 31.475 361.158 33.475 360.058 35.925C359.008 38.325 358.133 40.825 357.433 43.425Z" fill="#227C9D"/>
<path d="M9.725 170.575C8.275 170.575 7.125 170.175 6.275 169.375C5.475 168.625 5.075 167.55 5.075 166.15C5.075 164.85 5.425 163.75 6.125 162.85C6.825 161.9 8.175 161 10.175 160.15C10.325 160.1 10.475 160.05 10.625 160C9.375 159.75 8.5 159.05 8 157.9C7.55 156.75 7.325 155.425 7.325 153.925C7.325 153.075 7.475 151.7 7.775 149.8C8.075 147.9 8.45 145.725 8.9 143.275C9.35 140.825 9.825 138.4 10.325 136C10.825 133.55 11.25 131.4 11.6 129.55C12.55 125.3 13.775 121.55 15.275 118.3C16.775 115.05 18.8 112.525 21.35 110.725C23.9 108.875 27.175 107.95 31.175 107.95C34.225 107.95 37.225 108.6 40.175 109.9C43.175 111.15 45.9 112.925 48.35 115.225C50.8 117.525 52.75 120.225 54.2 123.325C55.7 126.425 56.45 129.825 56.45 133.525C56.45 137.725 54.8 141.95 51.5 146.2C48.2 150.45 43.575 154.525 37.625 158.425C31.725 162.275 24.825 165.75 16.925 168.85C15.625 169.35 14.45 169.75 13.4 170.05C12.4 170.4 11.175 170.575 9.725 170.575ZM16.175 157.825C23.425 154.925 29.275 152.15 33.725 149.5C38.175 146.85 41.4 144.05 43.4 141.1C45.45 138.15 46.475 134.8 46.475 131.05C46.475 128.95 45.775 126.95 44.375 125.05C42.975 123.15 41.175 121.625 38.975 120.475C36.775 119.275 34.45 118.675 32 118.675C29.35 118.675 27.225 119.75 25.625 121.9C24.025 124 22.75 127.6 21.8 132.7C21.35 134.75 20.875 136.975 20.375 139.375C19.925 141.725 19.475 144 19.025 146.2C18.625 148.35 18.275 150.15 17.975 151.6C17.725 153.05 17.575 153.9 17.525 154.15C17.275 155.65 16.825 156.875 16.175 157.825ZM76.7615 168.55C73.6615 168.55 71.1615 167.475 69.2615 165.325C67.3615 163.125 66.4115 159.6 66.4115 154.75C66.4115 151.65 66.7615 148.55 67.4615 145.45C68.2115 142.3 69.2365 139.325 70.5365 136.525C71.8865 133.675 73.4365 131.15 75.1865 128.95C76.9865 126.75 78.9615 125.025 81.1115 123.775C83.2615 122.475 85.4865 121.825 87.7865 121.825C91.6865 121.825 94.7365 122.875 96.9365 124.975C99.1365 127.075 100.237 129.75 100.237 133C100.237 135.5 99.5365 137.775 98.1365 139.825C96.7865 141.825 94.9365 143.625 92.5865 145.225C90.2365 146.825 87.6115 148.275 84.7115 149.575C81.8115 150.875 78.8365 152.05 75.7865 153.1C75.5365 154.9 75.4115 156.5 75.4115 157.9C75.4115 158.75 75.8865 159.175 76.8365 159.175C79.0865 159.175 81.4865 158.825 84.0365 158.125C86.6365 157.375 89.2615 156.425 91.9115 155.275C94.5615 154.075 97.1115 152.85 99.5615 151.6C102.012 150.3 104.237 149.075 106.237 147.925C108.287 146.725 109.962 145.775 111.262 145.075C112.612 144.325 113.487 143.95 113.887 143.95C114.987 143.95 115.787 144.275 116.287 144.925C116.787 145.575 117.037 146.275 117.037 147.025C117.037 147.375 116.362 148.15 115.012 149.35C113.712 150.55 111.912 151.975 109.612 153.625C107.362 155.225 104.812 156.9 101.962 158.65C99.1615 160.35 96.2365 161.975 93.1865 163.525C90.1865 165.025 87.2615 166.225 84.4115 167.125C81.6115 168.075 79.0615 168.55 76.7615 168.55ZM77.0615 146.425C79.1115 145.225 81.1365 143.975 83.1365 142.675C85.1865 141.325 86.8865 139.825 88.2365 138.175C89.5865 136.475 90.2615 134.5 90.2615 132.25C90.2615 131.6 90.0865 131.175 89.7365 130.975C89.3865 130.725 88.8865 130.6 88.2365 130.6C86.4865 130.6 84.8865 131.375 83.4365 132.925C82.0365 134.475 80.7865 136.475 79.6865 138.925C78.6365 141.325 77.7615 143.825 77.0615 146.425ZM119.463 169.825C117.313 169.825 115.788 169.525 114.888 168.925C114.038 168.325 113.613 167.45 113.613 166.3C113.613 165.3 113.963 164.45 114.663 163.75C115.363 163 116.913 162.25 119.313 161.5C122.113 160.65 124.763 159.675 127.263 158.575C129.813 157.425 131.888 156.175 133.488 154.825C135.138 153.475 135.963 152.05 135.963 150.55C135.963 149.55 135.613 148.825 134.913 148.375C134.263 147.925 133.488 147.7 132.588 147.7C131.838 147.7 130.738 147.825 129.288 148.075C127.888 148.275 126.338 148.55 124.638 148.9C122.938 149.2 121.288 149.475 119.688 149.725C118.138 149.925 116.813 150.025 115.713 150.025C113.113 150.025 111.188 149.45 109.938 148.3C108.688 147.1 108.063 145.575 108.063 143.725C108.063 142.725 108.588 141.35 109.638 139.6C110.688 137.85 112.088 135.925 113.838 133.825C115.588 131.725 117.538 129.625 119.688 127.525C121.838 125.425 124.013 123.5 126.213 121.75C128.463 119.95 130.588 118.525 132.588 117.475C134.588 116.375 136.288 115.825 137.688 115.825C139.288 115.825 140.563 116.325 141.513 117.325C142.513 118.325 143.013 119.675 143.013 121.375C143.013 122.175 142.938 123.05 142.788 124C142.638 124.9 142.263 125.725 141.663 126.475C141.063 127.175 140.138 127.675 138.888 127.975C137.638 128.275 135.938 128.225 133.788 127.825C132.088 129.075 130.313 130.45 128.463 131.95C126.663 133.4 124.963 134.925 123.363 136.525C121.763 138.075 120.438 139.6 119.388 141.1C121.238 140.5 123.338 140.025 125.688 139.675C128.038 139.275 130.413 139.075 132.813 139.075C135.713 139.075 138.063 139.6 139.863 140.65C141.713 141.65 143.063 143 143.913 144.7C144.813 146.4 145.263 148.275 145.263 150.325C145.263 152.625 144.513 154.925 143.013 157.225C141.513 159.525 139.513 161.625 137.013 163.525C134.513 165.425 131.738 166.95 128.688 168.1C125.638 169.25 122.563 169.825 119.463 169.825ZM157.635 167.125C156.235 167.125 154.985 166.65 153.885 165.7C152.835 164.75 152.31 163.2 152.31 161.05C152.31 159.9 152.46 158.275 152.76 156.175C153.11 154.075 153.56 151.8 154.11 149.35C154.66 146.85 155.26 144.375 155.91 141.925C156.61 139.475 157.285 137.3 157.935 135.4C158.585 133.45 159.16 132 159.66 131.05C160.31 129.9 160.91 129.2 161.46 128.95C162.06 128.65 162.635 128.5 163.185 128.5C164.185 128.5 165.11 128.8 165.96 129.4C166.86 130 167.31 131.325 167.31 133.375C167.31 134.175 167.16 135.475 166.86 137.275C166.56 139.025 166.185 141.075 165.735 143.425C165.285 145.775 164.785 148.2 164.235 150.7C163.735 153.2 163.235 155.575 162.735 157.825C162.285 160.025 161.91 161.875 161.61 163.375C161.36 164.625 160.835 165.55 160.035 166.15C159.285 166.8 158.485 167.125 157.635 167.125ZM166.26 121.075C164.61 121.075 163.085 120.6 161.685 119.65C160.285 118.65 159.585 117.125 159.585 115.075C159.585 113.375 160.01 112 160.86 110.95C161.71 109.9 162.71 109.15 163.86 108.7C165.06 108.2 166.11 107.95 167.01 107.95C167.91 107.95 168.91 108.15 170.01 108.55C171.11 108.9 172.06 109.575 172.86 110.575C173.71 111.525 174.135 112.9 174.135 114.7C174.135 115.9 173.71 117 172.86 118C172.01 118.95 170.96 119.7 169.71 120.25C168.51 120.8 167.36 121.075 166.26 121.075ZM183.141 187.6C179.391 187.6 176.541 187.325 174.591 186.775C172.691 186.225 171.391 185.5 170.691 184.6C169.991 183.75 169.641 182.875 169.641 181.975C169.641 180.725 170.041 179.7 170.841 178.9C171.691 178.1 172.791 177.7 174.141 177.7C175.041 177.7 176.341 177.825 178.041 178.075C179.741 178.325 181.441 178.45 183.141 178.45C188.141 178.45 192.266 177.25 195.516 174.85C198.766 172.5 201.316 168.925 203.166 164.125C205.016 159.275 206.291 153.175 206.991 145.825C203.541 151.475 199.716 156 195.516 159.4C191.366 162.8 187.041 164.5 182.541 164.5C177.241 164.5 174.591 161.9 174.591 156.7C174.591 154.2 175.266 151.575 176.616 148.825C177.966 146.075 179.766 143.35 182.016 140.65C184.266 137.95 186.741 135.4 189.441 133C192.141 130.55 194.841 128.4 197.541 126.55C200.291 124.7 202.841 123.25 205.191 122.2C207.541 121.1 209.441 120.55 210.891 120.55C212.041 120.55 213.041 120.75 213.891 121.15C214.791 121.55 215.491 122.35 215.991 123.55C216.491 124.7 216.741 126.4 216.741 128.65C216.741 134.9 216.516 140.95 216.066 146.8C215.616 152.6 214.741 157.975 213.441 162.925C212.141 167.875 210.241 172.2 207.741 175.9C205.291 179.6 202.066 182.475 198.066 184.525C194.066 186.575 189.091 187.6 183.141 187.6ZM184.191 155.2C184.191 155.55 184.341 155.725 184.641 155.725C185.641 155.725 186.991 155.2 188.691 154.15C190.391 153.05 192.216 151.6 194.166 149.8C196.166 147.95 198.116 145.9 200.016 143.65C201.916 141.35 203.591 138.975 205.041 136.525C206.541 134.075 207.616 131.7 208.266 129.4C205.666 130.9 202.966 132.65 200.166 134.65C197.416 136.6 194.816 138.7 192.366 140.95C189.966 143.2 187.991 145.55 186.441 148C184.941 150.4 184.191 152.8 184.191 155.2ZM236.816 166C235.616 166 234.416 165.6 233.216 164.8C232.066 163.95 231.116 162.75 230.366 161.2C229.616 159.6 229.241 157.675 229.241 155.425C229.241 152.425 229.641 149.225 230.441 145.825C231.291 142.425 232.316 139.025 233.516 135.625C234.716 132.225 235.891 129.025 237.041 126.025C237.591 124.575 238.266 123.6 239.066 123.1C239.866 122.55 240.916 122.275 242.216 122.275C245.166 122.275 246.641 123.75 246.641 126.7C246.641 127.2 246.416 128.175 245.966 129.625C245.516 131.025 244.916 132.75 244.166 134.8C243.466 136.85 242.716 139.075 241.916 141.475C241.166 143.825 240.466 146.225 239.816 148.675C239.216 151.075 238.741 153.35 238.391 155.5C239.541 153.75 240.816 151.575 242.216 148.975C243.666 146.325 245.191 143.55 246.791 140.65C248.441 137.75 250.091 135.05 251.741 132.55C253.391 130 255.016 127.925 256.616 126.325C258.216 124.725 259.741 123.925 261.191 123.925C262.441 123.925 263.616 124.175 264.716 124.675C265.866 125.125 266.866 126.025 267.716 127.375C268.566 128.675 269.216 130.55 269.666 133C270.166 135.45 270.416 138.675 270.416 142.675C270.416 144.675 270.591 146.625 270.941 148.525C271.341 150.375 271.991 151.925 272.891 153.175C273.791 154.375 275.066 154.975 276.716 154.975C279.566 154.975 282.116 154.45 284.366 153.4C286.616 152.35 288.591 151.125 290.291 149.725C291.991 148.325 293.416 147.1 294.566 146.05C295.266 145.35 295.866 144.8 296.366 144.4C296.916 144 297.366 143.8 297.716 143.8C298.766 143.8 299.516 144.075 299.966 144.625C300.466 145.175 300.716 145.925 300.716 146.875C300.716 147.375 300.291 148.3 299.441 149.65C298.591 151 297.391 152.55 295.841 154.3C294.341 156 292.616 157.65 290.666 159.25C288.716 160.85 286.616 162.175 284.366 163.225C282.116 164.275 279.816 164.8 277.466 164.8C273.516 164.8 270.241 164.1 267.641 162.7C265.091 161.25 263.191 158.85 261.941 155.5C260.691 152.1 260.066 147.475 260.066 141.625C260.066 141.475 260.066 141.225 260.066 140.875C260.066 139.325 260.041 137.95 259.991 136.75C259.991 135.55 259.916 134.575 259.766 133.825C258.916 135.375 257.891 137.225 256.691 139.375C255.541 141.525 254.291 143.825 252.941 146.275C251.591 148.675 250.191 151.05 248.741 153.4C247.291 155.7 245.841 157.8 244.391 159.7C242.991 161.6 241.641 163.125 240.341 164.275C239.041 165.425 237.866 166 236.816 166Z" fill="#52BAE0"/>
</svg>
